<?xml version="1.0" encoding="utf-8"?>
<!-- Generator: Adobe Illustrator 16.0.0, SVG Export Plug-In . SVG Version: 6.00 Build 0)  -->
<!DOCTYPE svg PUBLIC "-//W3C//DTD SVG 1.1//EN" "http://www.w3.org/Graphics/SVG/1.1/DTD/svg11.dtd">
<svg version="1.1" id="Layer_1" xmlns:sketch="http://www.bohemiancoding.com/sketch/ns"
	 xmlns="http://www.w3.org/2000/svg" xmlns:xlink="http://www.w3.org/1999/xlink" x="0px" y="0px" width="32px" height="32px"
	 viewBox="0 0 32 32" enable-background="new 0 0 32 32" xml:space="preserve">
<title>Fill 23</title>
<desc>Created with Sketch.</desc>
<g id="Page-1" sketch:type="MSPage">
	<g id="Icon-Set" transform="translate(-568.000000, -1087.000000)" sketch:type="MSLayerGroup">
		<path id="Fill-23" sketch:type="MSShapeGroup" fill="#666666" d="M584,1117c-7.732,0-14-6.27-14-14c0-7.73,6.268-14,14-14
			c7.732,0,14,6.27,14,14C598,1110.73,591.732,1117,584,1117L584,1117z M584,1087c-8.837,0-16,7.16-16,16s7.163,16,16,16
			s16-7.16,16-16S592.837,1087,584,1087L584,1087z M592.081,1102.983c-0.003-0.554-0.454-1.005-1.008-1.007l-6.079,0.001
			l0.002-5.994c0-0.552-0.449-1-1-1c-0.552,0-1.005,0.453-1.004,1.004l0.004,5.987l-6.036,0.002
			c-0.554-0.002-1.006,0.45-1.011,1.011c0.002,0.555,0.454,1.006,1.008,1.009l6.036-0.003l-0.003,5.994c0,0.552,0.449,1,1,1
			c0.552,0,1.004-0.452,1.004-1.004l-0.005-5.987l6.078-0.002C591.63,1103.988,592.075,1103.543,592.081,1102.983L592.081,1102.983z
			"/>
	</g>
</g>
</svg>
