<?xml version="1.0" encoding="utf-8"?>
<!-- Generator: Adobe Illustrator 16.0.0, SVG Export Plug-In . SVG Version: 6.00 Build 0)  -->
<!DOCTYPE svg PUBLIC "-//W3C//DTD SVG 1.1//EN" "http://www.w3.org/Graphics/SVG/1.1/DTD/svg11.dtd">
<svg version="1.1" id="Layer_1" xmlns="http://www.w3.org/2000/svg" xmlns:xlink="http://www.w3.org/1999/xlink" x="0px" y="0px"
	 width="100px" height="100px" viewBox="14 14 100 100" enable-background="new 14 14 100 100" xml:space="preserve">
<ellipse fill="#CCCCCC" cx="64" cy="108.624" rx="49.333" ry="5.376"/>
<path display="none" fill="#EEF1F5" d="M110.605,105.316c0,0.536-0.434,0.971-0.971,0.971h-91.52c-0.536,0-0.971-0.435-0.971-0.971
	V40.221c0-0.537,0.435-0.971,0.971-0.971h91.52c0.537,0,0.971,0.435,0.971,0.971V105.316z"/>
<path fill="#D8DCE2" d="M107.063,106.693c0,1.504-1.219,2.723-2.722,2.723h-79.35c-1.503,0-2.722-1.219-2.722-2.723V46.708
	c0-1.502,1.219-2.721,2.722-2.721h79.35c1.503,0,2.722,1.219,2.722,2.721V106.693z"/>
<path fill="#EFEFEF" d="M58.432,62.32c0,0-2.9,15.673,7.329,21.496c0,0-8.982-7.487-5.343-19.688L58.432,62.32z"/>
<circle fill="#B7B9BC" cx="26.5" cy="48.498" r="1.881"/>
<path fill="#334D5C" d="M22.27,52.328v54.208c0,1.592,1.219,2.881,2.722,2.881h79.35c1.503,0,2.722-1.289,2.722-2.881V52.328H22.27z
	"/>
<circle fill="#B7B9BC" cx="31.943" cy="48.498" r="1.881"/>
<circle fill="#B7B9BC" cx="37.387" cy="48.498" r="1.881"/>
<g>
	<path fill="#F9F9F9" d="M28.985,63.129v0.329c0,0.122-0.104,0.225-0.23,0.225c-0.139,0-0.242-0.104-0.242-0.225v-0.329
		c-0.473-0.035-0.98-0.213-1.2-0.49c-0.041-0.052-0.063-0.109-0.063-0.179c0-0.173,0.144-0.329,0.317-0.329
		c0.069,0,0.133,0.023,0.19,0.063c0.202,0.156,0.456,0.283,0.756,0.323v-1.102c-0.594-0.15-1.223-0.363-1.223-1.119
		c0-0.588,0.473-1.056,1.223-1.119v-0.346c0-0.121,0.104-0.225,0.242-0.225c0.127,0,0.23,0.104,0.23,0.225v0.352
		c0.364,0.041,0.791,0.167,0.998,0.416c0.041,0.046,0.063,0.109,0.063,0.173c0,0.185-0.162,0.323-0.334,0.323
		c-0.041,0-0.081-0.012-0.121-0.029c-0.19-0.104-0.398-0.219-0.606-0.26v0.98c0.594,0.162,1.246,0.387,1.246,1.16
		C30.231,62.541,29.845,63.048,28.985,63.129z M28.513,59.778c-0.317,0.035-0.519,0.213-0.519,0.467
		c0,0.225,0.219,0.334,0.519,0.421V59.778z M28.985,61.543v0.975c0.387-0.058,0.542-0.283,0.542-0.502
		C29.528,61.756,29.291,61.635,28.985,61.543z"/>
	<path fill="#F9F9F9" d="M34.506,62.829c-0.202,0.185-0.49,0.312-0.894,0.312c-0.848,0-1.442-0.617-1.442-1.465
		c0-0.842,0.594-1.459,1.442-1.459c0.427,0,0.785,0.15,0.94,0.375c0.029,0.035,0.041,0.081,0.041,0.126
		c0,0.162-0.144,0.266-0.289,0.266c-0.063,0-0.126-0.018-0.179-0.058c-0.144-0.11-0.306-0.162-0.484-0.162
		c-0.502,0-0.836,0.375-0.836,0.911c0,0.537,0.334,0.917,0.836,0.917c0.185,0,0.34-0.058,0.484-0.167
		c0.058-0.041,0.116-0.058,0.179-0.058c0.15,0,0.294,0.109,0.294,0.271C34.598,62.708,34.569,62.783,34.506,62.829z"/>
	<path fill="#F9F9F9" d="M37.399,63.106c-0.173,0-0.306-0.139-0.306-0.306v-0.098c-0.202,0.225-0.548,0.438-0.986,0.438
		c-0.6,0-0.894-0.317-0.894-0.883v-1.707c0-0.162,0.133-0.3,0.317-0.3c0.162,0,0.3,0.138,0.3,0.3v1.482
		c0,0.427,0.219,0.56,0.554,0.56c0.306,0,0.565-0.173,0.709-0.358v-1.684c0-0.162,0.133-0.3,0.317-0.3c0.162,0,0.3,0.138,0.3,0.3
		v2.25C37.71,62.967,37.572,63.106,37.399,63.106z"/>
	<path fill="#F9F9F9" d="M39.745,60.839c-0.248,0.023-0.485,0.126-0.635,0.34V62.8c0,0.167-0.138,0.306-0.306,0.306h-0.012
		c-0.167,0-0.3-0.139-0.3-0.306v-2.25c0-0.162,0.133-0.3,0.317-0.3c0.162,0,0.3,0.138,0.3,0.3v0.144
		c0.15-0.202,0.369-0.444,0.664-0.444c0.167,0,0.271,0.115,0.271,0.265C40.045,60.701,39.918,60.816,39.745,60.839z"/>
	<path fill="#F9F9F9" d="M40.808,63.106c-0.173,0-0.306-0.139-0.306-0.306v-3.311c0-0.161,0.133-0.3,0.317-0.3
		c0.162,0,0.3,0.139,0.3,0.3V62.8C41.12,62.967,40.981,63.106,40.808,63.106z"/>
	<path fill="#F9F9F9" d="M47.104,63.106c-0.167,0-0.306-0.139-0.306-0.306v-1.54c0-0.294-0.127-0.496-0.45-0.496
		c-0.271,0-0.519,0.19-0.64,0.363V62.8c0,0.167-0.139,0.306-0.312,0.306c-0.173,0-0.306-0.139-0.306-0.306v-1.54
		c0-0.294-0.133-0.496-0.456-0.496c-0.266,0-0.514,0.19-0.635,0.369V62.8c0,0.167-0.138,0.306-0.312,0.306
		c-0.173,0-0.306-0.139-0.306-0.306v-2.25c0-0.162,0.133-0.3,0.317-0.3c0.162,0,0.3,0.138,0.3,0.3v0.115
		c0.115-0.173,0.484-0.45,0.906-0.45c0.415,0,0.669,0.208,0.761,0.513c0.162-0.254,0.531-0.513,0.952-0.513
		c0.508,0,0.802,0.277,0.802,0.842V62.8C47.422,62.967,47.283,63.106,47.104,63.106z"/>
	<path fill="#F9F9F9" d="M50.514,61.877H48.68c0.041,0.415,0.357,0.767,0.876,0.767c0.202,0,0.433-0.063,0.623-0.185
		c0.041-0.023,0.086-0.035,0.127-0.035c0.127,0,0.26,0.104,0.26,0.254c0,0.317-0.715,0.461-1.073,0.461
		c-0.836,0-1.459-0.583-1.459-1.465c0-0.807,0.588-1.459,1.413-1.459c0.652,0,1.125,0.392,1.298,0.992
		c0.035,0.115,0.069,0.248,0.069,0.369C50.813,61.739,50.681,61.877,50.514,61.877z M49.447,60.712
		c-0.508,0-0.744,0.404-0.773,0.738h1.546C50.208,61.127,49.989,60.712,49.447,60.712z"/>
	<path fill="#F9F9F9" d="M53.684,63.106c-0.173,0-0.306-0.139-0.306-0.306v-0.11c-0.219,0.283-0.537,0.45-0.894,0.45
		c-0.709,0-1.234-0.542-1.234-1.459c0-0.9,0.519-1.465,1.234-1.465c0.346,0,0.669,0.162,0.894,0.45v-1.171
		c0-0.167,0.132-0.306,0.317-0.306c0.162,0,0.3,0.139,0.3,0.306V62.8C53.996,62.967,53.857,63.106,53.684,63.106z M53.378,61.133
		c-0.139-0.208-0.427-0.369-0.715-0.369c-0.473,0-0.779,0.381-0.779,0.917c0,0.531,0.306,0.912,0.779,0.912
		c0.289,0,0.577-0.162,0.715-0.364V61.133z"/>
	<path fill="#F9F9F9" d="M55.471,59.564c0,0.213-0.173,0.381-0.381,0.381c-0.208,0-0.38-0.167-0.38-0.381
		c0-0.208,0.173-0.375,0.38-0.375C55.298,59.189,55.471,59.357,55.471,59.564z M55.09,63.106c-0.173,0-0.306-0.139-0.306-0.306
		v-2.25c0-0.162,0.133-0.3,0.317-0.3c0.162,0,0.3,0.138,0.3,0.3v2.25C55.401,62.967,55.263,63.106,55.09,63.106z"/>
	<path fill="#F9F9F9" d="M58.189,63.106h-0.035c-0.081,0-0.277-0.069-0.277-0.283v-0.052c-0.202,0.236-0.531,0.369-0.894,0.369
		c-0.456,0-0.975-0.306-0.975-0.923c0-0.64,0.519-0.906,0.975-0.906c0.369,0,0.698,0.121,0.894,0.358v-0.427
		c0-0.317-0.265-0.513-0.646-0.513c-0.242,0-0.461,0.063-0.663,0.213c-0.035,0.023-0.081,0.041-0.127,0.041
		c-0.115,0-0.242-0.092-0.242-0.242c0-0.046,0.017-0.098,0.046-0.133c0.219-0.277,0.732-0.392,1.084-0.392
		c0.617,0,1.165,0.259,1.165,1.009V62.8C58.495,62.967,58.356,63.106,58.189,63.106z M57.877,62.016
		c-0.138-0.185-0.392-0.277-0.658-0.277c-0.329,0-0.583,0.185-0.583,0.49c0,0.294,0.254,0.485,0.583,0.485
		c0.266,0,0.52-0.092,0.658-0.283V62.016z"/>
	<path fill="#F9F9F9" d="M60.788,63.141c-0.346,0-0.663-0.156-0.888-0.45v1.177c0,0.162-0.138,0.3-0.312,0.3
		c-0.173,0-0.306-0.138-0.306-0.3v-3.316c0-0.162,0.133-0.3,0.317-0.3c0.162,0,0.3,0.138,0.3,0.3v0.109
		c0.208-0.277,0.531-0.444,0.888-0.444c0.721,0,1.234,0.542,1.234,1.459C62.022,62.593,61.509,63.141,60.788,63.141z M60.604,60.764
		c-0.277,0-0.571,0.167-0.704,0.369v1.09c0.133,0.196,0.427,0.369,0.704,0.369c0.473,0,0.779-0.381,0.779-0.917
		C61.382,61.145,61.077,60.764,60.604,60.764z"/>
	<path fill="#F9F9F9" d="M63.313,59.564c0,0.213-0.173,0.381-0.381,0.381c-0.208,0-0.38-0.167-0.38-0.381
		c0-0.208,0.173-0.375,0.38-0.375C63.14,59.189,63.313,59.357,63.313,59.564z M62.932,63.106c-0.173,0-0.306-0.139-0.306-0.306
		v-2.25c0-0.162,0.133-0.3,0.317-0.3c0.162,0,0.3,0.138,0.3,0.3v2.25C63.244,62.967,63.105,63.106,62.932,63.106z"/>
	<path fill="#F9F9F9" d="M65.154,64.202c-0.369,0-0.842-0.081-1.067-0.34c-0.029-0.04-0.052-0.098-0.052-0.156
		c0-0.15,0.121-0.259,0.265-0.259c0.046,0,0.092,0.011,0.139,0.04c0.207,0.15,0.438,0.208,0.715,0.208
		c0.393,0,0.819-0.179,0.819-0.756v-0.323c-0.214,0.277-0.53,0.456-0.889,0.456c-0.709,0-1.234-0.508-1.234-1.425
		c0-0.905,0.519-1.43,1.234-1.43c0.347,0,0.664,0.162,0.889,0.45v-0.109c0-0.167,0.133-0.306,0.317-0.306
		c0.161,0,0.3,0.138,0.3,0.306v2.365C66.591,63.931,65.841,64.202,65.154,64.202z M65.974,61.133
		c-0.133-0.208-0.427-0.369-0.71-0.369c-0.473,0-0.778,0.352-0.778,0.882c0,0.531,0.306,0.883,0.778,0.883
		c0.283,0,0.577-0.167,0.71-0.375V61.133z"/>
	<path fill="#F9F9F9" d="M67.696,63.135c-0.225,0-0.409-0.19-0.409-0.41c0-0.225,0.185-0.409,0.409-0.409
		c0.226,0,0.41,0.185,0.41,0.409C68.106,62.944,67.922,63.135,67.696,63.135z"/>
	<path fill="#F9F9F9" d="M70.807,63.106h-0.034c-0.081,0-0.277-0.069-0.277-0.283v-0.052c-0.202,0.236-0.53,0.369-0.894,0.369
		c-0.456,0-0.976-0.306-0.976-0.923c0-0.64,0.52-0.906,0.976-0.906c0.369,0,0.697,0.121,0.894,0.358v-0.427
		c0-0.317-0.266-0.513-0.646-0.513c-0.242,0-0.462,0.063-0.664,0.213c-0.034,0.023-0.08,0.041-0.127,0.041
		c-0.115,0-0.242-0.092-0.242-0.242c0-0.046,0.018-0.098,0.047-0.133c0.219-0.277,0.732-0.392,1.084-0.392
		c0.617,0,1.165,0.259,1.165,1.009V62.8C71.112,62.967,70.974,63.106,70.807,63.106z M70.495,62.016
		c-0.139-0.185-0.393-0.277-0.657-0.277c-0.329,0-0.583,0.185-0.583,0.49c0,0.294,0.254,0.485,0.583,0.485
		c0.265,0,0.519-0.092,0.657-0.283V62.016z"/>
	<path fill="#F9F9F9" d="M73.406,63.141c-0.346,0-0.663-0.156-0.888-0.45v1.177c0,0.162-0.139,0.3-0.312,0.3
		c-0.174,0-0.306-0.138-0.306-0.3v-3.316c0-0.162,0.132-0.3,0.316-0.3c0.162,0,0.301,0.138,0.301,0.3v0.109
		c0.207-0.277,0.53-0.444,0.888-0.444c0.721,0,1.234,0.542,1.234,1.459C74.641,62.593,74.127,63.141,73.406,63.141z M73.222,60.764
		c-0.276,0-0.571,0.167-0.703,0.369v1.09c0.132,0.196,0.427,0.369,0.703,0.369c0.473,0,0.778-0.381,0.778-0.917
		C74,61.145,73.694,60.764,73.222,60.764z"/>
	<path fill="#F9F9F9" d="M75.931,59.564c0,0.213-0.173,0.381-0.38,0.381c-0.208,0-0.381-0.167-0.381-0.381
		c0-0.208,0.173-0.375,0.381-0.375C75.758,59.189,75.931,59.357,75.931,59.564z M75.551,63.106c-0.174,0-0.306-0.139-0.306-0.306
		v-2.25c0-0.162,0.132-0.3,0.316-0.3c0.162,0,0.301,0.138,0.301,0.3v2.25C75.862,62.967,75.724,63.106,75.551,63.106z"/>
</g>
<g>
	<path fill="#F9F9F9" d="M30.578,69.438c0.046,0.058,0.075,0.133,0.075,0.202c0,0.179-0.15,0.316-0.329,0.316
		c-0.086,0-0.179-0.034-0.248-0.109c-0.219-0.248-0.537-0.397-0.854-0.397c-0.756,0-1.315,0.576-1.315,1.378
		c0,0.796,0.56,1.379,1.315,1.379c0.317,0,0.634-0.139,0.854-0.393c0.069-0.069,0.162-0.109,0.254-0.109
		c0.179,0,0.317,0.145,0.317,0.312c0,0.069-0.023,0.145-0.069,0.202c-0.294,0.334-0.727,0.6-1.355,0.6
		c-1.136,0-2.019-0.808-2.019-1.99s0.883-1.989,2.019-1.989C29.851,68.839,30.284,69.104,30.578,69.438z"/>
	<path fill="#F9F9F9" d="M32.556,70.517c-0.248,0.023-0.485,0.127-0.635,0.341v1.62c0,0.168-0.138,0.306-0.306,0.306h-0.012
		c-0.167,0-0.3-0.138-0.3-0.306v-2.249c0-0.161,0.133-0.3,0.317-0.3c0.162,0,0.3,0.139,0.3,0.3v0.145
		c0.15-0.202,0.369-0.444,0.664-0.444c0.167,0,0.271,0.115,0.271,0.266C32.855,70.379,32.729,70.494,32.556,70.517z"/>
	<path fill="#F9F9F9" d="M35.621,71.555h-1.834c0.041,0.416,0.357,0.768,0.876,0.768c0.202,0,0.433-0.063,0.623-0.185
		c0.041-0.023,0.086-0.034,0.127-0.034c0.127,0,0.26,0.104,0.26,0.253c0,0.317-0.715,0.462-1.073,0.462
		c-0.836,0-1.459-0.583-1.459-1.465c0-0.808,0.588-1.46,1.413-1.46c0.652,0,1.125,0.393,1.298,0.992
		c0.035,0.115,0.069,0.248,0.069,0.369C35.921,71.417,35.788,71.555,35.621,71.555z M34.554,70.39c-0.508,0-0.744,0.404-0.773,0.738
		h1.546C35.315,70.806,35.096,70.39,34.554,70.39z"/>
	<path fill="#F9F9F9" d="M38.538,72.783h-0.035c-0.081,0-0.277-0.068-0.277-0.282v-0.052c-0.202,0.236-0.531,0.369-0.894,0.369
		c-0.456,0-0.975-0.306-0.975-0.923c0-0.641,0.519-0.905,0.975-0.905c0.369,0,0.698,0.121,0.894,0.357v-0.427
		c0-0.317-0.265-0.514-0.646-0.514c-0.242,0-0.461,0.063-0.663,0.214c-0.035,0.022-0.081,0.04-0.127,0.04
		c-0.115,0-0.242-0.093-0.242-0.242c0-0.046,0.017-0.099,0.046-0.133c0.219-0.276,0.732-0.393,1.084-0.393
		c0.617,0,1.165,0.26,1.165,1.01v1.574C38.843,72.646,38.705,72.783,38.538,72.783z M38.226,71.693
		c-0.138-0.185-0.392-0.276-0.658-0.276c-0.329,0-0.583,0.185-0.583,0.49c0,0.294,0.254,0.484,0.583,0.484
		c0.266,0,0.52-0.093,0.658-0.283V71.693z"/>
	<path fill="#F9F9F9" d="M40.474,72.818c-0.473,0-0.721-0.254-0.721-0.721v-1.593h-0.23c-0.144,0-0.266-0.121-0.266-0.276
		c0-0.145,0.122-0.266,0.266-0.266h0.23v-0.49c0-0.167,0.139-0.306,0.317-0.306c0.167,0,0.3,0.139,0.3,0.306v0.49h0.34
		c0.145,0,0.26,0.121,0.26,0.277c0,0.144-0.115,0.265-0.26,0.265h-0.34v1.437c0,0.214,0.121,0.329,0.266,0.329
		c0.04,0,0.092-0.018,0.126-0.018c0.167,0,0.271,0.115,0.271,0.266C41.033,72.703,40.866,72.818,40.474,72.818z"/>
	<path fill="#F9F9F9" d="M42.171,69.242c0,0.214-0.173,0.381-0.381,0.381c-0.208,0-0.38-0.167-0.38-0.381
		c0-0.208,0.173-0.375,0.38-0.375C41.999,68.867,42.171,69.034,42.171,69.242z M41.791,72.783c-0.173,0-0.306-0.138-0.306-0.306
		v-2.249c0-0.161,0.133-0.3,0.317-0.3c0.162,0,0.3,0.139,0.3,0.3v2.249C42.102,72.646,41.964,72.783,41.791,72.783z"/>
	<path fill="#F9F9F9" d="M45.068,72.783c-0.173,0-0.306-0.138-0.306-0.306v-1.465c0-0.427-0.219-0.571-0.56-0.571
		c-0.306,0-0.571,0.18-0.704,0.369v1.667c0,0.168-0.138,0.306-0.312,0.306c-0.173,0-0.306-0.138-0.306-0.306v-2.249
		c0-0.161,0.133-0.3,0.317-0.3c0.162,0,0.3,0.139,0.3,0.3v0.115c0.185-0.219,0.537-0.45,0.98-0.45c0.6,0,0.9,0.329,0.9,0.895v1.689
		C45.38,72.646,45.242,72.783,45.068,72.783z"/>
	<path fill="#F9F9F9" d="M47.293,73.88c-0.369,0-0.842-0.081-1.067-0.341c-0.029-0.04-0.052-0.098-0.052-0.155
		c0-0.15,0.121-0.26,0.265-0.26c0.046,0,0.092,0.012,0.139,0.04c0.208,0.15,0.438,0.208,0.715,0.208
		c0.393,0,0.819-0.179,0.819-0.756v-0.323c-0.213,0.277-0.531,0.456-0.888,0.456c-0.709,0-1.234-0.508-1.234-1.425
		c0-0.905,0.519-1.431,1.234-1.431c0.346,0,0.663,0.162,0.888,0.45v-0.109c0-0.167,0.133-0.306,0.317-0.306
		c0.161,0,0.3,0.139,0.3,0.306v2.364C48.729,73.608,47.979,73.88,47.293,73.88z M48.112,70.811
		c-0.133-0.207-0.427-0.369-0.709-0.369c-0.473,0-0.779,0.353-0.779,0.883c0,0.531,0.306,0.883,0.779,0.883
		c0.283,0,0.577-0.167,0.709-0.375V70.811z"/>
	<path fill="#F9F9F9" d="M53.378,70.344l-1.188,2.901c-0.185,0.456-0.514,0.635-0.906,0.635c-0.213,0-0.41-0.081-0.41-0.277
		c0-0.149,0.121-0.276,0.289-0.276c0.041,0,0.075,0.006,0.115,0c0.139-0.012,0.254-0.075,0.323-0.231l0.138-0.312l-0.998-2.445
		c-0.012-0.034-0.018-0.069-0.018-0.104c0-0.15,0.121-0.306,0.312-0.306c0.121,0,0.236,0.075,0.289,0.202l0.738,1.903l0.738-1.903
		c0.04-0.121,0.161-0.202,0.294-0.202c0.179,0,0.306,0.149,0.306,0.3C53.401,70.269,53.396,70.31,53.378,70.344z"/>
	<path fill="#F9F9F9" d="M55.176,72.818c-0.894,0-1.436-0.663-1.436-1.465c0-0.796,0.542-1.46,1.436-1.46s1.437,0.664,1.437,1.46
		C56.612,72.155,56.07,72.818,55.176,72.818z M55.176,70.441c-0.513,0-0.796,0.428-0.796,0.912c0,0.49,0.283,0.917,0.796,0.917
		c0.508,0,0.79-0.427,0.79-0.917C55.966,70.869,55.684,70.441,55.176,70.441z"/>
	<path fill="#F9F9F9" d="M59.408,72.783c-0.173,0-0.306-0.138-0.306-0.306V72.38c-0.202,0.225-0.548,0.438-0.986,0.438
		c-0.6,0-0.894-0.317-0.894-0.883v-1.707c0-0.161,0.133-0.3,0.317-0.3c0.162,0,0.3,0.139,0.3,0.3v1.482
		c0,0.427,0.219,0.56,0.554,0.56c0.306,0,0.565-0.173,0.709-0.357v-1.685c0-0.161,0.133-0.3,0.317-0.3c0.162,0,0.3,0.139,0.3,0.3
		v2.249C59.719,72.646,59.581,72.783,59.408,72.783z"/>
	<path fill="#F9F9F9" d="M61.754,70.517c-0.248,0.023-0.485,0.127-0.635,0.341v1.62c0,0.168-0.138,0.306-0.306,0.306h-0.012
		c-0.167,0-0.3-0.138-0.3-0.306v-2.249c0-0.161,0.133-0.3,0.317-0.3c0.162,0,0.3,0.139,0.3,0.3v0.145
		c0.15-0.202,0.369-0.444,0.664-0.444c0.167,0,0.271,0.115,0.271,0.266C62.054,70.379,61.927,70.494,61.754,70.517z"/>
	<path fill="#F9F9F9" d="M67.307,69.357l-1.2,3.062c-0.086,0.22-0.306,0.363-0.53,0.363h-0.058c-0.23,0-0.45-0.144-0.536-0.363
		l-1.2-3.062c-0.017-0.04-0.023-0.086-0.023-0.133c0-0.167,0.144-0.357,0.363-0.357c0.15,0,0.289,0.093,0.34,0.236l1.084,2.896
		l1.079-2.896c0.052-0.139,0.19-0.236,0.34-0.236c0.214,0,0.369,0.173,0.369,0.357C67.335,69.271,67.324,69.317,67.307,69.357z"/>
	<path fill="#F9F9F9" d="M69.607,71.318h-1.016v1.125c0,0.185-0.155,0.34-0.352,0.34c-0.185,0-0.335-0.155-0.335-0.34v-3.126
		c0-0.226,0.185-0.415,0.416-0.415h1.286c0.808,0,1.257,0.554,1.257,1.211C70.864,70.765,70.409,71.318,69.607,71.318z
		 M69.515,69.508h-0.923v1.205h0.923c0.375,0,0.646-0.242,0.646-0.6C70.161,69.744,69.89,69.508,69.515,69.508z"/>
	<path fill="#F9F9F9" d="M72.749,72.818c-0.565,0-1.165-0.185-1.425-0.49c-0.046-0.058-0.069-0.121-0.069-0.19
		c0-0.179,0.156-0.329,0.329-0.329c0.063,0,0.133,0.018,0.185,0.058c0.265,0.202,0.605,0.347,1.009,0.347
		c0.543,0,0.762-0.271,0.762-0.52c0-0.796-2.238-0.3-2.238-1.719c0-0.641,0.554-1.131,1.402-1.131c0.461,0,1.038,0.145,1.292,0.422
		c0.046,0.052,0.069,0.121,0.069,0.185c0,0.179-0.168,0.316-0.335,0.316c-0.063,0-0.127-0.017-0.185-0.058
		c-0.271-0.179-0.588-0.259-0.899-0.259c-0.393,0-0.641,0.19-0.641,0.473c0,0.709,2.232,0.266,2.232,1.701
		C74.237,72.271,73.787,72.818,72.749,72.818z"/>
	<path fill="#F9F9F9" d="M75.164,72.812c-0.225,0-0.409-0.19-0.409-0.409c0-0.226,0.185-0.41,0.409-0.41
		c0.226,0,0.41,0.185,0.41,0.41C75.574,72.622,75.39,72.812,75.164,72.812z"/>
	<path fill="#F9F9F9" d="M76.584,72.812c-0.225,0-0.409-0.19-0.409-0.409c0-0.226,0.185-0.41,0.409-0.41
		c0.226,0,0.41,0.185,0.41,0.41C76.994,72.622,76.81,72.812,76.584,72.812z"/>
	<path fill="#F9F9F9" d="M78.005,72.812c-0.225,0-0.409-0.19-0.409-0.409c0-0.226,0.185-0.41,0.409-0.41
		c0.226,0,0.41,0.185,0.41,0.41C78.415,72.622,78.23,72.812,78.005,72.812z"/>
	<path fill="#F9F9F9" d="M82.854,72.783c-0.173,0-0.306-0.138-0.306-0.306v-0.109c-0.22,0.283-0.536,0.45-0.895,0.45
		c-0.709,0-1.234-0.542-1.234-1.459c0-0.9,0.52-1.466,1.234-1.466c0.347,0,0.669,0.162,0.895,0.45v-1.171
		c0-0.167,0.133-0.306,0.317-0.306c0.161,0,0.3,0.139,0.3,0.306v3.305C83.165,72.646,83.026,72.783,82.854,72.783z M82.548,70.811
		c-0.139-0.207-0.427-0.369-0.716-0.369c-0.473,0-0.778,0.381-0.778,0.918c0,0.53,0.306,0.911,0.778,0.911
		c0.289,0,0.577-0.162,0.716-0.363V70.811z"/>
	<path fill="#F9F9F9" d="M85.217,72.818c-0.894,0-1.437-0.663-1.437-1.465c0-0.796,0.543-1.46,1.437-1.46
		c0.895,0,1.437,0.664,1.437,1.46C86.653,72.155,86.111,72.818,85.217,72.818z M85.217,70.441c-0.514,0-0.796,0.428-0.796,0.912
		c0,0.49,0.282,0.917,0.796,0.917c0.508,0,0.79-0.427,0.79-0.917C86.007,70.869,85.725,70.441,85.217,70.441z"/>
	<path fill="#F9F9F9" d="M89.449,72.783c-0.173,0-0.306-0.138-0.306-0.306v-1.465c0-0.427-0.219-0.571-0.56-0.571
		c-0.306,0-0.571,0.18-0.703,0.369v1.667c0,0.168-0.139,0.306-0.312,0.306c-0.174,0-0.306-0.138-0.306-0.306v-2.249
		c0-0.161,0.132-0.3,0.316-0.3c0.162,0,0.301,0.139,0.301,0.3v0.115c0.185-0.219,0.536-0.45,0.98-0.45
		c0.6,0,0.899,0.329,0.899,0.895v1.689C89.761,72.646,89.622,72.783,89.449,72.783z"/>
	<path fill="#F9F9F9" d="M92.851,71.555h-1.834c0.04,0.416,0.357,0.768,0.877,0.768c0.201,0,0.433-0.063,0.623-0.185
		c0.04-0.023,0.086-0.034,0.126-0.034c0.127,0,0.26,0.104,0.26,0.253c0,0.317-0.715,0.462-1.072,0.462
		c-0.837,0-1.46-0.583-1.46-1.465c0-0.808,0.589-1.46,1.413-1.46c0.652,0,1.125,0.393,1.298,0.992
		c0.035,0.115,0.069,0.248,0.069,0.369C93.15,71.417,93.018,71.555,92.851,71.555z M91.783,70.39c-0.507,0-0.743,0.404-0.772,0.738
		h1.546C92.545,70.806,92.326,70.39,91.783,70.39z"/>
</g>
<g>
	<path fill="#89C98E" d="M30.803,96.563l-1.182,1.794v1.286c0,0.185-0.156,0.34-0.346,0.34s-0.34-0.155-0.34-0.34v-1.286l-1.194-1.8
		c-0.035-0.046-0.052-0.109-0.052-0.167c0-0.156,0.132-0.317,0.334-0.317c0.104,0,0.213,0.052,0.277,0.15l0.975,1.517l0.963-1.517
		c0.063-0.093,0.167-0.15,0.283-0.15c0.19,0,0.329,0.155,0.329,0.317C30.849,96.448,30.837,96.512,30.803,96.563z"/>
	<path fill="#89C98E" d="M32.052,100.019c-0.894,0-1.436-0.663-1.436-1.465c0-0.796,0.542-1.46,1.436-1.46s1.436,0.664,1.436,1.46
		C33.488,99.355,32.946,100.019,32.052,100.019z M32.052,97.643c-0.513,0-0.796,0.427-0.796,0.911c0,0.49,0.283,0.917,0.796,0.917
		c0.508,0,0.791-0.427,0.791-0.917C32.843,98.069,32.56,97.643,32.052,97.643z"/>
	<path fill="#89C98E" d="M36.284,99.983c-0.173,0-0.306-0.138-0.306-0.306V99.58c-0.202,0.225-0.548,0.438-0.986,0.438
		c-0.6,0-0.894-0.317-0.894-0.883v-1.707c0-0.161,0.133-0.3,0.317-0.3c0.162,0,0.3,0.139,0.3,0.3v1.482
		c0,0.427,0.219,0.56,0.554,0.56c0.306,0,0.565-0.173,0.709-0.357v-1.685c0-0.161,0.133-0.3,0.317-0.3c0.162,0,0.3,0.139,0.3,0.3
		v2.249C36.596,99.846,36.458,99.983,36.284,99.983z"/>
	<path fill="#89C98E" d="M38.63,97.717c-0.248,0.023-0.485,0.127-0.635,0.341v1.62c0,0.168-0.138,0.306-0.306,0.306h-0.011
		c-0.167,0-0.3-0.138-0.3-0.306v-2.249c0-0.161,0.133-0.3,0.317-0.3c0.162,0,0.3,0.139,0.3,0.3v0.145
		c0.15-0.202,0.369-0.444,0.664-0.444c0.167,0,0.271,0.115,0.271,0.266C38.93,97.579,38.803,97.694,38.63,97.717z"/>
	<path fill="#89C98E" d="M44.183,96.558l-1.2,3.062c-0.087,0.22-0.306,0.363-0.531,0.363h-0.058c-0.231,0-0.45-0.144-0.537-0.363
		l-1.2-3.062c-0.017-0.04-0.023-0.086-0.023-0.133c0-0.167,0.144-0.357,0.363-0.357c0.15,0,0.289,0.093,0.34,0.236l1.084,2.896
		l1.079-2.896c0.052-0.138,0.19-0.236,0.34-0.236c0.213,0,0.369,0.173,0.369,0.357C44.212,96.472,44.2,96.518,44.183,96.558z"/>
	<path fill="#89C98E" d="M46.483,98.519h-1.015v1.125c0,0.185-0.156,0.34-0.352,0.34c-0.185,0-0.334-0.155-0.334-0.34v-3.126
		c0-0.226,0.185-0.415,0.415-0.415h1.286c0.808,0,1.258,0.554,1.258,1.211C47.741,97.965,47.285,98.519,46.483,98.519z
		 M46.391,96.708h-0.923v1.205h0.923c0.375,0,0.646-0.242,0.646-0.6C47.037,96.944,46.766,96.708,46.391,96.708z"/>
	<path fill="#89C98E" d="M49.625,100.019c-0.565,0-1.165-0.185-1.425-0.49c-0.046-0.058-0.069-0.121-0.069-0.19
		c0-0.179,0.156-0.329,0.329-0.329c0.063,0,0.132,0.018,0.185,0.058c0.265,0.202,0.605,0.347,1.009,0.347
		c0.542,0,0.761-0.271,0.761-0.52c0-0.796-2.238-0.3-2.238-1.719c0-0.64,0.554-1.131,1.401-1.131c0.461,0,1.038,0.145,1.292,0.422
		c0.046,0.052,0.069,0.121,0.069,0.185c0,0.179-0.167,0.316-0.334,0.316c-0.063,0-0.127-0.017-0.185-0.058
		c-0.271-0.179-0.588-0.259-0.9-0.259c-0.392,0-0.64,0.19-0.64,0.473c0,0.709,2.232,0.266,2.232,1.701
		C51.113,99.471,50.664,100.019,49.625,100.019z"/>
	<path fill="#89C98E" d="M53.894,96.442c0,0.214-0.173,0.381-0.381,0.381c-0.208,0-0.38-0.167-0.38-0.381
		c0-0.208,0.173-0.375,0.38-0.375C53.721,96.067,53.894,96.234,53.894,96.442z M53.513,99.983c-0.173,0-0.306-0.138-0.306-0.306
		v-2.249c0-0.161,0.133-0.3,0.317-0.3c0.162,0,0.3,0.139,0.3,0.3v2.249C53.825,99.846,53.687,99.983,53.513,99.983z"/>
	<path fill="#89C98E" d="M55.562,100.019c-0.375,0-0.871-0.115-1.09-0.363c-0.035-0.041-0.058-0.093-0.058-0.15
		c0-0.144,0.127-0.26,0.266-0.26c0.046,0,0.098,0.012,0.138,0.041c0.213,0.144,0.502,0.248,0.767,0.248
		c0.364,0,0.542-0.156,0.542-0.369c0-0.542-1.685-0.15-1.685-1.223c0-0.456,0.398-0.849,1.107-0.849
		c0.375,0,0.796,0.116,0.986,0.335c0.035,0.04,0.052,0.087,0.052,0.139c0,0.133-0.116,0.236-0.248,0.236
		c-0.041,0-0.086-0.012-0.127-0.035c-0.179-0.121-0.416-0.195-0.664-0.195c-0.311,0-0.507,0.149-0.507,0.34
		c0,0.49,1.678,0.121,1.678,1.229C56.722,99.638,56.312,100.019,55.562,100.019z"/>
	<path fill="#89C98E" d="M60.067,97.717c-0.248,0.023-0.485,0.127-0.635,0.341v1.62c0,0.168-0.138,0.306-0.306,0.306h-0.011
		c-0.167,0-0.3-0.138-0.3-0.306v-2.249c0-0.161,0.133-0.3,0.317-0.3c0.162,0,0.3,0.139,0.3,0.3v0.145
		c0.15-0.202,0.369-0.444,0.664-0.444c0.167,0,0.271,0.115,0.271,0.266C60.367,97.579,60.24,97.694,60.067,97.717z"/>
	<path fill="#89C98E" d="M63.132,98.755h-1.834c0.041,0.416,0.357,0.768,0.876,0.768c0.202,0,0.433-0.063,0.623-0.185
		c0.041-0.023,0.086-0.035,0.127-0.035c0.127,0,0.26,0.104,0.26,0.254c0,0.317-0.715,0.462-1.073,0.462
		c-0.836,0-1.459-0.583-1.459-1.465c0-0.808,0.588-1.46,1.413-1.46c0.652,0,1.125,0.393,1.298,0.992
		c0.035,0.115,0.069,0.248,0.069,0.369C63.432,98.617,63.299,98.755,63.132,98.755z M62.065,97.59c-0.508,0-0.744,0.404-0.773,0.738
		h1.546C62.826,98.006,62.607,97.59,62.065,97.59z"/>
	<path fill="#89C98E" d="M66.049,99.983h-0.035c-0.081,0-0.276-0.068-0.276-0.282v-0.052c-0.202,0.236-0.531,0.369-0.895,0.369
		c-0.456,0-0.975-0.306-0.975-0.923c0-0.641,0.519-0.905,0.975-0.905c0.369,0,0.698,0.121,0.895,0.357v-0.427
		c0-0.317-0.266-0.514-0.646-0.514c-0.242,0-0.461,0.063-0.663,0.214c-0.035,0.022-0.081,0.04-0.127,0.04
		c-0.115,0-0.242-0.093-0.242-0.242c0-0.046,0.017-0.099,0.046-0.133c0.219-0.276,0.732-0.393,1.084-0.393
		c0.617,0,1.166,0.26,1.166,1.01v1.574C66.354,99.846,66.216,99.983,66.049,99.983z M65.737,98.894
		c-0.139-0.185-0.393-0.276-0.658-0.276c-0.328,0-0.583,0.185-0.583,0.49c0,0.294,0.254,0.484,0.583,0.484
		c0.266,0,0.52-0.093,0.658-0.283V98.894z"/>
	<path fill="#89C98E" d="M69.403,99.983c-0.173,0-0.306-0.138-0.306-0.306v-0.109c-0.22,0.283-0.536,0.45-0.895,0.45
		c-0.709,0-1.234-0.542-1.234-1.459c0-0.9,0.52-1.466,1.234-1.466c0.347,0,0.67,0.162,0.895,0.45v-1.171
		c0-0.167,0.133-0.306,0.317-0.306c0.161,0,0.3,0.139,0.3,0.306v3.305C69.715,99.846,69.576,99.983,69.403,99.983z M69.098,98.012
		c-0.139-0.208-0.427-0.369-0.716-0.369c-0.473,0-0.778,0.38-0.778,0.917c0,0.53,0.306,0.911,0.778,0.911
		c0.289,0,0.577-0.162,0.716-0.363V98.012z"/>
	<path fill="#89C98E" d="M72.88,97.544l-1.188,2.901c-0.185,0.456-0.513,0.635-0.905,0.635c-0.214,0-0.409-0.081-0.409-0.277
		c0-0.149,0.121-0.276,0.288-0.276c0.04,0,0.075,0.006,0.115,0c0.139-0.012,0.254-0.075,0.323-0.231l0.139-0.312l-0.998-2.445
		c-0.012-0.034-0.018-0.069-0.018-0.104c0-0.15,0.121-0.306,0.312-0.306c0.121,0,0.236,0.075,0.288,0.202l0.738,1.903l0.738-1.903
		c0.041-0.121,0.162-0.202,0.295-0.202c0.179,0,0.306,0.149,0.306,0.3C72.903,97.469,72.897,97.51,72.88,97.544z"/>
	<path fill="#89C98E" d="M75.74,100.019c-0.473,0-0.721-0.254-0.721-0.721v-1.593h-0.231c-0.144,0-0.265-0.121-0.265-0.276
		c0-0.145,0.121-0.266,0.265-0.266h0.231v-0.49c0-0.167,0.138-0.306,0.316-0.306c0.168,0,0.301,0.139,0.301,0.306v0.49h0.34
		c0.145,0,0.26,0.121,0.26,0.277c0,0.144-0.115,0.265-0.26,0.265h-0.34v1.437c0,0.214,0.121,0.329,0.265,0.329
		c0.041,0,0.093-0.018,0.127-0.018c0.168,0,0.271,0.115,0.271,0.266C76.3,99.903,76.133,100.019,75.74,100.019z"/>
	<path fill="#89C98E" d="M78.015,100.019c-0.894,0-1.437-0.663-1.437-1.465c0-0.796,0.543-1.46,1.437-1.46
		c0.895,0,1.437,0.664,1.437,1.46C79.451,99.355,78.909,100.019,78.015,100.019z M78.015,97.643c-0.514,0-0.796,0.427-0.796,0.911
		c0,0.49,0.282,0.917,0.796,0.917c0.508,0,0.79-0.427,0.79-0.917C78.805,98.069,78.522,97.643,78.015,97.643z"/>
	<path fill="#89C98E" d="M82.676,101.08c-0.369,0-0.842-0.081-1.066-0.341c-0.029-0.04-0.053-0.098-0.053-0.155
		c0-0.15,0.121-0.26,0.266-0.26c0.046,0,0.093,0.012,0.139,0.04c0.207,0.15,0.438,0.208,0.715,0.208
		c0.393,0,0.819-0.179,0.819-0.756v-0.323c-0.214,0.277-0.53,0.456-0.889,0.456c-0.709,0-1.234-0.508-1.234-1.425
		c0-0.905,0.52-1.431,1.234-1.431c0.347,0,0.664,0.162,0.889,0.45v-0.109c0-0.167,0.133-0.306,0.317-0.306
		c0.161,0,0.3,0.139,0.3,0.306v2.364C84.112,100.809,83.362,101.08,82.676,101.08z M83.495,98.012
		c-0.133-0.208-0.427-0.369-0.71-0.369c-0.473,0-0.778,0.352-0.778,0.882c0,0.531,0.306,0.883,0.778,0.883
		c0.283,0,0.577-0.167,0.71-0.375V98.012z"/>
	<path fill="#89C98E" d="M86.163,100.019c-0.894,0-1.437-0.663-1.437-1.465c0-0.796,0.543-1.46,1.437-1.46
		c0.895,0,1.437,0.664,1.437,1.46C87.6,99.355,87.058,100.019,86.163,100.019z M86.163,97.643c-0.514,0-0.796,0.427-0.796,0.911
		c0,0.49,0.282,0.917,0.796,0.917c0.508,0,0.79-0.427,0.79-0.917C86.953,98.069,86.671,97.643,86.163,97.643z"/>
	<path fill="#89C98E" d="M88.526,100.007c-0.225,0-0.403-0.19-0.403-0.403c0-0.226,0.179-0.41,0.403-0.41
		c0.226,0,0.41,0.185,0.41,0.41C88.937,99.816,88.752,100.007,88.526,100.007z M88.804,98.536c-0.006,0.15-0.121,0.266-0.282,0.266
		c-0.15,0-0.266-0.115-0.271-0.266c-0.018-0.393-0.087-2.036-0.087-2.105c-0.006-0.202,0.156-0.363,0.369-0.363
		c0.202,0,0.358,0.161,0.358,0.363C88.891,96.5,88.821,98.144,88.804,98.536z"/>
</g>
</svg>
