<?xml version="1.0" encoding="utf-8"?>
<!-- Generator: Adobe Illustrator 16.0.0, SVG Export Plug-In . SVG Version: 6.00 Build 0)  -->
<!DOCTYPE svg PUBLIC "-//W3C//DTD SVG 1.1//EN" "http://www.w3.org/Graphics/SVG/1.1/DTD/svg11.dtd">
<svg version="1.1" id="Layer_1" xmlns="http://www.w3.org/2000/svg" xmlns:xlink="http://www.w3.org/1999/xlink" x="0px" y="0px"
	 width="100px" height="100px" viewBox="14 14 100 100" enable-background="new 14 14 100 100" xml:space="preserve">
<ellipse fill="#CCCCCC" cx="64" cy="108.624" rx="49.333" ry="5.376"/>
<path display="none" fill="#EEF1F5" d="M110.605,105.316c0,0.536-0.434,0.971-0.971,0.971h-91.52c-0.536,0-0.971-0.435-0.971-0.971
	V40.221c0-0.537,0.435-0.971,0.971-0.971h91.52c0.537,0,0.971,0.435,0.971,0.971V105.316z"/>
<path fill="#D8DCE2" d="M108.503,106.712c0,1.555-1.26,2.814-2.814,2.814H23.645c-1.554,0-2.814-1.26-2.814-2.814V44.69
	c0-1.554,1.26-2.814,2.814-2.814h82.044c1.555,0,2.814,1.26,2.814,2.814V106.712z"/>
<path fill="#EFEFEF" d="M58.432,62.32c0,0-2.9,15.673,7.329,21.496c0,0-8.982-7.487-5.343-19.688L58.432,62.32z"/>
<circle fill="#B7B9BC" cx="25.204" cy="46.541" r="1.945"/>
<path fill="#334D5C" d="M20.831,50.5v56.048c0,1.646,1.26,2.979,2.814,2.979h82.044c1.555,0,2.814-1.333,2.814-2.979V50.5H20.831z"
	/>
<circle fill="#B7B9BC" cx="30.832" cy="46.541" r="1.945"/>
<circle fill="#B7B9BC" cx="36.461" cy="46.541" r="1.945"/>
<g>
	<path fill="#F9F9F9" d="M27.776,61.668v0.34c0,0.125-0.107,0.232-0.239,0.232c-0.143,0-0.25-0.107-0.25-0.232v-0.34
		c-0.489-0.036-1.015-0.221-1.241-0.507c-0.042-0.054-0.065-0.114-0.065-0.185c0-0.179,0.149-0.34,0.328-0.34
		c0.071,0,0.137,0.024,0.197,0.066c0.209,0.161,0.471,0.292,0.782,0.334v-1.14c-0.615-0.155-1.265-0.376-1.265-1.157
		c0-0.609,0.489-1.092,1.265-1.158v-0.358c0-0.125,0.107-0.232,0.25-0.232c0.131,0,0.239,0.107,0.239,0.232v0.364
		c0.375,0.042,0.817,0.173,1.032,0.429c0.042,0.048,0.066,0.113,0.066,0.179c0,0.191-0.167,0.334-0.346,0.334
		c-0.042,0-0.083-0.012-0.125-0.03c-0.197-0.107-0.412-0.227-0.626-0.269v1.014c0.614,0.167,1.289,0.4,1.289,1.199
		C29.064,61.06,28.665,61.585,27.776,61.668z M27.287,58.202c-0.328,0.036-0.537,0.221-0.537,0.483c0,0.232,0.227,0.346,0.537,0.436
		V58.202z M27.776,60.028v1.008c0.399-0.06,0.561-0.292,0.561-0.519C28.336,60.249,28.092,60.124,27.776,60.028z"/>
	<path fill="#F9F9F9" d="M33.483,61.358c-0.209,0.191-0.507,0.322-0.925,0.322c-0.877,0-1.492-0.639-1.492-1.516
		c0-0.871,0.615-1.509,1.492-1.509c0.441,0,0.812,0.155,0.973,0.388c0.03,0.036,0.042,0.083,0.042,0.131
		c0,0.167-0.149,0.274-0.298,0.274c-0.065,0-0.131-0.018-0.185-0.06c-0.149-0.114-0.316-0.167-0.501-0.167
		c-0.519,0-0.865,0.388-0.865,0.942s0.346,0.949,0.865,0.949c0.191,0,0.352-0.06,0.501-0.173c0.06-0.042,0.12-0.06,0.185-0.06
		c0.155,0,0.304,0.113,0.304,0.281C33.579,61.233,33.549,61.311,33.483,61.358z"/>
	<path fill="#F9F9F9" d="M36.475,61.645c-0.179,0-0.316-0.143-0.316-0.316v-0.102c-0.208,0.233-0.567,0.454-1.02,0.454
		c-0.621,0-0.925-0.328-0.925-0.913v-1.766c0-0.167,0.137-0.31,0.328-0.31c0.167,0,0.31,0.143,0.31,0.31v1.534
		c0,0.441,0.227,0.579,0.573,0.579c0.316,0,0.585-0.179,0.734-0.37v-1.742c0-0.167,0.137-0.31,0.328-0.31
		c0.167,0,0.311,0.143,0.311,0.31v2.327C36.797,61.501,36.654,61.645,36.475,61.645z"/>
	<path fill="#F9F9F9" d="M38.9,59.3c-0.256,0.024-0.501,0.131-0.656,0.352v1.677c0,0.173-0.143,0.316-0.316,0.316h-0.012
		c-0.173,0-0.31-0.143-0.31-0.316v-2.327c0-0.167,0.137-0.31,0.328-0.31c0.167,0,0.31,0.143,0.31,0.31v0.149
		c0.155-0.209,0.382-0.459,0.686-0.459c0.173,0,0.281,0.119,0.281,0.274C39.21,59.157,39.079,59.276,38.9,59.3z"/>
	<path fill="#F9F9F9" d="M39.999,61.645c-0.179,0-0.316-0.143-0.316-0.316v-3.425c0-0.167,0.137-0.31,0.328-0.31
		c0.167,0,0.31,0.143,0.31,0.31v3.425C40.321,61.501,40.178,61.645,39.999,61.645z"/>
	<path fill="#F9F9F9" d="M46.511,61.645c-0.173,0-0.316-0.143-0.316-0.316v-1.593c0-0.304-0.131-0.513-0.465-0.513
		c-0.28,0-0.537,0.197-0.662,0.375v1.73c0,0.173-0.143,0.316-0.322,0.316c-0.179,0-0.316-0.143-0.316-0.316v-1.593
		c0-0.304-0.137-0.513-0.472-0.513c-0.274,0-0.531,0.197-0.656,0.382v1.724c0,0.173-0.143,0.316-0.322,0.316
		c-0.179,0-0.316-0.143-0.316-0.316v-2.327c0-0.167,0.137-0.31,0.328-0.31c0.167,0,0.31,0.143,0.31,0.31v0.12
		c0.12-0.179,0.501-0.465,0.937-0.465c0.429,0,0.692,0.215,0.787,0.531c0.167-0.262,0.549-0.531,0.985-0.531
		c0.525,0,0.829,0.286,0.829,0.871v1.802C46.839,61.501,46.696,61.645,46.511,61.645z"/>
	<path fill="#F9F9F9" d="M50.035,60.374h-1.897c0.042,0.429,0.37,0.793,0.907,0.793c0.209,0,0.447-0.066,0.645-0.191
		c0.042-0.024,0.089-0.036,0.131-0.036c0.131,0,0.269,0.107,0.269,0.263c0,0.328-0.74,0.478-1.109,0.478
		c-0.865,0-1.51-0.603-1.51-1.516c0-0.835,0.609-1.509,1.462-1.509c0.674,0,1.164,0.406,1.342,1.026
		c0.036,0.12,0.072,0.257,0.072,0.382C50.345,60.23,50.208,60.374,50.035,60.374z M48.931,59.169c-0.525,0-0.77,0.417-0.799,0.764
		h1.599C49.719,59.598,49.492,59.169,48.931,59.169z"/>
	<path fill="#F9F9F9" d="M53.313,61.645c-0.179,0-0.316-0.143-0.316-0.316v-0.113c-0.227,0.292-0.555,0.465-0.925,0.465
		c-0.734,0-1.277-0.561-1.277-1.51c0-0.931,0.537-1.515,1.277-1.515c0.358,0,0.692,0.167,0.925,0.465V57.91
		c0-0.173,0.137-0.316,0.328-0.316c0.167,0,0.31,0.143,0.31,0.316v3.419C53.635,61.501,53.492,61.645,53.313,61.645z M52.997,59.604
		c-0.143-0.215-0.441-0.382-0.74-0.382c-0.489,0-0.806,0.394-0.806,0.948c0,0.549,0.316,0.943,0.806,0.943
		c0.298,0,0.597-0.167,0.74-0.376V59.604z"/>
	<path fill="#F9F9F9" d="M55.16,57.981c0,0.221-0.179,0.394-0.394,0.394c-0.214,0-0.394-0.173-0.394-0.394
		c0-0.215,0.179-0.388,0.394-0.388C54.98,57.594,55.16,57.767,55.16,57.981z M54.766,61.645c-0.179,0-0.316-0.143-0.316-0.316
		v-2.327c0-0.167,0.137-0.31,0.328-0.31c0.167,0,0.31,0.143,0.31,0.31v2.327C55.088,61.501,54.945,61.645,54.766,61.645z"/>
	<path fill="#F9F9F9" d="M57.971,61.645h-0.036c-0.083,0-0.287-0.071-0.287-0.292v-0.054c-0.208,0.245-0.549,0.382-0.925,0.382
		c-0.471,0-1.008-0.316-1.008-0.955c0-0.663,0.537-0.937,1.008-0.937c0.382,0,0.722,0.125,0.925,0.37v-0.441
		c0-0.328-0.274-0.531-0.668-0.531c-0.25,0-0.478,0.066-0.686,0.221c-0.036,0.024-0.084,0.042-0.131,0.042
		c-0.12,0-0.25-0.096-0.25-0.25c0-0.048,0.018-0.102,0.047-0.137c0.227-0.287,0.758-0.406,1.122-0.406
		c0.639,0,1.206,0.269,1.206,1.044v1.629C58.287,61.501,58.144,61.645,57.971,61.645z M57.648,60.517
		c-0.143-0.191-0.406-0.287-0.68-0.287c-0.34,0-0.603,0.191-0.603,0.507c0,0.304,0.263,0.501,0.603,0.501
		c0.274,0,0.537-0.095,0.68-0.292V60.517z"/>
	<path fill="#F9F9F9" d="M60.658,61.681c-0.358,0-0.686-0.161-0.919-0.465v1.217c0,0.167-0.143,0.311-0.322,0.311
		c-0.179,0-0.316-0.144-0.316-0.311v-3.431c0-0.167,0.137-0.31,0.328-0.31c0.167,0,0.31,0.143,0.31,0.31v0.114
		c0.215-0.287,0.549-0.459,0.919-0.459c0.746,0,1.277,0.561,1.277,1.509S61.404,61.681,60.658,61.681z M60.467,59.223
		c-0.287,0-0.591,0.173-0.728,0.382v1.127c0.137,0.203,0.441,0.382,0.728,0.382c0.489,0,0.806-0.394,0.806-0.949
		C61.273,59.616,60.957,59.223,60.467,59.223z"/>
	<path fill="#F9F9F9" d="M63.268,57.981c0,0.221-0.179,0.394-0.394,0.394c-0.214,0-0.394-0.173-0.394-0.394
		c0-0.215,0.179-0.388,0.394-0.388C63.089,57.594,63.268,57.767,63.268,57.981z M62.874,61.645c-0.179,0-0.316-0.143-0.316-0.316
		v-2.327c0-0.167,0.137-0.31,0.328-0.31c0.167,0,0.31,0.143,0.31,0.31v2.327C63.196,61.501,63.053,61.645,62.874,61.645z"/>
	<path fill="#F9F9F9" d="M65.172,62.778c-0.381,0-0.871-0.083-1.103-0.352c-0.03-0.042-0.054-0.102-0.054-0.161
		c0-0.155,0.125-0.269,0.274-0.269c0.048,0,0.095,0.012,0.143,0.042c0.214,0.155,0.455,0.215,0.74,0.215
		c0.406,0,0.848-0.185,0.848-0.782v-0.334c-0.221,0.286-0.549,0.471-0.918,0.471c-0.735,0-1.278-0.525-1.278-1.474
		c0-0.937,0.537-1.479,1.278-1.479c0.357,0,0.686,0.167,0.918,0.465v-0.113c0-0.173,0.137-0.316,0.328-0.316
		c0.166,0,0.311,0.143,0.311,0.316v2.446C66.658,62.498,65.883,62.778,65.172,62.778z M66.02,59.604
		c-0.137-0.215-0.441-0.382-0.734-0.382c-0.488,0-0.805,0.364-0.805,0.913s0.317,0.913,0.805,0.913c0.293,0,0.598-0.173,0.734-0.388
		V59.604z"/>
	<path fill="#F9F9F9" d="M67.801,61.674c-0.232,0-0.424-0.197-0.424-0.423c0-0.233,0.191-0.424,0.424-0.424s0.424,0.191,0.424,0.424
		C68.225,61.478,68.033,61.674,67.801,61.674z"/>
	<path fill="#F9F9F9" d="M71.018,61.645h-0.035c-0.084,0-0.287-0.071-0.287-0.292v-0.054c-0.209,0.245-0.549,0.382-0.924,0.382
		c-0.473,0-1.01-0.316-1.01-0.955c0-0.663,0.537-0.937,1.01-0.937c0.381,0,0.721,0.125,0.924,0.37v-0.441
		c0-0.328-0.273-0.531-0.668-0.531c-0.25,0-0.477,0.066-0.686,0.221c-0.037,0.024-0.084,0.042-0.133,0.042
		c-0.119,0-0.25-0.096-0.25-0.25c0-0.048,0.018-0.102,0.049-0.137c0.227-0.287,0.758-0.406,1.121-0.406
		c0.639,0,1.205,0.269,1.205,1.044v1.629C71.334,61.501,71.191,61.645,71.018,61.645z M70.695,60.517
		c-0.143-0.191-0.406-0.287-0.68-0.287c-0.34,0-0.604,0.191-0.604,0.507c0,0.304,0.264,0.501,0.604,0.501
		c0.273,0,0.537-0.095,0.68-0.292V60.517z"/>
	<path fill="#F9F9F9" d="M73.705,61.681c-0.359,0-0.688-0.161-0.92-0.465v1.217c0,0.167-0.143,0.311-0.322,0.311
		c-0.178,0-0.316-0.144-0.316-0.311v-3.431c0-0.167,0.139-0.31,0.328-0.31c0.168,0,0.311,0.143,0.311,0.31v0.114
		c0.215-0.287,0.549-0.459,0.92-0.459c0.746,0,1.275,0.561,1.275,1.509S74.451,61.681,73.705,61.681z M73.514,59.223
		c-0.287,0-0.59,0.173-0.729,0.382v1.127c0.139,0.203,0.441,0.382,0.729,0.382c0.488,0,0.805-0.394,0.805-0.949
		C74.318,59.616,74.002,59.223,73.514,59.223z"/>
	<path fill="#F9F9F9" d="M76.314,57.981c0,0.221-0.18,0.394-0.395,0.394s-0.393-0.173-0.393-0.394c0-0.215,0.178-0.388,0.393-0.388
		S76.314,57.767,76.314,57.981z M75.92,61.645c-0.178,0-0.316-0.143-0.316-0.316v-2.327c0-0.167,0.139-0.31,0.328-0.31
		c0.168,0,0.311,0.143,0.311,0.31v2.327C76.242,61.501,76.1,61.645,75.92,61.645z"/>
</g>
<g>
	<path fill="#F9F9F9" d="M29.423,68.19c0.048,0.06,0.078,0.138,0.078,0.209c0,0.185-0.155,0.328-0.34,0.328
		c-0.089,0-0.185-0.036-0.256-0.113c-0.227-0.257-0.555-0.412-0.883-0.412c-0.782,0-1.36,0.597-1.36,1.427
		c0,0.823,0.579,1.426,1.36,1.426c0.328,0,0.656-0.144,0.883-0.406c0.072-0.071,0.167-0.113,0.263-0.113
		c0.185,0,0.328,0.149,0.328,0.322c0,0.071-0.024,0.149-0.072,0.209c-0.304,0.346-0.752,0.62-1.402,0.62
		c-1.176,0-2.088-0.835-2.088-2.058c0-1.224,0.913-2.059,2.088-2.059C28.671,67.57,29.119,67.845,29.423,68.19z"/>
	<path fill="#F9F9F9" d="M31.466,69.307c-0.256,0.023-0.501,0.131-0.656,0.352v1.677c0,0.173-0.143,0.316-0.316,0.316h-0.012
		c-0.173,0-0.31-0.144-0.31-0.316v-2.327c0-0.167,0.137-0.31,0.328-0.31c0.167,0,0.31,0.143,0.31,0.31v0.149
		c0.155-0.209,0.382-0.459,0.686-0.459c0.173,0,0.281,0.119,0.281,0.274C31.777,69.163,31.646,69.282,31.466,69.307z"/>
	<path fill="#F9F9F9" d="M34.636,70.38h-1.897c0.042,0.43,0.37,0.794,0.907,0.794c0.209,0,0.447-0.065,0.645-0.191
		c0.042-0.023,0.089-0.035,0.131-0.035c0.131,0,0.269,0.107,0.269,0.263c0,0.328-0.74,0.477-1.109,0.477
		c-0.865,0-1.51-0.603-1.51-1.515c0-0.836,0.609-1.51,1.462-1.51c0.674,0,1.164,0.405,1.342,1.026
		c0.036,0.119,0.072,0.256,0.072,0.382C34.947,70.237,34.81,70.38,34.636,70.38z M33.533,69.175c-0.525,0-0.77,0.418-0.799,0.764
		h1.599C34.32,69.604,34.093,69.175,33.533,69.175z"/>
	<path fill="#F9F9F9" d="M37.652,71.651h-0.036c-0.083,0-0.287-0.072-0.287-0.293v-0.054c-0.208,0.245-0.549,0.382-0.925,0.382
		c-0.471,0-1.008-0.315-1.008-0.954c0-0.662,0.537-0.937,1.008-0.937c0.382,0,0.722,0.125,0.925,0.369v-0.441
		c0-0.328-0.274-0.53-0.668-0.53c-0.251,0-0.478,0.065-0.686,0.221c-0.036,0.023-0.084,0.041-0.131,0.041
		c-0.12,0-0.25-0.095-0.25-0.25c0-0.048,0.018-0.102,0.047-0.138c0.227-0.286,0.758-0.405,1.122-0.405
		c0.639,0,1.206,0.269,1.206,1.044v1.629C37.968,71.508,37.825,71.651,37.652,71.651z M37.33,70.523
		c-0.143-0.191-0.406-0.286-0.68-0.286c-0.34,0-0.603,0.19-0.603,0.507c0,0.305,0.263,0.501,0.603,0.501
		c0.274,0,0.537-0.096,0.68-0.292V70.523z"/>
	<path fill="#F9F9F9" d="M39.653,71.687c-0.489,0-0.746-0.262-0.746-0.745v-1.647h-0.238c-0.149,0-0.274-0.125-0.274-0.286
		c0-0.149,0.125-0.274,0.274-0.274h0.238v-0.507c0-0.173,0.144-0.316,0.329-0.316c0.173,0,0.31,0.144,0.31,0.316v0.507h0.352
		c0.149,0,0.269,0.125,0.269,0.286c0,0.149-0.12,0.274-0.269,0.274h-0.352v1.486c0,0.221,0.125,0.34,0.274,0.34
		c0.042,0,0.095-0.018,0.131-0.018c0.173,0,0.28,0.119,0.28,0.274C40.232,71.567,40.059,71.687,39.653,71.687z"/>
	<path fill="#F9F9F9" d="M41.409,67.987c0,0.222-0.179,0.395-0.394,0.395c-0.214,0-0.394-0.173-0.394-0.395
		c0-0.214,0.179-0.388,0.394-0.388C41.229,67.6,41.409,67.773,41.409,67.987z M41.015,71.651c-0.179,0-0.316-0.144-0.316-0.316
		v-2.327c0-0.167,0.137-0.31,0.328-0.31c0.167,0,0.31,0.143,0.31,0.31v2.327C41.337,71.508,41.194,71.651,41.015,71.651z"/>
	<path fill="#F9F9F9" d="M44.405,71.651c-0.179,0-0.316-0.144-0.316-0.316v-1.516c0-0.441-0.227-0.591-0.579-0.591
		c-0.316,0-0.591,0.186-0.728,0.382v1.725c0,0.173-0.143,0.316-0.322,0.316c-0.179,0-0.316-0.144-0.316-0.316v-2.327
		c0-0.167,0.137-0.31,0.328-0.31c0.167,0,0.31,0.143,0.31,0.31v0.119c0.191-0.227,0.555-0.465,1.014-0.465
		c0.621,0,0.931,0.34,0.931,0.925v1.748C44.728,71.508,44.584,71.651,44.405,71.651z"/>
	<path fill="#F9F9F9" d="M46.705,72.784c-0.382,0-0.871-0.083-1.104-0.352c-0.03-0.042-0.054-0.102-0.054-0.161
		c0-0.155,0.125-0.269,0.274-0.269c0.048,0,0.096,0.012,0.144,0.042c0.215,0.155,0.453,0.215,0.74,0.215
		c0.406,0,0.847-0.186,0.847-0.782v-0.334c-0.221,0.287-0.549,0.472-0.919,0.472c-0.734,0-1.277-0.525-1.277-1.474
		c0-0.937,0.537-1.479,1.277-1.479c0.358,0,0.686,0.167,0.919,0.465v-0.113c0-0.173,0.137-0.315,0.328-0.315
		c0.167,0,0.31,0.143,0.31,0.315v2.446C48.19,72.504,47.415,72.784,46.705,72.784z M47.552,69.61
		c-0.137-0.215-0.441-0.382-0.734-0.382c-0.489,0-0.806,0.364-0.806,0.913s0.316,0.913,0.806,0.913c0.292,0,0.597-0.173,0.734-0.388
		V69.61z"/>
	<path fill="#F9F9F9" d="M52.997,69.127l-1.229,3.001c-0.191,0.472-0.531,0.656-0.937,0.656c-0.221,0-0.424-0.083-0.424-0.286
		c0-0.155,0.125-0.286,0.298-0.286c0.042,0,0.078,0.006,0.119,0c0.144-0.012,0.263-0.077,0.334-0.238l0.143-0.322l-1.032-2.53
		c-0.012-0.035-0.018-0.071-0.018-0.107c0-0.155,0.125-0.315,0.322-0.315c0.125,0,0.245,0.077,0.298,0.208l0.764,1.969l0.764-1.969
		c0.042-0.125,0.167-0.208,0.304-0.208c0.185,0,0.316,0.154,0.316,0.31C53.021,69.05,53.015,69.092,52.997,69.127z"/>
	<path fill="#F9F9F9" d="M54.855,71.687c-0.925,0-1.486-0.686-1.486-1.515c0-0.824,0.561-1.51,1.486-1.51s1.485,0.686,1.485,1.51
		C56.34,71.001,55.78,71.687,54.855,71.687z M54.855,69.229c-0.531,0-0.823,0.441-0.823,0.943c0,0.507,0.292,0.948,0.823,0.948
		c0.525,0,0.817-0.441,0.817-0.948C55.672,69.67,55.38,69.229,54.855,69.229z"/>
	<path fill="#F9F9F9" d="M59.231,71.651c-0.179,0-0.316-0.144-0.316-0.316v-0.102c-0.208,0.232-0.567,0.453-1.02,0.453
		c-0.621,0-0.925-0.328-0.925-0.912v-1.767c0-0.167,0.137-0.31,0.328-0.31c0.167,0,0.31,0.143,0.31,0.31v1.533
		c0,0.441,0.227,0.579,0.573,0.579c0.316,0,0.585-0.179,0.734-0.37v-1.742c0-0.167,0.137-0.31,0.328-0.31
		c0.167,0,0.311,0.143,0.311,0.31v2.327C59.554,71.508,59.41,71.651,59.231,71.651z"/>
	<path fill="#F9F9F9" d="M61.656,69.307c-0.256,0.023-0.501,0.131-0.656,0.352v1.677c0,0.173-0.143,0.316-0.316,0.316h-0.012
		c-0.173,0-0.31-0.144-0.31-0.316v-2.327c0-0.167,0.137-0.31,0.328-0.31c0.167,0,0.31,0.143,0.31,0.31v0.149
		c0.155-0.209,0.382-0.459,0.686-0.459c0.173,0,0.281,0.119,0.281,0.274C61.966,69.163,61.835,69.282,61.656,69.307z"/>
	<path fill="#F9F9F9" d="M67.398,68.107l-1.24,3.168c-0.09,0.227-0.316,0.376-0.549,0.376h-0.061c-0.238,0-0.465-0.149-0.555-0.376
		l-1.241-3.168c-0.018-0.042-0.024-0.09-0.024-0.138c0-0.173,0.149-0.37,0.375-0.37c0.155,0,0.299,0.096,0.353,0.245l1.121,2.995
		l1.117-2.995c0.053-0.144,0.195-0.245,0.352-0.245c0.221,0,0.381,0.18,0.381,0.37C67.428,68.018,67.416,68.065,67.398,68.107z"/>
	<path fill="#F9F9F9" d="M69.775,70.136h-1.049v1.163c0,0.191-0.162,0.353-0.365,0.353c-0.189,0-0.346-0.161-0.346-0.353v-3.233
		c0-0.232,0.191-0.43,0.43-0.43h1.33c0.836,0,1.301,0.573,1.301,1.253C71.076,69.562,70.605,70.136,69.775,70.136z M69.68,68.263
		h-0.953v1.246h0.953c0.389,0,0.67-0.25,0.67-0.62C70.35,68.507,70.068,68.263,69.68,68.263z"/>
	<path fill="#F9F9F9" d="M73.025,71.687c-0.586,0-1.205-0.19-1.475-0.507c-0.047-0.06-0.072-0.125-0.072-0.197
		c0-0.185,0.162-0.34,0.342-0.34c0.064,0,0.137,0.019,0.189,0.06c0.275,0.209,0.627,0.358,1.045,0.358
		c0.561,0,0.787-0.28,0.787-0.537c0-0.823-2.314-0.311-2.314-1.778c0-0.662,0.572-1.169,1.449-1.169
		c0.479,0,1.074,0.149,1.336,0.436c0.049,0.054,0.072,0.125,0.072,0.19c0,0.186-0.172,0.328-0.346,0.328
		c-0.066,0-0.131-0.018-0.191-0.06c-0.279-0.185-0.607-0.269-0.93-0.269c-0.406,0-0.662,0.197-0.662,0.489
		c0,0.734,2.309,0.274,2.309,1.761C74.564,71.12,74.1,71.687,73.025,71.687z"/>
	<path fill="#F9F9F9" d="M75.521,71.681c-0.232,0-0.424-0.196-0.424-0.424c0-0.232,0.191-0.423,0.424-0.423s0.424,0.19,0.424,0.423
		C75.945,71.484,75.754,71.681,75.521,71.681z"/>
	<path fill="#F9F9F9" d="M76.99,71.681c-0.232,0-0.424-0.196-0.424-0.424c0-0.232,0.191-0.423,0.424-0.423s0.424,0.19,0.424,0.423
		C77.414,71.484,77.223,71.681,76.99,71.681z"/>
	<path fill="#F9F9F9" d="M78.459,71.681c-0.232,0-0.424-0.196-0.424-0.424c0-0.232,0.191-0.423,0.424-0.423s0.424,0.19,0.424,0.423
		C78.883,71.484,78.691,71.681,78.459,71.681z"/>
	<path fill="#F9F9F9" d="M83.473,71.651c-0.178,0-0.314-0.144-0.314-0.316v-0.113c-0.229,0.292-0.557,0.465-0.926,0.465
		c-0.734,0-1.277-0.561-1.277-1.509c0-0.931,0.537-1.516,1.277-1.516c0.357,0,0.691,0.167,0.926,0.465v-1.211
		c0-0.173,0.137-0.316,0.328-0.316c0.166,0,0.309,0.144,0.309,0.316v3.419C83.795,71.508,83.652,71.651,83.473,71.651z
		 M83.158,69.61c-0.145-0.215-0.443-0.382-0.74-0.382c-0.49,0-0.807,0.394-0.807,0.949c0,0.549,0.316,0.942,0.807,0.942
		c0.297,0,0.596-0.167,0.74-0.376V69.61z"/>
	<path fill="#F9F9F9" d="M85.916,71.687c-0.926,0-1.486-0.686-1.486-1.515c0-0.824,0.561-1.51,1.486-1.51
		c0.924,0,1.486,0.686,1.486,1.51C87.402,71.001,86.84,71.687,85.916,71.687z M85.916,69.229c-0.531,0-0.824,0.441-0.824,0.943
		c0,0.507,0.293,0.948,0.824,0.948c0.525,0,0.816-0.441,0.816-0.948C86.732,69.67,86.441,69.229,85.916,69.229z"/>
	<path fill="#F9F9F9" d="M90.293,71.651c-0.18,0-0.316-0.144-0.316-0.316v-1.516c0-0.441-0.227-0.591-0.58-0.591
		c-0.314,0-0.59,0.186-0.727,0.382v1.725c0,0.173-0.143,0.316-0.322,0.316s-0.316-0.144-0.316-0.316v-2.327
		c0-0.167,0.137-0.31,0.328-0.31c0.168,0,0.311,0.143,0.311,0.31v0.119c0.191-0.227,0.555-0.465,1.014-0.465
		c0.621,0,0.932,0.34,0.932,0.925v1.748C90.615,71.508,90.471,71.651,90.293,71.651z"/>
	<path fill="#F9F9F9" d="M93.809,70.38h-1.896c0.041,0.43,0.369,0.794,0.906,0.794c0.209,0,0.447-0.065,0.645-0.191
		c0.043-0.023,0.09-0.035,0.131-0.035c0.133,0,0.27,0.107,0.27,0.263c0,0.328-0.74,0.477-1.109,0.477
		c-0.865,0-1.51-0.603-1.51-1.515c0-0.836,0.607-1.51,1.461-1.51c0.674,0,1.164,0.405,1.344,1.026
		c0.035,0.119,0.07,0.256,0.07,0.382C94.119,70.237,93.982,70.38,93.809,70.38z M92.705,69.175c-0.525,0-0.77,0.418-0.799,0.764h1.6
		C93.492,69.604,93.266,69.175,92.705,69.175z"/>
</g>
<g>
	<path fill="#89C98E" d="M29.655,96.237l-1.223,1.855v1.33c0,0.191-0.161,0.353-0.358,0.353s-0.352-0.161-0.352-0.353v-1.33
		l-1.235-1.861c-0.036-0.048-0.054-0.113-0.054-0.173c0-0.161,0.137-0.329,0.346-0.329c0.107,0,0.221,0.054,0.287,0.155l1.008,1.569
		l0.996-1.569c0.066-0.095,0.173-0.155,0.292-0.155c0.197,0,0.34,0.161,0.34,0.329C29.703,96.118,29.691,96.184,29.655,96.237z"/>
	<path fill="#89C98E" d="M30.946,99.811c-0.925,0-1.486-0.686-1.486-1.515c0-0.824,0.561-1.51,1.486-1.51s1.485,0.686,1.485,1.51
		C32.432,99.125,31.871,99.811,30.946,99.811z M30.946,97.353c-0.531,0-0.823,0.441-0.823,0.943c0,0.507,0.292,0.948,0.823,0.948
		c0.525,0,0.817-0.441,0.817-0.948C31.764,97.794,31.471,97.353,30.946,97.353z"/>
	<path fill="#89C98E" d="M35.322,99.775c-0.179,0-0.316-0.144-0.316-0.316v-0.102c-0.208,0.232-0.567,0.453-1.02,0.453
		c-0.621,0-0.925-0.328-0.925-0.912v-1.767c0-0.167,0.137-0.31,0.328-0.31c0.167,0,0.31,0.143,0.31,0.31v1.533
		c0,0.441,0.227,0.579,0.573,0.579c0.316,0,0.585-0.179,0.734-0.37v-1.742c0-0.167,0.137-0.31,0.328-0.31
		c0.167,0,0.311,0.143,0.311,0.31v2.327C35.645,99.632,35.501,99.775,35.322,99.775z"/>
	<path fill="#89C98E" d="M37.747,97.431c-0.256,0.023-0.501,0.131-0.656,0.352v1.677c0,0.173-0.143,0.316-0.316,0.316h-0.012
		c-0.173,0-0.31-0.144-0.31-0.316v-2.327c0-0.167,0.137-0.31,0.328-0.31c0.167,0,0.31,0.143,0.31,0.31v0.149
		c0.155-0.209,0.382-0.459,0.686-0.459c0.173,0,0.281,0.119,0.281,0.274C38.058,97.287,37.926,97.406,37.747,97.431z"/>
	<path fill="#89C98E" d="M43.49,96.231l-1.241,3.168c-0.089,0.227-0.316,0.376-0.549,0.376h-0.06c-0.239,0-0.465-0.149-0.555-0.376
		l-1.241-3.168c-0.018-0.042-0.024-0.09-0.024-0.138c0-0.173,0.149-0.37,0.376-0.37c0.155,0,0.298,0.096,0.352,0.245l1.122,2.995
		l1.116-2.995c0.054-0.144,0.197-0.245,0.352-0.245c0.221,0,0.382,0.18,0.382,0.37C43.52,96.142,43.508,96.189,43.49,96.231z"/>
	<path fill="#89C98E" d="M45.868,98.26h-1.05v1.163c0,0.191-0.161,0.353-0.364,0.353c-0.191,0-0.346-0.161-0.346-0.353v-3.233
		c0-0.232,0.191-0.43,0.429-0.43h1.331c0.835,0,1.301,0.573,1.301,1.253C47.168,97.687,46.697,98.26,45.868,98.26z M45.772,96.387
		h-0.955v1.246h0.955c0.388,0,0.668-0.25,0.668-0.62C46.44,96.631,46.16,96.387,45.772,96.387z"/>
	<path fill="#89C98E" d="M49.116,99.811c-0.585,0-1.206-0.19-1.474-0.507c-0.048-0.06-0.072-0.125-0.072-0.197
		c0-0.185,0.161-0.34,0.34-0.34c0.066,0,0.137,0.018,0.191,0.06c0.275,0.209,0.626,0.358,1.044,0.358
		c0.561,0,0.788-0.28,0.788-0.537c0-0.823-2.315-0.311-2.315-1.778c0-0.662,0.573-1.169,1.45-1.169c0.477,0,1.074,0.149,1.336,0.436
		c0.048,0.054,0.071,0.125,0.071,0.19c0,0.186-0.173,0.328-0.346,0.328c-0.066,0-0.131-0.018-0.191-0.06
		c-0.28-0.185-0.609-0.269-0.931-0.269c-0.406,0-0.663,0.197-0.663,0.489c0,0.734,2.309,0.274,2.309,1.761
		C50.655,99.244,50.19,99.811,49.116,99.811z"/>
	<path fill="#89C98E" d="M53.529,96.112c0,0.221-0.179,0.394-0.394,0.394c-0.214,0-0.394-0.173-0.394-0.394
		c0-0.215,0.179-0.389,0.394-0.389C53.35,95.724,53.529,95.897,53.529,96.112z M53.135,99.775c-0.179,0-0.316-0.144-0.316-0.316
		v-2.327c0-0.167,0.137-0.31,0.328-0.31c0.167,0,0.31,0.143,0.31,0.31v2.327C53.458,99.632,53.314,99.775,53.135,99.775z"/>
	<path fill="#89C98E" d="M55.254,99.811c-0.388,0-0.901-0.119-1.127-0.376c-0.036-0.041-0.06-0.095-0.06-0.154
		c0-0.149,0.131-0.269,0.274-0.269c0.047,0,0.101,0.012,0.143,0.041c0.221,0.149,0.519,0.257,0.793,0.257
		c0.376,0,0.561-0.161,0.561-0.382c0-0.561-1.742-0.155-1.742-1.265c0-0.472,0.412-0.877,1.146-0.877
		c0.388,0,0.823,0.119,1.02,0.346c0.036,0.042,0.054,0.09,0.054,0.144c0,0.137-0.119,0.244-0.256,0.244
		c-0.042,0-0.09-0.012-0.131-0.035c-0.185-0.126-0.43-0.203-0.686-0.203c-0.322,0-0.525,0.155-0.525,0.352
		c0,0.508,1.736,0.126,1.736,1.271C56.454,99.417,56.03,99.811,55.254,99.811z"/>
	<path fill="#89C98E" d="M59.912,97.431c-0.256,0.023-0.501,0.131-0.656,0.352v1.677c0,0.173-0.143,0.316-0.316,0.316h-0.012
		c-0.173,0-0.31-0.144-0.31-0.316v-2.327c0-0.167,0.137-0.31,0.328-0.31c0.167,0,0.31,0.143,0.31,0.31v0.149
		c0.155-0.209,0.382-0.459,0.686-0.459c0.173,0,0.281,0.119,0.281,0.274C60.222,97.287,60.091,97.406,59.912,97.431z"/>
	<path fill="#89C98E" d="M63.081,98.504h-1.897c0.042,0.43,0.37,0.794,0.907,0.794c0.209,0,0.447-0.065,0.645-0.191
		c0.042-0.023,0.089-0.035,0.131-0.035c0.131,0,0.268,0.107,0.268,0.263c0,0.328-0.74,0.477-1.109,0.477
		c-0.865,0-1.51-0.603-1.51-1.515c0-0.836,0.609-1.51,1.462-1.51c0.674,0,1.164,0.405,1.342,1.026
		c0.036,0.119,0.072,0.256,0.072,0.382C63.392,98.361,63.254,98.504,63.081,98.504z M61.978,97.299c-0.525,0-0.77,0.418-0.799,0.764
		h1.599C62.765,97.729,62.538,97.299,61.978,97.299z"/>
	<path fill="#89C98E" d="M66.098,99.775h-0.037c-0.082,0-0.285-0.072-0.285-0.293v-0.054c-0.209,0.245-0.549,0.382-0.926,0.382
		c-0.471,0-1.008-0.315-1.008-0.954c0-0.662,0.537-0.937,1.008-0.937c0.383,0,0.723,0.125,0.926,0.369v-0.441
		c0-0.328-0.275-0.53-0.668-0.53c-0.252,0-0.479,0.065-0.687,0.221c-0.035,0.023-0.083,0.041-0.131,0.041
		c-0.119,0-0.251-0.095-0.251-0.25c0-0.048,0.019-0.102,0.048-0.138c0.227-0.286,0.757-0.405,1.123-0.405
		c0.637,0,1.205,0.269,1.205,1.044v1.629C66.414,99.632,66.27,99.775,66.098,99.775z M65.775,98.647
		c-0.145-0.191-0.406-0.286-0.68-0.286c-0.342,0-0.603,0.19-0.603,0.507c0,0.305,0.261,0.501,0.603,0.501
		c0.273,0,0.535-0.096,0.68-0.292V98.647z"/>
	<path fill="#89C98E" d="M69.566,99.775c-0.18,0-0.316-0.144-0.316-0.316v-0.113c-0.227,0.292-0.555,0.465-0.924,0.465
		c-0.734,0-1.277-0.561-1.277-1.509c0-0.931,0.537-1.516,1.277-1.516c0.357,0,0.691,0.167,0.924,0.465V96.04
		c0-0.173,0.137-0.316,0.328-0.316c0.168,0,0.311,0.144,0.311,0.316v3.419C69.889,99.632,69.746,99.775,69.566,99.775z
		 M69.25,97.734c-0.143-0.215-0.441-0.382-0.74-0.382c-0.488,0-0.805,0.394-0.805,0.949c0,0.549,0.316,0.942,0.805,0.942
		c0.299,0,0.598-0.167,0.74-0.376V97.734z"/>
	<path fill="#89C98E" d="M73.16,97.251l-1.229,3.001c-0.191,0.472-0.531,0.656-0.938,0.656c-0.221,0-0.424-0.083-0.424-0.286
		c0-0.155,0.125-0.286,0.299-0.286c0.041,0,0.078,0.006,0.119,0c0.143-0.012,0.264-0.077,0.334-0.238l0.143-0.322l-1.031-2.53
		c-0.012-0.035-0.018-0.071-0.018-0.107c0-0.155,0.125-0.315,0.322-0.315c0.125,0,0.244,0.077,0.299,0.208l0.764,1.969l0.764-1.969
		c0.041-0.125,0.166-0.208,0.303-0.208c0.186,0,0.316,0.154,0.316,0.31C73.184,97.174,73.178,97.216,73.16,97.251z"/>
	<path fill="#89C98E" d="M76.117,99.811c-0.49,0-0.746-0.263-0.746-0.745v-1.647h-0.238c-0.148,0-0.275-0.125-0.275-0.286
		c0-0.149,0.127-0.274,0.275-0.274h0.238v-0.507c0-0.173,0.143-0.316,0.328-0.316c0.174,0,0.311,0.144,0.311,0.316v0.507h0.352
		c0.15,0,0.27,0.125,0.27,0.286c0,0.149-0.119,0.274-0.27,0.274H76.01v1.486c0,0.221,0.125,0.34,0.273,0.34
		c0.043,0,0.096-0.018,0.133-0.018c0.172,0,0.279,0.119,0.279,0.274C76.695,99.691,76.523,99.811,76.117,99.811z"/>
	<path fill="#89C98E" d="M78.469,99.811c-0.924,0-1.484-0.686-1.484-1.515c0-0.824,0.561-1.51,1.484-1.51
		c0.926,0,1.486,0.686,1.486,1.51C79.955,99.125,79.395,99.811,78.469,99.811z M78.469,97.353c-0.529,0-0.822,0.441-0.822,0.943
		c0,0.507,0.293,0.948,0.822,0.948c0.525,0,0.818-0.441,0.818-0.948C79.287,97.794,78.994,97.353,78.469,97.353z"/>
	<path fill="#89C98E" d="M83.289,100.908c-0.383,0-0.871-0.083-1.104-0.352c-0.031-0.042-0.055-0.102-0.055-0.161
		c0-0.155,0.125-0.269,0.275-0.269c0.047,0,0.094,0.012,0.143,0.042c0.215,0.155,0.453,0.215,0.74,0.215
		c0.404,0,0.846-0.186,0.846-0.782v-0.334c-0.221,0.287-0.549,0.472-0.918,0.472c-0.734,0-1.277-0.525-1.277-1.474
		c0-0.937,0.537-1.479,1.277-1.479c0.357,0,0.686,0.167,0.918,0.465v-0.113c0-0.173,0.139-0.315,0.328-0.315
		c0.168,0,0.311,0.143,0.311,0.315v2.446C84.773,100.628,83.998,100.908,83.289,100.908z M84.135,97.734
		c-0.137-0.215-0.441-0.382-0.732-0.382c-0.49,0-0.807,0.364-0.807,0.913s0.316,0.913,0.807,0.913c0.291,0,0.596-0.173,0.732-0.388
		V97.734z"/>
	<path fill="#89C98E" d="M86.895,99.811c-0.926,0-1.486-0.686-1.486-1.515c0-0.824,0.561-1.51,1.486-1.51
		c0.924,0,1.486,0.686,1.486,1.51C88.381,99.125,87.818,99.811,86.895,99.811z M86.895,97.353c-0.531,0-0.824,0.441-0.824,0.943
		c0,0.507,0.293,0.948,0.824,0.948c0.525,0,0.816-0.441,0.816-0.948C87.711,97.794,87.42,97.353,86.895,97.353z"/>
	<path fill="#89C98E" d="M89.338,99.799c-0.232,0-0.418-0.197-0.418-0.418c0-0.232,0.186-0.423,0.418-0.423s0.424,0.19,0.424,0.423
		C89.762,99.602,89.57,99.799,89.338,99.799z M89.625,98.277c-0.006,0.155-0.127,0.274-0.293,0.274
		c-0.154,0-0.275-0.119-0.281-0.274c-0.018-0.405-0.088-2.105-0.088-2.178c-0.008-0.209,0.16-0.376,0.381-0.376
		c0.209,0,0.369,0.167,0.369,0.376C89.713,96.172,89.643,97.872,89.625,98.277z"/>
</g>
</svg>
