<?xml version="1.0" encoding="utf-8"?>
<!-- Generator: Adobe Illustrator 16.0.0, SVG Export Plug-In . SVG Version: 6.00 Build 0)  -->
<!DOCTYPE svg PUBLIC "-//W3C//DTD SVG 1.1//EN" "http://www.w3.org/Graphics/SVG/1.1/DTD/svg11.dtd">
<svg version="1.1" id="Layer_1" xmlns="http://www.w3.org/2000/svg" xmlns:xlink="http://www.w3.org/1999/xlink" x="0px" y="0px"
	 width="100px" height="100px" viewBox="14 14 100 100" enable-background="new 14 14 100 100" xml:space="preserve">
<ellipse fill="#CCCCCC" cx="64" cy="108.624" rx="49.333" ry="5.376"/>
<path display="none" fill="#EEF1F5" d="M110.605,105.316c0,0.536-0.434,0.971-0.971,0.971h-91.52c-0.536,0-0.971-0.435-0.971-0.971
	V40.221c0-0.537,0.435-0.971,0.971-0.971h91.52c0.537,0,0.971,0.435,0.971,0.971V105.316z"/>
<path fill="#EEF1F5" d="M108.503,106.712c0,1.555-1.26,2.814-2.814,2.814H23.645c-1.554,0-2.814-1.26-2.814-2.814V49.69
	c0-1.554,1.26-2.814,2.814-2.814h82.044c1.555,0,2.814,1.26,2.814,2.814V106.712z"/>
<path fill="#EFEFEF" d="M58.432,62.32c0,0-2.9,15.673,7.329,21.496c0,0-8.982-7.487-5.343-19.688L58.432,62.32z"/>
<circle fill="#D8DCE2" cx="24.204" cy="50.541" r="1.945"/>
<path fill="#334D5C" d="M20.831,53.756v52.956c0,1.555,1.26,2.814,2.814,2.814h82.044c1.555,0,2.814-1.26,2.814-2.814V53.756H20.831
	z"/>
<circle fill="#D8DCE2" cx="29.832" cy="50.541" r="1.945"/>
<circle fill="#D8DCE2" cx="35.461" cy="50.541" r="1.945"/>
<g>
	<path fill="#E0E0E0" d="M28.747,66.174c-0.603-0.035-1.062-0.285-1.36-0.626l0.298-0.382c0.227,0.269,0.591,0.508,1.062,0.561
		v-1.449c-0.608-0.167-1.235-0.37-1.235-1.104c0-0.614,0.519-1.05,1.235-1.104v-0.543h0.364v0.549
		c0.495,0.042,0.889,0.245,1.181,0.549l-0.298,0.364c-0.239-0.263-0.549-0.412-0.883-0.459v1.3c0.614,0.173,1.271,0.4,1.271,1.182
		c0,0.536-0.346,1.098-1.271,1.162v0.531h-0.364V66.174z M28.747,63.734v-1.217c-0.423,0.03-0.722,0.281-0.722,0.626
		C28.025,63.472,28.341,63.615,28.747,63.734z M29.111,64.373v1.36c0.566-0.059,0.757-0.398,0.757-0.686
		C29.869,64.659,29.529,64.498,29.111,64.373z"/>
	<path fill="#E0E0E0" d="M33.095,64.665c0-0.853,0.579-1.509,1.438-1.509c0.525,0,0.835,0.215,1.056,0.501l-0.298,0.269
		c-0.191-0.263-0.436-0.37-0.734-0.37c-0.608,0-0.997,0.472-0.997,1.11c0,0.638,0.388,1.116,0.997,1.116
		c0.298,0,0.543-0.119,0.734-0.377l0.298,0.275c-0.221,0.286-0.531,0.501-1.056,0.501C33.674,66.181,33.095,65.518,33.095,64.665z"
		/>
	<path fill="#E0E0E0" d="M38.467,66.109v-0.406c-0.221,0.25-0.597,0.478-1.026,0.478c-0.603,0-0.919-0.298-0.919-0.919v-2.035h0.448
		v1.898c0,0.507,0.256,0.656,0.65,0.656c0.346,0,0.68-0.203,0.847-0.436v-2.119h0.447v2.882H38.467z"/>
	<path fill="#E0E0E0" d="M40.111,66.109v-2.882h0.448v0.459c0.232-0.298,0.567-0.525,0.96-0.525v0.459
		c-0.054-0.006-0.107-0.012-0.173-0.012c-0.281,0-0.656,0.227-0.788,0.459v2.041H40.111z"/>
	<path fill="#E0E0E0" d="M42.38,65.506v-3.376h0.448v3.281c0,0.215,0.095,0.371,0.292,0.371c0.125,0,0.244-0.061,0.298-0.126
		l0.138,0.341c-0.12,0.107-0.275,0.185-0.537,0.185C42.595,66.181,42.38,65.936,42.38,65.506z"/>
	<path fill="#E0E0E0" d="M49.608,66.109v-1.958c0-0.364-0.155-0.597-0.531-0.597c-0.298,0-0.614,0.209-0.764,0.442v2.112h-0.447
		v-1.958c0-0.364-0.149-0.597-0.531-0.597c-0.292,0-0.603,0.215-0.758,0.448v2.106h-0.448v-2.882h0.448v0.418
		c0.125-0.185,0.507-0.489,0.937-0.489c0.436,0,0.686,0.238,0.77,0.537c0.161-0.262,0.549-0.537,0.967-0.537
		c0.525,0,0.805,0.292,0.805,0.871v2.083H49.608z"/>
	<path fill="#E0E0E0" d="M51.086,64.665c0-0.835,0.597-1.509,1.42-1.509c0.871,0,1.384,0.68,1.384,1.545v0.113h-2.327
		c0.036,0.543,0.412,0.996,1.032,0.996c0.334,0,0.662-0.131,0.895-0.37l0.215,0.292c-0.292,0.287-0.68,0.448-1.146,0.448
		C51.701,66.181,51.086,65.566,51.086,64.665z M52.5,63.525c-0.614,0-0.919,0.519-0.942,0.955h1.891
		C53.443,64.057,53.156,63.525,52.5,63.525z"/>
	<path fill="#E0E0E0" d="M57.001,66.109v-0.43c-0.215,0.292-0.567,0.501-0.973,0.501c-0.751,0-1.283-0.573-1.283-1.51
		c0-0.925,0.531-1.515,1.283-1.515c0.388,0,0.74,0.191,0.973,0.507v-1.533h0.447v3.98H57.001z M57.001,65.321v-1.301
		c-0.155-0.25-0.507-0.465-0.859-0.465c-0.584,0-0.931,0.478-0.931,1.116c0,0.639,0.346,1.11,0.931,1.11
		C56.494,65.781,56.846,65.572,57.001,65.321z"/>
	<path fill="#E0E0E0" d="M58.568,62.517c0-0.167,0.137-0.304,0.304-0.304s0.298,0.137,0.298,0.304s-0.131,0.298-0.298,0.298
		S58.568,62.684,58.568,62.517z M58.645,66.109v-2.882h0.448v2.882H58.645z"/>
	<path fill="#E0E0E0" d="M62.375,66.109v-0.43c-0.215,0.292-0.567,0.501-0.973,0.501c-0.751,0-1.283-0.573-1.283-1.51
		c0-0.925,0.531-1.515,1.283-1.515c0.388,0,0.74,0.191,0.973,0.507v-0.436h0.447v2.882H62.375z M62.375,65.321v-1.301
		c-0.155-0.25-0.507-0.465-0.859-0.465c-0.584,0-0.931,0.478-0.931,1.116c0,0.639,0.346,1.11,0.931,1.11
		C61.868,65.781,62.22,65.572,62.375,65.321z"/>
	<path fill="#E0E0E0" d="M64.467,65.674v1.533h-0.448v-3.98h0.448v0.43c0.209-0.292,0.566-0.501,0.973-0.501
		c0.758,0,1.282,0.573,1.282,1.509c0,0.931-0.524,1.516-1.282,1.516C65.045,66.181,64.705,65.99,64.467,65.674z M66.251,64.665
		c0-0.638-0.347-1.11-0.925-1.11c-0.353,0-0.704,0.209-0.859,0.459v1.301c0.155,0.251,0.507,0.466,0.859,0.466
		C65.904,65.781,66.251,65.303,66.251,64.665z"/>
	<path fill="#E0E0E0" d="M67.655,62.517c0-0.167,0.137-0.304,0.304-0.304s0.299,0.137,0.299,0.304s-0.132,0.298-0.299,0.298
		S67.655,62.684,67.655,62.517z M67.732,66.109v-2.882h0.447v2.882H67.732z"/>
	<path fill="#E0E0E0" d="M69.369,66.843l0.227-0.322c0.239,0.28,0.525,0.388,0.937,0.388c0.478,0,0.931-0.232,0.931-0.842v-0.435
		c-0.214,0.292-0.566,0.513-0.972,0.513c-0.752,0-1.283-0.561-1.283-1.491c0-0.925,0.525-1.498,1.283-1.498
		c0.388,0,0.739,0.191,0.972,0.507v-0.436h0.448v2.839c0,0.914-0.675,1.212-1.379,1.212C70.05,67.278,69.715,67.183,69.369,66.843z
		 M71.463,65.279v-1.265c-0.16-0.245-0.507-0.459-0.858-0.459c-0.585,0-0.931,0.459-0.931,1.098c0,0.632,0.346,1.092,0.931,1.092
		C70.956,65.745,71.303,65.53,71.463,65.279z"/>
	<path fill="#E0E0E0" d="M73.018,65.84c0-0.178,0.148-0.328,0.328-0.328c0.179,0,0.328,0.15,0.328,0.328
		c0,0.18-0.149,0.328-0.328,0.328C73.166,66.168,73.018,66.02,73.018,65.84z"/>
	<path fill="#E0E0E0" d="M76.872,66.109v-0.43c-0.214,0.292-0.566,0.501-0.972,0.501c-0.752,0-1.283-0.573-1.283-1.51
		c0-0.925,0.531-1.515,1.283-1.515c0.388,0,0.739,0.191,0.972,0.507v-0.436h0.448v2.882H76.872z M76.872,65.321v-1.301
		c-0.154-0.25-0.507-0.465-0.858-0.465c-0.585,0-0.931,0.478-0.931,1.116c0,0.639,0.346,1.11,0.931,1.11
		C76.365,65.781,76.718,65.572,76.872,65.321z"/>
	<path fill="#E0E0E0" d="M78.964,65.674v1.533h-0.447v-3.98h0.447v0.43c0.209-0.292,0.567-0.501,0.973-0.501
		c0.758,0,1.283,0.573,1.283,1.509c0,0.931-0.525,1.516-1.283,1.516C79.543,66.181,79.203,65.99,78.964,65.674z M80.748,64.665
		c0-0.638-0.346-1.11-0.925-1.11c-0.352,0-0.704,0.209-0.859,0.459v1.301c0.155,0.251,0.508,0.466,0.859,0.466
		C80.402,65.781,80.748,65.303,80.748,64.665z"/>
	<path fill="#E0E0E0" d="M82.153,62.517c0-0.167,0.137-0.304,0.304-0.304s0.299,0.137,0.299,0.304s-0.132,0.298-0.299,0.298
		S82.153,62.684,82.153,62.517z M82.23,66.109v-2.882h0.447v2.882H82.23z"/>
</g>
<g>
	<path fill="#E0E0E0" d="M27.435,74.129c0-1.224,0.901-2.059,2.046-2.059c0.704,0,1.193,0.334,1.51,0.787l-0.412,0.233
		c-0.227-0.341-0.644-0.579-1.098-0.579c-0.871,0-1.533,0.662-1.533,1.617c0,0.942,0.662,1.616,1.533,1.616
		c0.454,0,0.871-0.244,1.098-0.578l0.418,0.227c-0.334,0.459-0.812,0.793-1.516,0.793C28.336,76.187,27.435,75.352,27.435,74.129z"
		/>
	<path fill="#E0E0E0" d="M31.913,76.115v-2.882h0.448v0.46c0.232-0.299,0.567-0.525,0.96-0.525v0.459
		c-0.054-0.006-0.107-0.012-0.173-0.012c-0.281,0-0.656,0.227-0.788,0.46v2.04H31.913z"/>
	<path fill="#E0E0E0" d="M34.015,74.672c0-0.836,0.597-1.51,1.42-1.51c0.871,0,1.384,0.68,1.384,1.545v0.113h-2.327
		c0.036,0.543,0.412,0.997,1.032,0.997c0.334,0,0.662-0.132,0.895-0.37l0.215,0.292c-0.292,0.286-0.68,0.447-1.146,0.447
		C34.63,76.187,34.015,75.572,34.015,74.672z M35.429,73.532c-0.614,0-0.919,0.519-0.942,0.954h1.891
		C36.372,74.062,36.085,73.532,35.429,73.532z"/>
	<path fill="#E0E0E0" d="M39.931,76.115v-0.43c-0.215,0.292-0.567,0.501-0.973,0.501c-0.751,0-1.283-0.572-1.283-1.509
		c0-0.925,0.531-1.516,1.283-1.516c0.388,0,0.74,0.19,0.973,0.507v-0.436h0.447v2.882H39.931z M39.931,75.328v-1.301
		c-0.155-0.251-0.507-0.466-0.859-0.466c-0.584,0-0.931,0.478-0.931,1.116c0,0.638,0.346,1.109,0.931,1.109
		C39.423,75.787,39.775,75.578,39.931,75.328z"/>
	<path fill="#E0E0E0" d="M41.664,75.513v-1.886h-0.478v-0.394h0.478v-0.787h0.453v0.787h0.585v0.394h-0.585v1.79
		c0,0.215,0.096,0.37,0.287,0.37c0.131,0,0.245-0.06,0.304-0.125l0.131,0.34c-0.113,0.107-0.274,0.185-0.531,0.185
		C41.879,76.187,41.664,75.942,41.664,75.513z"/>
	<path fill="#E0E0E0" d="M43.551,72.523c0-0.167,0.137-0.304,0.304-0.304s0.298,0.137,0.298,0.304s-0.131,0.299-0.298,0.299
		S43.551,72.69,43.551,72.523z M43.628,76.115v-2.882h0.448v2.882H43.628z"/>
	<path fill="#E0E0E0" d="M47.222,76.115v-1.886c0-0.513-0.263-0.668-0.65-0.668c-0.352,0-0.68,0.215-0.853,0.447v2.106h-0.448
		v-2.882h0.448v0.418c0.203-0.245,0.597-0.489,1.032-0.489c0.597,0,0.913,0.304,0.913,0.931v2.022H47.222z"/>
	<path fill="#E0E0E0" d="M48.859,76.849l0.227-0.321c0.238,0.28,0.525,0.388,0.937,0.388c0.477,0,0.931-0.233,0.931-0.842v-0.436
		c-0.215,0.293-0.567,0.514-0.973,0.514c-0.751,0-1.283-0.562-1.283-1.492c0-0.925,0.525-1.497,1.283-1.497
		c0.388,0,0.74,0.19,0.973,0.507v-0.436H51.4v2.84c0,0.913-0.674,1.211-1.378,1.211C49.539,77.284,49.205,77.189,48.859,76.849z
		 M50.953,75.286v-1.265c-0.161-0.245-0.507-0.46-0.859-0.46c-0.584,0-0.931,0.46-0.931,1.098c0,0.633,0.346,1.092,0.931,1.092
		C50.446,75.751,50.792,75.536,50.953,75.286z"/>
	<path fill="#E0E0E0" d="M54.412,76.849l0.227-0.321c0.214,0.268,0.531,0.388,0.877,0.388c0.543,0,0.871-0.311,0.871-0.836v-0.43
		c-0.221,0.251-0.597,0.478-1.026,0.478c-0.603,0-0.919-0.292-0.919-0.919v-1.975h0.448v1.838c0,0.507,0.256,0.662,0.65,0.662
		c0.346,0,0.68-0.209,0.847-0.436v-2.064h0.447v2.846c0,0.817-0.608,1.205-1.318,1.205C55.039,77.284,54.705,77.142,54.412,76.849z"
		/>
	<path fill="#E0E0E0" d="M57.863,74.672c0-0.836,0.549-1.51,1.426-1.51c0.877,0,1.426,0.674,1.426,1.51
		c0,0.835-0.549,1.515-1.426,1.515C58.412,76.187,57.863,75.507,57.863,74.672z M60.244,74.672c0-0.585-0.34-1.11-0.955-1.11
		c-0.615,0-0.955,0.525-0.955,1.11c0,0.59,0.34,1.115,0.955,1.115C59.904,75.787,60.244,75.262,60.244,74.672z"/>
	<path fill="#E0E0E0" d="M63.689,76.115V75.71c-0.221,0.25-0.597,0.477-1.026,0.477c-0.603,0-0.919-0.298-0.919-0.919v-2.034h0.448
		v1.897c0,0.507,0.256,0.656,0.65,0.656c0.346,0,0.68-0.203,0.847-0.436v-2.118h0.447v2.882H63.689z"/>
	<path fill="#E0E0E0" d="M65.333,76.115v-2.882h0.447v0.46c0.233-0.299,0.567-0.525,0.961-0.525v0.459
		c-0.054-0.006-0.107-0.012-0.173-0.012c-0.28,0-0.656,0.227-0.788,0.46v2.04H65.333z"/>
	<path fill="#E0E0E0" d="M70.658,76.115l-1.604-3.979h0.566l1.343,3.437l1.343-3.437h0.566l-1.599,3.979H70.658z"/>
	<path fill="#E0E0E0" d="M73.693,76.115v-3.979h1.599c0.799,0,1.247,0.549,1.247,1.199s-0.454,1.199-1.247,1.199h-1.104v1.581
		H73.693z M76.025,73.335c0-0.447-0.322-0.758-0.793-0.758h-1.044v1.516h1.044C75.703,74.093,76.025,73.782,76.025,73.335z"/>
	<path fill="#E0E0E0" d="M77.257,75.555l0.299-0.382c0.256,0.298,0.686,0.572,1.246,0.572c0.711,0,0.938-0.382,0.938-0.691
		c0-1.026-2.357-0.454-2.357-1.874c0-0.656,0.585-1.109,1.373-1.109c0.603,0,1.073,0.209,1.407,0.561l-0.298,0.364
		c-0.299-0.334-0.716-0.478-1.151-0.478c-0.472,0-0.817,0.257-0.817,0.633c0,0.895,2.356,0.382,2.356,1.867
		c0,0.572-0.394,1.169-1.468,1.169C78.099,76.187,77.585,75.925,77.257,75.555z"/>
	<path fill="#E0E0E0" d="M81.187,75.847c0-0.179,0.148-0.328,0.328-0.328c0.179,0,0.328,0.149,0.328,0.328s-0.149,0.328-0.328,0.328
		C81.335,76.175,81.187,76.025,81.187,75.847z"/>
	<path fill="#E0E0E0" d="M82.864,75.847c0-0.179,0.148-0.328,0.328-0.328c0.179,0,0.328,0.149,0.328,0.328s-0.149,0.328-0.328,0.328
		C83.013,76.175,82.864,76.025,82.864,75.847z"/>
	<path fill="#E0E0E0" d="M84.542,75.847c0-0.179,0.148-0.328,0.328-0.328c0.179,0,0.328,0.149,0.328,0.328s-0.149,0.328-0.328,0.328
		C84.69,76.175,84.542,76.025,84.542,75.847z"/>
	<path fill="#E0E0E0" d="M90.242,76.115v-0.43c-0.214,0.292-0.566,0.501-0.972,0.501c-0.752,0-1.283-0.572-1.283-1.509
		c0-0.925,0.531-1.516,1.283-1.516c0.388,0,0.739,0.19,0.972,0.507v-1.533h0.448v3.979H90.242z M90.242,75.328v-1.301
		c-0.154-0.251-0.507-0.466-0.858-0.466c-0.585,0-0.931,0.478-0.931,1.116c0,0.638,0.346,1.109,0.931,1.109
		C89.735,75.787,90.088,75.578,90.242,75.328z"/>
	<path fill="#E0E0E0" d="M91.719,74.672c0-0.836,0.549-1.51,1.426-1.51s1.426,0.674,1.426,1.51c0,0.835-0.549,1.515-1.426,1.515
		S91.719,75.507,91.719,74.672z M94.1,74.672c0-0.585-0.34-1.11-0.955-1.11c-0.614,0-0.954,0.525-0.954,1.11
		c0,0.59,0.34,1.115,0.954,1.115C93.76,75.787,94.1,75.262,94.1,74.672z"/>
	<path fill="#E0E0E0" d="M97.551,76.115v-1.886c0-0.513-0.263-0.668-0.65-0.668c-0.352,0-0.68,0.215-0.854,0.447v2.106H95.6v-2.882
		h0.447v0.418c0.203-0.245,0.597-0.489,1.032-0.489c0.597,0,0.913,0.304,0.913,0.931v2.022H97.551z"/>
	<path fill="#E0E0E0" d="M99.027,74.672c0-0.836,0.597-1.51,1.42-1.51c0.871,0,1.385,0.68,1.385,1.545v0.113h-2.327
		c0.036,0.543,0.411,0.997,1.032,0.997c0.334,0,0.662-0.132,0.895-0.37l0.215,0.292c-0.292,0.286-0.68,0.447-1.146,0.447
		C99.642,76.187,99.027,75.572,99.027,74.672z M100.441,73.532c-0.614,0-0.919,0.519-0.942,0.954h1.891
		C101.384,74.062,101.098,73.532,100.441,73.532z"/>
</g>
<g>
	<path fill="#81CC71" d="M29.236,97.239v-1.683l-1.569-2.297h0.579l1.235,1.85l1.235-1.85h0.579l-1.563,2.297v1.683H29.236z"/>
	<path fill="#81CC71" d="M31.172,95.796c0-0.836,0.549-1.51,1.426-1.51c0.877,0,1.426,0.674,1.426,1.51
		c0,0.835-0.549,1.515-1.426,1.515C31.721,97.311,31.172,96.631,31.172,95.796z M33.553,95.796c0-0.585-0.34-1.11-0.955-1.11
		c-0.615,0-0.955,0.525-0.955,1.11c0,0.59,0.34,1.115,0.955,1.115C33.213,96.911,33.553,96.386,33.553,95.796z"/>
	<path fill="#81CC71" d="M36.999,97.239v-0.405c-0.221,0.25-0.597,0.477-1.026,0.477c-0.603,0-0.919-0.298-0.919-0.919v-2.034h0.448
		v1.897c0,0.507,0.256,0.656,0.65,0.656c0.346,0,0.68-0.203,0.847-0.436v-2.118h0.447v2.882H36.999z"/>
	<path fill="#81CC71" d="M38.642,97.239v-2.882h0.448v0.46c0.232-0.299,0.567-0.525,0.96-0.525v0.459
		c-0.054-0.006-0.107-0.012-0.173-0.012c-0.281,0-0.656,0.227-0.788,0.46v2.04H38.642z"/>
	<path fill="#81CC71" d="M43.967,97.239l-1.605-3.979h0.567l1.342,3.437l1.342-3.437h0.567l-1.599,3.979H43.967z"/>
	<path fill="#81CC71" d="M47.001,97.239V93.26h1.599c0.799,0,1.247,0.549,1.247,1.199s-0.453,1.199-1.247,1.199h-1.104v1.581H47.001
		z M49.334,94.459c0-0.447-0.322-0.758-0.793-0.758h-1.044v1.516h1.044C49.012,95.217,49.334,94.906,49.334,94.459z"/>
	<path fill="#81CC71" d="M50.566,96.679l0.298-0.382c0.257,0.298,0.686,0.572,1.247,0.572c0.71,0,0.937-0.382,0.937-0.691
		c0-1.026-2.356-0.454-2.356-1.874c0-0.656,0.584-1.109,1.372-1.109c0.603,0,1.074,0.209,1.408,0.561l-0.298,0.364
		c-0.298-0.334-0.716-0.478-1.151-0.478c-0.472,0-0.817,0.257-0.817,0.633c0,0.895,2.356,0.382,2.356,1.867
		c0,0.572-0.394,1.169-1.468,1.169C51.407,97.311,50.894,97.048,50.566,96.679z"/>
	<path fill="#81CC71" d="M56.352,93.647c0-0.167,0.137-0.304,0.304-0.304s0.298,0.137,0.298,0.304s-0.131,0.299-0.298,0.299
		S56.352,93.814,56.352,93.647z M56.429,97.239v-2.882h0.448v2.882H56.429z"/>
	<path fill="#81CC71" d="M57.827,96.857l0.227-0.322c0.191,0.221,0.555,0.412,0.949,0.412c0.441,0,0.686-0.209,0.686-0.495
		c0-0.698-1.784-0.269-1.784-1.337c0-0.453,0.382-0.829,1.068-0.829c0.496,0,0.841,0.185,1.068,0.418l-0.209,0.31
		c-0.173-0.209-0.483-0.363-0.859-0.363c-0.394,0-0.638,0.196-0.638,0.453c0,0.626,1.784,0.215,1.784,1.336
		c0,0.483-0.388,0.871-1.127,0.871C58.513,97.311,58.119,97.162,57.827,96.857z"/>
	<path fill="#81CC71" d="M62.992,97.239v-2.882h0.448v0.46c0.232-0.299,0.567-0.525,0.96-0.525v0.459
		c-0.054-0.006-0.107-0.012-0.173-0.012c-0.281,0-0.656,0.227-0.788,0.46v2.04H62.992z"/>
	<path fill="#81CC71" d="M65.094,95.796c0-0.836,0.597-1.51,1.42-1.51c0.871,0,1.384,0.68,1.384,1.545v0.113H65.57
		c0.036,0.543,0.412,0.997,1.032,0.997c0.334,0,0.662-0.132,0.896-0.37l0.215,0.292c-0.293,0.286-0.681,0.447-1.146,0.447
		C65.708,97.311,65.094,96.696,65.094,95.796z M66.508,94.656c-0.615,0-0.919,0.519-0.943,0.954h1.892
		C67.45,95.187,67.164,94.656,66.508,94.656z"/>
	<path fill="#81CC71" d="M71.009,97.239v-0.43c-0.214,0.292-0.566,0.501-0.972,0.501c-0.752,0-1.283-0.572-1.283-1.509
		c0-0.925,0.531-1.516,1.283-1.516c0.388,0,0.739,0.19,0.972,0.507v-0.436h0.448v2.882H71.009z M71.009,96.452v-1.301
		c-0.154-0.251-0.507-0.466-0.858-0.466c-0.585,0-0.931,0.478-0.931,1.116c0,0.638,0.346,1.109,0.931,1.109
		C70.502,96.911,70.854,96.702,71.009,96.452z"/>
	<path fill="#81CC71" d="M74.74,97.239v-0.43c-0.214,0.292-0.566,0.501-0.972,0.501c-0.752,0-1.283-0.572-1.283-1.509
		c0-0.925,0.531-1.516,1.283-1.516c0.388,0,0.739,0.19,0.972,0.507V93.26h0.448v3.979H74.74z M74.74,96.452v-1.301
		c-0.154-0.251-0.507-0.466-0.858-0.466c-0.585,0-0.931,0.478-0.931,1.116c0,0.638,0.346,1.109,0.931,1.109
		C74.233,96.911,74.586,96.702,74.74,96.452z"/>
	<path fill="#81CC71" d="M76.355,97.973l0.227-0.321c0.215,0.268,0.531,0.388,0.877,0.388c0.543,0,0.871-0.311,0.871-0.836v-0.43
		c-0.221,0.251-0.597,0.478-1.026,0.478c-0.603,0-0.919-0.292-0.919-0.919v-1.975h0.447v1.838c0,0.507,0.257,0.662,0.65,0.662
		c0.347,0,0.681-0.209,0.848-0.436v-2.064h0.447v2.846c0,0.817-0.608,1.205-1.318,1.205C76.981,98.408,76.647,98.266,76.355,97.973z
		"/>
	<path fill="#81CC71" d="M81.908,96.637v-1.886h-0.478v-0.394h0.478V93.57h0.453v0.787h0.585v0.394h-0.585v1.79
		c0,0.215,0.096,0.37,0.286,0.37c0.132,0,0.245-0.06,0.305-0.125l0.131,0.34c-0.113,0.107-0.274,0.185-0.53,0.185
		C82.123,97.311,81.908,97.066,81.908,96.637z"/>
	<path fill="#81CC71" d="M83.705,95.796c0-0.836,0.549-1.51,1.426-1.51s1.426,0.674,1.426,1.51c0,0.835-0.549,1.515-1.426,1.515
		S83.705,96.631,83.705,95.796z M86.086,95.796c0-0.585-0.34-1.11-0.955-1.11c-0.614,0-0.954,0.525-0.954,1.11
		c0,0.59,0.34,1.115,0.954,1.115C85.746,96.911,86.086,96.386,86.086,95.796z"/>
	<path fill="#81CC71" d="M89.426,97.973l0.227-0.321c0.239,0.28,0.525,0.388,0.937,0.388c0.478,0,0.931-0.233,0.931-0.842v-0.436
		c-0.214,0.293-0.566,0.514-0.972,0.514c-0.752,0-1.283-0.562-1.283-1.492c0-0.925,0.525-1.497,1.283-1.497
		c0.388,0,0.739,0.19,0.972,0.507v-0.436h0.448v2.84c0,0.913-0.675,1.211-1.379,1.211C90.106,98.408,89.771,98.313,89.426,97.973z
		 M91.52,96.41v-1.265c-0.16-0.245-0.507-0.46-0.858-0.46c-0.585,0-0.931,0.46-0.931,1.098c0,0.633,0.346,1.092,0.931,1.092
		C91.013,96.875,91.359,96.66,91.52,96.41z"/>
	<path fill="#81CC71" d="M92.996,95.796c0-0.836,0.549-1.51,1.426-1.51s1.426,0.674,1.426,1.51c0,0.835-0.549,1.515-1.426,1.515
		S92.996,96.631,92.996,95.796z M95.377,95.796c0-0.585-0.34-1.11-0.955-1.11c-0.614,0-0.954,0.525-0.954,1.11
		c0,0.59,0.34,1.115,0.954,1.115C95.037,96.911,95.377,96.386,95.377,95.796z"/>
	<path fill="#81CC71" d="M96.788,96.971c0-0.179,0.148-0.328,0.328-0.328c0.179,0,0.328,0.149,0.328,0.328
		c0,0.173-0.149,0.328-0.328,0.328C96.937,97.299,96.788,97.144,96.788,96.971z M96.931,96.124l-0.096-2.864h0.562l-0.096,2.864
		H96.931z"/>
</g>
</svg>
