<?xml version="1.0" encoding="UTF-8" standalone="no"?>
<svg width="20px" height="20px" viewBox="0 0 20 20" version="1.1" xmlns="http://www.w3.org/2000/svg" xmlns:xlink="http://www.w3.org/1999/xlink" xmlns:sketch="http://www.bohemiancoding.com/sketch/ns">
    <!-- Generator: Sketch 3.1 (8751) - http://www.bohemiancoding.com/sketch -->
    <title></title>
    <desc>Created with Sketch.</desc>
    <defs></defs>
    <g id="Page-1" stroke="none" stroke-width="1" fill="none" fill-rule="evenodd" sketch:type="MSPage">
        <path d="M1,16.0348214 L1,4.75803571 C1,3.82613001 1.33086072,3.02932344 1.99259208,2.36759208 C2.65432344,1.70586072 3.45113001,1.375 4.38303571,1.375 L15.6598214,1.375 C16.5917271,1.375 17.3885337,1.70586072 18.0502651,2.36759208 C18.7119964,3.02932344 19.0428571,3.82613001 19.0428571,4.75803571 L19.0428571,16.0348214 C19.0428571,16.9667271 18.7119964,17.7635337 18.0502651,18.4252651 C17.3885337,19.0869964 16.5917271,19.4178571 15.6598214,19.4178571 L13.4044643,19.4178571 L13.4044643,12.2758929 L15.7890346,12.2758929 L16.1414342,9.64464286 L13.4044643,9.64464286 L13.4044643,7.96487165 C13.4044643,7.54199007 13.5140986,7.21700262 13.7333705,6.98989955 C13.9526425,6.76279648 14.3285316,6.64924665 14.8610491,6.64924665 L16.4116071,6.6375 L16.4116071,4.20594308 C15.6598177,4.13546282 14.9550256,4.10022321 14.2972098,4.10022321 C13.2321747,4.10022321 12.3785932,4.41542189 11.7364397,5.04582868 C11.0942862,5.67623548 10.7732143,6.55918331 10.7732143,7.69469866 L10.7732143,9.64464286 L8.14196429,9.64464286 L8.14196429,12.2758929 L10.7732143,12.2758929 L10.7732143,19.4178571 L4.38303571,19.4178571 C3.45113001,19.4178571 2.65432344,19.0869964 1.99259208,18.4252651 C1.33086072,17.7635337 1,16.9667271 1,16.0348214 L1,16.0348214 Z" id="" stroke="#666666" sketch:type="MSShapeGroup"></path>
    </g>
</svg>