<?xml version="1.0" encoding="UTF-8" standalone="no"?>
<svg width="64px" height="65px" viewBox="0 0 64 65" version="1.1" xmlns="http://www.w3.org/2000/svg" xmlns:xlink="http://www.w3.org/1999/xlink" xmlns:sketch="http://www.bohemiancoding.com/sketch/ns">
    <!-- Generator: Sketch 3.1 (8751) - http://www.bohemiancoding.com/sketch -->
    <title></title>
    <desc>Created with Sketch.</desc>
    <defs></defs>
    <g id="Page-1" stroke="none" stroke-width="1" fill="none" fill-rule="evenodd" sketch:type="MSPage">
        <path d="M0,52.2410836 L0,12.3981827 C0,9.10559323 1.16899009,6.29033308 3.50700533,3.95231783 C5.84502058,1.61430259 8.66028073,0.4453125 11.9528702,0.4453125 L51.7957711,0.4453125 C55.0883606,0.4453125 57.9036207,1.61430259 60.241636,3.95231783 C62.5796512,6.29033308 63.7486413,9.10559323 63.7486413,12.3981827 L63.7486413,52.2410836 C63.7486413,55.5336731 62.5796512,58.3489332 60.241636,60.6869485 C57.9036207,63.0249637 55.0883606,64.1939538 51.7957711,64.1939538 L43.8271909,64.1939538 L43.8271909,38.9601166 L52.2523043,38.9601166 L53.4973949,29.6634398 L43.8271909,29.6634398 L43.8271909,23.7285077 C43.8271909,22.2343914 44.2145486,21.0861526 44.9892755,20.2837569 C45.7640024,19.4813611 47.0920859,19.0801692 48.9735656,19.0801692 L54.4519644,19.0386662 L54.4519644,10.4475407 C51.7957578,10.1985214 49.3056014,10.0740135 46.9814205,10.0740135 C43.2184611,10.0740135 40.202605,11.1876668 37.9337618,13.4150068 C35.6649186,15.6423467 34.530514,18.7619593 34.530514,22.7739382 L34.530514,29.6634398 L25.2338372,29.6634398 L25.2338372,38.9601166 L34.530514,38.9601166 L34.530514,64.1939538 L11.9528702,64.1939538 C8.66028073,64.1939538 5.84502058,63.0249637 3.50700533,60.6869485 C1.16899009,58.3489332 0,55.5336731 0,52.2410836 L0,52.2410836 Z" id="" fill="#666666" sketch:type="MSShapeGroup"></path>
    </g>
</svg>