<?xml version="1.0" encoding="utf-8"?>
<!-- Generator: Adobe Illustrator 16.0.0, SVG Export Plug-In . SVG Version: 6.00 Build 0)  -->
<!DOCTYPE svg PUBLIC "-//W3C//DTD SVG 1.1//EN" "http://www.w3.org/Graphics/SVG/1.1/DTD/svg11.dtd">
<svg version="1.1" id="Layer_1" xmlns="http://www.w3.org/2000/svg" xmlns:xlink="http://www.w3.org/1999/xlink" x="0px" y="0px"
	 width="122px" height="101.241px" viewBox="-11 0.509 122 101.241" enable-background="new -11 0.509 122 101.241"
	 xml:space="preserve">
<ellipse opacity="0.2" fill="#0C0C0C" cx="50" cy="95.637" rx="58.523" ry="5.332"/>
<path fill="#5AA1BA" d="M94.616,48.586v45.891c0,1.534-1.247,2.781-2.781,2.781H5.615c-1.535,0-2.781-1.247-2.781-2.781V48.586
	H94.616z"/>
<path fill="#5EA8BC" d="M7.006,23.555h83.438l6.953,6.953v18.079H0.053V30.508L7.006,23.555z"/>
<path fill="#4B82A0" d="M41.771,26.336h13.906v70.923H41.771V26.336z"/>
<path fill="#4A8899" d="M2.834,48.586h91.782v2.781H2.834V48.586z"/>
<polygon fill="#66B9CC" points="7.006,23.555 0.053,30.508 97.397,30.508 90.444,23.555 "/>
<rect x="41.771" y="26.336" fill="#508BA0" width="13.906" height="4.172"/>
<path fill="#508BA0" d="M82.296,6.643c-1.953-3.351-6.019-5.352-10.87-5.352c-11.042,0-18.868,9.974-22.713,16.269
	C44.862,11.271,37.038,1.355,26.02,1.355c-6.986,0-12.058,4.162-12.058,9.809c0,10.014,11.425,16.549,34.392,16.549
	s35.136-8.399,35.136-16.467C83.485,9.643,83.13,8.073,82.296,6.643z M26.221,16.996c-3.906-1.972-5.297-4.184-5.297-5.598
	c0-1.809,2.277-3.12,5.417-3.12c7.563,0,13.549,7.377,16.802,12.513C34.431,20.243,29.202,18.5,26.221,16.996z M75.991,13.08
	c-1.972,3.345-8.688,6.89-21.702,7.71c3.285-5.136,9.31-12.513,16.8-12.513c2.898,0,4.55,1.054,5.134,2.041
	C76.685,11.103,76.608,12.033,75.991,13.08z"/>
<rect x="41.771" y="48.586" fill="#3F6D75" width="13.906" height="2.781"/>
</svg>
