<?xml version="1.0" encoding="utf-8"?>
<!-- Generator: Adobe Illustrator 16.0.0, SVG Export Plug-In . SVG Version: 6.00 Build 0)  -->
<!DOCTYPE svg PUBLIC "-//W3C//DTD SVG 1.1//EN" "http://www.w3.org/Graphics/SVG/1.1/DTD/svg11.dtd">
<svg version="1.1" id="Layer_1" xmlns="http://www.w3.org/2000/svg" xmlns:xlink="http://www.w3.org/1999/xlink" x="0px" y="0px"
	 width="512px" height="512px" viewBox="0 0 512 512" enable-background="new 0 0 512 512" xml:space="preserve">
<g id="favorite_2_">
	<path d="M370.361,37.97c-25.141,0-49.828,6.688-71.453,19.281c-14.688,8.609-27.656,19.703-38.484,32.984l-4.438,5.453
		l-4.438-5.453c-10.828-13.281-23.766-24.375-38.484-32.984c-21.593-12.594-46.312-19.281-71.452-19.281
		C64.848,37.97,2.691,99.907,0.098,178.969c-1.328,39.672,11.375,79.891,37.75,119.608c20.781,31.266,50.031,62.25,86.969,92.125
		c63.015,51.031,126.639,81.172,127.279,81.484l3.891,1.844l3.891-1.844c2.625-1.234,64.766-30.859,127.312-81.484
		c36.937-29.875,66.187-60.891,86.936-92.125c26.391-39.718,39.078-79.952,37.781-119.608
		C509.281,99.907,447.126,37.97,370.361,37.97z M459.126,288.234c-19.672,29.671-47.578,59.249-82.937,87.952
		c-48.969,39.688-98.562,66.578-117.594,76.281l-2.609,1.328l-2.609-1.328c-19.062-9.719-68.687-36.641-117.562-76.281
		c-35.405-28.734-63.312-58.312-82.968-87.952c-24.109-36.391-35.734-72.953-34.562-108.672c1.094-33.265,14.25-64.28,37.047-87.312
		c22.984-23.234,53.625-36.031,86.28-36.031c21.922,0,43.453,5.797,62.28,16.812c18.25,10.656,33.547,25.906,44.25,44.125
		l7.859,13.344l7.844-13.344c10.688-18.219,26-33.469,44.25-44.125c18.828-11.016,40.344-16.812,62.266-16.812
		c32.655,0,63.296,12.797,86.28,36.031c22.796,23.047,35.952,54.047,37.062,87.312C494.875,215.281,483.25,251.844,459.126,288.234z
		"/>
	<path d="M142.55,96.907c-45.905,0-83.249,37.375-83.249,83.312c0,5.031,4.078,9.125,9.094,9.125s9.109-4.094,9.109-9.125
		c0-35.874,29.188-65.062,65.046-65.062c5.016,0,9.109-4.094,9.109-9.125S147.565,96.907,142.55,96.907z"/>
</g>
</svg>
