<?xml version="1.0" encoding="utf-8"?>
<!-- Generator: Adobe Illustrator 16.0.0, SVG Export Plug-In . SVG Version: 6.00 Build 0)  -->
<!DOCTYPE svg PUBLIC "-//W3C//DTD SVG 1.1//EN" "http://www.w3.org/Graphics/SVG/1.1/DTD/svg11.dtd">
<svg version="1.1" id="Layer_1" xmlns="http://www.w3.org/2000/svg" xmlns:xlink="http://www.w3.org/1999/xlink" x="0px" y="0px"
	 width="100px" height="100px" viewBox="0 0 100 100" enable-background="new 0 0 100 100" xml:space="preserve">
<path fill="#E57D77" d="M16.311,33.032c12.059-12.257,24.011-6.901,33.586,1.842c9.57-8.744,21.429-14.197,33.583-1.842
	c9.474,9.625,9.524,25.098,0,34.672C67.502,82.312,59.151,89.939,54.785,93.918c-2.731,2.49-6.865,2.498-9.608,0.021
	c-4.398-3.974-12.804-11.598-28.868-26.232C6.785,58.13,6.835,42.657,16.311,33.032z"/>
<path opacity="0.7" fill="#C4C4C4" d="M6.224,85.205c3.817-0.423,5.938-2.545,6.362-6.362c0.423,3.817,2.544,5.939,6.362,6.362
	c-3.817,0.425-5.938,2.545-6.362,6.362C12.162,87.753,10.041,85.63,6.224,85.205z M80.446,81.812
	c-0.422,3.815-2.545,5.938-6.362,6.362c3.817,0.422,5.94,2.544,6.362,6.359c0.425-3.815,2.546-5.938,6.363-6.359
	C82.992,87.75,80.871,85.628,80.446,81.812z M37.185,4.196c-0.422,3.816-2.545,5.938-6.362,6.362
	c3.817,0.424,5.939,2.545,6.362,6.361c0.425-3.816,2.546-5.938,6.363-6.361C39.731,10.134,37.61,8.012,37.185,4.196z"/>
<ellipse fill="#CCCCCC" cx="50" cy="95.598" rx="9.393" ry="1.628"/>
<path fill="#C4C4C4" d="M71.54,33.463c6.871-0.765,10.688-4.584,11.452-11.452c0.764,6.868,4.581,10.688,11.453,11.452
	c-6.872,0.762-10.689,4.581-11.453,11.45C82.229,38.045,78.411,34.227,71.54,33.463z"/>
<path fill="#F99593" d="M18.101,49.603c0-8.198,6.669-14.869,14.868-14.869c0.925,0,1.671,0.748,1.671,1.671
	c0,0.922-0.749,1.67-1.671,1.67c-6.354,0-11.525,5.171-11.525,11.527c0,0.924-0.748,1.671-1.671,1.671
	C18.85,51.272,18.101,50.526,18.101,49.603z"/>
<path fill="#DD615B" d="M47.94,91.492C43.542,87.52,35.138,79.895,19.073,65.26l-0.069-0.075l-1.424-1.298
	c-6.272-6.31-8.365-15.168-6.375-23.236c-3.845,8.967-2.181,19.728,5.102,27.053c16.063,14.635,24.468,22.259,28.869,26.232
	c2.744,2.477,6.877,2.468,9.608-0.021l2.292-2.092C54.358,93.926,50.535,93.836,47.94,91.492z"/>
<path fill="#C68989" d="M86.532,36.815c-0.878-1.334-1.892-2.604-3.053-3.783c-1.247-1.268-2.489-2.336-3.727-3.245
	c-1.921,2.04-4.647,3.28-8.213,3.677c6.871,0.762,10.688,4.581,11.452,11.45C83.382,41.423,84.566,38.729,86.532,36.815z"/>
</svg>
