<?xml version="1.0" encoding="utf-8"?>
<!-- Generator: Adobe Illustrator 16.0.0, SVG Export Plug-In . SVG Version: 6.00 Build 0)  -->
<!DOCTYPE svg PUBLIC "-//W3C//DTD SVG 1.1//EN" "http://www.w3.org/Graphics/SVG/1.1/DTD/svg11.dtd">
<svg version="1.1" id="Layer_1" xmlns="http://www.w3.org/2000/svg" xmlns:xlink="http://www.w3.org/1999/xlink" x="0px" y="0px"
	 width="194.666px" height="180.667px" viewBox="0 0 194.666 180.667" enable-background="new 0 0 194.666 180.667"
	 xml:space="preserve">
<g opacity="0.5">
	<g>
		<g>
			<path fill="#242E39" d="M165.686,81.27h-24.314c-0.47,0-0.851-0.381-0.851-0.85s0.381-0.85,0.851-0.85h23.963l6.192-6.191
				c0.333-0.333,0.87-0.332,1.202,0c0.332,0.332,0.332,0.87,0,1.202l-6.441,6.44C166.127,81.18,165.912,81.27,165.686,81.27z"/>
			<path fill="#242E39" d="M157.9,69.183h-16.529c-0.47,0-0.851-0.381-0.851-0.85s0.381-0.85,0.851-0.85h16.178l3.967-3.971
				c0.159-0.16,0.375-0.25,0.602-0.25h13.594c0.469,0,0.85,0.381,0.85,0.85s-0.381,0.85-0.85,0.85h-13.242l-3.967,3.971
				C158.343,69.093,158.127,69.183,157.9,69.183z"/>
			<path fill="#242E39" d="M177.131,126.983c-0.219,0-0.436-0.083-0.602-0.249l-9.212-9.212h-24.88c-0.47,0-0.851-0.381-0.851-0.851
				c0-0.469,0.381-0.85,0.851-0.85h25.232c0.225,0,0.441,0.09,0.601,0.249l9.461,9.461c0.332,0.332,0.332,0.87,0,1.202
				C177.565,126.9,177.348,126.983,177.131,126.983z"/>
			<path fill="#242E39" d="M152.746,105.434h-10.309c-0.47,0-0.851-0.381-0.851-0.85c0-0.47,0.381-0.851,0.851-0.851h10.309
				c0.47,0,0.851,0.381,0.851,0.851C153.597,105.053,153.216,105.434,152.746,105.434z"/>
			<path fill="#242E39" d="M176.703,103.603h-12.225c-0.227,0-0.441-0.09-0.602-0.249L153.87,93.347h-11.433
				c-0.47,0-0.851-0.381-0.851-0.851c0-0.469,0.381-0.85,0.851-0.85h11.785c0.225,0,0.441,0.09,0.601,0.249l10.007,10.007h11.873
				c0.469,0,0.85,0.381,0.85,0.85C177.553,103.222,177.172,103.603,176.703,103.603z"/>
			<path fill="#242E39" d="M177.898,67.149c-1.676,0-3.038-1.363-3.038-3.038c0-1.673,1.362-3.034,3.038-3.034
				c1.674,0,3.037,1.361,3.037,3.034C180.936,65.787,179.572,67.149,177.898,67.149z M177.898,62.778
				c-0.738,0-1.338,0.598-1.338,1.333c0,0.737,0.6,1.337,1.338,1.337c0.736,0,1.337-0.6,1.337-1.337
				C179.235,63.376,178.635,62.778,177.898,62.778z"/>
			<path fill="#242E39" d="M173.676,75.469c-1.676,0-3.038-1.361-3.038-3.035c0-1.675,1.362-3.038,3.038-3.038
				c1.672,0,3.033,1.363,3.033,3.038C176.709,74.107,175.348,75.469,173.676,75.469z M173.676,71.097
				c-0.738,0-1.338,0.6-1.338,1.337c0,0.736,0.6,1.334,1.338,1.334c0.734,0,1.333-0.599,1.333-1.334
				C175.009,71.697,174.41,71.097,173.676,71.097z"/>
			<path fill="#242E39" d="M178.887,105.786c-1.674,0-3.034-1.36-3.034-3.034c0-1.672,1.36-3.033,3.034-3.033
				s3.037,1.361,3.037,3.033C181.924,104.426,180.561,105.786,178.887,105.786z M178.887,101.419c-0.736,0-1.334,0.599-1.334,1.333
				c0,0.736,0.598,1.334,1.334,1.334s1.337-0.598,1.337-1.334C180.224,102.018,179.623,101.419,178.887,101.419z"/>
			<path fill="#242E39" d="M154.93,107.618c-1.672,0-3.033-1.361-3.033-3.034c0-1.676,1.361-3.038,3.033-3.038
				c1.676,0,3.038,1.362,3.038,3.038C157.968,106.257,156.605,107.618,154.93,107.618z M154.93,103.246
				c-0.734,0-1.333,0.6-1.333,1.338c0,0.735,0.599,1.334,1.333,1.334c0.738,0,1.338-0.599,1.338-1.334
				C156.268,103.846,155.668,103.246,154.93,103.246z"/>
			<path fill="#242E39" d="M178.674,130.711c-1.674,0-3.037-1.361-3.037-3.033c0-1.676,1.363-3.038,3.037-3.038
				c1.676,0,3.038,1.362,3.038,3.038C181.712,129.35,180.35,130.711,178.674,130.711z M178.674,126.34
				c-0.736,0-1.337,0.6-1.337,1.338c0,0.734,0.601,1.333,1.337,1.333c0.738,0,1.338-0.599,1.338-1.333
				C180.012,126.939,179.412,126.34,178.674,126.34z"/>
		</g>
		<g>
			<path fill="#242E39" d="M55.961,69.183H30.817c-0.469,0-0.85-0.381-0.85-0.85s0.381-0.85,0.85-0.85h25.144
				c0.47,0,0.851,0.381,0.851,0.85S56.431,69.183,55.961,69.183z"/>
			<path fill="#242E39" d="M14.668,116.341c-0.217,0-0.435-0.083-0.601-0.249c-0.332-0.332-0.332-0.87,0-1.202l10.903-10.907
				c0.159-0.159,0.375-0.249,0.601-0.249h30.389c0.47,0,0.851,0.381,0.851,0.851c0,0.469-0.381,0.85-0.851,0.85H25.924
				L15.27,116.092C15.104,116.258,14.886,116.341,14.668,116.341z"/>
			<path fill="#242E39" d="M55.961,117.522H32.997c-0.226,0-0.443-0.091-0.602-0.25l-3.149-3.161
				c-0.332-0.333-0.331-0.871,0.002-1.202c0.333-0.333,0.871-0.331,1.202,0.002l2.9,2.911h22.611c0.47,0,0.851,0.381,0.851,0.85
				C56.812,117.142,56.431,117.522,55.961,117.522z"/>
			<path fill="#242E39" d="M29.942,85.479H10.445c-0.469,0-0.85-0.381-0.85-0.85s0.381-0.85,0.85-0.85H29.59l3.967-3.967
				c0.16-0.159,0.375-0.249,0.601-0.249h21.802c0.47,0,0.851,0.381,0.851,0.85s-0.381,0.85-0.851,0.85h-21.45l-3.967,3.967
				C30.384,85.389,30.168,85.479,29.942,85.479z"/>
			<path fill="#242E39" d="M55.961,93.347H18.245c-0.469,0-0.85-0.381-0.85-0.851c0-0.469,0.381-0.85,0.85-0.85h37.716
				c0.47,0,0.851,0.381,0.851,0.85C56.812,92.966,56.431,93.347,55.961,93.347z"/>
			<path fill="#242E39" d="M28.633,71.366c-1.675,0-3.038-1.361-3.038-3.034c0-1.675,1.363-3.038,3.038-3.038
				c1.673,0,3.034,1.363,3.034,3.038C31.667,70.005,30.306,71.366,28.633,71.366z M28.633,66.995c-0.737,0-1.337,0.6-1.337,1.337
				c0,0.735,0.6,1.333,1.337,1.333c0.735,0,1.333-0.598,1.333-1.333C29.967,67.595,29.369,66.995,28.633,66.995z"/>
			<path fill="#242E39" d="M8.261,87.662c-1.675,0-3.038-1.361-3.038-3.034c0-1.675,1.363-3.038,3.038-3.038
				c1.673,0,3.034,1.363,3.034,3.038C11.295,86.301,9.934,87.662,8.261,87.662z M8.261,83.291c-0.737,0-1.337,0.6-1.337,1.337
				c0,0.735,0.6,1.333,1.337,1.333c0.735,0,1.333-0.598,1.333-1.333C9.595,83.891,8.997,83.291,8.261,83.291z"/>
			<path fill="#242E39" d="M16.061,95.529c-1.675,0-3.038-1.36-3.038-3.033c0-1.674,1.363-3.037,3.038-3.037
				c1.673,0,3.034,1.363,3.034,3.037C19.095,94.169,17.734,95.529,16.061,95.529z M16.061,91.159c-0.737,0-1.337,0.601-1.337,1.337
				c0,0.735,0.6,1.333,1.337,1.333c0.735,0,1.333-0.598,1.333-1.333C17.395,91.76,16.796,91.159,16.061,91.159z"/>
			<path fill="#242E39" d="M13.181,120.016c-1.675,0-3.038-1.361-3.038-3.033c0-1.676,1.363-3.038,3.038-3.038
				c1.673,0,3.034,1.362,3.034,3.038C16.215,118.654,14.854,120.016,13.181,120.016z M13.181,115.645
				c-0.737,0-1.337,0.6-1.337,1.338c0,0.734,0.6,1.333,1.337,1.333c0.736,0,1.334-0.599,1.334-1.333
				C14.515,116.244,13.917,115.645,13.181,115.645z"/>
			<path fill="#242E39" d="M28.304,115.001c-1.675,0-3.038-1.36-3.038-3.034c0-1.672,1.363-3.033,3.038-3.033
				c1.673,0,3.034,1.361,3.034,3.033C31.338,113.641,29.977,115.001,28.304,115.001z M28.304,110.634
				c-0.737,0-1.337,0.599-1.337,1.333c0,0.736,0.6,1.334,1.337,1.334c0.735,0,1.333-0.598,1.333-1.334
				C29.638,111.232,29.04,110.634,28.304,110.634z"/>
		</g>
		<g>
			<g>
				<path fill="#242E39" d="M68.781,169.265c-0.217,0-0.435-0.083-0.601-0.249c-0.332-0.332-0.332-0.869,0-1.202l5.4-5.404v-27.204
					c0-0.47,0.381-0.851,0.851-0.851c0.469,0,0.85,0.381,0.85,0.851v27.557c0,0.225-0.09,0.441-0.249,0.6l-5.649,5.654
					C69.217,169.182,69,169.265,68.781,169.265z"/>
				<path fill="#242E39" d="M101.596,161.732c-0.219,0-0.436-0.083-0.602-0.25c-0.332-0.332-0.332-0.869,0-1.201l8.929-8.922
					v-16.154c0-0.47,0.381-0.851,0.851-0.851c0.469,0,0.85,0.381,0.85,0.851v16.508c0,0.225-0.09,0.441-0.25,0.601l-9.178,9.17
					C102.03,161.649,101.812,161.732,101.596,161.732z"/>
				<path fill="#242E39" d="M83.312,148.978c-0.217,0-0.436-0.083-0.602-0.249c-0.331-0.332-0.33-0.871,0.002-1.203l2.99-2.986
					v-9.334c0-0.47,0.381-0.851,0.85-0.851c0.47,0,0.851,0.381,0.851,0.851v9.686c0,0.227-0.09,0.442-0.249,0.602l-3.24,3.236
					C83.748,148.895,83.53,148.978,83.312,148.978z"/>
				<path fill="#242E39" d="M91.449,169.882c-0.47,0-0.851-0.381-0.851-0.851V157.77c0-0.242,0.104-0.475,0.286-0.636l6.948-6.151
					v-15.777c0-0.47,0.381-0.851,0.851-0.851c0.469,0,0.85,0.381,0.85,0.851v16.16c0,0.244-0.104,0.476-0.287,0.637l-6.947,6.15
					v10.879C92.299,169.501,91.918,169.882,91.449,169.882z"/>
				<path fill="#242E39" d="M130.072,168.201c-0.219,0-0.436-0.083-0.602-0.249l-7.174-7.175c-0.159-0.16-0.249-0.375-0.249-0.602
					v-24.971c0-0.47,0.381-0.851,0.851-0.851c0.469,0,0.85,0.381,0.85,0.851v24.619l6.925,6.926c0.332,0.332,0.332,0.87,0,1.202
					C130.507,168.118,130.289,168.201,130.072,168.201z"/>
			</g>
			<path fill="#242E39" d="M67.238,172.996c-1.675,0-3.037-1.361-3.037-3.033c0-1.676,1.362-3.038,3.037-3.038
				c1.673,0,3.033,1.362,3.033,3.038C70.271,171.635,68.911,172.996,67.238,172.996z M67.238,168.625
				c-0.737,0-1.338,0.6-1.338,1.338c0,0.734,0.601,1.333,1.338,1.333c0.735,0,1.334-0.599,1.334-1.333
				C68.572,169.225,67.974,168.625,67.238,168.625z"/>
			<path fill="#242E39" d="M81.769,152.707c-1.675,0-3.038-1.361-3.038-3.033c0-1.676,1.363-3.038,3.038-3.038
				c1.673,0,3.034,1.362,3.034,3.038C84.803,151.346,83.441,152.707,81.769,152.707z M81.769,148.336
				c-0.737,0-1.337,0.6-1.337,1.338c0,0.734,0.6,1.333,1.337,1.333c0.735,0,1.334-0.599,1.334-1.333
				C83.103,148.936,82.504,148.336,81.769,148.336z"/>
			<path fill="#242E39" d="M91.451,174.253c-1.676,0-3.038-1.36-3.038-3.034s1.362-3.037,3.038-3.037
				c1.672,0,3.033,1.363,3.033,3.037S93.123,174.253,91.451,174.253z M91.451,169.882c-0.738,0-1.338,0.601-1.338,1.337
				s0.6,1.334,1.338,1.334c0.734,0,1.333-0.598,1.333-1.334S92.186,169.882,91.451,169.882z"/>
			<path fill="#242E39" d="M100.051,165.464c-1.676,0-3.038-1.36-3.038-3.034s1.362-3.037,3.038-3.037
				c1.673,0,3.034,1.363,3.034,3.037S101.724,165.464,100.051,165.464z M100.051,161.093c-0.738,0-1.338,0.601-1.338,1.337
				s0.6,1.334,1.338,1.334c0.735,0,1.334-0.598,1.334-1.334S100.786,161.093,100.051,161.093z"/>
			<path fill="#242E39" d="M131.617,171.933c-1.674,0-3.037-1.361-3.037-3.034c0-1.676,1.363-3.038,3.037-3.038
				s3.034,1.362,3.034,3.038C134.651,170.571,133.291,171.933,131.617,171.933z M131.617,167.561c-0.736,0-1.337,0.6-1.337,1.338
				c0,0.735,0.601,1.334,1.337,1.334s1.334-0.599,1.334-1.334C132.951,168.16,132.354,167.561,131.617,167.561z"/>
		</g>
		<g>
			<g>
				<path fill="#242E39" d="M86.553,50.646c-0.469,0-0.85-0.381-0.85-0.85V32.741c0-0.244,0.104-0.476,0.287-0.637l9.678-8.557
					v-7.516c0-0.469,0.381-0.85,0.85-0.85c0.47,0,0.851,0.381,0.851,0.85v7.898c0,0.244-0.104,0.476-0.287,0.637l-9.678,8.557
					v16.672C87.403,50.265,87.022,50.646,86.553,50.646z"/>
				<path fill="#242E39" d="M74.432,50.646c-0.47,0-0.851-0.381-0.851-0.85V24.151l-7.741-7.738c-0.332-0.332-0.332-0.87,0-1.202
					s0.869-0.333,1.203,0l7.989,7.987c0.159,0.159,0.249,0.375,0.249,0.601v25.996C75.281,50.265,74.9,50.646,74.432,50.646z"/>
				<path fill="#242E39" d="M122.898,50.646c-0.47,0-0.851-0.381-0.851-0.85v-33.12c0-0.469,0.381-0.85,0.851-0.85
					c0.469,0,0.85,0.381,0.85,0.85v33.12C123.748,50.265,123.367,50.646,122.898,50.646z"/>
				<path fill="#242E39" d="M110.773,50.646c-0.47,0-0.851-0.381-0.851-0.85V27.325l-4.249-4.257c-0.332-0.333-0.332-0.871,0-1.202
					c0.333-0.332,0.871-0.331,1.203,0.001l4.498,4.506c0.158,0.16,0.248,0.375,0.248,0.601v22.822
					C111.623,50.265,111.242,50.646,110.773,50.646z"/>
				<path fill="#242E39" d="M98.684,50.646c-0.47,0-0.851-0.381-0.851-0.85V35.391c0-0.225,0.089-0.44,0.247-0.599l3.814-3.837
					c0.332-0.333,0.871-0.333,1.202-0.004c0.333,0.331,0.335,0.869,0.004,1.202l-3.567,3.588v14.054
					C99.533,50.265,99.152,50.646,98.684,50.646z"/>
			</g>
			<path fill="#242E39" d="M64.897,17.301c-1.675,0-3.038-1.361-3.038-3.034c0-1.675,1.363-3.038,3.038-3.038
				c1.673,0,3.034,1.363,3.034,3.038C67.932,15.94,66.57,17.301,64.897,17.301z M64.897,12.93c-0.737,0-1.337,0.6-1.337,1.337
				c0,0.735,0.6,1.333,1.337,1.333c0.735,0,1.333-0.598,1.333-1.333C66.23,13.53,65.633,12.93,64.897,12.93z"/>
			<path fill="#242E39" d="M96.518,16.882c-1.674,0-3.037-1.361-3.037-3.034c0-1.675,1.363-3.038,3.037-3.038
				s3.034,1.363,3.034,3.038C99.552,15.521,98.191,16.882,96.518,16.882z M96.518,12.511c-0.736,0-1.337,0.6-1.337,1.337
				c0,0.735,0.601,1.333,1.337,1.333s1.334-0.598,1.334-1.333C97.852,13.111,97.254,12.511,96.518,12.511z"/>
			<path fill="#242E39" d="M104.043,33.046c-1.674,0-3.037-1.361-3.037-3.035c0-1.674,1.363-3.037,3.037-3.037
				s3.034,1.362,3.034,3.037C107.077,31.685,105.717,33.046,104.043,33.046z M104.043,28.675c-0.736,0-1.337,0.6-1.337,1.336
				c0,0.736,0.601,1.334,1.337,1.334s1.334-0.599,1.334-1.334C105.377,29.274,104.779,28.675,104.043,28.675z"/>
			<path fill="#242E39" d="M104.73,23.956c-1.676,0-3.038-1.361-3.038-3.034c0-1.675,1.362-3.038,3.038-3.038
				c1.672,0,3.033,1.363,3.033,3.038C107.764,22.595,106.402,23.956,104.73,23.956z M104.73,19.585c-0.738,0-1.338,0.6-1.338,1.337
				c0,0.735,0.6,1.333,1.338,1.333c0.734,0,1.333-0.598,1.333-1.333C106.063,20.185,105.465,19.585,104.73,19.585z"/>
			<path fill="#242E39" d="M122.9,17.525c-1.676,0-3.038-1.361-3.038-3.034c0-1.675,1.362-3.038,3.038-3.038
				c1.672,0,3.033,1.363,3.033,3.038C125.934,16.165,124.572,17.525,122.9,17.525z M122.9,13.154c-0.738,0-1.338,0.6-1.338,1.337
				c0,0.735,0.6,1.333,1.338,1.333c0.734,0,1.333-0.598,1.333-1.333C124.233,13.754,123.635,13.154,122.9,13.154z"/>
		</g>
	</g>
	<g>
		<rect x="55.961" y="49.795" fill="#FFFFFF" width="85.41" height="85.41"/>
		<path fill="#242E39" d="M141.371,136.055h-85.41c-0.469,0-0.85-0.381-0.85-0.85v-85.41c0-0.469,0.381-0.85,0.85-0.85h85.41
			c0.469,0,0.85,0.381,0.85,0.85v85.41C142.221,135.674,141.84,136.055,141.371,136.055z M56.812,134.354h83.709V50.646H56.812
			V134.354z"/>
	</g>
	<g>
		<g>
			<g>
				<g>
					<rect x="71.432" y="43.795" fill="#FECA5D" width="6" height="6"/>
					<rect x="83.553" y="43.795" fill="#FECA5D" width="6" height="6"/>
					<rect x="95.676" y="43.795" fill="#FECA5D" width="6" height="6"/>
					<rect x="107.797" y="43.795" fill="#FECA5D" width="6" height="6"/>
					<rect x="119.898" y="43.795" fill="#FECA5D" width="6" height="6"/>
				</g>
				<g>
					<rect x="71.432" y="135.205" fill="#FECA5D" width="6" height="6"/>
					<rect x="83.553" y="135.205" fill="#FECA5D" width="6" height="6"/>
					<rect x="95.676" y="135.205" fill="#FECA5D" width="6" height="6"/>
					<rect x="107.797" y="135.205" fill="#FECA5D" width="6" height="6"/>
					<rect x="119.898" y="135.205" fill="#FECA5D" width="6" height="6"/>
				</g>
				<g>
					<rect x="49.961" y="65.333" fill="#FECA5D" width="6" height="6"/>
					<rect x="49.961" y="77.455" fill="#FECA5D" width="6" height="6"/>
					<rect x="49.961" y="89.576" fill="#FECA5D" width="6" height="6"/>
					<rect x="49.961" y="101.699" fill="#FECA5D" width="6" height="6"/>
					<rect x="49.961" y="113.799" fill="#FECA5D" width="6" height="6"/>
				</g>
				<g>
					<rect x="141.371" y="65.333" fill="#FECA5D" width="6" height="6"/>
					<rect x="141.371" y="77.455" fill="#FECA5D" width="6" height="6"/>
					<rect x="141.371" y="89.576" fill="#FECA5D" width="6" height="6"/>
					<rect x="141.371" y="101.699" fill="#FECA5D" width="6" height="6"/>
					<rect x="141.371" y="113.799" fill="#FECA5D" width="6" height="6"/>
				</g>
			</g>
		</g>
		<g>
			<g>
				<path fill="#242E39" d="M77.432,50.58h-6c-0.434,0-0.785-0.352-0.785-0.785v-6c0-0.433,0.352-0.785,0.785-0.785h6
					c0.433,0,0.784,0.352,0.784,0.785v6C78.216,50.229,77.864,50.58,77.432,50.58z M72.216,49.011h4.431V44.58h-4.431V49.011z"/>
				<path fill="#242E39" d="M89.553,50.58h-6c-0.433,0-0.784-0.352-0.784-0.785v-6c0-0.433,0.352-0.785,0.784-0.785h6
					c0.434,0,0.785,0.352,0.785,0.785v6C90.338,50.229,89.986,50.58,89.553,50.58z M84.338,49.011h4.431V44.58h-4.431V49.011z"/>
				<path fill="#242E39" d="M101.676,50.58h-6c-0.434,0-0.785-0.352-0.785-0.785v-6c0-0.433,0.352-0.785,0.785-0.785h6
					c0.433,0,0.784,0.352,0.784,0.785v6C102.46,50.229,102.108,50.58,101.676,50.58z M96.46,49.011h4.431V44.58H96.46V49.011z"/>
				<path fill="#242E39" d="M113.797,50.58h-6c-0.433,0-0.784-0.352-0.784-0.785v-6c0-0.433,0.352-0.785,0.784-0.785h6
					c0.434,0,0.785,0.352,0.785,0.785v6C114.582,50.229,114.23,50.58,113.797,50.58z M108.582,49.011h4.431V44.58h-4.431V49.011z"/>
				<path fill="#242E39" d="M125.898,50.58h-6c-0.434,0-0.785-0.352-0.785-0.785v-6c0-0.433,0.352-0.785,0.785-0.785h6
					c0.433,0,0.784,0.352,0.784,0.785v6C126.683,50.229,126.331,50.58,125.898,50.58z M120.683,49.011h4.431V44.58h-4.431V49.011z"
					/>
			</g>
			<g>
				<path fill="#242E39" d="M77.432,141.989h-6c-0.434,0-0.785-0.352-0.785-0.784v-6c0-0.434,0.352-0.785,0.785-0.785h6
					c0.433,0,0.784,0.352,0.784,0.785v6C78.216,141.638,77.864,141.989,77.432,141.989z M72.216,140.42h4.431v-4.431h-4.431V140.42z
					"/>
				<path fill="#242E39" d="M89.553,141.989h-6c-0.433,0-0.784-0.352-0.784-0.784v-6c0-0.434,0.352-0.785,0.784-0.785h6
					c0.434,0,0.785,0.352,0.785,0.785v6C90.338,141.638,89.986,141.989,89.553,141.989z M84.338,140.42h4.431v-4.431h-4.431V140.42z
					"/>
				<path fill="#242E39" d="M101.676,141.989h-6c-0.434,0-0.785-0.352-0.785-0.784v-6c0-0.434,0.352-0.785,0.785-0.785h6
					c0.433,0,0.784,0.352,0.784,0.785v6C102.46,141.638,102.108,141.989,101.676,141.989z M96.46,140.42h4.431v-4.431H96.46V140.42z
					"/>
				<path fill="#242E39" d="M113.797,141.989h-6c-0.433,0-0.784-0.352-0.784-0.784v-6c0-0.434,0.352-0.785,0.784-0.785h6
					c0.434,0,0.785,0.352,0.785,0.785v6C114.582,141.638,114.23,141.989,113.797,141.989z M108.582,140.42h4.431v-4.431h-4.431
					V140.42z"/>
				<path fill="#242E39" d="M125.898,141.989h-6c-0.434,0-0.785-0.352-0.785-0.784v-6c0-0.434,0.352-0.785,0.785-0.785h6
					c0.433,0,0.784,0.352,0.784,0.785v6C126.683,141.638,126.331,141.989,125.898,141.989z M120.683,140.42h4.431v-4.431h-4.431
					V140.42z"/>
			</g>
			<g>
				<path fill="#242E39" d="M55.961,72.117h-6c-0.433,0-0.784-0.352-0.784-0.785v-6c0-0.433,0.352-0.785,0.784-0.785h6
					c0.434,0,0.785,0.352,0.785,0.785v6C56.746,71.766,56.395,72.117,55.961,72.117z M50.746,70.548h4.431v-4.431h-4.431V70.548z"/>
				<path fill="#242E39" d="M55.961,84.239h-6c-0.433,0-0.784-0.352-0.784-0.785v-6c0-0.433,0.352-0.785,0.784-0.785h6
					c0.434,0,0.785,0.352,0.785,0.785v6C56.746,83.888,56.395,84.239,55.961,84.239z M50.746,82.67h4.431v-4.431h-4.431V82.67z"/>
				<path fill="#242E39" d="M55.961,96.361h-6c-0.433,0-0.784-0.352-0.784-0.785v-6c0-0.433,0.352-0.784,0.784-0.784h6
					c0.434,0,0.785,0.352,0.785,0.784v6C56.746,96.01,56.395,96.361,55.961,96.361z M50.746,94.792h4.431v-4.431h-4.431V94.792z"/>
				<path fill="#242E39" d="M55.961,108.483h-6c-0.433,0-0.784-0.352-0.784-0.784v-6c0-0.434,0.352-0.785,0.784-0.785h6
					c0.434,0,0.785,0.352,0.785,0.785v6C56.746,108.132,56.395,108.483,55.961,108.483z M50.746,106.914h4.431v-4.431h-4.431
					V106.914z"/>
				<path fill="#242E39" d="M55.961,120.584h-6c-0.433,0-0.784-0.352-0.784-0.785v-6c0-0.433,0.352-0.784,0.784-0.784h6
					c0.434,0,0.785,0.352,0.785,0.784v6C56.746,120.232,56.395,120.584,55.961,120.584z M50.746,119.015h4.431v-4.431h-4.431
					V119.015z"/>
			</g>
			<g>
				<path fill="#242E39" d="M147.371,72.117h-6c-0.434,0-0.785-0.352-0.785-0.785v-6c0-0.433,0.352-0.785,0.785-0.785h6
					c0.433,0,0.784,0.352,0.784,0.785v6C148.155,71.766,147.804,72.117,147.371,72.117z M142.155,70.548h4.431v-4.431h-4.431V70.548
					z"/>
				<path fill="#242E39" d="M147.371,84.239h-6c-0.434,0-0.785-0.352-0.785-0.785v-6c0-0.433,0.352-0.785,0.785-0.785h6
					c0.433,0,0.784,0.352,0.784,0.785v6C148.155,83.888,147.804,84.239,147.371,84.239z M142.155,82.67h4.431v-4.431h-4.431V82.67z"
					/>
				<path fill="#242E39" d="M147.371,96.361h-6c-0.434,0-0.785-0.352-0.785-0.785v-6c0-0.433,0.352-0.784,0.785-0.784h6
					c0.433,0,0.784,0.352,0.784,0.784v6C148.155,96.01,147.804,96.361,147.371,96.361z M142.155,94.792h4.431v-4.431h-4.431V94.792z
					"/>
				<path fill="#242E39" d="M147.371,108.483h-6c-0.434,0-0.785-0.352-0.785-0.784v-6c0-0.434,0.352-0.785,0.785-0.785h6
					c0.433,0,0.784,0.352,0.784,0.785v6C148.155,108.132,147.804,108.483,147.371,108.483z M142.155,106.914h4.431v-4.431h-4.431
					V106.914z"/>
				<path fill="#242E39" d="M147.371,120.584h-6c-0.434,0-0.785-0.352-0.785-0.785v-6c0-0.433,0.352-0.784,0.785-0.784h6
					c0.433,0,0.784,0.352,0.784,0.784v6C148.155,120.232,147.804,120.584,147.371,120.584z M142.155,119.015h4.431v-4.431h-4.431
					V119.015z"/>
			</g>
		</g>
	</g>
	<g>
		<rect x="71.166" y="65" fill="#98D8E6" width="55" height="55"/>
		<g>
			<circle fill="#242E39" cx="77.3" cy="71.134" r="1.5"/>
			<circle fill="#242E39" cx="84.422" cy="71.134" r="1.5"/>
			<circle fill="#242E39" cx="91.544" cy="71.134" r="1.5"/>
			<circle fill="#242E39" cx="98.666" cy="71.134" r="1.5"/>
			<circle fill="#242E39" cx="105.788" cy="71.134" r="1.5"/>
			<circle fill="#242E39" cx="112.91" cy="71.134" r="1.5"/>
			<circle fill="#242E39" cx="120.032" cy="71.134" r="1.5"/>
			<circle fill="#242E39" cx="77.3" cy="78.256" r="1.5"/>
			<circle fill="#242E39" cx="84.422" cy="78.256" r="1.5"/>
			<circle fill="#242E39" cx="91.544" cy="78.256" r="1.5"/>
			<circle fill="#242E39" cx="98.666" cy="78.256" r="1.5"/>
			<circle fill="#242E39" cx="105.788" cy="78.256" r="1.5"/>
			<circle fill="#242E39" cx="112.91" cy="78.256" r="1.5"/>
			<circle fill="#242E39" cx="120.032" cy="78.256" r="1.5"/>
			<circle fill="#242E39" cx="77.3" cy="85.378" r="1.5"/>
			<circle fill="#242E39" cx="84.422" cy="85.378" r="1.5"/>
			<circle fill="#242E39" cx="91.544" cy="85.378" r="1.5"/>
			<circle fill="#242E39" cx="98.666" cy="85.378" r="1.5"/>
			<circle fill="#242E39" cx="105.788" cy="85.378" r="1.5"/>
			<circle fill="#242E39" cx="112.91" cy="85.378" r="1.5"/>
			<circle fill="#242E39" cx="120.032" cy="85.378" r="1.5"/>
			<circle fill="#242E39" cx="77.3" cy="92.5" r="1.5"/>
			<circle fill="#242E39" cx="84.422" cy="92.5" r="1.5"/>
			<circle fill="#242E39" cx="91.544" cy="92.5" r="1.5"/>
			<circle fill="#242E39" cx="98.666" cy="92.5" r="1.5"/>
			<circle fill="#242E39" cx="105.788" cy="92.5" r="1.5"/>
			<circle fill="#242E39" cx="112.91" cy="92.5" r="1.5"/>
			<circle fill="#242E39" cx="120.032" cy="92.5" r="1.5"/>
			<circle fill="#242E39" cx="77.3" cy="99.622" r="1.5"/>
			<circle fill="#242E39" cx="84.422" cy="99.622" r="1.5"/>
			<circle fill="#242E39" cx="91.544" cy="99.622" r="1.5"/>
			<circle fill="#242E39" cx="98.666" cy="99.622" r="1.5"/>
			<circle fill="#242E39" cx="105.788" cy="99.622" r="1.5"/>
			<circle fill="#242E39" cx="112.91" cy="99.622" r="1.5"/>
			<circle fill="#242E39" cx="120.032" cy="99.622" r="1.5"/>
			<circle fill="#242E39" cx="77.3" cy="106.744" r="1.5"/>
			<circle fill="#242E39" cx="84.422" cy="106.744" r="1.5"/>
			<circle fill="#242E39" cx="91.544" cy="106.744" r="1.5"/>
			<circle fill="#242E39" cx="98.666" cy="106.744" r="1.5"/>
			<circle fill="#242E39" cx="105.788" cy="106.744" r="1.5"/>
			<circle fill="#242E39" cx="112.91" cy="106.744" r="1.5"/>
			<circle fill="#242E39" cx="120.032" cy="106.744" r="1.5"/>
			<circle fill="#242E39" cx="77.3" cy="113.866" r="1.5"/>
			<circle fill="#242E39" cx="84.422" cy="113.866" r="1.5"/>
			<circle fill="#242E39" cx="91.544" cy="113.866" r="1.5"/>
			<circle fill="#242E39" cx="98.666" cy="113.866" r="1.5"/>
			<circle fill="#242E39" cx="105.788" cy="113.866" r="1.5"/>
			<circle fill="#242E39" cx="112.91" cy="113.866" r="1.5"/>
			<circle fill="#242E39" cx="120.032" cy="113.866" r="1.5"/>
		</g>
		<path fill="#242E39" d="M126.166,120.85h-55c-0.469,0-0.85-0.381-0.85-0.85V65c0-0.469,0.381-0.85,0.85-0.85h55
			c0.469,0,0.85,0.381,0.85,0.85v55C127.016,120.469,126.635,120.85,126.166,120.85z M72.016,119.15h53.3v-53.3h-53.3V119.15z"/>
	</g>
</g>
</svg>
