<?xml version="1.0" encoding="utf-8"?>
<!-- Generator: Adobe Illustrator 16.0.0, SVG Export Plug-In . SVG Version: 6.00 Build 0)  -->
<!DOCTYPE svg PUBLIC "-//W3C//DTD SVG 1.1//EN" "http://www.w3.org/Graphics/SVG/1.1/DTD/svg11.dtd">
<svg version="1.1" id="Layer_1" xmlns="http://www.w3.org/2000/svg" xmlns:xlink="http://www.w3.org/1999/xlink" x="0px" y="0px"
	 width="512px" height="512px" viewBox="0 0 512 512" enable-background="new 0 0 512 512" xml:space="preserve">
<g id="lock_3_2_">
	<path d="M255.996,272.125c-29.555,0-53.594,24.062-53.594,53.625c0,9.562,2.562,18.953,7.414,27.188
		c1.727,2.906,3.734,5.688,5.984,8.219l1.438,1.609l0.008,20.594c-0.016,22.141,17.367,39.531,38.75,39.531
		c21.375,0,38.766-17.391,38.766-38.766l-0.016-21.359l1.438-1.609c2.281-2.578,4.281-5.344,5.984-8.219
		c4.859-8.234,7.422-17.625,7.422-27.188C309.59,296.188,285.559,272.125,255.996,272.125z M276.559,354.531l-0.016,29.219
		c0.016,11.719-9.211,20.938-20.547,20.938s-20.562-9.219-20.562-20.562v-29.594c-9.219-6.625-14.828-17.344-14.828-28.781
		c0-19.531,15.875-35.391,35.391-35.391s35.391,15.859,35.391,35.391C291.387,337.188,285.777,347.906,276.559,354.531z"/>
	<path d="M371.215,211.719l-1.891-1.688v-97.094C369.324,50.656,318.668,0,256.402,0c-62.258,0-112.914,50.656-112.914,112.938
		v96.406l-1.922,1.703c-36.742,32.672-57.812,79.578-57.812,128.719C83.754,434.719,161.02,512,255.996,512
		c94.969,0,172.25-77.281,172.25-172.234C428.246,291.031,407.465,244.375,371.215,211.719z M161.691,112.938
		c0-52.219,42.492-94.688,94.711-94.688s94.719,42.469,94.719,94.688v82.844l-8.625-5c-52.062-30.328-120.055-30.484-172.227-0.453
		l-8.578,4.938V112.938z M364.918,448.656c-14.172,14.188-30.641,25.312-48.969,33.031c-18.984,8.031-39.172,12.094-59.953,12.094
		c-20.789,0-40.969-4.062-59.953-12.094c-18.32-7.719-34.797-18.844-48.969-33.031c-14.156-14.156-25.266-30.625-33.016-48.969
		c-8.023-18.953-12.102-39.125-12.102-59.922s4.078-40.984,12.102-59.969c7.742-18.297,18.852-34.766,33.016-48.953
		c14.148-14.141,30.617-25.25,48.961-33.031c37.938-16.062,81.992-16.062,119.914,0c18.359,7.781,34.828,18.891,48.969,33
		c14.172,14.219,25.266,30.688,33.016,48.984c8.031,18.984,12.094,39.172,12.094,59.969s-4.062,40.969-12.094,59.922
		C390.184,418.031,379.074,434.5,364.918,448.656z"/>
</g>
</svg>
