<?xml version="1.0" encoding="utf-8"?>
<!-- Generator: Adobe Illustrator 16.0.0, SVG Export Plug-In . SVG Version: 6.00 Build 0)  -->
<!DOCTYPE svg PUBLIC "-//W3C//DTD SVG 1.1//EN" "http://www.w3.org/Graphics/SVG/1.1/DTD/svg11.dtd">
<svg version="1.1" id="Layer_1" xmlns="http://www.w3.org/2000/svg" xmlns:xlink="http://www.w3.org/1999/xlink" x="0px" y="0px"
	 width="82.942px" height="83.042px" viewBox="0 0 82.942 83.042" enable-background="new 0 0 82.942 83.042" xml:space="preserve">
<g>
	<g>
		<path fill="#8DA18D" d="M55.791,30.69C55.758,30.69,55.758,30.723,55.791,30.69c0.33,0.065,0.628,0.198,0.926,0.363
			C56.452,30.922,56.121,30.756,55.791,30.69z"/>
		<path fill="#AED1D7" d="M34.856,58.503l0.331-2.414v-1.984c-0.596-0.198-1.157-0.463-1.753-0.728
			c-3.804-1.886-5.192-9.756-5.259-11.84c0-0.165,0-0.363,0-0.529h-0.032c-1.853,0-3.274-3.571-3.274-6.415
			c0-1.555,0.43-2.58,1.091-3.208c-0.032,0.033-0.065,0.065-0.065,0.065s-1.025-6.878,1.257-11.442
			c2.083-4.167,8.334-7.011,14.386-7.011s12.303,2.844,14.386,7.011c2.282,4.564,1.257,11.442,1.257,11.442
			s-0.133-0.099-0.298-0.231c0.827,0.596,1.323,1.654,1.323,3.406c0,2.878-1.423,6.416-3.274,6.416h-0.033c0,0.198,0,0.364,0,0.529
			c-0.066,2.083-1.455,9.954-5.258,11.84c-0.562,0.297-1.158,0.528-1.753,0.728v1.984l0.33,2.414
			c2.084,0.463,13.13,3.075,16.271,6.879c0.761,0.959,1.555,5.06,2.183,9.094c9.889-7.605,16.271-19.545,16.271-32.972
			C82.942,18.586,64.356,0,41.404,0C19.578,0,1.72,16.8,0,38.197v6.681c0.959,12.17,7.176,22.852,16.403,29.83
			c0.628-4.068,1.422-8.301,2.215-9.293C21.694,61.578,32.74,58.999,34.856,58.503z"/>
		<path fill="#8DA18D" d="M27.283,30.69c-0.231,0.032-0.463,0.132-0.661,0.231C26.82,30.822,27.052,30.756,27.283,30.69
			C27.283,30.723,27.283,30.69,27.283,30.69L27.283,30.69z"/>
		<path fill="#F9DFAA" d="M39.023,55.13c-1.091-0.199-2.447-0.529-3.803-1.025v1.984c1.653,2.183,2.877,3.142,6.316,3.24
			c1.984-0.065,3.208-0.396,4.233-1.058C43.323,57.577,41.041,56.519,39.023,55.13z"/>
		<path fill="#EBCF95" d="M39.023,55.13c2.018,1.389,4.3,2.447,6.747,3.108c0.76-0.529,1.389-1.224,2.116-2.149v-1.984
			c-3.241,1.19-6.35,1.355-6.35,1.355S40.512,55.395,39.023,55.13z"/>
		<polygon fill="#FFE8B9" points="27.283,30.723 27.283,30.69 27.283,30.69 		"/>
		<path fill="#FFE8B9" d="M30.756,26.457c0,0-0.596,1.72-0.331,2.018c0.265,0.33-0.396,2.976-0.396,2.976
			c0,0.033,0,0.033-0.033,0.066c0.893,0.926,1.488,2.514,1.488,4.3c0,1.885-0.661,3.538-1.653,4.464
			c0.297,0.761,0.728,1.488,1.289,2.018c2.018,1.918,3.506,4.067,3.506,4.067s0.364-0.991,0.496-1.389
			c0.133-0.396,6.35-1.555,6.35-1.555V25.465C35.915,26.589,30.756,26.457,30.756,26.457z"/>
		<path fill="#FFE8B9" d="M51.524,35.816c0-1.786,0.596-3.374,1.488-4.333V31.45c0,0-1.124-2.017-0.364-3.34
			c0.761-1.322-0.76-6.25-2.314-7.011s-2.58,2.943-8.334,4.232c-0.165,0.033-0.331,0.066-0.496,0.1V43.39
			c0,0,6.218,1.157,6.35,1.554c0.132,0.397,0.496,1.39,0.496,1.39s1.521-2.117,3.506-4.068c0.562-0.529,0.992-1.257,1.289-2.018
			C52.186,39.354,51.524,37.701,51.524,35.816z"/>
		<path fill="#74B5E3" d="M41.537,59.329l-4.663,5.49l-2.149-5.192l0.165-1.091c-2.083,0.463-13.129,3.075-16.271,6.879
			c-0.794,0.959-1.588,5.191-2.216,9.293c6.944,5.258,15.609,8.366,25.001,8.366c0.033,0,0.1,0,0.133,0V59.329z"/>
		<path fill="#84C2EA" d="M35.188,56.089l-0.331,2.414l-0.165,1.091l2.149,5.192l4.663-5.489
			C38.064,59.23,36.841,58.271,35.188,56.089z"/>
		<path fill="#74B5E3" d="M48.218,58.503l0.165,1.091l-2.149,5.192l-4.663-5.489v23.745c9.458-0.033,18.156-3.208,25.101-8.565
			c-0.628-4.035-1.422-8.136-2.183-9.095C61.347,61.578,50.301,58.966,48.218,58.503z M59.296,78.644H49.54v-1.853h9.756V78.644z"/>
		<path fill="#84C2EA" d="M46.2,64.819l2.149-5.192l-0.165-1.091l-0.331-2.414c-0.728,0.926-1.355,1.653-2.116,2.149
			c-1.025,0.694-2.249,1.025-4.233,1.058L46.2,64.819z"/>
		<path fill="#FFE8B9" d="M31.517,35.816c0-1.786-0.596-3.374-1.488-4.3c-0.694,1.918-1.025,4.597-1.025,4.597l0,0
			c0,0,0.1,2.216,0.893,4.167C30.854,39.354,31.517,37.701,31.517,35.816z"/>
		<path fill="#FFE8B9" d="M28.209,36.113c0,0-0.198-5.423-0.893-5.391l0,0c-0.231,0.066-0.463,0.133-0.661,0.231
			c-0.298,0.166-0.529,0.331-0.662,0.431c-0.694,0.628-1.091,1.653-1.091,3.208c0,2.877,1.422,6.415,3.273,6.415h0.033
			C28.144,38.925,28.209,36.113,28.209,36.113z"/>
		<path fill="#F9DFAA" d="M55.758,30.723c-0.694,0-0.894,5.391-0.894,5.391l0,0c0,0,0.033,2.812,0,4.895h0.033
			c1.853,0,3.274-3.571,3.274-6.415c0-1.72-0.529-2.812-1.323-3.407c-0.033-0.032-0.099-0.065-0.132-0.099
			C56.419,30.889,56.088,30.789,55.758,30.723z"/>
		<path fill="#FFE8B9" d="M51.524,35.816c0,1.885,0.661,3.538,1.653,4.464c0.794-1.951,0.894-4.167,0.894-4.167
			s-0.331-2.679-1.025-4.597C52.12,32.409,51.524,33.997,51.524,35.816z"/>
		<path fill="#30353C" d="M27.283,30.69L27.283,30.69L27.283,30.69c0.694-0.033,0.926,5.391,0.926,5.391h0.794l0,0
			c0,0,0.331-2.68,1.025-4.598c0-0.033,0-0.033,0.033-0.065c0,0,0.661-2.646,0.396-2.977c-0.265-0.331,0.331-2.018,0.331-2.018
			s5.159,0.165,10.748-1.025c0.165-0.033,0.33-0.066,0.496-0.099c5.787-1.29,6.812-4.961,8.334-4.233
			c1.554,0.761,3.042,5.688,2.314,7.011c-0.761,1.323,0.364,3.341,0.364,3.341v0.032c0.728,1.919,1.025,4.598,1.025,4.598h0.793l0,0
			c0,0,0.199-5.391,0.894-5.391l0,0c0.33,0.033,0.661,0.198,0.926,0.363c0.066,0.033,0.1,0.066,0.132,0.1
			c0.199,0.132,0.298,0.231,0.298,0.231s1.025-6.879-1.257-11.442c-2.083-4.167-8.334-7.012-14.386-7.012
			s-12.303,2.845-14.386,7.012c-2.282,4.563-1.257,11.442-1.257,11.442s0.033-0.033,0.066-0.066c0.099-0.099,0.33-0.265,0.661-0.43
			C26.82,30.822,27.052,30.723,27.283,30.69z"/>
		<path fill="#30353C" d="M41.537,55.46c0,0,3.075-0.165,6.35-1.355c0.595-0.198,1.157-0.463,1.753-0.728
			c3.803-1.886,5.191-9.756,5.258-11.84c0-0.165,0-0.363,0-0.529c0.033-2.083,0-4.895,0-4.895h-0.794c0,0-0.099,2.216-0.893,4.167
			c-0.298,0.761-0.728,1.488-1.29,2.018c-2.017,1.918-3.505,4.067-3.505,4.067s-0.364-0.991-0.496-1.389
			c-0.133-0.396-6.35-1.555-6.35-1.555s-6.218,1.158-6.35,1.555c-0.133,0.397-0.496,1.389-0.496,1.389s-1.521-2.116-3.506-4.067
			c-0.562-0.529-0.992-1.257-1.29-2.018c-0.793-1.951-0.893-4.167-0.893-4.167h-0.827c0,0-0.033,2.812,0,4.895
			c0,0.199,0,0.364,0,0.529c0.066,2.084,1.455,9.954,5.259,11.84c0.562,0.298,1.157,0.529,1.753,0.728
			c1.389,0.496,2.712,0.826,3.803,1.025C40.512,55.395,41.537,55.46,41.537,55.46z M37.965,46.763h6.846v0.033
			c0,0.793-0.628,1.422-1.422,1.422h-4.001c-0.794,0-1.423-0.629-1.423-1.422V46.763L37.965,46.763z"/>
		<path fill="#F9DFAA" d="M39.388,48.185h4.001c0.794,0,1.422-0.628,1.422-1.422v-0.033h-6.846v0.033
			C37.965,47.557,38.594,48.185,39.388,48.185z"/>
		<rect x="49.54" y="76.791" fill="#84C2EA" width="9.756" height="1.853"/>
	</g>
</g>
</svg>
