<?xml version="1.0" encoding="UTF-8" standalone="no"?>
<svg width="25px" height="19px" viewBox="0 0 25 19" version="1.1" xmlns="http://www.w3.org/2000/svg" xmlns:xlink="http://www.w3.org/1999/xlink" xmlns:sketch="http://www.bohemiancoding.com/sketch/ns">
    <!-- Generator: Sketch 3.0.4 (8054) - http://www.bohemiancoding.com/sketch -->
    <title>“</title>
    <desc>Created with Sketch.</desc>
    <defs></defs>
    <g id="Page-1" stroke="none" stroke-width="1" fill="none" fill-rule="evenodd" sketch:type="MSPage">
        <g id="Desktop-HD" sketch:type="MSArtboardGroup" transform="translate(-668.000000, -2658.000000)" fill="#999999">
            <g id="header-+-jumbo-+-page-top" sketch:type="MSLayerGroup">
                <g id="page-top" transform="translate(0.000000, 600.000000)" sketch:type="MSShapeGroup">
                    <g id="Group-+-Rectangle-13-+-Get-started-now!-+-In-ac-luctus-augue.--+-Rectangle-9-+-Get-started-now-2-+-Rectangle-16-+-Oval-1-+-Oval-2-+-Oval-3-+-–-Corey-Lloyd-+-Duis-convallis-ex-ti-+-“" transform="translate(0.000000, 1958.000000)">
                        <g id="testimonials">
                            <g id="testimonials_pagination-+-testimonials_testimonial" transform="translate(333.000000, 100.000000)">
                                <g id="testimonials_testimonial">
                                    <path d="M335.791514,11.9 C335.791514,15.96 338.422121,18.27 341.418091,18.27 C344.194843,18.27 346.387015,16.1 346.387015,13.51 C346.387015,10.92 344.487132,9.1 342.075743,9.1 C341.564236,9.1 340.979656,9.17 340.833511,9.24 C341.271946,6.86 343.756408,3.99 346.094726,2.66 L342.587249,0 C338.568266,2.73 335.791514,7.07 335.791514,11.9 L335.791514,11.9 Z M349.309912,11.9 C349.309912,15.96 351.940519,18.27 354.936489,18.27 C357.713241,18.27 359.905413,16.1 359.905413,13.51 C359.905413,10.92 358.00553,9.1 355.59414,9.1 C355.082634,9.1 354.498054,9.17 354.351909,9.24 C354.790344,6.86 357.274806,3.99 359.613124,2.66 L356.105647,0 C352.086664,2.73 349.309912,7.07 349.309912,11.9 L349.309912,11.9 Z" id="“"></path>
                                </g>
                            </g>
                        </g>
                    </g>
                </g>
            </g>
        </g>
    </g>
</svg>