<?xml version="1.0" encoding="utf-8"?>
<!-- Generator: Adobe Illustrator 16.0.0, SVG Export Plug-In . SVG Version: 6.00 Build 0)  -->
<!DOCTYPE svg PUBLIC "-//W3C//DTD SVG 1.1//EN" "http://www.w3.org/Graphics/SVG/1.1/DTD/svg11.dtd">
<svg version="1.1" xmlns="http://www.w3.org/2000/svg" xmlns:xlink="http://www.w3.org/1999/xlink" x="0px" y="0px" width="505px"
	 height="229px" viewBox="0 0 505 229" enable-background="new 0 0 505 229" xml:space="preserve">
<g id="Layer_2">
	<rect x="-3.843" y="-122.078" fill="#4E4D55" width="513.843" height="472.078"/>
</g>
<g id="Layer_3">
	<ellipse fill="#38383D" cx="254.171" cy="211.191" rx="62.695" ry="4.126"/>
</g>
<g id="Layer_1">
	<g>
		<g>
			<path fill="#351125" d="M203.398,177.688c-2.733,0-5.588-0.875-7.651-2.452c-1.313,0.473-2.729,0.662-4.112,0.507
				c-2.467-0.274-4.495-1.634-5.562-3.727c-0.395-0.772-0.087-1.72,0.686-2.114c0.773-0.395,1.72-0.088,2.115,0.686
				c0.752,1.475,2.107,1.919,3.111,2.03c0.49,0.053,0.994,0.039,1.494-0.035c-0.937-1.89-0.793-4.023,0.46-6.072
				c1.039-1.693,2.523-2.588,4.027-2.489c1.323,0.099,2.498,0.987,3.063,2.323c0.805,1.895,0.31,4.198-1.323,6.16
				c-0.278,0.335-0.585,0.649-0.913,0.938c2.376,1.213,5.668,1.492,7.795,0.445c1.889-0.928,2.608-2.764,2.135-5.459
				c-0.15-0.855,0.421-1.67,1.277-1.821c0.859-0.142,1.671,0.423,1.82,1.278c0.712,4.058-0.689,7.274-3.847,8.825
				C206.624,177.375,205.033,177.686,203.398,177.688z M197.717,167.156c-0.176,0-0.612,0.204-1.097,0.997
				c-0.712,1.165-0.792,2.218-0.233,3.199c0.335-0.255,0.639-0.544,0.903-0.859c1.018-1.225,1.104-2.312,0.845-2.921
				c-0.102-0.238-0.263-0.405-0.402-0.416C197.729,167.156,197.723,167.156,197.717,167.156z"/>
		</g>
		<g>
			<polyline fill="#EAADA8" points="197.841,141.623 194.304,147.126 208.847,161.276 210.42,140.837 197.055,140.051 			"/>
			<path fill="#351125" d="M208.848,163.635c-0.604,0-1.196-0.231-1.645-0.668l-14.543-14.15c-0.804-0.782-0.946-2.022-0.339-2.966
				l2.833-4.405c-0.313-0.429-0.485-0.963-0.453-1.533c0.077-1.301,1.199-2.307,2.493-2.215l13.364,0.785
				c0.633,0.037,1.222,0.326,1.64,0.803c0.415,0.477,0.624,1.102,0.574,1.732l-1.572,20.44c-0.071,0.912-0.662,1.701-1.518,2.025
				C209.409,163.586,209.127,163.635,208.848,163.635z M197.33,146.78l9.552,9.294l1.002-13.023l-7.889-0.465
				c-0.048,0.107-0.104,0.211-0.17,0.312L197.33,146.78z"/>
		</g>
		<g>
			<polyline fill="#EAADA8" points="308.295,141.623 311.832,147.126 297.289,161.276 295.717,140.837 309.08,140.051 			"/>
			<path fill="#351125" d="M297.289,163.635c-0.281,0-0.562-0.049-0.834-0.151c-0.855-0.324-1.449-1.113-1.518-2.025l-1.572-20.44
				c-0.047-0.631,0.158-1.256,0.576-1.732c0.414-0.477,1.006-0.766,1.637-0.803l13.363-0.785c1.275-0.094,2.418,0.914,2.494,2.215
				c0.033,0.57-0.139,1.104-0.451,1.533l2.832,4.405c0.607,0.943,0.465,2.184-0.338,2.966l-14.545,14.15
				C298.486,163.403,297.893,163.635,297.289,163.635z M298.252,143.051l1.002,13.023l9.553-9.294l-2.496-3.882
				c-0.064-0.102-0.119-0.205-0.168-0.312L298.252,143.051z"/>
		</g>
		<g>
			<path fill="#3F3636" d="M209.24,129.831c0,0-10.613,6.289-12.186,10.22l8.648,2.752L209.24,129.831z"/>
			<path fill="#351125" d="M205.703,145.161c-0.24,0-0.481-0.037-0.715-0.111l-8.647-2.751c-0.625-0.199-1.139-0.648-1.418-1.241
				c-0.28-0.593-0.3-1.274-0.057-1.882c1.779-4.45,11.285-10.256,13.172-11.373c0.827-0.492,1.867-0.431,2.633,0.151
				c0.763,0.582,1.098,1.571,0.844,2.497l-3.537,12.971c-0.169,0.621-0.584,1.145-1.148,1.452
				C206.48,145.063,206.093,145.161,205.703,145.161z M200.929,138.809l3.145,1.001l1.251-4.585
				C203.61,136.466,202.051,137.722,200.929,138.809z"/>
		</g>
		<g>
			<path fill="#3F3636" d="M297.682,129.831c0,0,10.613,6.289,12.186,10.22l-8.648,2.752L297.682,129.831z"/>
			<path fill="#351125" d="M301.219,145.161c-0.391,0-0.777-0.098-1.127-0.287c-0.562-0.308-0.979-0.831-1.148-1.452l-3.537-12.971
				c-0.252-0.926,0.082-1.915,0.848-2.497c0.762-0.582,1.805-0.644,2.631-0.151c1.887,1.117,11.393,6.923,13.172,11.373
				c0.244,0.607,0.223,1.289-0.057,1.882s-0.793,1.042-1.418,1.241l-8.648,2.751C301.701,145.124,301.459,145.161,301.219,145.161z
				 M301.6,135.232l1.248,4.577l3.152-1.004C304.852,137.695,303.266,136.435,301.6,135.232z"/>
		</g>
		<g>
			<rect x="209.201" y="154.373" fill="#EAADA8" width="41.129" height="47.152"/>
			<path fill="#351125" d="M250.33,203.884h-41.129c-1.303,0-2.359-1.057-2.359-2.358v-47.152c0-1.302,1.056-2.358,2.359-2.358
				h41.129c1.303,0,2.359,1.057,2.359,2.358v47.152C252.689,202.827,251.633,203.884,250.33,203.884z M211.558,199.167h36.415
				v-42.435h-36.415V199.167z"/>
		</g>
		<g>
			<rect x="257.186" y="154.373" fill="#EAADA8" width="41.131" height="47.152"/>
			<path fill="#351125" d="M298.316,203.884h-41.131c-1.303,0-2.357-1.057-2.357-2.358v-47.152c0-1.302,1.055-2.358,2.357-2.358
				h41.131c1.305,0,2.359,1.057,2.359,2.358v47.152C300.676,202.827,299.621,203.884,298.316,203.884z M259.545,199.167h36.414
				v-42.435h-36.414V199.167z"/>
		</g>
		<circle fill="#EAADA8" cx="253.52" cy="146.358" r="45.736"/>
		<g>
			<path fill="#351125" d="M253.521,194.455c-10.501,0-20.476-3.323-28.851-9.61c-1.041-0.782-1.251-2.261-0.47-3.302
				c0.783-1.042,2.262-1.253,3.303-0.47c7.55,5.669,16.545,8.664,26.018,8.664c9.525,0,18.561-3.025,26.133-8.753
				c1.037-0.786,2.518-0.582,3.305,0.458c0.787,1.039,0.58,2.518-0.459,3.304C274.104,191.099,264.082,194.455,253.521,194.455z"/>
		</g>
		<g opacity="0.3">
			<path fill="#FFFFFF" d="M253.08,187.22c-8.201,0-15.994-2.597-22.536-7.507c-0.695-0.521-0.835-1.507-0.315-2.201
				c0.522-0.696,1.508-0.835,2.202-0.313c5.994,4.499,13.133,6.877,20.649,6.877c2.316,0,4.633-0.232,6.881-0.688
				c0.846-0.162,1.68,0.377,1.854,1.229c0.174,0.851-0.375,1.68-1.229,1.854C258.131,186.968,255.607,187.22,253.08,187.22z"/>
		</g>
		<g opacity="0.3">
			<path fill="#FFFFFF" d="M266.805,184.51c-0.619,0-1.203-0.365-1.453-0.974c-0.332-0.801,0.051-1.721,0.854-2.053
				c2.711-1.118,5.271-2.583,7.617-4.355c0.689-0.522,1.678-0.386,2.201,0.305c0.523,0.692,0.389,1.68-0.305,2.203
				c-2.559,1.936-5.355,3.535-8.314,4.756C267.209,184.472,267.004,184.51,266.805,184.51z"/>
		</g>
		<g>
			<path fill="#EAADA8" d="M319.055,56.719c15.701-15.198,7.109-43.515,7.109-43.515c-28.617-2.083-53.25,16.786-53.25,16.786"/>
			<path fill="#351125" d="M319.055,59.077c-0.615,0-1.232-0.24-1.693-0.719c-0.906-0.935-0.883-2.429,0.053-3.335
				c12.469-12.067,8.357-33.596,6.906-39.564c-26.682-1.193-49.738,16.224-49.973,16.403c-1.031,0.792-2.514,0.594-3.305-0.441
				c-0.791-1.033-0.594-2.513,0.438-3.304c1.035-0.794,25.68-19.393,54.855-17.267c0.973,0.071,1.803,0.734,2.084,1.667
				c0.369,1.213,8.82,29.878-7.725,45.895C320.236,58.856,319.648,59.077,319.055,59.077z"/>
		</g>
		<g>
			<path fill="#D56363" d="M296.41,28.677c0,0,20.02-8.192,31.559-7.735c0,0,3.127,28.489-8.41,35.777"/>
			<path fill="#351125" d="M319.561,59.077c-0.781,0-1.547-0.388-1.996-1.099c-0.695-1.101-0.365-2.557,0.734-3.253
				c7.736-4.887,8.135-22.705,7.514-31.417c-11.111,0.488-28.324,7.478-28.51,7.553c-1.203,0.487-2.582-0.084-3.074-1.29
				c-0.494-1.207,0.084-2.583,1.289-3.077c0.836-0.341,20.639-8.376,32.545-7.909c1.168,0.046,2.123,0.94,2.252,2.099
				c0.133,1.224,3.143,30.045-9.496,38.03C320.428,58.959,319.992,59.077,319.561,59.077z"/>
		</g>
		<g>
			<path fill="#574A4A" d="M303.311,154.721c0,13.112-1.572,16.509-1.572,16.509s-30.393-3.664-49.795-3.664
				c-19.386,0-46.115,3.664-46.115,3.664s-1.148-8.113-1.572-18.601c-0.267-6.729,1.996-13.805,4.244-19.072
				c0.015-0.047,0.03-0.078,0.064-0.125c2.041-4.811,4.071-8.051,4.071-8.051s78.614-3.68,81.758,1.572
				c1.023,1.699,2.311,3.82,3.584,6.367c0.016,0.048,0.031,0.096,0.064,0.143C300.715,138.793,303.311,145.932,303.311,154.721z"/>
			<path fill="#351125" d="M205.826,173.588c-1.156,0-2.166-0.851-2.333-2.028c-0.047-0.336-1.17-8.351-1.593-18.835
				c-0.292-7.343,2.248-14.98,4.431-20.094h0.001c0.028-0.064,0.06-0.132,0.094-0.199c2.08-4.883,4.124-8.166,4.211-8.304
				c0.41-0.654,1.116-1.067,1.887-1.103c0.271-0.012,27.088-1.256,49.805-1.256c31.713,0,33.084,2.296,34.09,3.973l0.094,0.158
				c1.025,1.699,2.301,3.816,3.574,6.365c0.025,0.048,0.047,0.098,0.068,0.146c3.709,7.404,5.512,14.702,5.512,22.309
				c0,12.974-1.49,16.854-1.789,17.499c-0.428,0.93-1.402,1.475-2.424,1.352c-0.301-0.037-30.475-3.647-49.512-3.647
				c-19.005,0-45.529,3.605-45.795,3.643C206.041,173.58,205.932,173.588,205.826,173.588z M251.943,165.207
				c16.426,0,40.895,2.634,48.047,3.446c0.406-2.049,0.961-6.254,0.961-13.933c0-6.857-1.639-13.467-5.014-20.202v-0.001
				c-0.029-0.059-0.059-0.119-0.086-0.18c-1.164-2.32-2.354-4.307-3.32-5.91c-1.049-0.545-6.105-1.941-30.201-1.941
				c-19.79,0-42.722,0.949-48.309,1.193c-0.731,1.285-2.01,3.67-3.286,6.673c-0.028,0.067-0.06,0.134-0.096,0.199
				c-1.985,4.667-4.282,11.552-4.026,17.983c0.282,6.975,0.895,12.937,1.26,16.051C214.872,167.699,235.975,165.207,251.943,165.207
				z"/>
		</g>
		<g>
			<path fill="#351125" d="M206.095,166.387c-0.681,0-1.309-0.445-1.509-1.132c-0.243-0.833,0.236-1.707,1.069-1.949
				c0.192-0.058,19.522-5.606,45-5.689l8.549-0.027c0.002,0,0.004,0,0.006,0c0.865,0,1.568,0.7,1.572,1.567
				c0.002,0.867-0.699,1.574-1.568,1.577l-8.549,0.027c-25.04,0.081-43.942,5.508-44.13,5.562
				C206.389,166.367,206.241,166.387,206.095,166.387z"/>
		</g>
		<g opacity="0.2">
			<path fill="#351125" d="M328.328,29.774c-1-4.494-2.164-7.729-2.164-7.729c-11.537-0.455-31.557,7.739-31.557,7.739l7.033,6.091
				C308.033,33.56,320.121,29.636,328.328,29.774z"/>
			<path fill="#351125" d="M301.641,38.233c-0.559,0-1.109-0.198-1.545-0.576l-7.031-6.091c-0.619-0.536-0.918-1.355-0.783-2.165
				c0.131-0.808,0.676-1.489,1.432-1.801c0.818-0.333,20.662-8.387,32.545-7.912c0.959,0.038,1.801,0.654,2.127,1.558
				c0.047,0.134,1.162,3.25,2.162,7.642c0.111,0.273,0.172,0.573,0.172,0.886c0,1.302-1.055,2.358-2.357,2.358
				c-0.012,0-0.021,0-0.033,0s-0.023,0-0.039,0l-0.387-0.003c-7.826,0-19.311,3.736-25.459,5.962
				C302.182,38.188,301.91,38.233,301.641,38.233z M299.131,30.581l3.012,2.61c5.986-2.111,15.533-5.087,23.211-5.675
				c-0.332-1.258-0.648-2.323-0.896-3.12C316.404,24.629,304.918,28.459,299.131,30.581z"/>
		</g>
		<g>
			<path fill="#EAADA8" d="M189.605,56.719c-15.703-15.198-7.112-43.515-7.112-43.515c28.62-2.083,53.252,16.786,53.252,16.786"/>
			<path fill="#351125" d="M189.605,59.077c-0.591,0-1.183-0.221-1.64-0.664c-16.548-16.016-8.098-44.682-7.729-45.895
				c0.283-0.934,1.112-1.597,2.085-1.667c29.177-2.104,53.822,16.473,54.857,17.267c1.032,0.791,1.229,2.271,0.438,3.304
				c-0.791,1.035-2.269,1.233-3.305,0.441c-0.235-0.18-23.305-17.593-49.972-16.403c-1.442,5.975-5.534,27.524,6.906,39.564
				c0.937,0.906,0.961,2.4,0.055,3.335C190.837,58.837,190.222,59.077,189.605,59.077z"/>
		</g>
		<g>
			<path fill="#D56363" d="M212.249,28.677c0,0-20.021-8.192-31.559-7.735c0,0-3.128,28.489,8.411,35.777"/>
			<path fill="#351125" d="M189.099,59.077c-0.431,0-0.866-0.118-1.257-0.364c-12.639-7.984-9.63-36.806-9.496-38.03
				c0.127-1.159,1.085-2.053,2.251-2.099c11.876-0.486,31.707,7.568,32.545,7.909c1.206,0.495,1.783,1.87,1.29,3.076
				c-0.492,1.207-1.869,1.778-3.076,1.291c-0.183-0.075-17.398-7.064-28.509-7.553c-0.621,8.712-0.224,26.531,7.514,31.417
				c1.101,0.695,1.43,2.152,0.734,3.253C190.647,58.689,189.881,59.077,189.099,59.077z"/>
		</g>
		<g opacity="0.2">
			<path fill="#351125" d="M180.331,29.774c0.998-4.494,2.162-7.729,2.162-7.729c11.541-0.455,31.559,7.739,31.559,7.739
				l-7.035,6.091C200.626,33.56,188.54,29.636,180.331,29.774z"/>
			<path fill="#351125" d="M207.017,38.233c-0.27,0-0.542-0.046-0.803-0.142c-6.146-2.226-17.626-5.962-25.455-5.962l-0.388,0.003
				c-0.771,0.008-1.41-0.309-1.867-0.868c-0.457-0.559-0.632-1.297-0.476-2.002c1.019-4.588,2.196-7.878,2.245-8.017
				c0.326-0.904,1.167-1.52,2.127-1.558c11.91-0.459,31.732,7.579,32.545,7.912c0.758,0.312,1.302,0.993,1.434,1.801
				c0.132,0.81-0.163,1.629-0.783,2.165l-7.035,6.091C208.125,38.036,207.575,38.233,207.017,38.233z M183.306,27.516
				c7.678,0.588,17.225,3.564,23.208,5.675l3.016-2.612c-5.789-2.12-17.276-5.95-25.328-6.183
				C183.953,25.191,183.638,26.258,183.306,27.516z"/>
		</g>
		<g>
			<g>
				<path fill="#E7E7E7" d="M254.713,140.925c0.906-0.012,1.576-0.685,1.57-1.474c-0.006-0.838-0.691-1.455-1.605-1.443
					c-0.863,0.011-1.557,0.646-1.541,1.484C253.15,140.281,253.859,140.936,254.713,140.925z"/>
				<path fill="#E7E7E7" d="M277.686,141.547c0.906,0.061,1.625-0.558,1.682-1.345c0.061-0.836-0.572-1.507-1.486-1.567
					c-0.859-0.058-1.604,0.521-1.654,1.357C276.178,140.779,276.836,141.49,277.686,141.547z"/>
				<path fill="#E7E7E7" d="M293.559,152.072c-0.041-0.21-0.193-0.137-0.482,0.009c-0.461,0.172-0.9,0.226-1.291,0.22
					c0.395-0.604,0.893-1.451,0.963-2.034c0.256-2.08-3.152-2.86-4.365-1.076c-1.719,2.528,1.312,3.663,1.312,3.663
					c0.021,0.007,0.047,0.011,0.072,0.02c-0.77,0.773-2.85,1.405-3.441,1.437c0.383-3.461,0.576-5.19,0.961-8.65
					c0.049-0.082,0.08-0.207,0.098-0.39c0.062-0.619-0.387-1.051-1.078-1.119c-3.125-0.305-6.287,1.905-6.59,5.888
					c-0.02,0.251-0.021,0.493-0.01,0.73c-0.334,0.78-0.814,1.487-1.506,1.438c-0.648-0.046-0.588-0.932-0.574-1.146
					c0.168-2.425,0.25-3.639,0.418-6.063c0.039-0.572-0.463-1.086-1.309-1.14c-0.359-0.022-0.68,0.125-0.695,0.364
					c-0.01,0.166,0.086,0.315,0.057,0.769c-0.109,1.785-0.164,2.68-0.275,4.465c-0.002,0-0.002,0.001-0.002,0.002
					c-0.285,0.924-1.057,1.68-2.709,1.665c0.42-0.841,0.77-2.115,0.844-3.454c0.129-2.364-0.744-4.261-2.748-4.351
					c-1.078-0.049-1.82,0.475-2.383,1.172c-0.006-0.551-0.523-1.051-1.346-1.076c-0.361-0.012-0.826,0.072-0.832,0.24
					c-0.004,0.167,0.25,0.221,0.229,0.914c-0.049,1.66-0.072,2.491-0.121,4.151c-0.043,0.09-0.08,0.195-0.109,0.317
					c-0.246,1.038-0.748,2.562-1.746,2.539c-0.598-0.014-0.836-0.593-0.826-1.119c0.244-2.521,0.367-3.78,0.617-6.303
					c0.004-0.119-0.02-0.236-0.064-0.347c-0.121-0.446-0.547-0.72-1.121-0.73c-0.035-0.001-0.074,0.001-0.107,0.001
					c-0.025,0-0.049-0.004-0.072-0.004c-0.047-0.001-0.094,0.004-0.139,0.006c-3.02,0.107-5.789,2.527-5.775,6.389
					c0,0.187,0.01,0.37,0.027,0.548c-0.271,0.781-0.691,1.487-1.367,1.493c-0.648,0.006-0.658-0.879-0.66-1.094
					c-0.025-2.431-0.037-3.646-0.064-6.077c-0.006-0.574-0.551-1.046-1.395-1.033c-0.361,0.005-0.668,0.179-0.662,0.418
					c0.002,0.167,0.107,0.309,0.115,0.763c0.029,1.66,0.043,2.491,0.072,4.151c-0.039,0.092-0.07,0.198-0.096,0.323
					c-0.203,1.056-0.627,2.596-1.623,2.619c-0.598,0.015-0.863-0.554-0.879-1.08c-0.137-5.138-0.205-7.703-0.344-12.842
					c-0.016-0.572-0.58-1.038-1.445-1.011c-0.369,0.012-0.838,0.122-0.832,0.29s0.27,0.208,0.293,0.9
					c0.074,2.161,0.109,3.242,0.182,5.404c-2.785,0.453-5.057,2.706-4.869,6.36c0.01,0.18,0.026,0.349,0.047,0.514
					c-0.406,0.999-1.166,1.82-2.543,1.904c-1.295,0.079-2.013-0.543-2.421-1.33c2.38-0.861,3.55-3.026,3.45-4.792
					c-0.08-1.434-1.009-2.366-2.443-2.273c-1.976,0.127-3.749,2.546-3.512,5.574c0.03,0.383,0.094,0.739,0.187,1.074
					c-0.179,0.992-0.542,2.12-1.383,2.19c-0.646,0.054-0.722-0.829-0.74-1.043c-0.169-1.974-0.254-2.959-0.423-4.933
					c-0.094-1.097-0.59-2.379-2.255-2.225c-1.152,0.107-1.956,1.172-2.458,2.499c-0.162-1.067-0.715-2.191-2.25-2.023
					c-1.152,0.126-1.933,1.228-2.44,2.59c-0.047-0.399-0.071-0.6-0.118-0.999c-0.068-0.57-0.66-0.979-1.503-0.875
					c-0.357,0.044-0.642,0.248-0.611,0.486c0.021,0.166,0.141,0.295,0.197,0.745c0.379,3.01,0.567,4.513,0.946,7.522
					c0.111,0.879,0.823,0.963,1.316,0.902c0.715-0.087,0.623-0.655,0.569-1.107c-0.165-1.388-0.248-2.08-0.413-3.468
					c-0.072-1.895,1.136-4.106,1.821-4.183c0.434-0.048,0.552,0.565,0.633,1.304c0.263,2.406,0.392,3.607,0.655,6.014
					c0.096,0.881,0.806,0.974,1.298,0.922c0.716-0.075,0.637-0.642,0.59-1.095c-0.142-1.39-0.213-2.087-0.355-3.477
					c-0.044-1.895,1.202-4.088,1.89-4.152c0.431-0.041,0.541,0.575,0.609,1.314c0.179,1.934,0.268,2.9,0.446,4.834
					c0.112,1.216,0.972,2.169,2.283,2.058c1.308-0.111,2.108-0.987,2.616-2.022c0.922,1.103,2.281,1.646,3.643,1.562
					c1.64-0.102,2.709-0.745,3.406-1.559c0.6,0.868,1.525,1.293,2.664,1.247c0.941-0.038,1.645-0.469,2.176-1.013
					c0.391,0.538,1.072,0.901,1.914,0.88c1.057-0.027,1.82-0.571,2.375-1.306c0.318,0.73,0.982,1.238,1.914,1.229
					c1.057-0.011,1.822-0.541,2.385-1.267c0.498,0.771,1.281,1.253,2.35,1.261c0.941,0.007,1.643-0.415,2.146-0.957
					c0.365,0.578,1.027,0.997,1.895,1.016c0.941,0.021,1.672-0.382,2.236-0.969c-0.107,3.633-0.162,5.451-0.27,9.085
					c-0.012,0.359,0.055,0.646,0.535,0.662s1.277-0.123,1.311-1.009c0.113-3.109,0.168-4.662,0.281-7.771
					c0.189,0.224,0.584,0.378,1.178,0.402c0.865,0.035,1.848-0.327,2.555-0.986c1.492,0.074,2.643-0.25,3.473-0.733
					c0.107,1.018,0.787,1.84,1.932,1.92c1.109,0.077,1.941-0.442,2.574-1.178c0.443,0.735,1.164,1.221,2.17,1.309
					c0.867,0.075,1.568-0.243,2.109-0.673c-0.094,1.001-0.139,1.499-0.234,2.5c-1.752,1.228-3.266,2.331-3.467,4.74
					c-0.125,1.525,0.729,2.815,2.068,2.938c1.219,0.112,2.57-0.64,2.822-3.138c0.166-1.647,0.25-2.472,0.416-4.119
					c1.078-0.738,4.311-1.64,5.205-3.121c0.008-0.014,0.021-0.034,0.033-0.054C292.512,152.775,293.588,152.216,293.559,152.072z
					 M238.5,148.974c-0.119-0.998,0.072-3.653,1.323-3.734c0.332-0.021,0.558,0.274,0.591,0.8c0.09,1.433-0.639,2.725-1.857,3.362
					C238.547,149.257,238.51,149.116,238.5,148.974z M248.984,150.727c-0.307,0.537-0.768,0.961-1.416,0.986
					c-0.873,0.034-1.699-0.649-1.777-2.37c-0.002-0.06-0.002-0.115-0.004-0.174c0.004-0.054,0.01-0.112,0.014-0.162
					c0.006-0.071,0-0.143-0.016-0.208c0.057-2.589,1.455-3.656,3.002-3.977C248.865,147.185,248.906,148.364,248.984,150.727z
					 M262.172,150.281c-0.285,0.667-0.738,1.236-1.412,1.23c-0.873-0.008-1.422-0.729-1.418-1.972
					c0.01-2.935,1.662-4.491,3.357-4.865C262.486,146.917,262.379,148.038,262.172,150.281z M270.926,151.254
					c-1.15,0.045-2.008,0.253-2.375,0.744c0.076-2.066,0.113-3.097,0.188-5.163c0.322-1.162,1.02-1.976,1.76-1.944
					c0.869,0.037,1.57,0.861,1.465,3.058C271.92,148.833,271.562,150.443,270.926,151.254z M282.898,152.342
					c-0.871-0.077-1.359-0.837-1.258-2.077c0.236-2.834,1.906-4.258,3.576-4.561c-0.072,0.724-0.164,1.614-0.189,1.88
					c-0.102,1.076-0.15,1.616-0.252,2.692C284.51,151.214,283.895,152.43,282.898,152.342z M283.002,161.883
					c-0.383-0.035-0.572-0.627-0.508-1.364c0.129-1.43,0.74-2.288,1.598-3c-0.096,1.02-0.143,1.529-0.238,2.549
					C283.811,160.521,283.771,161.953,283.002,161.883z M290.348,149.219c0.992,0.053,0.859,1.225,0.859,1.225
					c-0.084,0.614-0.439,1.198-0.742,1.609c-0.072-0.03-0.113-0.049-0.113-0.049C288.715,151.461,289.355,149.167,290.348,149.219z"
					/>
			</g>
		</g>
		<g id="XMLID_4_">
			<path fill="#EDBBB7" d="M270.58,144.861c-1.047,0.783-8.361,1.438-15.941,1.438c-7.574,0-14.5-0.262-15.675-1.438
				c-1.177-1.176-1.96-6.01-1.96-12.542c0-6.534,0.651-10.976,1.96-12.281c1.305-1.308,6.009-1.962,15.675-1.962
				c9.668,0,15.156,0.654,15.941,1.962c0.783,1.306,1.566,4.181,1.566,12.018C272.146,139.896,271.625,144.076,270.58,144.861z"/>
			<path fill="#351125" d="M254.639,148.657c-14.072,0-16.179-0.965-17.343-2.129c-2.191-2.188-2.65-8.937-2.65-14.209
				c0-10.13,1.512-12.813,2.65-13.95c1.634-1.636,5.107-2.65,17.343-2.65c14.865,0,16.98,1.468,17.963,3.104
				c0.887,1.48,1.902,4.32,1.902,13.233c0,11.827-1.184,13.698-2.504,14.691C269.566,148.564,257.111,148.657,254.639,148.657z
				 M240.595,143.098c0.84,0.305,3.778,0.843,14.043,0.843c7.344,0,12.744-0.585,14.375-0.989c0.266-0.8,0.775-3.328,0.775-10.896
				c0-6.871-0.627-9.515-1.088-10.53c-0.721-0.309-3.578-1.09-14.062-1.09c-11.475,0-13.646,0.992-14.038,1.295
				c-0.011,0.021-1.239,1.606-1.239,10.589C239.362,139.16,240.196,142.277,240.595,143.098z"/>
		</g>
		<g id="XMLID_3_" opacity="0.2">
			<path fill="#EDBBB7" d="M270.58,138.221c-1.047,0.783-8.361,1.438-15.941,1.438c-7.574,0-14.5-0.262-15.675-1.438
				c-1.177-1.176-1.96-6.01-1.96-12.542c0-6.534,0.651-10.976,1.96-12.282c1.305-1.307,6.009-1.961,15.675-1.961
				c9.668,0,15.156,0.654,15.941,1.961c0.783,1.307,1.566,4.182,1.566,12.018C272.146,133.256,271.625,137.436,270.58,138.221z"/>
			<path fill="#351125" d="M254.639,141.23c-12.4,0-15.618-0.727-16.788-1.898c-2.106-2.105-2.419-9.458-2.419-13.653
				c0-10.978,1.821-12.796,2.419-13.396c1.45-1.451,4.861-2.42,16.788-2.42c14.443,0,16.498,1.406,17.291,2.723
				c0.834,1.393,1.789,4.107,1.789,12.828c0,11.457-1.084,13.229-2.191,14.063C269.209,141.209,254.783,141.23,254.639,141.23z
				 M254.639,113.008c-11.794,0-14.113,1.049-14.564,1.501c-0.154,0.153-1.499,1.769-1.499,11.17c0,7.431,1.011,10.909,1.499,11.432
				c0.406,0.255,2.77,0.975,14.564,0.975c7.617,0,13.674-0.638,14.963-1.125c0.252-0.461,0.973-2.569,0.973-11.546
				c0-7.195-0.688-10.021-1.287-11.115C268.867,114.016,266.531,113.008,254.639,113.008z"/>
		</g>
		<g id="XMLID_2_">
			<path fill="#EAADA8" d="M294.4,27.894c9.936,1.213,18.41,3.297,19.863,5.719c2.912,4.851,5.822,15.525,5.822,44.633
				c0,29.109-1.939,44.633-5.822,47.543c-3.879,2.91-31.047,5.336-59.186,5.336c-28.138,0-53.85-0.971-58.213-5.336
				c-4.367-4.366-7.278-22.317-7.278-46.573c0-24.257,2.426-40.752,7.278-45.604c2.318-2.318,7.521-4.083,16.238-5.292"/>
			<path fill="#351125" d="M255.078,133.483c-47.333,0-56.752-2.896-59.882-6.026c-7.393-7.395-7.968-38.793-7.968-48.241
				c0-26.082,2.681-41.986,7.969-47.271c2.789-2.79,8.376-4.684,17.583-5.96c1.279-0.18,2.478,0.72,2.66,2.011
				c0.178,1.29-0.722,2.481-2.012,2.66c-9.857,1.368-13.541,3.27-14.896,4.625c-1.981,1.981-6.587,10.224-6.587,43.936
				c0,26.327,3.415,41.733,6.587,44.905c2.119,2.119,13.647,4.646,56.546,4.646c31.309,0,55.127-2.88,57.771-4.864
				c1.467-1.1,4.879-7.751,4.879-45.657c0-23.066-1.793-37.269-5.484-43.419c-0.75-1-6.348-3.152-18.129-4.591
				c-1.293-0.158-2.213-1.334-2.055-2.627c0.156-1.293,1.334-2.197,2.627-2.056c12.525,1.529,19.793,3.834,21.6,6.848
				c2.645,4.404,6.158,13.95,6.158,45.846c0,39.086-3.42,46.922-6.766,49.43C310.34,131.682,277.027,133.483,255.078,133.483z"/>
		</g>
		<g>
			<path fill="#351125" d="M241.471,75.588c-1.303,0-2.357-1.057-2.357-2.359v-5.502c0-5.202-4.232-9.434-9.434-9.434
				s-9.434,4.232-9.434,9.434v5.502c0,1.302-1.055,2.359-2.358,2.359c-1.302,0-2.358-1.057-2.358-2.359v-5.502
				c0-7.803,6.349-14.151,14.151-14.151c7.803,0,14.151,6.348,14.151,14.151v5.502C243.831,74.531,242.774,75.588,241.471,75.588z"
				/>
		</g>
		<g>
			<path fill="#351125" d="M286.547,75.588c-1.303,0-2.359-1.057-2.359-2.359v-5.502c0-5.202-4.232-9.434-9.434-9.434
				c-5.203,0-9.434,4.232-9.434,9.434v5.502c0,1.302-1.055,2.359-2.357,2.359s-2.359-1.057-2.359-2.359v-5.502
				c0-7.803,6.348-14.151,14.15-14.151s14.15,6.348,14.15,14.151v5.502C288.904,74.531,287.85,75.588,286.547,75.588z"/>
		</g>
		<g>
			
				<path fill="#EAADA8" stroke="#351125" stroke-width="4.7169" stroke-linecap="round" stroke-linejoin="round" stroke-miterlimit="10" d="
				M279.203,24.749"/>
		</g>
		<g id="XMLID_1_">
			<path fill="#EAADA8" d="M229.938,27.207c7.504-0.58,13.96-0.87,25.262-0.87c5.867,0,19.58,0.078,24.527,0.234"/>
			<path fill="#351125" d="M229.936,29.566c-1.221,0-2.253-0.94-2.349-2.177c-0.1-1.298,0.871-2.433,2.169-2.532
				c7.186-0.556,13.652-0.878,25.443-0.878c5.98,0,19.705,0.082,24.602,0.237c1.303,0.041,2.324,1.13,2.283,2.432
				c-0.041,1.302-1.148,2.338-2.432,2.282c-4.85-0.154-18.496-0.233-24.453-0.233c-11.638,0-18.008,0.316-25.079,0.863
				C230.057,29.564,229.996,29.566,229.936,29.566z"/>
		</g>
		<g>
			<polygon fill="#524949" points="209.201,201.525 250.33,201.525 250.33,210.012 229.766,206.711 209.201,210.483 			"/>
			<path fill="#351125" d="M209.201,212.842c-0.547,0-1.083-0.19-1.51-0.547c-0.538-0.448-0.849-1.111-0.849-1.812v-8.958
				c0-1.302,1.056-2.358,2.359-2.358h41.129c1.303,0,2.359,1.057,2.359,2.358v8.486c0,0.691-0.305,1.347-0.83,1.796
				c-0.525,0.447-1.225,0.642-1.902,0.534l-20.164-3.238l-20.167,3.7C209.484,212.829,209.342,212.842,209.201,212.842z
				 M211.558,203.884v3.77l17.784-3.263c0.264-0.048,0.533-0.052,0.798-0.009l17.833,2.863v-3.361H211.558z"/>
		</g>
		<g>
			<polygon fill="#524949" points="257.529,202.232 298.66,202.232 298.66,210.72 278.096,207.419 257.529,211.191 			"/>
			<path fill="#351125" d="M257.529,213.55c-0.549,0-1.084-0.19-1.512-0.547c-0.537-0.448-0.848-1.111-0.848-1.812v-8.959
				c0-1.303,1.057-2.358,2.359-2.358h41.131c1.305,0,2.359,1.056,2.359,2.358v8.487c0,0.691-0.301,1.347-0.828,1.795
				c-0.525,0.45-1.223,0.64-1.904,0.534l-20.164-3.238l-20.17,3.7C257.812,213.537,257.67,213.55,257.529,213.55z M259.889,204.591
				v3.771l17.783-3.263c0.262-0.051,0.533-0.052,0.799-0.01l17.832,2.863v-3.361H259.889z"/>
		</g>
		<g>
			<line fill="#A5D3F2" x1="205.829" y1="171.235" x2="208.847" y2="174.052"/>
			<path fill="#351125" d="M208.847,176.41c-0.576,0-1.153-0.21-1.609-0.634l-3.018-2.816c-0.952-0.887-1.004-2.38-0.116-3.333
				c0.889-0.95,2.38-1.003,3.334-0.116l3.019,2.816c0.951,0.888,1.003,2.381,0.116,3.334
				C210.107,176.158,209.478,176.41,208.847,176.41z"/>
		</g>
		<g>
			<line fill="#A5D3F2" x1="301.021" y1="172.479" x2="298.859" y2="175.82"/>
			<path fill="#351125" d="M298.859,178.179c-0.439,0-0.883-0.122-1.279-0.378c-1.094-0.708-1.406-2.168-0.699-3.261l2.162-3.342
				c0.707-1.095,2.17-1.401,3.262-0.7c1.094,0.708,1.406,2.169,0.699,3.263l-2.162,3.34
				C300.389,177.8,299.631,178.179,298.859,178.179z"/>
		</g>
		<g>
			<path fill="#351125" d="M258.768,174.642c-0.088,0-0.176-0.014-0.264-0.045c-6.318-2.229-12.373-0.029-12.436-0.005
				c-0.4,0.15-0.857-0.056-1.01-0.462c-0.15-0.406,0.053-0.858,0.461-1.01c0.268-0.102,6.635-2.433,13.508-0.007
				c0.408,0.145,0.623,0.595,0.48,1.003C259.393,174.44,259.09,174.642,258.768,174.642z"/>
		</g>
		<g>
			<path fill="#351125" d="M252.084,177.786c-2.168,0-3.93-1.763-3.93-3.932c0-0.435,0.35-0.785,0.785-0.785
				c0.434,0,0.787,0.351,0.787,0.785c0,1.301,1.057,2.359,2.357,2.359s2.359-1.059,2.359-2.359c0-0.202-0.027-0.406-0.08-0.604
				c-0.109-0.419,0.141-0.849,0.561-0.959c0.42-0.117,0.85,0.14,0.959,0.561c0.088,0.327,0.133,0.666,0.133,1.003
				C256.016,176.023,254.252,177.786,252.084,177.786z"/>
		</g>
		<g>
			<path fill="#351125" d="M303.186,166.387c-0.131,0-0.266-0.017-0.396-0.051l-9.041-2.358c-0.84-0.22-1.344-1.078-1.125-1.918
				s1.074-1.342,1.918-1.125l9.041,2.358c0.84,0.22,1.344,1.078,1.125,1.918C304.521,165.918,303.885,166.387,303.186,166.387z"/>
		</g>
		<g opacity="0.3">
			<path fill="#FFFFFF" d="M311.834,99.957c-0.07,0-0.141-0.005-0.211-0.014c-0.861-0.117-1.465-0.909-1.348-1.77
				c2.094-15.498,0.984-31.624-0.314-42.421c-0.104-0.861,0.51-1.645,1.373-1.749c0.865-0.103,1.646,0.511,1.75,1.374
				c1.32,10.979,2.445,27.39,0.309,43.218C313.283,99.385,312.609,99.957,311.834,99.957z"/>
		</g>
		<g opacity="0.3">
			<path fill="#FFFFFF" d="M310.43,49.287c-0.76,0-1.43-0.553-1.551-1.327c-0.658-4.18-1.266-7.212-1.553-8.572
				c-2.027-0.568-8.105-1.216-13.281-1.54c-0.865-0.054-1.523-0.8-1.471-1.668c0.055-0.867,0.803-1.515,1.668-1.471
				c3.039,0.19,13.127,0.909,15.256,2.186c0.365,0.221,0.627,0.582,0.723,1c0.033,0.149,0.84,3.708,1.766,9.573
				c0.135,0.858-0.453,1.664-1.309,1.798C310.594,49.281,310.512,49.287,310.43,49.287z"/>
		</g>
		<g>
			<path fill="#EDBBB7" d="M292.307,110.179c0,7.669-1.02,16.187-7.754,21.212c-6.73,5.027-19.18,6.564-29.453,6.564
				c-10.275,0-22.721-1.537-29.456-6.562c-6.734-5.026-7.757-13.546-7.757-21.215c0-7.67,1.023-16.187,7.754-21.212
				c6.735-5.027,19.181-6.564,29.458-6.564c10.174,0,22.537,1.476,29.258,6.416C291.205,93.855,292.307,102.432,292.307,110.179z"/>
			<path fill="#351125" d="M255.1,140.312c-8.008,0-22.668-0.913-30.865-7.029c-7.716-5.759-8.706-15.373-8.706-23.104
				s0.989-17.345,8.703-23.103c8.194-6.119,22.856-7.033,30.868-7.033c7.957,0,22.52,0.894,30.654,6.875
				c7.9,5.81,8.912,15.481,8.912,23.26c0,7.731-0.99,17.347-8.701,23.103C277.771,139.399,263.109,140.312,255.1,140.312z
				 M255.1,84.76c-12.636,0-22.859,2.223-28.045,6.097c-6,4.478-6.809,12.28-6.809,19.322s0.811,14.846,6.811,19.325
				c5.187,3.872,15.411,6.093,28.043,6.093c12.635,0,22.857-2.222,28.043-6.097c5.998-4.476,6.807-12.279,6.807-19.321
				c0-6.667-0.795-14.903-6.99-19.46C277.811,86.932,267.656,84.76,255.1,84.76z"/>
		</g>
		<g>
			<path fill="#D56363" d="M250.316,110.179c0,3.926-0.223,8.286-1.688,10.858c-1.465,2.575-4.17,3.363-6.402,3.363
				c-2.235,0-4.941-0.788-6.406-3.359c-1.461-2.574-1.686-6.937-1.686-10.862c0-3.927,0.225-8.287,1.686-10.858
				c1.464-2.576,4.17-3.363,6.406-3.363c2.21,0,4.898,0.757,6.363,3.285C250.076,101.822,250.316,106.215,250.316,110.179z"/>
			<path fill="#351125" d="M242.227,126.758c-3.729,0-6.808-1.658-8.456-4.551c-1.758-3.096-1.995-7.816-1.995-12.028
				s0.236-8.934,1.993-12.024c1.647-2.896,4.729-4.556,8.457-4.556c3.697,0,6.761,1.626,8.402,4.462
				c1.803,3.127,2.045,7.88,2.045,12.118c0,4.215-0.238,8.938-1.996,12.025C249.031,125.098,245.951,126.758,242.227,126.758z
				 M242.227,98.316c-1.167,0-3.283,0.281-4.357,2.168c-1.376,2.426-1.376,7.705-1.376,9.694c0,1.987,0,7.271,1.378,9.696
				c1.072,1.885,3.188,2.166,4.355,2.166c1.164,0,3.279-0.282,4.351-2.169c1.379-2.42,1.379-7.704,1.379-9.693
				c0-3.139-0.146-7.563-1.412-9.758C245.486,98.589,243.385,98.316,242.227,98.316z"/>
		</g>
		<g opacity="0.2">
			<path fill="#351125" d="M236.346,105.609c1.465-2.576,4.17-3.363,6.402-3.363c2.214,0,4.902,0.758,6.363,3.285
				c1.17,2.026,1.562,5.168,1.68,8.345c0.035-0.89,0.051-1.78,0.051-2.649c0-3.964-0.24-8.355-1.73-10.936
				c-1.461-2.527-4.148-3.285-6.363-3.285c-2.232,0-4.938,0.787-6.402,3.363c-1.464,2.571-1.686,6.932-1.686,10.857
				c0,0.861,0.012,1.742,0.046,2.622C234.82,110.717,235.204,107.617,236.346,105.609z"/>
			<path fill="#351125" d="M250.791,115.448L250.791,115.448c-0.848,0-1.541-0.67-1.57-1.515c-0.135-3.643-0.615-6.135-1.471-7.615
				c-1.258-2.174-3.674-2.5-5.001-2.5c-1.335,0-3.764,0.334-5.035,2.567c-0.835,1.47-1.305,3.93-1.436,7.519
				c-0.031,0.846-0.723,1.515-1.571,1.516l0,0c-0.844,0-1.539-0.668-1.572-1.512c-0.034-0.9-0.046-1.801-0.046-2.682
				c0-4.111,0.224-8.709,1.892-11.637c1.501-2.641,4.333-4.156,7.769-4.156c3.412,0,6.228,1.483,7.724,4.072
				c1.711,2.96,1.939,7.586,1.939,11.721c0,0.891-0.014,1.801-0.051,2.709C252.33,114.78,251.637,115.448,250.791,115.448z
				 M242.749,98.578c-1.335,0-3.764,0.333-5.035,2.567c-0.206,0.362-0.385,0.772-0.538,1.223c1.501-1.099,3.419-1.694,5.573-1.694
				c2.15,0,4.064,0.59,5.56,1.674c-0.158-0.471-0.344-0.896-0.561-1.27C246.492,98.903,244.076,98.578,242.749,98.578z"/>
		</g>
		<g>
			<path fill="#D56363" d="M278.156,110.179c0,3.926-0.221,8.286-1.686,10.858c-1.465,2.575-4.17,3.363-6.402,3.363
				c-2.236,0-4.941-0.788-6.406-3.359c-1.463-2.574-1.686-6.937-1.686-10.862c0-3.927,0.223-8.287,1.686-10.858
				c1.465-2.576,4.17-3.363,6.406-3.363c2.211,0,4.898,0.757,6.361,3.285C277.916,101.822,278.156,106.215,278.156,110.179z"/>
			<path fill="#351125" d="M270.068,126.758c-3.727,0-6.809-1.658-8.455-4.551c-1.758-3.096-1.996-7.816-1.996-12.028
				s0.238-8.934,1.994-12.024c1.648-2.896,4.729-4.556,8.457-4.556c3.697,0,6.762,1.626,8.404,4.462
				c1.799,3.127,2.043,7.88,2.043,12.118c0,4.215-0.236,8.938-1.996,12.025C276.875,125.098,273.793,126.758,270.068,126.758z
				 M270.068,98.316c-1.164,0-3.281,0.281-4.355,2.168c-1.379,2.426-1.379,7.705-1.379,9.694c0,1.987,0,7.271,1.379,9.696
				c1.074,1.885,3.189,2.166,4.355,2.166c1.164,0,3.279-0.282,4.354-2.169c1.377-2.42,1.377-7.704,1.377-9.693
				c0-3.139-0.146-7.563-1.41-9.758C273.328,98.589,271.225,98.316,270.068,98.316z"/>
		</g>
		<g opacity="0.2">
			<path fill="#351125" d="M263.367,105.609c1.465-2.576,4.17-3.363,6.406-3.363c2.211,0,4.898,0.758,6.361,3.285
				c1.168,2.026,1.564,5.168,1.682,8.345c0.033-0.89,0.045-1.78,0.045-2.649c0-3.964-0.24-8.355-1.727-10.936
				c-1.463-2.527-4.15-3.285-6.361-3.285c-2.236,0-4.941,0.787-6.406,3.363c-1.463,2.571-1.686,6.932-1.686,10.857
				c0,0.861,0.016,1.742,0.045,2.622C261.844,110.717,262.225,107.617,263.367,105.609z"/>
			<path fill="#351125" d="M277.816,115.448L277.816,115.448c-0.846,0-1.539-0.67-1.572-1.515c-0.133-3.64-0.613-6.131-1.471-7.617
				c-1.258-2.172-3.672-2.498-5-2.498c-1.336,0-3.768,0.334-5.041,2.567c-0.83,1.464-1.299,3.923-1.434,7.521
				c-0.029,0.845-0.725,1.514-1.572,1.514l0,0c-0.848-0.001-1.541-0.67-1.57-1.516c-0.031-0.898-0.047-1.799-0.047-2.678
				c0-4.108,0.225-8.702,1.891-11.635c1.506-2.643,4.338-4.158,7.773-4.158c3.412,0,6.227,1.483,7.723,4.07
				c1.707,2.964,1.938,7.588,1.938,11.723c0,0.891-0.012,1.801-0.045,2.709C279.355,114.78,278.662,115.448,277.816,115.448z
				 M269.773,98.578c-1.336,0-3.768,0.333-5.041,2.567c-0.205,0.362-0.381,0.774-0.535,1.223c1.502-1.099,3.42-1.694,5.576-1.694
				c2.15,0,4.064,0.59,5.559,1.674c-0.158-0.471-0.344-0.898-0.559-1.271C273.516,98.903,271.102,98.578,269.773,98.578z"/>
		</g>
		<g>
			<path fill="#351125" d="M276.924,161.374c-0.029,0-0.057,0-0.088-0.003l-4.236-0.231c-0.867-0.045-1.531-0.787-1.484-1.654
				c0.045-0.868,0.783-1.568,1.654-1.484l4.238,0.231c0.865,0.046,1.531,0.787,1.482,1.654
				C278.447,160.724,277.752,161.374,276.924,161.374z"/>
		</g>
	</g>
	<g>
	</g>
	<g>
	</g>
	<g>
	</g>
	<g>
	</g>
	<g>
	</g>
	<g>
	</g>
</g>
</svg>
