<?xml version="1.0" encoding="utf-8"?>
<!-- Generator: Adobe Illustrator 16.0.0, SVG Export Plug-In . SVG Version: 6.00 Build 0)  -->
<!DOCTYPE svg PUBLIC "-//W3C//DTD SVG 1.1//EN" "http://www.w3.org/Graphics/SVG/1.1/DTD/svg11.dtd">
<svg version="1.1" id="Layer_1" xmlns="http://www.w3.org/2000/svg" xmlns:xlink="http://www.w3.org/1999/xlink" x="0px" y="0px"
	 width="1443.645px" height="655.961px" viewBox="0 0 1443.645 655.961" enable-background="new 0 0 1443.645 655.961"
	 xml:space="preserve">
<path fill="none" d="M708.014,517.294c10.554,2.89,21.313,4.857,32.108,6.59c30.345,4.872,61.106,8.868,91.908,7.646
	c15.042-0.597,29.833-2.642,44.478-6.142c14.415-3.444,28.572-7.845,42.745-12.161c14.198-4.325,28.463-8.693,43.022-11.649
	c14.908-3.028,29.986-5.064,45.083-6.866c7.646-0.911,15.298-1.774,22.942-2.703c1.793-0.218,3.591-0.42,5.388-0.627H905.15
	c-9.679,4.226-19.479,8.152-29.529,11.421c-11.702,3.808-23.62,6.772-35.908,7.834c-12.056,1.04-24.199,0.523-36.174-1.164
	c-22.742-3.204-44.679-10.305-66.224-18.091h-81.969c7.564,4.371,14.997,8.983,22.518,13.256
	C687.439,510.077,697.377,514.385,708.014,517.294z"/>
<path fill="none" d="M862.074,505.881c14.018-3.693,27.52-8.796,37.286-14.499H736.389c19.472,5.726,35.639,11.009,52.239,14.55
	C812.844,511.096,837.958,512.229,862.074,505.881z"/>
<g>
	<path fill="#8B7B94" d="M89.332,494.883c3.096-1.211,6.233-2.378,9.41-3.493c0.036-0.016,0.071-0.028,0.106-0.04h-3.172
		c-0.034,0.014-0.069,0.024-0.104,0.04c-6,2.164-11.875,4.507-17.634,6.942C55.14,507.976,33.654,519.108,9.77,527.52
		c-3.213,1.131-6.472,2.2-9.77,3.202v1.069c7.306-2.187,14.433-4.703,21.373-7.431C44.643,515.207,66.024,503.995,89.332,494.883z"
		/>
	<path fill="#8B7B94" d="M113.063,575.722c13.882-16.865,17.333-36.612,29.97-53.86c5.601-7.645,12.763-14.818,21.965-20.648
		c6.736-4.268,14.551-7.593,23.043-9.823h-3.896c-8.126,2.477-15.546,5.958-22.009,10.265c-10.004,6.665-17.43,14.979-23.151,23.636
		c-11.536,17.457-15.123,37.091-30.316,53.454c-8.157,8.783-19.304,16.003-31.287,22.324c-12.668,6.682-26.494,12.332-40.863,17.12
		c-11.697,3.896-23.943,7.284-36.519,9.914v1.084c15.834-3.282,31.172-7.771,45.623-13.014
		c13.822-5.013,27.017-10.908,39.017-17.785C95.92,591.926,105.82,584.525,113.063,575.722z"/>
	<path fill="#8B7B94" d="M256.551,563.153c21.331-18.287,36.487-39.534,47.786-61.519c1.747-3.396,3.394-6.812,4.966-10.245
		c0.006-0.016,0.012-0.026,0.016-0.04h-1.579c-0.006,0.014-0.011,0.024-0.018,0.04c-9.134,19.851-20.948,39.174-37.349,56.758
		c-9.373,10.048-20.36,19.165-32.351,27.794c-11.88,8.553-24.433,16.672-37.68,24.229c-13.35,7.614-27.462,14.611-42.311,20.797
		c-7.341,3.057-14.878,5.896-22.579,8.505c-7.104,2.406-14.426,4.478-21.594,6.784c-14.164,4.558-28.089,9.454-42.463,13.701
		c-7.455,2.204-15.097,4.288-22.906,5.966h4.641c14.531-3.375,28.472-7.873,42.27-12.436c6.789-2.244,13.551-4.529,20.378-6.718
		c7.255-2.324,14.645-4.43,21.815-6.881c15.411-5.269,30.076-11.525,44.014-18.44c13.913-6.901,27.075-14.499,39.572-22.563
		C233.674,580.823,245.832,572.342,256.551,563.153z"/>
	<path fill="#8B7B94" d="M513.887,640.501c-15.241-2.254-30.829-3.524-46.41-3.876c-16.256-0.365-32.683,0.299-48.612,2.622
		c-6.916,1.008-13.918,2.298-20.379,4.29c-6.695,2.065-12.819,4.912-18.786,7.811c-3.077,1.496-6.155,3.053-9.279,4.575h2.583
		c2.886-1.423,5.741-2.859,8.601-4.241c6.225-3.008,12.766-6.049,19.926-7.92c7.246-1.894,14.805-3.2,22.426-4.158
		c16.244-2.043,32.939-2.383,49.401-1.776c15.827,0.585,31.714,2.121,47.084,4.785c17.641,3.06,34.736,7.666,51.071,13.311h3.05
		c-3.724-1.307-7.484-2.565-11.283-3.771C547.466,647.135,530.945,643.027,513.887,640.501z"/>
	<path fill="#8B7B94" d="M601.456,584.851c-35.5-6.017-72.73-5.973-108.747-2.297c-36.471,3.725-72.203,11.129-105.307,22.243
		c-17.171,5.767-33.697,12.408-49.798,19.464c-13.97,6.122-26.881,13.18-40.425,19.717c-9.236,4.458-19.173,8.858-29.771,11.945
		h3.491c4.974-1.579,9.792-3.41,14.45-5.354c13.89-5.798,26.521-12.853,39.7-19.352c15.123-7.458,31.465-14.007,47.821-20.107
		c16.88-6.296,34.408-11.94,52.625-16.182c35.278-8.21,72.317-13.334,109.632-13.85c18.826-0.262,37.691,0.784,56.167,3.28
		c17.228,2.326,33.582,6.246,49.542,11.205c52.497,16.314,97.622,41.496,148.036,60.359h3.052
		c-35.112-12.903-67.962-29.153-101.799-43.29C662.434,601.063,633.145,590.221,601.456,584.851z"/>
	<path fill="#8B7B94" d="M301.312,610.372c15.555-5.914,30.03-13.095,43.83-20.757c13.987-7.766,27.26-16.114,40.282-24.623
		c11.564-7.555,22.813-15.379,33.335-23.62c10.131-7.931,19.491-16.336,27.544-25.318c7.012-7.823,12.924-16.089,17.675-24.664
		c0.007-0.016,0.015-0.026,0.021-0.04h-1.608c-0.008,0.014-0.015,0.024-0.022,0.04c-4.354,7.792-9.682,15.316-15.918,22.505
		c-7.957,9.17-17.358,17.713-27.528,25.784c-10.42,8.27-21.665,16.036-33.117,23.632c-12.882,8.545-26.173,16.84-40.037,24.635
		c-13.93,7.83-28.587,15.115-44.299,21.188c-7.936,3.067-16.202,5.723-24.354,8.506c-8.19,2.795-16.346,5.64-24.346,8.683
		c-14.352,5.461-27.817,11.788-41.052,18.416c-8.683,4.35-18.408,9.181-29.075,11.186c-0.07,0.014-0.143,0.023-0.214,0.038h4.844
		c0.05-0.015,0.1-0.024,0.148-0.038c8.647-2.261,16.635-6.113,23.906-9.723c6.145-3.05,12.145-6.254,18.561-9.04
		c7.52-3.265,14.918-6.596,22.69-9.587c7.973-3.063,16.123-5.908,24.3-8.706C285.047,616.071,293.327,613.409,301.312,610.372z"/>
	<path fill="#8B7B94" d="M781.08,616.647c-28.079-8.563-55.61-18.029-81.815-29.049c-26.75-11.247-51.59-24.378-74.801-38.831
		c-23.595-14.69-45.461-30.616-67.192-46.58c-4.904-3.598-9.8-7.203-14.708-10.798c-0.018-0.016-0.034-0.026-0.051-0.04h-2.053
		c0.018,0.014,0.035,0.024,0.051,0.04c40.95,29.972,81.368,60.537,130.351,84.558c24.983,12.252,51.806,22.657,79.352,31.948
		c27.676,9.334,56.003,17.771,85.263,24.5c40.493,9.313,82.069,16.055,123.34,23.527h5.996c-31.455-5.764-63.14-11.012-94.4-17.185
		C839.872,632.706,810.12,625.505,781.08,616.647z"/>
	<path fill="#8B7B94" d="M1158.841,614.46c-45.69-10.847-93.244-17.426-141.635-18.389c-24.91-0.494-49.606-0.835-74.396-2.8
		c-24.03-1.908-47.856-4.99-71.26-9.184c-23.381-4.19-46.273-9.622-68.523-16.064c-21.916-6.342-42.637-14.155-63.796-21.546
		c-40.114-14.014-81.618-27.137-117.26-46.25c-5.2-2.788-10.216-5.737-15.017-8.838h-2.18
		c30.229,19.869,68.629,33.397,105.664,46.274c41.231,14.334,81.593,29.712,125.442,40.092
		c44.814,10.606,91.716,16.481,139.003,18.483c25.133,1.063,50.288,0.591,75.37,2.329c24.473,1.695,48.665,4.934,72.4,9.311
		c23.367,4.312,46.224,9.84,68.665,16.021c23.962,6.599,47.148,14.351,70.806,21.42c12.642,3.777,25.436,7.326,38.375,10.603h4.325
		c-2.25-0.559-4.493-1.122-6.735-1.695C1250.933,642.124,1206.488,625.77,1158.841,614.46z"/>
	<path fill="#8B7B94" d="M1172.178,542.985c12.139-2.488,24.893-3.526,37.5-4.15c12.608-0.627,25.264-0.725,37.898-0.623
		c8.914,0.071,17.828,0.348,26.739,0.352c23.396,0.008,46.784,0.301,70.178,0.38c33.066,0.112,66.252-0.269,99.151-2.584v-1.043
		c-26.394,1.865-52.996,2.489-79.532,2.596c-23.381,0.097-46.759-0.189-70.138-0.319c-12.437-0.068-24.854-0.116-37.283-0.301
		c-24.783-0.372-50.085-0.438-74.483,2.939c-10.383,1.435-21.323,3.568-29.863,8.035c-5.577,2.919-11.235,8.022-10.006,13.146
		c1.017,4.228,7.199,7.168,12.186,9.168c8.412,3.379,17.879,5.565,27.172,7.497c23.669,4.914,48.195,7.9,72.555,10.695
		c18.128,2.083,36.415,3.653,54.278,6.666c23.048,3.888,46.209,7.471,69.215,11.489c11.451,2.004,22.853,4.156,34.275,6.232
		c10.558,1.92,20.99,4.156,31.625,5.891v-1.081c-10.485-1.693-20.851-3.9-31.229-5.801c-22.894-4.193-45.816-8.27-68.879-12.032
		c-11.541-1.883-23.088-3.75-34.609-5.69c-3.948-0.665-7.856-1.352-11.846-1.867c-8.522-1.102-17.105-1.979-25.67-2.922
		c-24.155-2.656-48.34-5.404-72.117-9.382c-10.926-1.829-21.834-3.906-32.292-6.756c-7.148-1.951-15.083-4.333-20.248-8.386
		c-1.697-1.333-2.971-2.972-3.073-4.763c-0.141-2.452,1.592-5.045,3.539-7.031C1152.758,547.706,1163.051,544.856,1172.178,542.985z
		"/>
	<path fill="#8B7B94" d="M678.74,494.421c20.064,7.991,39.627,16.838,61.21,22.834c21.388,5.943,44.472,9.363,67.185,11.937
		c25.369,2.875,50.799,5.53,76.354,7.502c50.915,3.927,102.881,5.044,153.387-1.719c49.984-6.692,97.713-19.38,147.057-27.803
		c41.47-7.079,84.164-9.949,126.518-13.375c9.324-0.754,18.581-1.454,27.758-2.407c0.127-0.016,0.248-0.026,0.372-0.04h-10.51
		c-0.159,0.014-0.321,0.024-0.482,0.04c-3.087,0.24-6.176,0.478-9.253,0.733c-13.134,1.092-26.279,2.105-39.417,3.176
		c-25.93,2.117-51.829,4.51-77.44,8.068c-25.01,3.475-49.514,8.605-73.903,13.688c-24.349,5.071-48.665,10.24-73.43,14.292
		c-25.153,4.111-50.564,6.513-76.407,7.213c-52.91,1.437-105.752-3.261-157.875-8.982c-18.544-2.035-37.029-4.351-55.16-7.743
		c-18.271-3.418-35.34-8.479-51.791-14.87c-12.917-5.019-25.688-10.44-38.682-15.574c-0.032-0.016-0.062-0.026-0.094-0.04h-3.181
		c0.031,0.014,0.063,0.024,0.095,0.04C673.625,492.39,676.186,493.405,678.74,494.421z"/>
	<path fill="#8B7B94" d="M990.943,514.011c21.104-1.247,41.575-4.733,61.682-9.204c17.263-3.841,34.099-8.455,50.723-13.417
		c0.037-0.016,0.083-0.026,0.125-0.04h-3.926c-0.044,0.014-0.086,0.024-0.13,0.04c-22.794,6.696-45.982,12.695-70.064,17.032
		c-41.428,7.46-84.569,6.13-126.167,0.061c-28.519-4.161-56.289-10.367-83.722-17.093h-4.425
		c37.008,9.146,74.693,17.488,113.756,21.253C949.367,514.626,970.225,515.235,990.943,514.011z"/>
</g>
<g>
	<g>
		<rect x="681.011" y="460.861" fill="#F2F2F2" width="53.354" height="55.612"/>
		<path fill="#3B3B3B" d="M856.601,463.456c0,5.01-4.1,9.106-9.107,9.106H567.853c-5.01,0-9.109-4.097-9.109-9.106V300.929
			c0-5.01,4.1-9.109,9.109-9.109h279.641c5.008,0,9.107,4.099,9.107,9.109V463.456z"/>
		<path fill="#3B3B3B" d="M856.601,463.456c0,5.01-4.1,9.106-9.107,9.106H567.853c-5.01,0-9.109-4.097-9.109-9.106V300.929
			c0-5.01,4.1-9.109,9.109-9.109h279.641c5.008,0,9.107,4.099,9.107,9.109V463.456z"/>
		<path fill="#F2F2F2" d="M710.435,466.461c0,1.523-1.237,2.761-2.763,2.761c-1.525,0-2.762-1.237-2.762-2.761
			c0-1.528,1.237-2.764,2.762-2.764C709.198,463.697,710.435,464.935,710.435,466.461z"/>
		<rect x="570.259" y="303.921" fill="#4D4D4D" width="274.825" height="156.541"/>
		<circle fill="#FFFFFF" cx="707.673" cy="297.906" r="0.595"/>
		<rect x="663.902" y="507.722" fill="#CCCCCC" width="87.542" height="8.752"/>
	</g>
	<path opacity="0.2" fill="#F2F2F2" d="M847.494,291.82h-49.908L616.839,472.562h230.654c5.008,0,9.107-4.097,9.107-9.106V300.929
		C856.601,295.919,852.501,291.82,847.494,291.82z"/>
</g>
<g>
	<g>
		<path fill="#FBCF3A" d="M416.118,266.21c-6.036-4.765-14.148-5.109-20.431-1.495l-7.657-6.045l-4.2,5.32l6.631,5.238l3.572,2.821
			l25.103,19.821C425.388,283.951,424.036,272.464,416.118,266.21z"/>
		<path fill="#E1B931" d="M419.136,291.871l-25.103-19.821l-3.572-2.821l-6.631-5.238l-4.329,5.485l7.716,6.094
			c-1.95,6.898,0.285,14.597,6.259,19.315C401.395,301.138,412.883,299.786,419.136,291.871z"/>
		<path fill="#EDE6D8" d="M375.507,259.181c-0.555-0.438-0.648-1.238-0.211-1.792c0.438-0.554,1.24-0.648,1.795-0.211
			c0.551,0.438,0.648,1.241,0.208,1.792C376.865,259.524,376.061,259.621,375.507,259.181z"/>
		<path fill="#FFF9F0" d="M376.299,258.18c-2.024,2.56-2.72,5.734-2.208,8.716l10.177-12.887
			C381.247,254.206,378.319,255.621,376.299,258.18z"/>
		
			<ellipse transform="matrix(-0.6198 0.7847 -0.7847 -0.6198 900.2593 142.3653)" fill="#FFF9F0" cx="415.646" cy="289.246" rx="5.006" ry="2.34"/>
		<path fill="#FFF9F0" d="M419.229,283.183c-0.66-0.061-1.088-1.261-0.953-2.674c0.135-1.414,0.776-2.508,1.437-2.446
			c0.663,0.064,1.091,1.258,0.956,2.672C420.534,282.15,419.889,283.244,419.229,283.183z"/>
		<g>
			<g>
				<path fill="#808284" d="M399.072,276.026l10.765,0.534c0.098,0.006,2.372,0.153,3.251,1.451
					c0.387,0.566,0.449,1.253,0.185,2.042c-0.273,0.819-0.953,1.329-1.916,1.452c0.252,0.841,0.229,2.056-0.912,3.501
					c-1.144,1.446-2.317,1.748-3.197,1.698c0.106,0.968-0.23,1.745-0.964,2.203c-0.708,0.437-1.39,0.536-2.033,0.296
					c-1.466-0.558-2.135-2.736-2.161-2.83L399.072,276.026z M412.519,280.371c0.109-0.138,0.197-0.299,0.255-0.481
					c0.215-0.634,0.174-1.152-0.12-1.583c-0.736-1.088-2.824-1.22-2.844-1.22l-10.027-0.499l2.812,9.64
					c0.003,0.019,0.619,2.025,1.848,2.484c0.484,0.186,0.998,0.104,1.566-0.251c0.162-0.1,0.299-0.224,0.408-0.362
					c0.352-0.443,0.364-1.017,0.296-1.469c-1.355-0.313-2.531-1.481-2.915-2.481c-0.17-0.443-0.161-0.81,0.032-1.05
					c0.041-0.055,0.094-0.1,0.152-0.137c0.153-0.104,0.42-0.186,0.819-0.018c0.835,0.348,1.986,1.779,2.352,3.229
					c1.042,0.112,2.009-0.387,2.88-1.49c0.872-1.103,1.133-2.161,0.783-3.149c-1.498-0.021-3.155-0.804-3.688-1.54
					c-0.253-0.346-0.232-0.626-0.174-0.798c0.024-0.067,0.059-0.129,0.101-0.181c0.19-0.245,0.542-0.339,1.018-0.274
					c1.058,0.142,2.469,1.019,3.085,2.259C411.613,280.963,412.167,280.812,412.519,280.371z M406.571,286.045
					c-0.384-1.193-1.314-2.343-1.974-2.62c-0.103-0.043-0.247-0.082-0.334-0.026c-0.009,0.006-0.018,0.014-0.024,0.024
					c-0.05,0.061-0.067,0.241,0.047,0.537C404.542,284.628,405.416,285.669,406.571,286.045z M410.557,280.995
					c-0.633-1.033-1.847-1.643-2.558-1.737c-0.316-0.043-0.483,0.015-0.533,0.079c-0.009,0.008-0.013,0.017-0.018,0.029
					c-0.035,0.1,0.035,0.229,0.099,0.318C407.973,280.265,409.305,280.9,410.557,280.995z"/>
			</g>
			<g>
				<path fill="#808284" d="M387.743,267.082c0.088-0.115,0.252-0.135,0.367-0.044l11.481,9.065
					c0.115,0.088,0.132,0.252,0.042,0.367c-0.088,0.114-0.252,0.135-0.367,0.044l-11.481-9.065
					C387.673,267.36,387.652,267.193,387.743,267.082z"/>
			</g>
		</g>
		
			<rect x="375.35" y="258.331" transform="matrix(-0.6197 0.7848 -0.7848 -0.6197 828.3682 126.4154)" fill="#FFF9F0" width="16.413" height="11.148"/>
		<path fill="#EDE6D8" d="M381.282,273.446c-0.218-0.167-0.25-0.478-0.082-0.695l10.414-13.186c0.17-0.215,0.479-0.249,0.692-0.083
			l0,0c0.214,0.17,0.252,0.478,0.082,0.695l-10.414,13.186C381.807,273.581,381.495,273.616,381.282,273.446L381.282,273.446z"/>
		<path fill="#EDE6D8" d="M379.76,272.244c-0.214-0.17-0.253-0.481-0.083-0.692l10.415-13.189c0.167-0.214,0.478-0.249,0.692-0.079
			l0,0c0.215,0.167,0.253,0.478,0.083,0.692l-10.415,13.187C380.285,272.375,379.971,272.413,379.76,272.244L379.76,272.244z"/>
		<path fill="#EDE6D8" d="M378.234,271.041c-0.214-0.167-0.249-0.478-0.082-0.695l10.414-13.183c0.17-0.218,0.482-0.253,0.695-0.085
			l0,0c0.214,0.17,0.25,0.48,0.083,0.696l-10.414,13.186C378.762,271.176,378.448,271.21,378.234,271.041L378.234,271.041z"/>
		<path fill="#EDE6D8" d="M376.712,269.838c-0.214-0.171-0.25-0.481-0.083-0.691l10.415-13.189c0.169-0.215,0.478-0.253,0.691-0.08
			l0,0c0.215,0.167,0.253,0.478,0.085,0.692l-10.415,13.185C377.237,269.971,376.926,270.009,376.712,269.838L376.712,269.838z"/>
		<path fill="#EDE6D8" d="M375.19,268.635c-0.214-0.17-0.249-0.477-0.082-0.695l10.414-13.183c0.167-0.217,0.479-0.251,0.693-0.085
			l0,0c0.214,0.17,0.252,0.481,0.082,0.695l-10.414,13.186C375.715,268.768,375.404,268.807,375.19,268.635L375.19,268.635z"/>
		<path fill="#EDE6D8" d="M373.668,267.434c-0.215-0.167-0.253-0.479-0.083-0.693L384,253.553c0.167-0.215,0.479-0.252,0.692-0.08
			l0,0c0.214,0.168,0.25,0.478,0.083,0.692l-10.415,13.187C374.193,267.565,373.882,267.604,373.668,267.434L373.668,267.434z"/>
		<path fill="none" d="M419.136,291.871l-36.007-28.435L419.136,291.871z"/>
	</g>
	<g>
		<g>
			<polygon fill="#F2F2F2" points="306.349,369.561 301.302,365.821 369.891,273.152 374.941,276.892 			"/>
		</g>
		<g>
			
				<rect x="319.83" y="252.494" transform="matrix(0.804 0.5946 -0.5946 0.804 247.7048 -131.258)" fill="#F2F2F2" width="6.281" height="115.291"/>
		</g>
	</g>
	<g>
		<polygon fill="#F2F2F2" points="337.465,477.111 302.266,360.271 308.281,358.46 343.479,475.305 		"/>
	</g>
	<g>
		
			<rect x="245.347" y="418.02" transform="matrix(0.2884 0.9575 -0.9575 0.2884 619.7233 8.4085)" fill="#F2F2F2" width="117.714" height="6.277"/>
	</g>
	<path fill="#F2F2F2" d="M314.314,495.599h58.1H314.314z"/>
	<path fill="#F2F2F2" d="M348.396,237.534c-5.954,7.759-4.487,18.883,3.277,24.837l21.565-28.117
		C365.47,228.3,354.352,229.77,348.396,237.534z"/>
	
		<rect x="352.89" y="244.293" transform="matrix(0.6086 -0.7935 0.7935 0.6086 -56.9399 393.6984)" fill="#F2F2F2" width="35.432" height="20.548"/>
	<path fill="#E6E6E6" d="M386.851,244.704c-0.557,0.29-1.117,0.571-1.659,0.892c-4.605,2.69-8.79,6.282-12.236,10.772
		c-3.446,4.496-5.833,9.464-7.233,14.608c-0.167,0.61-0.295,1.227-0.433,1.839c-3.511,15.6,1.971,32.522,15.491,42.892
		l51.515-67.165C418.775,238.177,401.011,237.267,386.851,244.704z"/>
	<path fill="#E6E6E6" d="M319.71,360.899c0,11.906-9.646,21.551-21.549,21.551s-21.549-9.645-21.549-21.551
		c0-11.904,9.646-21.551,21.549-21.551S319.71,348.995,319.71,360.899z"/>
	<polygon fill="#E6E6E6" points="332.05,429.312 303.464,437.927 317.796,485.508 348.978,485.508 	"/>
	<path fill="#F2F2F2" d="M332.512,463.717c-27.424,0-50.827,17.197-60.036,41.395h120.071
		C383.338,480.914,359.939,463.717,332.512,463.717z"/>
	<path fill="#F2F2F2" d="M356.988,487.018c-0.794,2.234-5.167,2.729-9.769,1.103c-4.603-1.631-7.692-4.769-6.902-7.004
		c0.791-2.239,5.166-2.73,9.772-1.099C354.692,481.646,357.778,484.781,356.988,487.018z"/>
</g>
<g>
	<g>
		<path fill="#1A8763" d="M495.003,481.308c2.927,0,5.3-2.373,5.3-5.301V370.524c0-2.928-2.373-5.301-5.3-5.301
			c-2.927,0-5.3,2.373-5.3,5.301v105.483C489.703,478.935,492.076,481.308,495.003,481.308z"/>
	</g>
	<g>
		<g>
			<path fill="#13955C" d="M507.365,450.325c-4.992,3.021-7.615,8.247-6.887,12.853l21.47-13.004
				C518.203,447.397,512.356,447.302,507.365,450.325z"/>
		</g>
		<g>
			<path fill="#1A8763" d="M515.025,462.97c-4.992,3.023-10.837,2.929-14.583,0.149l21.47-13.004
				C522.641,454.721,520.017,459.946,515.025,462.97z"/>
		</g>
	</g>
	<g>
		<g>
			<path fill="#13955C" d="M481.095,434.009c6.312,3.823,9.627,10.428,8.708,16.252l-27.144-16.443
				C467.395,430.306,474.784,430.186,481.095,434.009z"/>
		</g>
		<g>
			<path fill="#1A8763" d="M471.412,449.995c6.311,3.823,13.701,3.703,18.437,0.19l-27.145-16.441
				C461.784,439.566,465.101,446.172,471.412,449.995z"/>
		</g>
	</g>
	<g>
		<g>
			<path fill="#13955C" d="M509.187,388.565c-6.311,3.82-9.627,10.427-8.708,16.25l27.145-16.441
				C522.888,384.862,515.498,384.741,509.187,388.565z"/>
		</g>
		<g>
			<path fill="#1A8763" d="M518.871,404.551c-6.311,3.823-13.701,3.703-18.437,0.191l27.144-16.441
				C528.497,394.124,525.182,400.728,518.871,404.551z"/>
		</g>
	</g>
	<g>
		<g>
			<path fill="#13955C" d="M511.473,416.801c-7.923,4.799-12.086,13.09-10.933,20.401l34.078-20.644
				C528.674,412.152,519.395,411.999,511.473,416.801z"/>
		</g>
		<g>
			<path fill="#1A8763" d="M523.629,436.872c-7.923,4.799-17.201,4.647-23.146,0.239l34.079-20.644
				C535.717,423.777,531.552,432.072,523.629,436.872z"/>
		</g>
	</g>
	<g>
		<g>
			<path fill="#13955C" d="M478.726,399.574c7.922,4.801,12.087,13.094,10.933,20.403l-34.079-20.642
				C461.525,394.926,470.803,394.774,478.726,399.574z"/>
		</g>
		<g>
			<path fill="#1A8763" d="M466.569,419.645c7.922,4.799,17.2,4.648,23.145,0.24l-34.078-20.641
				C454.482,406.553,458.646,414.848,466.569,419.645z"/>
		</g>
	</g>
	<g>
		<rect x="468.503" y="476.522" fill="#E7711B" width="52.999" height="19.875"/>
	</g>
	<g>
		<polygon fill="#F7981D" points="471.815,496.363 518.189,496.363 514.877,529.521 475.128,529.521 		"/>
	</g>
</g>
<path fill="#13955C" d="M410.353,372.569v0.679c0-0.229,0.012-0.456,0.029-0.679H410.353z"/>
<g>
	<g>
		<path fill="#F05722" d="M356.855,500.513c-0.329-4.595-3.895-7.274-7.715-9.198c-2.218-1.115-4.174,2.217-1.949,3.336
			c2.382,1.199,5.585,2.839,5.802,5.862c0.075,1.052,0.821,1.931,1.931,1.931C355.92,502.443,356.929,501.564,356.855,500.513
			L356.855,500.513z"/>
	</g>
	<g>
		<circle fill="#E2431E" cx="355.889" cy="524.61" r="24.137"/>
		<g>
			<path fill="#F05722" d="M331.753,524.61c0,13.329,10.807,24.137,24.135,24.137v-48.273
				C342.56,500.474,331.753,511.279,331.753,524.61z"/>
			<path fill="#E2431E" d="M355.889,500.474v48.273c13.33,0,24.136-10.808,24.136-24.137
				C380.025,511.279,369.219,500.474,355.889,500.474z"/>
		</g>
	</g>
	<g>
		<g>
			<path fill="#13955C" d="M362.054,488.706c-4.599,2.785-7.015,7.598-6.345,11.842l19.778-11.98
				C372.037,486.008,366.652,485.92,362.054,488.706z"/>
		</g>
		<g>
			<path fill="#1A8763" d="M369.109,500.354c-4.598,2.785-9.982,2.698-13.433,0.14l19.778-11.981
				C376.125,492.757,373.709,497.568,369.109,500.354z"/>
		</g>
	</g>
</g>
<path fill="#FFFFFF" d="M903.742,555.572v-3.239c0-2.296-1.9-4.167-4.235-4.167s-4.236,1.871-4.236,4.167l-0.064,10.183h-0.938
	l0.063-10.183c0-2.808,2.321-5.091,5.176-5.091s5.174,2.283,5.174,5.091v3.239H903.742z"/>
<g>
	<g>
		<path fill="#3B3B3B" d="M448.356,603.875c0.266,2.515-1.574,4.789-4.088,5.055l-25.146,2.657c-2.516,0.267-4.79-1.572-5.055-4.086
			l-7.09-67.056c-0.266-2.517,1.574-4.791,4.088-5.056l25.145-2.659c2.515-0.265,4.79,1.574,5.056,4.089L448.356,603.875z"/>
	</g>
	<g>
		
			<rect x="412.316" y="545.322" transform="matrix(0.9945 -0.1051 0.1051 0.9945 -57.7763 48.126)" fill="#808080" width="30.675" height="53.658"/>
	</g>
	<g>
		<circle fill="#212121" cx="431.091" cy="604.545" r="2.855"/>
	</g>
	<g opacity="0.2">
		<path fill="#F2F2F2" d="M412.806,595.564l1.262,11.937c0.028,0.258,0.077,0.51,0.146,0.754c0.594,2.117,2.655,3.573,4.91,3.332
			l25.145-2.655c2.255-0.24,3.967-2.093,4.104-4.288c0.016-0.252,0.012-0.508-0.015-0.769l-4.185-39.572L412.806,595.564z"/>
	</g>
</g>
<g>
	<path fill="#E49307" d="M923.428,577.263c0,9.721,7.879,17.602,17.6,17.602c9.719,0,17.6-7.881,17.6-17.602
		c0-9.719-7.881-17.601-17.6-17.601C931.307,559.662,923.428,567.544,923.428,577.263z M931.831,577.263
		c0-5.08,4.117-9.196,9.197-9.196c5.078,0,9.197,4.116,9.197,9.196c0,5.081-4.119,9.198-9.197,9.198
		C935.948,586.461,931.831,582.344,931.831,577.263z"/>
	<polygon fill="#E49307" points="941.028,550.283 935.774,604.942 919.158,604.942 919.158,550.283 	"/>
	<polygon fill="#F4B400" points="897.285,550.283 919.158,550.283 919.158,604.942 902.537,604.942 	"/>
</g>
<g>
	<g>
		<polygon fill="#F6EB3B" points="577.683,294.479 573.827,324.896 595.545,327.65 604.244,328.752 605.347,320.054 
			608.101,298.335 		"/>
	</g>
	<g>
		
			<rect x="577.192" y="296.377" transform="matrix(0.9921 0.1258 -0.1258 0.9921 42.3672 -72.1413)" fill="#F1CA3A" width="30.56" height="6.117"/>
	</g>
	<path fill="none" stroke="#F1CA3A" stroke-width="2.101" stroke-linecap="round" stroke-miterlimit="10" d="M580.061,304.76
		l23.101,2.93L580.061,304.76z"/>
	<path fill="none" stroke="#F1CA3A" stroke-width="2.101" stroke-linecap="round" stroke-miterlimit="10" d="M579.52,309.025
		l23.101,2.928L579.52,309.025z"/>
	<path fill="none" stroke="#F1CA3A" stroke-width="2.101" stroke-linecap="round" stroke-miterlimit="10" d="M579.52,309.025
		l23.101,2.928L579.52,309.025z"/>
	<path fill="none" stroke="#F1CA3A" stroke-width="2.101" stroke-linecap="round" stroke-miterlimit="10" d="M597.39,315.623
		l4.69,0.595L597.39,315.623z"/>
	<path fill="none" stroke="#F1CA3A" stroke-width="2.101" stroke-linecap="round" stroke-miterlimit="10" d="M578.964,313.407
		l14.938,1.895L578.964,313.407z"/>
	<path fill="none" stroke="#F1CA3A" stroke-width="2.101" stroke-linecap="round" stroke-miterlimit="10" d="M578.423,317.672
		l23.102,2.929L578.423,317.672z"/>
</g>
<g>
	<g>
		<polygon fill="#F6EB3B" points="817.21,300.75 820.08,331.277 841.874,329.229 850.603,328.41 849.783,319.681 847.737,297.882 		
			"/>
	</g>
	<g>
		
			<rect x="817.445" y="299.307" transform="matrix(0.9956 -0.0935 0.0935 0.9956 -24.6288 79.2056)" fill="#F1CA3A" width="30.558" height="6.116"/>
	</g>
	<path fill="none" stroke="#F1CA3A" stroke-width="2.101" stroke-linecap="round" stroke-miterlimit="10" d="M821.773,310.267
		l23.184-2.178L821.773,310.267z"/>
	<path fill="none" stroke="#F1CA3A" stroke-width="2.101" stroke-linecap="round" stroke-miterlimit="10" d="M822.173,314.546
		l18.255-1.715L822.173,314.546z"/>
	<path fill="none" stroke="#F1CA3A" stroke-width="2.101" stroke-linecap="round" stroke-miterlimit="10" d="M822.586,318.944
		l11.18-1.049L822.586,318.944z"/>
	<path fill="none" stroke="#F1CA3A" stroke-width="2.101" stroke-linecap="round" stroke-miterlimit="10" d="M830.083,322.559
		l16.09-1.512L830.083,322.559z"/>
</g>
<g>
	<polygon fill="#9CB848" points="563.482,303.267 566.963,333.729 588.713,331.245 597.425,330.249 596.43,321.537 593.944,299.787 
			"/>
</g>
<g>
	
		<rect x="563.745" y="301.51" transform="matrix(0.9935 -0.1136 0.1136 0.9935 -30.8398 67.7207)" fill="#81993C" width="30.56" height="6.117"/>
</g>
<g>
	<path fill="#748A36" d="M581.746,326.215c-0.314,0.035-0.633-0.05-0.887-0.246l-6.433-4.944c-0.537-0.412-0.638-1.182-0.225-1.719
		c0.412-0.538,1.182-0.638,1.719-0.226l5.084,3.907l3.445-9.959c0.222-0.639,0.92-0.979,1.56-0.757
		c0.64,0.221,0.979,0.92,0.758,1.559l-4.001,11.567c-0.129,0.373-0.429,0.66-0.807,0.774
		C581.888,326.192,581.816,326.208,581.746,326.215z"/>
</g>
<rect x="957.659" y="500.114" fill="#9CB848" width="124.065" height="28.649"/>
<rect x="957.659" y="471.485" fill="#F7981D" width="124.065" height="28.649"/>
<rect x="957.659" y="442.855" fill="#0F9CBD" width="124.065" height="28.647"/>
<rect x="1005.375" y="442.855" fill="#187DA6" width="28.629" height="9.545"/>
<rect x="1005.375" y="471.485" fill="#E7711B" width="28.629" height="9.544"/>
<rect x="1005.375" y="500.114" fill="#81993C" width="28.629" height="9.546"/>
<g>
	<g>
		<path fill="#F2F2F2" d="M832.401,575.772c1.637,8.511-3.621,16.74-11.687,18.291c-8.063,1.551-15.998-4.146-17.635-12.657
			l-4.629-24.075c-1.634-8.511,3.624-16.743,11.688-18.292c8.064-1.551,16,4.146,17.638,12.654L832.401,575.772z"/>
		<path fill="#CCCCCC" d="M814.766,551.688c0.499,2.607-0.452,4.98-2.127,5.303c-1.677,0.322-3.438-1.53-3.939-4.137
			c-0.501-2.605,0.449-4.979,2.127-5.3C812.499,547.231,814.262,549.083,814.766,551.688z"/>
	</g>
</g>
<g>
	<g>
		
			<rect x="515.006" y="550.927" transform="matrix(0.9976 0.0691 -0.0691 0.9976 41.7109 -40.7742)" fill="#CCCCCC" width="190.841" height="63.603"/>
		
			<rect x="524.774" y="587.695" transform="matrix(0.9976 0.0692 -0.0692 0.9976 42.2835 -35.2404)" fill="#F2F2F2" width="10.547" height="10.602"/>
		
			<rect x="525.865" y="571.938" transform="matrix(0.9976 0.0691 -0.0691 0.9976 41.1357 -35.3052)" fill="#F2F2F2" width="10.548" height="10.601"/>
		
			<rect x="526.963" y="556.074" transform="matrix(0.9976 0.0691 -0.0691 0.9976 40.0428 -35.4189)" fill="#F2F2F2" width="10.548" height="10.601"/>
		
			<rect x="540.614" y="588.739" transform="matrix(0.9976 0.0692 -0.0692 0.9976 42.3915 -36.3318)" fill="#F2F2F2" width="10.548" height="10.6"/>
		
			<rect x="541.705" y="572.982" transform="matrix(0.9976 0.0691 -0.0691 0.9976 41.2496 -36.3998)" fill="#F2F2F2" width="10.547" height="10.6"/>
		
			<rect x="542.803" y="557.119" transform="matrix(0.9976 0.0691 -0.0691 0.9976 40.1566 -36.5136)" fill="#F2F2F2" width="10.547" height="10.601"/>
		
			<rect x="556.449" y="589.862" transform="matrix(0.9976 0.069 -0.069 0.9976 42.3903 -37.3284)" fill="#F2F2F2" width="10.548" height="10.6"/>
		
			<rect x="557.54" y="574.104" transform="matrix(0.9976 0.0688 -0.0688 0.9976 41.1939 -37.3464)" fill="#F2F2F2" width="10.547" height="10.599"/>
		
			<rect x="558.638" y="558.242" transform="matrix(0.9976 0.069 -0.069 0.9976 40.2144 -37.5546)" fill="#F2F2F2" width="10.548" height="10.599"/>
		
			<rect x="572.232" y="592.556" transform="matrix(0.9976 0.069 -0.069 0.9976 42.7135 -40.0962)" fill="#F2F2F2" width="58.33" height="10.599"/>
		
			<rect x="573.38" y="575.148" transform="matrix(0.9976 0.0692 -0.0692 0.9976 41.5281 -38.6288)" fill="#F2F2F2" width="10.548" height="10.602"/>
		
			<rect x="574.478" y="559.284" transform="matrix(0.9976 0.0692 -0.0692 0.9976 40.4356 -38.7444)" fill="#F2F2F2" width="10.548" height="10.603"/>
		
			<rect x="619.901" y="594.254" transform="matrix(0.9976 0.0691 -0.0691 0.9976 42.9057 -41.7502)" fill="#F2F2F2" width="10.547" height="10.6"/>
		
			<rect x="620.992" y="578.497" transform="matrix(0.9976 0.0689 -0.0689 0.9976 41.7023 -41.7534)" fill="#F2F2F2" width="10.548" height="10.6"/>
		
			<rect x="622.09" y="562.634" transform="matrix(0.9976 0.0691 -0.0691 0.9976 40.7268 -41.9769)" fill="#F2F2F2" width="10.547" height="10.602"/>
		
			<rect x="635.742" y="595.297" transform="matrix(0.9976 0.069 -0.069 0.9976 42.954 -42.7847)" fill="#F2F2F2" width="10.548" height="10.6"/>
		
			<rect x="636.832" y="579.541" transform="matrix(0.9976 0.0692 -0.0692 0.9976 41.9878 -43.0103)" fill="#F2F2F2" width="10.547" height="10.602"/>
		
			<rect x="637.93" y="563.678" transform="matrix(0.9976 0.0689 -0.0689 0.9976 40.7197 -42.9535)" fill="#F2F2F2" width="10.548" height="10.599"/>
		
			<rect x="651.627" y="596.45" transform="matrix(0.9976 0.0692 -0.0692 0.9976 43.1907 -43.9911)" fill="#F2F2F2" width="10.548" height="10.601"/>
		
			<rect x="652.718" y="580.693" transform="matrix(0.9976 0.0692 -0.0692 0.9976 42.1036 -44.1043)" fill="#F2F2F2" width="10.548" height="10.602"/>
		
			<rect x="653.816" y="564.829" transform="matrix(0.9976 0.0691 -0.0691 0.9976 40.9523 -44.1611)" fill="#F2F2F2" width="10.548" height="10.602"/>
		
			<rect x="667.468" y="597.495" transform="matrix(0.9976 0.0688 -0.0688 0.9976 43.0635 -44.8536)" fill="#F2F2F2" width="10.547" height="10.599"/>
		
			<rect x="668.559" y="581.737" transform="matrix(0.9976 0.0691 -0.0691 0.9976 42.1573 -45.1411)" fill="#F2F2F2" width="10.547" height="10.599"/>
		
			<rect x="669.655" y="565.873" transform="matrix(0.9976 0.0691 -0.0691 0.9976 41.0582 -45.2487)" fill="#F2F2F2" width="10.549" height="10.6"/>
		
			<rect x="683.898" y="582.897" transform="matrix(0.9976 0.0692 -0.0692 0.9976 42.8771 -46.2387)" fill="#F2F2F2" width="10.547" height="26.343"/>
		
			<rect x="684.445" y="582.862" transform="matrix(0.9976 0.0689 -0.0689 0.9976 42.1578 -46.118)" fill="#F2F2F2" width="10.547" height="10.599"/>
		
			<rect x="685.544" y="567" transform="matrix(0.9976 0.069 -0.069 0.9976 41.1287 -46.2956)" fill="#F2F2F2" width="10.546" height="10.601"/>
		
			<rect x="588.175" y="592.057" transform="matrix(0.9976 0.0692 -0.0692 0.9976 42.7371 -39.6149)" fill="#F2F2F2" width="10.547" height="10.602"/>
		
			<rect x="589.266" y="576.301" transform="matrix(0.9976 0.0691 -0.0691 0.9976 41.5905 -39.6754)" fill="#F2F2F2" width="10.548" height="10.601"/>
		
			<rect x="590.364" y="560.437" transform="matrix(0.9976 0.0692 -0.0692 0.9976 40.5533 -39.8403)" fill="#F2F2F2" width="10.548" height="10.602"/>
		
			<rect x="604.015" y="593.101" transform="matrix(0.9976 0.0692 -0.0692 0.9976 42.8451 -40.7063)" fill="#F2F2F2" width="10.548" height="10.602"/>
		
			<rect x="605.106" y="577.344" transform="matrix(0.9976 0.0689 -0.0689 0.9976 41.5831 -40.66)" fill="#F2F2F2" width="10.548" height="10.599"/>
		
			<rect x="606.204" y="561.48" transform="matrix(0.9976 0.0691 -0.0691 0.9976 40.6092 -40.8824)" fill="#F2F2F2" width="10.547" height="10.6"/>
	</g>
</g>
<g>
	<g>
		<g>
			
				<rect x="865.579" y="424.616" transform="matrix(0.0444 -0.999 0.999 0.0444 443.053 1317.3605)" fill="#13955C" width="89.094" height="4.951"/>
		</g>
		<g>
			
				<rect x="907.654" y="382.489" transform="matrix(-0.999 -0.0442 0.0442 -0.999 1798.0142 893.8361)" fill="#1A8763" width="2.474" height="89.095"/>
		</g>
		<g>
			<polygon fill="#FBD199" points="906.69,476.484 905.675,471.485 910.622,471.703 909.163,476.594 908.434,479.039 
				907.198,478.983 			"/>
		</g>
		<g>
			<polygon fill="#4D4D4D" points="907.198,478.983 908.434,479.039 907.708,481.484 			"/>
		</g>
		<g>
			
				<rect x="909.796" y="375.167" transform="matrix(-0.999 -0.0442 0.0442 -0.999 1806.8987 797.7181)" fill="#CCCCCC" width="4.948" height="7.424"/>
		</g>
		<g>
			
				<rect x="910.016" y="372.695" transform="matrix(0.999 0.0444 -0.0444 0.999 17.5046 -40.1503)" fill="#ED9D97" width="4.948" height="2.477"/>
		</g>
	</g>
	<g>
		<g>
			<rect x="901.707" y="365.729" fill="#F2F2F2" width="4.951" height="89.094"/>
		</g>
		<g>
			<rect x="901.707" y="365.729" fill="#B3B3B3" width="2.477" height="89.094"/>
		</g>
		<g>
			<polygon fill="#FBD199" points="902.945,360.779 901.707,365.729 906.658,365.729 905.421,360.779 904.802,358.303 
				903.564,358.303 			"/>
		</g>
		<g>
			<polygon fill="#4D4D4D" points="903.564,358.303 904.802,358.303 904.183,355.83 			"/>
		</g>
		<g>
			<rect x="901.707" y="454.822" fill="#CCCCCC" width="4.951" height="7.425"/>
		</g>
		<g>
			<rect x="901.707" y="462.247" fill="#ED9D97" width="4.951" height="2.476"/>
		</g>
	</g>
	<g>
		<g>
			
				<rect x="840.879" y="437.262" transform="matrix(-0.0416 -0.9991 0.9991 -0.0416 482.901 1342.6895)" fill="#F1CA3A" width="89.095" height="4.95"/>
		</g>
		<g>
			
				<rect x="882.952" y="395.241" transform="matrix(-0.9992 0.041 -0.041 -0.9992 1785.6716 842.9479)" fill="#E49307" width="2.477" height="89.095"/>
		</g>
		<g>
			<polygon fill="#FBD199" points="886.249,489.244 884.807,484.351 889.752,484.142 888.723,489.139 888.208,491.638 
				886.971,491.688 			"/>
		</g>
		<g>
			<polygon fill="#4D4D4D" points="886.971,491.688 888.208,491.638 887.692,494.136 			"/>
		</g>
		<g>
			
				<rect x="880.943" y="387.807" transform="matrix(-0.9991 0.0416 -0.0416 -0.9991 1782.3673 745.9278)" fill="#CCCCCC" width="4.951" height="7.423"/>
		</g>
		<g>
			
				<rect x="880.74" y="385.337" transform="matrix(0.9991 -0.0417 0.0417 0.9991 -15.3362 37.1259)" fill="#ED9D97" width="4.947" height="2.474"/>
		</g>
	</g>
	<g>
		<g>
			
				<rect x="916.241" y="389.582" transform="matrix(0.0598 -0.9982 0.9982 0.0598 473.6577 1284.52)" fill="#F2F2F2" width="4.948" height="2.475"/>
		</g>
		<g>
			
				<rect x="871.835" y="441.668" transform="matrix(0.0604 -0.9982 0.9982 0.0604 416.8188 1331.1082)" fill="#525252" width="87.305" height="4.948"/>
		</g>
		<g>
			
				<rect x="913.014" y="400.415" transform="matrix(-0.9981 -0.0612 0.0612 -0.9981 1799.6372 943.2084)" fill="#525252" width="2.475" height="87.303"/>
		</g>
		<g>
			<polygon fill="#525252" points="911.314,492.581 910.379,487.565 915.318,487.864 913.784,492.73 913.017,495.162 
				911.781,495.088 			"/>
		</g>
		<g>
			<polygon fill="#F2F2F2" points="911.781,495.088 913.017,495.162 912.251,497.596 			"/>
		</g>
		<g>
			
				<rect x="915.874" y="393.152" transform="matrix(-0.9982 -0.0606 0.0606 -0.9982 1810.9794 848.6148)" fill="#525252" width="4.95" height="7.424"/>
		</g>
		<g>
			
				<rect x="916.174" y="390.686" transform="matrix(0.9982 0.0605 -0.0605 0.9982 25.4159 -54.9039)" fill="#525252" width="4.951" height="2.475"/>
		</g>
		<g>
			
				<rect x="918.163" y="394.924" transform="matrix(0.0607 -0.9982 0.9982 0.0607 470.8199 1291.3834)" fill="#525252" width="6.73" height="1.239"/>
		</g>
		<g>
			
				<rect x="904.226" y="410.502" transform="matrix(0.0605 -0.9982 0.9982 0.0605 455.7285 1306.4059)" fill="#525252" width="35.199" height="1.237"/>
		</g>
	</g>
	<g>
		<g>
			<rect x="890.233" y="393.682" fill="#F1CA3A" width="15.461" height="79.204"/>
			<rect x="904.934" y="393.682" fill="#E49307" width="0.981" height="79.204"/>
			<circle fill="#4D4D4D" cx="898.074" cy="398.675" r="1.49"/>
			<g>
				<rect x="890.938" y="394.048" fill="#4D4D4D" width="0.158" height="78.418"/>
			</g>
			<g>
				<g>
					<g>
						<rect x="890.233" y="472.388" fill="#4D4D4D" width="0.783" height="0.158"/>
					</g>
				</g>
				<g>
					<g>
						<rect x="890.233" y="470.819" fill="#4D4D4D" width="0.783" height="0.157"/>
					</g>
				</g>
				<g>
					<g>
						<rect x="890.233" y="469.251" fill="#4D4D4D" width="0.783" height="0.157"/>
					</g>
				</g>
				<g>
					<g>
						<rect x="890.233" y="467.683" fill="#4D4D4D" width="0.783" height="0.157"/>
					</g>
				</g>
				<g>
					<g>
						<rect x="890.233" y="466.115" fill="#4D4D4D" width="0.783" height="0.158"/>
					</g>
				</g>
				<g>
					<g>
						<rect x="890.233" y="464.547" fill="#4D4D4D" width="0.783" height="0.155"/>
					</g>
				</g>
				<g>
					<g>
						<rect x="890.233" y="462.978" fill="#4D4D4D" width="0.783" height="0.158"/>
					</g>
				</g>
				<g>
					<g>
						<rect x="890.233" y="461.409" fill="#4D4D4D" width="0.783" height="0.157"/>
					</g>
				</g>
				<g>
					<g>
						<rect x="890.233" y="459.843" fill="#4D4D4D" width="0.783" height="0.155"/>
					</g>
				</g>
				<g>
					<g>
						<rect x="890.233" y="458.271" fill="#4D4D4D" width="0.783" height="0.157"/>
					</g>
				</g>
				<g>
					<g>
						<rect x="890.233" y="456.705" fill="#4D4D4D" width="0.783" height="0.155"/>
					</g>
				</g>
				<g>
					<g>
						<rect x="890.233" y="455.137" fill="#4D4D4D" width="0.783" height="0.155"/>
					</g>
				</g>
				<g>
					<g>
						<rect x="890.233" y="453.568" fill="#4D4D4D" width="0.783" height="0.154"/>
					</g>
				</g>
				<g>
					<g>
						<rect x="890.233" y="451.999" fill="#4D4D4D" width="0.783" height="0.157"/>
					</g>
				</g>
				<g>
					<g>
						<rect x="890.233" y="450.431" fill="#4D4D4D" width="0.783" height="0.157"/>
					</g>
				</g>
				<g>
					<g>
						<rect x="890.233" y="448.861" fill="#4D4D4D" width="0.783" height="0.158"/>
					</g>
				</g>
				<g>
					<g>
						<rect x="890.233" y="447.294" fill="#4D4D4D" width="0.783" height="0.156"/>
					</g>
				</g>
				<g>
					<g>
						<rect x="890.233" y="445.726" fill="#4D4D4D" width="0.783" height="0.158"/>
					</g>
				</g>
				<g>
					<g>
						<rect x="890.233" y="444.157" fill="#4D4D4D" width="0.783" height="0.156"/>
					</g>
				</g>
				<g>
					<g>
						<rect x="890.233" y="442.589" fill="#4D4D4D" width="0.783" height="0.156"/>
					</g>
				</g>
				<g>
					<g>
						<rect x="890.233" y="441.02" fill="#4D4D4D" width="0.783" height="0.155"/>
					</g>
				</g>
				<g>
					<g>
						<rect x="890.233" y="439.453" fill="#4D4D4D" width="0.783" height="0.155"/>
					</g>
				</g>
				<g>
					<g>
						<rect x="890.233" y="437.885" fill="#4D4D4D" width="0.783" height="0.155"/>
					</g>
				</g>
				<g>
					<g>
						<rect x="890.233" y="436.315" fill="#4D4D4D" width="0.783" height="0.156"/>
					</g>
				</g>
				<g>
					<g>
						<rect x="890.233" y="434.747" fill="#4D4D4D" width="0.783" height="0.157"/>
					</g>
				</g>
				<g>
					<g>
						<rect x="890.233" y="433.179" fill="#4D4D4D" width="0.783" height="0.158"/>
					</g>
				</g>
				<g>
					<g>
						<rect x="890.233" y="431.609" fill="#4D4D4D" width="0.783" height="0.158"/>
					</g>
				</g>
				<g>
					<g>
						<rect x="890.233" y="430.041" fill="#4D4D4D" width="0.783" height="0.158"/>
					</g>
				</g>
				<g>
					<g>
						<rect x="890.233" y="428.473" fill="#4D4D4D" width="0.783" height="0.158"/>
					</g>
				</g>
				<g>
					<g>
						<rect x="890.233" y="426.906" fill="#4D4D4D" width="0.783" height="0.156"/>
					</g>
				</g>
				<g>
					<g>
						<rect x="890.233" y="425.337" fill="#4D4D4D" width="0.783" height="0.158"/>
					</g>
				</g>
				<g>
					<g>
						<rect x="890.233" y="423.769" fill="#4D4D4D" width="0.783" height="0.157"/>
					</g>
				</g>
				<g>
					<g>
						<rect x="890.233" y="422.2" fill="#4D4D4D" width="0.783" height="0.157"/>
					</g>
				</g>
				<g>
					<g>
						<rect x="890.233" y="420.632" fill="#4D4D4D" width="0.783" height="0.156"/>
					</g>
				</g>
				<g>
					<g>
						<rect x="890.233" y="419.064" fill="#4D4D4D" width="0.783" height="0.155"/>
					</g>
				</g>
				<g>
					<g>
						<rect x="890.233" y="417.496" fill="#4D4D4D" width="0.783" height="0.155"/>
					</g>
				</g>
				<g>
					<g>
						<rect x="890.233" y="415.928" fill="#4D4D4D" width="0.783" height="0.155"/>
					</g>
				</g>
				<g>
					<g>
						<rect x="890.233" y="414.358" fill="#4D4D4D" width="0.783" height="0.155"/>
					</g>
				</g>
				<g>
					<g>
						<rect x="890.233" y="412.789" fill="#4D4D4D" width="0.783" height="0.158"/>
					</g>
				</g>
				<g>
					<g>
						<rect x="890.233" y="411.221" fill="#4D4D4D" width="0.783" height="0.158"/>
					</g>
				</g>
				<g>
					<g>
						<rect x="890.233" y="409.652" fill="#4D4D4D" width="0.783" height="0.157"/>
					</g>
				</g>
				<g>
					<g>
						<rect x="890.233" y="408.083" fill="#4D4D4D" width="0.783" height="0.158"/>
					</g>
				</g>
				<g>
					<g>
						<rect x="890.233" y="406.515" fill="#4D4D4D" width="0.783" height="0.158"/>
					</g>
				</g>
				<g>
					<g>
						<rect x="890.233" y="404.948" fill="#4D4D4D" width="0.783" height="0.156"/>
					</g>
				</g>
				<g>
					<g>
						<rect x="890.233" y="403.38" fill="#4D4D4D" width="0.783" height="0.156"/>
					</g>
				</g>
				<g>
					<g>
						<rect x="890.233" y="401.812" fill="#4D4D4D" width="0.783" height="0.155"/>
					</g>
				</g>
				<g>
					<g>
						<rect x="890.233" y="400.244" fill="#4D4D4D" width="0.783" height="0.155"/>
					</g>
				</g>
				<g>
					<g>
						<rect x="890.233" y="398.674" fill="#4D4D4D" width="0.783" height="0.158"/>
					</g>
				</g>
				<g>
					<g>
						<rect x="890.233" y="397.106" fill="#4D4D4D" width="0.783" height="0.156"/>
					</g>
				</g>
				<g>
					<g>
						<rect x="890.233" y="395.538" fill="#4D4D4D" width="0.783" height="0.156"/>
					</g>
				</g>
				<g>
					<g>
						<rect x="890.233" y="393.97" fill="#4D4D4D" width="0.783" height="0.156"/>
					</g>
				</g>
			</g>
			<g>
				<g>
					<g>
						<rect x="891.016" y="472.388" fill="#4D4D4D" width="1.673" height="0.158"/>
					</g>
				</g>
				<g>
					<g>
						<rect x="891.016" y="464.547" fill="#4D4D4D" width="1.673" height="0.155"/>
					</g>
				</g>
				<g>
					<g>
						<rect x="891.016" y="456.705" fill="#4D4D4D" width="1.673" height="0.155"/>
					</g>
				</g>
				<g>
					<g>
						<rect x="891.016" y="448.861" fill="#4D4D4D" width="1.673" height="0.16"/>
					</g>
				</g>
				<g>
					<g>
						<rect x="891.016" y="441.021" fill="#4D4D4D" width="1.673" height="0.155"/>
					</g>
				</g>
				<g>
					<g>
						<rect x="891.016" y="433.179" fill="#4D4D4D" width="1.673" height="0.158"/>
					</g>
				</g>
				<g>
					<g>
						<rect x="891.016" y="425.337" fill="#4D4D4D" width="1.673" height="0.158"/>
					</g>
				</g>
				<g>
					<g>
						<rect x="891.016" y="417.496" fill="#4D4D4D" width="1.673" height="0.155"/>
					</g>
				</g>
				<g>
					<g>
						<rect x="891.016" y="409.652" fill="#4D4D4D" width="1.673" height="0.157"/>
					</g>
				</g>
				<g>
					<g>
						<rect x="891.016" y="401.812" fill="#4D4D4D" width="1.673" height="0.155"/>
					</g>
				</g>
				<g>
					<g>
						<rect x="891.016" y="393.97" fill="#4D4D4D" width="1.673" height="0.156"/>
					</g>
				</g>
			</g>
		</g>
	</g>
	<polygon fill="#E2431E" points="900.379,437.759 879.724,437.759 882.82,504.034 900.379,504.034 918.367,504.034 921.464,437.759 
			"/>
	<polygon fill="#F05722" points="879.724,437.759 882.82,504.034 900.379,504.034 900.379,437.759 	"/>
	<polygon fill="#E2431E" points="921.464,437.759 900.379,437.759 900.379,504.034 918.367,504.034 	"/>
</g>
<rect x="676.349" y="125.917" fill="#F4B400" width="16.322" height="78.787"/>
<rect x="596.376" y="125.917" fill="#ABC94F" width="17.508" height="78.787"/>
<polygon fill="#6F85BF" points="631.393,108.409 613.884,108.409 613.884,204.704 631.393,204.704 648.901,204.704 648.901,108.409 
	"/>
<rect x="648.901" y="134.671" fill="#F2F2F2" width="17.857" height="70.033"/>
<rect x="755.872" y="136.226" transform="matrix(0.9015 -0.4328 0.4328 0.9015 0.7844 345.9306)" fill="#1C91C0" width="8.753" height="70.033"/>
<rect x="658.805" y="117.163" fill="#1C91C0" width="17.508" height="87.541"/>
<rect x="727.688" y="116.297" transform="matrix(0.9806 -0.1961 0.1961 0.9806 -17.0903 147.5241)" fill="#E6E6E6" width="17.507" height="87.54"/>
<polygon fill="#E49307" points="701.425,108.409 692.671,108.409 692.671,204.704 701.425,204.704 710.18,204.704 710.18,108.409 
	"/>
<rect x="708.785" y="99.655" fill="#F05722" width="10.149" height="105.048"/>
<g>
	<path fill="#7D7168" d="M788.966,216.51v-6.295c-5.472,1.708-10.573,3.951-15.55,6.295H788.966z"/>
	<path fill="#7D7168" d="M746.061,211.695c12.816-1.019,25.258-3.369,36.876-6.992H744.55c-5.777,1.514-11.664,2.801-17.865,3.122
		c-9.625,0.497-18.718-1.857-28.015-3.122h-32.559c7.518,1.662,15.135,3.123,22.849,4.309
		C707.62,211.879,726.985,213.214,746.061,211.695z"/>
	<path fill="#7D7168" d="M726.999,207.217c5.198-0.333,10.162-1.312,15.03-2.513h-39.357
		C710.69,206.007,718.68,207.75,726.999,207.217z"/>
	<path fill="#7D7168" d="M644.861,214.466c-4.901,0.041-9.651,0.762-14.203,1.97c-0.092,0.025-0.182,0.049-0.272,0.074h31.804
		C656.538,215.296,650.739,214.417,644.861,214.466z"/>
	<path fill="#7D7168" d="M602.5,204.704h-23.633v9.94c4.268-0.778,8.397-1.879,12.222-3.381
		C595.489,209.535,599.334,207.319,602.5,204.704z"/>
	<path fill="#7D7168" d="M666.089,211.371c-10.998-0.854-22.049-1.488-33.123-0.988c-10.566,0.478-21.065,1.902-30.883,4.616
		c-1.722,0.477-3.423,0.983-5.109,1.511h31.142c0.344-0.099,0.688-0.2,1.033-0.297c4.323-1.202,8.837-2.084,13.525-2.282
		c4.85-0.206,9.686,0.25,14.388,1.039c2.615,0.438,5.185,0.964,7.729,1.541h43.992c-3.046-0.408-6.088-0.825-9.128-1.239
		C688.53,213.751,677.375,212.247,666.089,211.371z"/>
	<path fill="#7D7168" d="M713.116,212.333c-16.979-1.18-33.621-3.955-49.776-7.629h-59.702c-3.469,2.968-7.785,5.458-12.73,7.307
		c-3.806,1.425-7.859,2.479-12.039,3.232v1.267h16.055c1.01-0.325,2.025-0.645,3.046-0.953c8.161-2.476,16.643-4.165,25.493-5.071
		c10.796-1.106,21.844-1.117,32.696-0.389c5.48,0.367,10.959,0.723,16.412,1.254c5.582,0.545,11.137,1.206,16.675,1.925
		c8.03,1.042,16.055,2.19,24.105,3.234h58.55c5.458-2.588,11.037-5.088,17.066-6.941v-4.865h-3.884
		c-5.124,1.68-10.428,3.112-15.872,4.268C751.121,212.814,731.922,213.638,713.116,212.333z"/>
	<path fill="#A68679" d="M672.57,211.351c-5.453-0.531-10.932-0.887-16.412-1.254c-10.853-0.729-21.9-0.717-32.696,0.389
		c-8.85,0.906-17.333,2.595-25.493,5.071c-1.021,0.309-2.036,0.628-3.046,0.953h2.052c1.686-0.528,3.387-1.034,5.109-1.511
		c9.817-2.714,20.316-4.139,30.883-4.616c11.073-0.5,22.125,0.134,33.123,0.988c11.286,0.876,22.441,2.38,33.568,3.899
		c3.04,0.415,6.082,0.832,9.128,1.239h4.565c-8.05-1.044-16.075-2.192-24.105-3.234C683.707,212.557,678.152,211.896,672.57,211.351
		z"/>
	<path fill="#A68679" d="M642.675,213.931c-4.688,0.198-9.203,1.08-13.525,2.282c-0.346,0.097-0.689,0.198-1.033,0.297h2.27
		c0.09-0.024,0.181-0.049,0.272-0.074c4.552-1.208,9.301-1.929,14.203-1.97c5.878-0.05,11.677,0.83,17.329,2.043h2.602
		c-2.545-0.577-5.115-1.103-7.729-1.541C652.361,214.181,647.525,213.725,642.675,213.931z"/>
	<path fill="#A68679" d="M603.637,204.704H602.5c-3.166,2.615-7.012,4.832-11.411,6.559c-3.825,1.502-7.955,2.603-12.222,3.381v0.6
		c4.18-0.753,8.233-1.808,12.039-3.232C595.852,210.162,600.168,207.672,603.637,204.704z"/>
	<path fill="#A68679" d="M746.061,211.695c-19.076,1.519-38.441,0.184-57.102-2.683c-7.714-1.186-15.331-2.646-22.849-4.309h-2.771
		c16.156,3.675,32.797,6.45,49.776,7.629c18.807,1.305,38.005,0.481,56.095-3.361c5.444-1.156,10.748-2.588,15.872-4.268h-2.146
		C771.319,208.326,758.877,210.676,746.061,211.695z"/>
	<path fill="#A68679" d="M773.417,216.51c4.977-2.344,10.078-4.586,15.55-6.295v-0.646c-6.029,1.854-11.608,4.353-17.066,6.941
		H773.417z"/>
	<path fill="#A68679" d="M726.685,207.826c6.201-0.321,12.088-1.608,17.865-3.122h-2.521c-4.868,1.202-9.832,2.18-15.03,2.513
		c-8.318,0.533-16.309-1.209-24.327-2.513h-4.002C707.967,205.969,717.06,208.322,726.685,207.826z"/>
</g>
<polygon opacity="0.2" fill="#4D4D4D" points="719.27,118.863 633.429,204.704 718.934,204.704 "/>
<rect x="613.884" y="160.934" fill="#47567A" width="35.017" height="28.299"/>
<rect x="658.805" y="144.41" fill="#1D6C8A" width="17.508" height="44.822"/>
<rect x="708.785" y="144.41" fill="#F09476" width="10.149" height="19.96"/>
<path fill="none" d="M433.114,290.795L297.719,426.189L433.114,290.795z"/>
<g>
	<path fill="#11A9CC" d="M963.883,147.001c-34.566,0-62.587,28.02-62.587,62.585c0,34.566,28.021,62.586,62.587,62.586
		c34.565,0,62.586-28.02,62.586-62.586C1026.469,175.021,998.449,147.001,963.883,147.001z M963.883,259.211
		c-27.408,0-49.624-22.218-49.624-49.624c0-27.407,22.216-49.624,49.624-49.624c27.406,0,49.625,22.217,49.625,49.624
		C1013.508,236.993,991.29,259.211,963.883,259.211z"/>
	<circle fill="#F2F2F2" cx="963.884" cy="209.587" r="49.625"/>
	<g>
		<path fill="#E2431E" d="M947.31,244.619c-0.153,0-0.31-0.035-0.458-0.108c-0.522-0.255-0.734-0.881-0.48-1.4l16.792-34.221
			c0.254-0.519,0.883-0.732,1.4-0.479c0.517,0.254,0.733,0.881,0.478,1.4l-16.792,34.221
			C948.068,244.402,947.698,244.619,947.31,244.619z"/>
	</g>
	<g>
		<circle fill="#3B3B3B" cx="964.101" cy="209.35" r="5.23"/>
	</g>
	<g>
		<path fill="#3B3B3B" d="M964.102,211.792c-1.349,0-2.441-1.092-2.441-2.441v-34.864c0-1.348,1.093-2.44,2.441-2.44
			s2.441,1.093,2.441,2.44v34.864C966.543,210.699,965.451,211.792,964.102,211.792z"/>
	</g>
	<g>
		<path fill="#3B3B3B" d="M981.534,229.223c-0.623,0-1.25-0.238-1.726-0.714l-17.432-17.432c-0.953-0.953-0.953-2.499,0-3.452
			c0.953-0.952,2.499-0.952,3.452,0l17.432,17.432c0.952,0.955,0.952,2.499,0,3.452
			C982.785,228.985,982.158,229.223,981.534,229.223z"/>
	</g>
</g>
<rect x="889.344" y="562.516" fill="#E2431E" width="10.738" height="14.74"/>
<polygon fill="#E2431E" points="1062.118,491.688 1051.38,486.438 1051.38,443.06 1062.118,443.06 "/>
<g>
	<path fill="#FFFFFF" d="M708.053,367.3c1.326,0,2.311-1.061,2.311-2.311c0-1.326-0.984-2.31-2.311-2.31
		c-1.25,0-2.272,0.984-2.272,2.31C705.781,366.239,706.803,367.3,708.053,367.3z"/>
	<path fill="#FFFFFF" d="M741.691,367.3c1.326,0,2.311-1.061,2.311-2.311c0-1.326-0.984-2.31-2.311-2.31
		c-1.25,0-2.272,0.984-2.272,2.31C739.418,366.239,740.441,367.3,741.691,367.3z"/>
	<path fill="#FFFFFF" d="M766.653,381.48c-0.104-0.326-0.313-0.176-0.718,0.109c-0.66,0.359-1.312,0.529-1.895,0.596
		c0.481-1.024,1.071-2.45,1.071-3.384c0-3.314-5.161-3.919-6.682-0.904c-2.152,4.267,2.567,5.535,2.567,5.535
		c0.036,0.01,0.073,0.017,0.11,0.024c-1.026,1.351-4.073,2.696-4.967,2.838l0.124-13.78c0.06-0.138,0.085-0.34,0.085-0.631
		c0-0.984-0.72-1.591-1.742-1.591c-4.621,0-9.016,3.864-9.016,10.19c0,0.396,0.023,0.782,0.071,1.154
		c-0.414,1.273-1.063,2.444-2.116,2.444c-0.985,0-0.985-1.401-0.985-1.743v-9.621c0-0.909-0.796-1.667-2.045-1.667
		c-0.531,0-0.985,0.266-0.985,0.645c0,0.266,0.151,0.492,0.151,1.213v7.082c0,0,0,0,0,0.001c-0.872,1.78-1.439,2.766-3.939,2.878
		c0.567-1.362,0.984-3.408,0.984-5.529c0-3.751-1.439-6.667-4.394-6.667c-1.591,0-2.651,0.87-3.447,2.008
		c-0.038-0.872-0.833-1.63-2.045-1.63c-0.53,0-1.213,0.152-1.213,0.417c0,0.266,0.379,0.341,0.379,1.44v6.573
		c-0.062,0.143-0.114,0.312-0.151,0.51c-0.341,1.666-1.022,4.091-2.538,4.091c-0.909,0-1.288-0.909-1.288-1.743l0.724-10
		c0-0.19-0.037-0.373-0.104-0.545c-0.193-0.703-0.831-1.121-1.68-1.121c-0.052,0-0.104,0.002-0.155,0.003
		c-0.036-0.001-0.07-0.003-0.106-0.003c-0.069,0-0.138,0.004-0.204,0.014c-4.446,0.25-8.55,4.062-8.55,10.176
		c0,0.296,0.014,0.586,0.04,0.869c-0.414,1.236-1.059,2.351-2.085,2.351c-0.985,0-0.985-1.401-0.985-1.743v-9.621
		c0-0.909-0.795-1.667-2.045-1.667c-0.53,0-0.985,0.266-0.985,0.645c0,0.266,0.151,0.492,0.151,1.213v6.571
		c-0.062,0.144-0.114,0.313-0.151,0.512c-0.341,1.666-1.023,4.091-2.539,4.091c-0.909,0-1.288-0.909-1.288-1.743v-20.341
		c0-0.909-0.795-1.667-2.045-1.667c-0.531,0-1.212,0.152-1.212,0.417c0,0.266,0.378,0.341,0.378,1.439v8.561
		c-4.129,0.568-7.652,3.939-7.652,9.735c0,0.28,0.012,0.55,0.031,0.812c-0.693,1.546-1.912,2.786-4.008,2.786
		c-1.97,0-2.993-1.061-3.523-2.349c3.674-1.099,5.606-4.432,5.606-7.235c0-2.272-1.289-3.825-3.41-3.825
		c-2.917,0-5.795,3.598-5.795,8.409c0,0.607,0.054,1.182,0.155,1.723c-0.388,1.544-1.071,3.277-2.353,3.277
		c-0.985,0-0.985-1.401-0.985-1.743v-7.841c0-1.742-0.568-3.825-3.03-3.825c-1.705,0-3.031,1.553-3.978,3.561
		c-0.076-1.705-0.72-3.561-2.993-3.561c-1.705,0-3.03,1.59-4.015,3.636v-1.591c0-0.909-0.795-1.667-2.045-1.667
		c-0.53,0-0.985,0.266-0.985,0.645c0,0.266,0.151,0.492,0.151,1.213v12.007c0,1.401,1.061,1.667,1.818,1.667
		c1.099,0,1.061-0.909,1.061-1.629v-5.53c0.227-2.993,2.387-6.25,3.409-6.25c0.644,0,0.72,0.984,0.72,2.159v9.583
		c0,1.401,1.061,1.667,1.818,1.667c1.099,0,1.061-0.909,1.061-1.629v-5.53c0.227-2.993,2.387-6.25,3.409-6.25
		c0.644,0,0.72,0.984,0.72,2.159v7.689c0,1.932,1.174,3.561,3.182,3.561c2.002,0,3.331-1.288,4.217-2.861
		c1.268,1.848,3.282,2.861,5.367,2.861c2.508,0,4.192-0.931,5.312-2.164c0.845,1.42,2.227,2.164,3.969,2.164
		c1.439,0,2.538-0.644,3.371-1.478c0.568,0.872,1.591,1.478,2.879,1.478c1.614,0,2.8-0.838,3.665-1.986
		c0.464,1.165,1.466,1.986,2.89,1.986c1.613,0,2.79-0.838,3.65-1.985c0.751,1.223,1.953,1.985,3.584,1.985
		c1.439,0,2.501-0.682,3.258-1.553c0.568,0.909,1.591,1.553,2.917,1.553c1.438,0,2.537-0.665,3.371-1.624v14.389
		c0,0.569,0.114,1.023,0.871,1.023c0.758,0,2.008-0.265,2.008-1.667v-12.311c0.303,0.341,0.909,0.568,1.817,0.568
		c1.327,0,2.804-0.645,3.827-1.742c2.274,0,4-0.627,5.209-1.474c0.258,1.598,1.374,2.837,3.124,2.837c1.698,0,2.91-0.926,3.78-2.165
		c0.758,1.106,1.915,1.786,3.455,1.786c1.326,0,2.349-0.606,3.106-1.363v3.977c-2.5,2.198-4.697,4.129-4.697,7.956
		c0,2.424,1.515,4.355,3.637,4.355c1.933,0,3.939-1.401,3.939-5.379v-6.553c1.534-1.336,6.106-3.25,7.363-5.815
		c0.012-0.021,0.026-0.052,0.043-0.085C765.218,382.798,766.725,381.7,766.653,381.48z M683.544,378.967
		c-0.075-1.59,0.493-5.758,2.349-5.758c0.493,0,0.796,0.493,0.796,1.326c0,2.273-1.212,4.242-3.106,5.113
		C683.582,379.422,683.544,379.194,683.544,378.967z M699.189,382.604c-0.492,0.834-1.212,1.478-2.197,1.478
		c-1.326,0-2.538-1.137-2.538-3.864c0-0.094,0.003-0.186,0.005-0.276c0.012-0.088,0.023-0.172,0.033-0.254
		c0.013-0.115,0.008-0.227-0.011-0.333c0.261-4.091,2.401-5.681,4.708-6.106V382.604z M719.152,382.111
		c-0.416,1.061-1.099,1.97-2.121,1.97c-1.325,0-2.159-1.137-2.159-3.106c0-4.646,2.446-7.12,4.951-7.751L719.152,382.111z
		 M732.448,383.248c-1.743,0.151-3.03,0.53-3.561,1.325v-8.182c0.417-1.856,1.401-3.183,2.5-3.183c1.288,0,2.387,1.25,2.387,4.735
		C733.774,379.346,733.357,381.922,732.448,383.248z M750.668,383.702c-1.326,0-2.159-1.137-2.159-3.106
		c0-4.501,2.296-6.962,4.716-7.687c-0.009,1.151-0.019,2.567-0.019,2.99v4.279C752.941,381.694,752.184,383.702,750.668,383.702z
		 M752.146,398.741c-0.606,0-0.985-0.91-0.985-2.084c0-2.273,0.834-3.713,2.046-4.963v4.054
		C753.207,396.468,753.358,398.741,752.146,398.741z M761.355,377.603c1.483-0.095,1.491,1.77,1.491,1.77
		c-0.021,0.983-0.443,1.962-0.827,2.664c-0.114-0.032-0.18-0.056-0.18-0.056C759.293,381.423,759.871,377.697,761.355,377.603z"/>
</g>
</svg>
