<?xml version="1.0" encoding="utf-8"?>
<!-- Generator: Adobe Illustrator 16.0.0, SVG Export Plug-In . SVG Version: 6.00 Build 0)  -->
<!DOCTYPE svg PUBLIC "-//W3C//DTD SVG 1.1//EN" "http://www.w3.org/Graphics/SVG/1.1/DTD/svg11.dtd">
<svg version="1.1" id="Layer_1" xmlns="http://www.w3.org/2000/svg" xmlns:xlink="http://www.w3.org/1999/xlink" x="0px" y="0px"
	 width="1550px" height="1259px" viewBox="0 0 1550 1259" enable-background="new 0 0 1550 1259" xml:space="preserve">
<g id="Layer_2">
</g>
<g>
	<defs>
		<rect id="SVGID_1_" x="-259.352" y="-368" width="3872.932" height="618.66"/>
	</defs>
	<clipPath id="SVGID_2_">
		<use xlink:href="#SVGID_1_"  overflow="visible"/>
	</clipPath>
	<g clip-path="url(#SVGID_2_)">
		<path fill="#E6DFC4" d="M356.224,131.998"/>
		<g>
			<g>
				<polyline fill="#737362" points="943.492,192.312 790.363,90.634 559.576,251.721 1016.429,253.558 1026.189,251.721 
					943.492,192.312 				"/>
				<polygon fill="#D0D2D3" points="704.454,150.798 763.992,144.067 800.956,167.103 828.89,137.502 877.32,148.383 
					790.363,90.634 				"/>
				<polygon opacity="0.13" fill="#FFFFFF" points="559.576,251.721 660.666,252.044 763.992,144.067 790.363,90.634 				"/>
			</g>
		</g>
	</g>
</g>
<g>
	<defs>
		<rect id="SVGID_3_" x="-259.352" y="-116" width="3872.932" height="618.66"/>
	</defs>
	<clipPath id="SVGID_4_">
		<use xlink:href="#SVGID_3_"  overflow="visible"/>
	</clipPath>
	<g clip-path="url(#SVGID_4_)">
		<path fill="#E6DFC4" d="M356.224,383.998"/>
		<g>
			<g>
				<polygon fill="#737362" points="615.745,463.523 645.183,504.001 213.533,503.121 317.468,392.035 457.746,252.662 				"/>
				<polygon fill="#D0D2D3" points="420.582,316.704 442.582,346.206 472.494,312.535 523.547,339.981 458.039,252.2 
					372.263,337.092 				"/>
				<polygon opacity="0.13" fill="#FFFFFF" points="457.746,252.662 411.872,320.725 339.161,503.721 213.533,503.121 
					317.468,392.035 				"/>
			</g>
		</g>
	</g>
</g>
<g>
	<defs>
		<rect id="SVGID_5_" x="-259.352" y="136" width="3872.932" height="618.66"/>
	</defs>
	<clipPath id="SVGID_6_">
		<use xlink:href="#SVGID_5_"  overflow="visible"/>
	</clipPath>
	<g clip-path="url(#SVGID_6_)">
		<path fill="#E6DFC4" d="M356.224,635.998"/>
		<g>
			<g>
				<polygon fill="#737362" points="892.181,758.5 1074.167,539.964 1150.186,643.396 1212.681,759 				"/>
				<polygon fill="#D0D2D3" points="1014.429,610.353 1057.874,583.019 1071.729,610.353 1099.896,587.803 1114.733,594.634 
					1074.167,539.964 				"/>
				<polygon opacity="0.13" fill="#FFFFFF" points="892.188,754.66 972.188,754.66 1057.874,583.019 1074.167,539.964 				"/>
			</g>
		</g>
	</g>
</g>
<g>
	<defs>
		<rect id="SVGID_7_" x="-259.352" y="388" width="3872.932" height="618.66"/>
	</defs>
	<clipPath id="SVGID_8_">
		<use xlink:href="#SVGID_7_"  overflow="visible"/>
	</clipPath>
	<g clip-path="url(#SVGID_8_)">
		<path fill="#E6DFC4" d="M356.224,887.998"/>
		<g>
			<polygon opacity="0.5" fill="#747463" points="56.351,963.104 113.349,919.965 188.31,936.82 292.266,902.689 343.51,945.251 
				312.894,1010.855 6.151,1008.365 			"/>
			<polygon fill="#D0D2D3" points="84.713,941.639 101.011,941.49 101.96,954.806 126.57,939.828 169.67,932.46 113.349,919.965 			
				"/>
			<polygon opacity="0.13" fill="#FFFFFF" points="113.349,919.965 101.96,954.806 47.384,1008.365 6.151,1008.365 60.837,959.374 
							"/>
			<polygon fill="#D0D2D3" points="261.873,912.663 282.168,915.713 287.354,924.953 300.822,915.918 304.004,912.512 
				292.266,902.689 			"/>
			<polygon opacity="0.13" fill="#FFFFFF" points="292.266,902.689 235.793,940.281 216.916,948.385 188.251,936.82 188.251,936.82 
							"/>
		</g>
		<g opacity="0.5">
			<polygon fill="#747463" points="1150.186,895.396 1167.474,875.572 1207.966,829.135 1284.294,947.66 1367.836,879.857 
				1441.938,936.885 1501.859,862.353 1523.063,920.283 1546.548,1008.277 1210.41,1007.937 			"/>
			<polygon fill="#D0D2D3" points="1189.84,865.314 1200.483,881.854 1214.966,862.977 1239.664,878.372 1207.966,829.135 
				1166.449,876.748 			"/>
			<polygon fill="#D0D2D3" points="1326.257,913.598 1355.072,909.83 1372.96,922.742 1386.484,906.146 1409.931,912.244 
				1367.836,879.857 			"/>
			<polygon fill="#D0D2D3" points="1487.782,879.857 1498.264,873.335 1500.135,880.685 1503.363,877.24 1508.088,879.383 
				1501.859,862.353 			"/>
			<polygon opacity="0.13" fill="#FFFFFF" points="1207.966,829.135 1189.84,865.314 1166.449,925.789 1150.186,895.396 			"/>
			<polygon opacity="0.13" fill="#FFFFFF" points="1284.294,947.66 1299.497,971.732 1355.072,909.83 1367.836,879.857 			"/>
			<polygon opacity="0.13" fill="#FFFFFF" points="1441.938,936.885 1463.884,952.771 1498.264,873.335 1501.859,862.353 			"/>
		</g>
	</g>
</g>
<g>
	<defs>
		<rect id="SVGID_9_" x="-259.352" y="639" width="3872.932" height="618.66"/>
	</defs>
	<clipPath id="SVGID_10_">
		<use xlink:href="#SVGID_9_"  overflow="visible"/>
	</clipPath>
	<g clip-path="url(#SVGID_10_)">
		<path fill="#E6DFC4" d="M356.224,1138.998"/>
		<g>
			<polygon opacity="0.23" fill="#415132" points="203.89,1259.826 212.602,1250.51 198.627,1255.846 194.465,1249.514 
				191.167,1255.846 186.556,1253.203 183.471,1255.391 180.422,1249.514 178.342,1254.014 175.651,1251.271 172.547,1256.775 
				167.959,1243.522 161.234,1256.313 152.56,1251.605 150.113,1255.391 147.422,1247.18 142.782,1257.457 140.59,1252.027 
				133.864,1255.846 131.664,1247.18 126.161,1255.391 123.521,1252.027 119.689,1255.846 114.066,1243.522 103.349,1259.66 			"/>
		</g>
		<polygon opacity="0.23" fill="#475935" points="749.339,1257.592 774.492,1220.689 787.875,1250.02 796.994,1240.951 
			803.297,1248.952 816.388,1229.404 821.63,1250.02 837.638,1240.951 842.863,1253.874 853.917,1229.404 860.318,1248.952 
			866.138,1239.934 886.799,1251.145 902.8,1220.689 913.738,1252.244 921.122,1239.145 927.525,1245.659 932.479,1234.961 
			939.744,1248.952 947.109,1243.738 958.078,1250.02 965.93,1234.961 975.833,1250.02 991.287,1236.06 998.282,1257.66 
			988.036,1257.66 772.155,1257.635 		"/>
		<polygon opacity="0.23" fill="#455735" points="346.088,1258.981 371.606,1221.291 384.99,1250.619 394.111,1241.553 
			400.411,1249.553 413.507,1230.006 418.734,1250.619 434.754,1241.553 439.978,1254.475 451.034,1230.006 457.437,1249.553 
			463.254,1240.534 483.912,1251.745 499.907,1221.291 510.86,1252.845 518.238,1239.744 524.64,1246.261 529.58,1235.561 
			536.855,1249.553 544.218,1244.34 555.188,1250.619 563.044,1235.561 572.95,1250.619 588.404,1236.66 594.974,1258.975 
			585.084,1259.044 369.291,1258.981 		"/>
		<polygon opacity="0.23" fill="#38442B" points="1046.546,1259.277 1057.263,1242.834 1062.884,1255.158 1066.712,1251.347 
			1069.366,1254.709 1074.86,1246.5 1077.057,1255.158 1083.783,1251.347 1085.979,1256.777 1090.624,1246.5 1093.307,1254.709 
			1095.755,1250.918 1104.433,1255.632 1111.151,1242.834 1115.751,1256.094 1118.845,1250.588 1121.543,1253.326 
			1123.607,1248.832 1126.663,1254.709 1129.762,1252.516 1134.37,1255.158 1137.669,1248.832 1141.822,1255.158 1148.318,1249.287 
			1151.258,1259.277 1146.949,1259.277 1056.978,1259.277 		"/>
	</g>
</g>
<g>
</g>
<g>
</g>
<g>
</g>
<g>
</g>
<g>
</g>
<g>
</g>
<g>
</g>
<g>
</g>
<g>
</g>
<g>
</g>
<g>
</g>
<g>
</g>
<g>
</g>
<g>
</g>
<g>
</g>
</svg>
