<?xml version="1.0" encoding="utf-8"?>
<!-- Generator: Adobe Illustrator 16.0.0, SVG Export Plug-In . SVG Version: 6.00 Build 0)  -->
<!DOCTYPE svg PUBLIC "-//W3C//DTD SVG 1.1//EN" "http://www.w3.org/Graphics/SVG/1.1/DTD/svg11.dtd">
<svg version="1.1" id="Layer_1" xmlns="http://www.w3.org/2000/svg" xmlns:xlink="http://www.w3.org/1999/xlink" x="0px" y="0px"
	 width="190px" height="190px" viewBox="0 0 190 190" enable-background="new 0 0 190 190" xml:space="preserve">
<g opacity="0.5">
	<g>
		<g>
			<g>
				<polygon fill="#75728C" points="76.209,111.024 97.609,123.383 119.017,111.024 97.609,98.67 				"/>
				<polygon fill="#75728C" points="97.609,123.383 97.609,148.096 76.209,135.737 76.209,111.028 				"/>
				<polygon fill="#75728C" points="119.017,111.028 119.017,135.737 97.609,148.096 97.609,123.383 				"/>
			</g>
			<g>
				<rect x="83.342" y="27.658" fill="#FFFFFF" width="28.542" height="28.539"/>
				<rect x="143.541" y="58.334" fill="#FFFFFF" width="28.536" height="28.535"/>
				<rect x="23.15" y="58.334" fill="#FFFFFF" width="28.535" height="28.535"/>
			</g>
		</g>
		<g>
			<g>
				<path fill="#242E39" d="M97.609,124.356c-0.167,0-0.336-0.044-0.486-0.131l-21.4-12.359c-0.302-0.174-0.486-0.495-0.486-0.842
					s0.186-0.669,0.486-0.843l21.4-12.354c0.3-0.173,0.671-0.173,0.973,0l21.408,12.354c0.301,0.174,0.486,0.496,0.486,0.843
					s-0.185,0.669-0.486,0.843l-21.408,12.358C97.946,124.312,97.777,124.356,97.609,124.356z M78.156,111.024l19.453,11.234
					l19.461-11.234l-19.461-11.23L78.156,111.024z"/>
				<path fill="#242E39" d="M97.609,149.069c-0.167,0-0.336-0.043-0.486-0.131l-21.4-12.358c-0.302-0.173-0.486-0.495-0.486-0.843
					v-24.709c0-0.348,0.185-0.669,0.486-0.843c0.3-0.173,0.673-0.173,0.973,0l21.4,12.354c0.301,0.174,0.486,0.496,0.486,0.843
					v24.713c0,0.348-0.186,0.669-0.486,0.843C97.946,149.025,97.777,149.069,97.609,149.069z M77.182,135.176l19.455,11.234v-22.465
					l-19.455-11.231V135.176z"/>
				<path fill="#242E39" d="M97.609,149.069c-0.167,0-0.336-0.043-0.486-0.13c-0.302-0.174-0.486-0.495-0.486-0.843v-24.713
					c0-0.348,0.186-0.669,0.486-0.843l21.408-12.354c0.302-0.173,0.673-0.174,0.973,0c0.302,0.173,0.486,0.495,0.486,0.843v24.709
					c0,0.348-0.186,0.669-0.486,0.843l-21.408,12.358C97.946,149.025,97.777,149.069,97.609,149.069z M98.582,123.945v22.465
					l19.462-11.234v-22.462L98.582,123.945z"/>
			</g>
			<g>
				<path fill="#242E39" d="M37.41,99.388c-0.538,0-0.973-0.436-0.973-0.974V86.871c0-0.537,0.435-0.973,0.973-0.973
					c0.538,0,0.973,0.436,0.973,0.973v11.543C38.383,98.952,37.948,99.388,37.41,99.388z"/>
				<path fill="#242E39" d="M55.839,101.539H39.571c-0.538,0-0.973-0.436-0.973-0.974c0-0.537,0.435-0.973,0.973-0.973h16.269
					c0.538,0,0.973,0.436,0.973,0.973C56.812,101.103,56.377,101.539,55.839,101.539z"/>
				<path fill="#242E39" d="M76.213,112.001c-0.165,0-0.332-0.042-0.485-0.13l-16.065-9.266c-0.465-0.269-0.625-0.864-0.356-1.33
					c0.267-0.465,0.862-0.625,1.33-0.357l16.065,9.266c0.465,0.269,0.625,0.864,0.357,1.33
					C76.877,111.827,76.55,112.001,76.213,112.001z"/>
				<path fill="#242E39" d="M39.569,103.695h-4.311c-0.538,0-0.973-0.437-0.973-0.974V98.41c0-0.537,0.435-0.974,0.973-0.974h4.311
					c0.538,0,0.973,0.437,0.973,0.974v4.312C40.542,103.259,40.106,103.695,39.569,103.695z M36.23,101.748h2.365v-2.364H36.23
					V101.748z"/>
				<path fill="#242E39" d="M60.149,103.695h-4.31c-0.538,0-0.973-0.437-0.973-0.974V98.41c0-0.537,0.435-0.974,0.973-0.974h4.31
					c0.538,0,0.973,0.437,0.973,0.974v4.312C61.122,103.259,60.687,103.695,60.149,103.695z M56.812,101.748h2.364v-2.364h-2.364
					V101.748z"/>
				<path fill="#242E39" d="M51.685,87.842H23.15c-0.538,0-0.973-0.436-0.973-0.973V58.333c0-0.537,0.435-0.973,0.973-0.973h28.535
					c0.538,0,0.973,0.436,0.973,0.973v28.535C52.658,87.406,52.223,87.842,51.685,87.842z M24.123,85.895h26.589V59.307H24.123
					V85.895z"/>
			</g>
			<g>
				<path fill="#242E39" d="M157.824,99.388c-0.538,0-0.973-0.436-0.973-0.974V86.871c0-0.537,0.435-0.973,0.973-0.973
					c0.538,0,0.973,0.436,0.973,0.973v11.543C158.796,98.952,158.361,99.388,157.824,99.388z"/>
				<path fill="#242E39" d="M155.662,101.539h-16.269c-0.538,0-0.973-0.436-0.973-0.974c0-0.537,0.435-0.973,0.973-0.973h16.269
					c0.538,0,0.973,0.436,0.973,0.973C156.635,101.103,156.2,101.539,155.662,101.539z"/>
				<path fill="#242E39" d="M119.019,112.001c-0.337,0-0.665-0.174-0.844-0.487c-0.269-0.466-0.109-1.061,0.356-1.33l16.064-9.266
					c0.466-0.268,1.062-0.108,1.33,0.357c0.269,0.466,0.108,1.061-0.356,1.33l-16.064,9.266
					C119.351,111.96,119.183,112.001,119.019,112.001z"/>
				<path fill="#242E39" d="M159.974,103.695h-4.311c-0.538,0-0.973-0.437-0.973-0.974V98.41c0-0.537,0.435-0.974,0.973-0.974h4.311
					c0.538,0,0.973,0.437,0.973,0.974v4.312C160.947,103.259,160.512,103.695,159.974,103.695z M156.636,101.748h2.365v-2.364
					h-2.365V101.748z"/>
				<path fill="#242E39" d="M139.392,103.695h-4.311c-0.538,0-0.973-0.437-0.973-0.974V98.41c0-0.537,0.435-0.974,0.973-0.974h4.311
					c0.538,0,0.973,0.437,0.973,0.974v4.312C140.365,103.259,139.93,103.695,139.392,103.695z M136.054,101.748h2.365v-2.364h-2.365
					V101.748z"/>
				<path fill="#242E39" d="M172.082,87.842h-28.535c-0.538,0-0.973-0.436-0.973-0.973V58.333c0-0.537,0.435-0.973,0.973-0.973
					h28.535c0.538,0,0.973,0.436,0.973,0.973v28.535C173.054,87.406,172.619,87.842,172.082,87.842z M144.52,85.895h26.589V59.307
					H144.52V85.895z"/>
			</g>
			<g>
				<path fill="#242E39" d="M97.614,99.644c-0.538,0-0.973-0.436-0.973-0.973V56.197c0-0.538,0.435-0.974,0.973-0.974
					c0.538,0,0.973,0.436,0.973,0.974V98.67C98.586,99.208,98.151,99.644,97.614,99.644z"/>
				<path fill="#242E39" d="M111.884,57.173H83.343c-0.538,0-0.973-0.436-0.973-0.973V27.658c0-0.537,0.435-0.973,0.973-0.973
					h28.541c0.538,0,0.973,0.436,0.973,0.973V56.2C112.857,56.737,112.422,57.173,111.884,57.173z M84.316,55.227h26.595V28.632
					H84.316V55.227z"/>
			</g>
		</g>
	</g>
	<g>
		<g>
			<rect x="29.972" y="28.456" fill="#F47B56" width="10.573" height="10.575"/>
			<rect x="115.174" y="79.941" fill="#98D8E6" width="8.068" height="8.066"/>
			<rect x="145.654" y="25.29" fill="#FFFFFF" width="12.169" height="12.167"/>
			<rect x="21.074" y="132.448" fill="#FFFFFF" width="4.155" height="4.156"/>
			<rect x="56.756" y="114.061" fill="#98D8E6" width="6.448" height="6.447"/>
			<rect x="4.595" y="100.299" fill="#98D8E6" width="10.116" height="10.115"/>
			<rect x="176.661" y="137.294" fill="#98D8E6" width="6.153" height="6.152"/>
			<rect x="163.462" y="114.724" fill="#FFFFFF" width="11.571" height="11.569"/>
			<rect x="76.214" y="161.738" fill="#F47B56" width="8.915" height="8.913"/>
			<rect x="130.128" y="145.466" fill="#FFFFFF" width="4.565" height="4.564"/>
			<rect x="66.002" y="66.454" fill="#FFFFFF" width="4.564" height="4.564"/>
		</g>
		<g>
			<path fill="#242E39" d="M40.545,40.003H29.972c-0.538,0-0.973-0.436-0.973-0.973V28.456c0-0.537,0.435-0.973,0.973-0.973h10.573
				c0.538,0,0.973,0.436,0.973,0.973V39.03C41.518,39.567,41.083,40.003,40.545,40.003z M30.944,38.057h8.627v-8.627h-8.627V38.057z
				"/>
			<path fill="#242E39" d="M123.242,88.981h-8.068c-0.538,0-0.973-0.436-0.973-0.974v-8.066c0-0.538,0.435-0.974,0.973-0.974h8.068
				c0.538,0,0.973,0.436,0.973,0.974v8.066C124.215,88.545,123.78,88.981,123.242,88.981z M116.146,87.034h6.123v-6.12h-6.123
				V87.034z"/>
			<path fill="#242E39" d="M157.824,38.431h-12.169c-0.538,0-0.973-0.436-0.973-0.974V25.29c0-0.538,0.435-0.974,0.973-0.974h12.169
				c0.538,0,0.973,0.436,0.973,0.974v12.167C158.796,37.995,158.361,38.431,157.824,38.431z M146.627,36.484h10.223V26.263h-10.223
				V36.484z"/>
			<path fill="#242E39" d="M25.229,137.578h-4.155c-0.538,0-0.973-0.436-0.973-0.974v-4.156c0-0.538,0.435-0.974,0.973-0.974h4.155
				c0.538,0,0.973,0.436,0.973,0.974v4.156C26.202,137.142,25.767,137.578,25.229,137.578z M22.046,135.631h2.21v-2.209h-2.21
				V135.631z"/>
			<path fill="#242E39" d="M63.205,121.482h-6.448c-0.538,0-0.973-0.436-0.973-0.974v-6.447c0-0.538,0.435-0.974,0.973-0.974h6.448
				c0.538,0,0.973,0.436,0.973,0.974v6.447C64.177,121.046,63.742,121.482,63.205,121.482z M57.729,119.535h4.502v-4.501h-4.502
				V119.535z"/>
			<path fill="#242E39" d="M14.71,111.388H4.595c-0.538,0-0.973-0.436-0.973-0.974v-10.115c0-0.537,0.435-0.973,0.973-0.973H14.71
				c0.538,0,0.973,0.436,0.973,0.973v10.115C15.684,110.952,15.249,111.388,14.71,111.388z M5.567,109.441h8.17v-8.168h-8.17
				V109.441z"/>
			<path fill="#242E39" d="M182.813,144.42h-6.153c-0.538,0-0.973-0.437-0.973-0.974v-6.152c0-0.537,0.435-0.973,0.973-0.973h6.153
				c0.538,0,0.973,0.436,0.973,0.973v6.152C183.786,143.983,183.352,144.42,182.813,144.42z M177.634,142.473h4.207v-4.205h-4.207
				V142.473z"/>
			<path fill="#242E39" d="M175.033,127.267h-11.571c-0.538,0-0.973-0.436-0.973-0.974v-11.569c0-0.538,0.435-0.974,0.973-0.974
				h11.571c0.538,0,0.973,0.436,0.973,0.974v11.569C176.005,126.831,175.57,127.267,175.033,127.267z M164.435,125.32h9.625v-9.623
				h-9.625V125.32z"/>
			<path fill="#242E39" d="M85.129,171.625h-8.915c-0.538,0-0.973-0.437-0.973-0.974v-8.913c0-0.538,0.435-0.974,0.973-0.974h8.915
				c0.538,0,0.973,0.436,0.973,0.974v8.913C86.102,171.188,85.667,171.625,85.129,171.625z M77.188,169.678h6.969v-6.967h-6.969
				V169.678z"/>
			<path fill="#242E39" d="M134.693,151.005h-4.565c-0.538,0-0.973-0.437-0.973-0.974v-4.564c0-0.537,0.435-0.973,0.973-0.973h4.565
				c0.538,0,0.973,0.436,0.973,0.973v4.564C135.666,150.568,135.231,151.005,134.693,151.005z M131.102,149.058h2.619v-2.618h-2.619
				V149.058z"/>
		</g>
		<path fill="#242E39" d="M70.567,71.992h-4.564c-0.538,0-0.973-0.436-0.973-0.974v-4.564c0-0.538,0.435-0.974,0.973-0.974h4.564
			c0.538,0,0.973,0.436,0.973,0.974v4.564C71.54,71.556,71.105,71.992,70.567,71.992z M66.975,70.045h2.619v-2.618h-2.619V70.045z"
			/>
	</g>
</g>
</svg>
