<?xml version="1.0" encoding="utf-8"?>
<!-- Generator: Adobe Illustrator 16.0.0, SVG Export Plug-In . SVG Version: 6.00 Build 0)  -->
<!DOCTYPE svg PUBLIC "-//W3C//DTD SVG 1.1//EN" "http://www.w3.org/Graphics/SVG/1.1/DTD/svg11.dtd">
<svg version="1.1" xmlns="http://www.w3.org/2000/svg" xmlns:xlink="http://www.w3.org/1999/xlink" x="0px" y="0px" width="634px"
	 height="451.04px" viewBox="0 0 634 451.04" enable-background="new 0 0 634 451.04" xml:space="preserve">
<g id="Layer_1" display="none">
	<g id="Layer_1_1_" display="inline">
		<rect x="-382" y="-141" fill="#F2F2F2" width="1024" height="768"/>
		<g id="Layer_2">
		</g>
		<g display="none">
			<path display="inline" fill="#E5E5E5" d="M709.061,400.252V30.083c0-13.288-10.813-24.102-24.104-24.102H128.122
				c-13.296,0-24.107,10.814-24.107,24.102v370.169H4.002v24.357l0.542,0.502c0.154,0.145,3.928,3.572,12.562,6.971
				c7.838,3.086,21.437,6.76,41.716,6.76h699.483c20.275,0,33.873-3.674,41.711-6.76c8.636-3.398,12.408-6.826,12.563-6.971
				l0.541-0.502v-24.357H709.061z"/>
			<circle fill="#333333" cx="407.438" cy="26.062" r="3.75"/>
			<path display="inline" fill="#A0A0A0" d="M418.562,28.541c1.442,0,2.62-1.175,2.62-2.618c0-1.445-1.178-2.623-2.62-2.623
				c-1.449,0-2.626,1.178-2.626,2.623C415.938,27.365,417.113,28.541,418.562,28.541z M418.562,24.426
				c0.821,0,1.494,0.672,1.494,1.497c0,0.824-0.673,1.492-1.494,1.492c-0.825,0-1.498-0.668-1.498-1.492
				C417.064,25.098,417.737,24.426,418.562,24.426z M710.88,399.928V28.685c0-13.33-10.844-24.174-24.174-24.174H128.253
				c-13.327,0-24.174,10.844-24.174,24.174v371.243H3.773v24.432l0.547,0.504c0.154,0.145,3.938,3.584,12.598,6.99
				c7.859,3.092,21.498,6.775,41.835,6.775H760.27c20.337,0,33.978-3.684,41.834-6.775c8.66-3.406,12.446-6.848,12.6-6.99
				l0.548-0.504v-24.432H710.88z M107.46,28.685c0-11.464,9.325-20.796,20.793-20.796h558.453c11.47,0,20.794,9.332,20.794,20.796
				v371.243h-2.146V28.685c0-10.28-8.365-18.647-18.646-18.647H128.253c-10.28,0-18.647,8.367-18.647,18.647v371.243h-2.146V28.685z
				 M110.733,399.928V28.685c0-9.662,7.858-17.52,17.52-17.52h558.453c9.661,0,17.521,7.858,17.521,17.52v371.243H110.733z
				 M467.858,403.309v1.638c0,4.281-3.484,7.765-7.764,7.765h-107c-4.28,0-7.76-3.482-7.76-7.765v-1.638H467.858z M800.622,428.803
				c-7.562,2.939-20.7,6.447-40.354,6.447H58.754c-19.656,0-32.793-3.508-40.356-6.447c-4.689-1.82-7.862-3.654-9.729-4.895H810.35
				C808.488,425.147,805.312,426.981,800.622,428.803z M811.871,422.782H7.152v-19.474h337.059v1.638c0,4.9,3.985,8.891,8.885,8.891
				h107c4.902,0,8.89-3.989,8.89-8.891v-1.638h342.887L811.871,422.782L811.871,422.782z M407.479,30.6
				c2.581,0,4.681-2.1,4.681-4.678c0-2.579-2.1-4.678-4.681-4.678c-2.574,0-4.678,2.099-4.678,4.678
				C402.801,28.5,404.903,30.6,407.479,30.6z M407.479,22.369c1.962,0,3.554,1.594,3.554,3.553c0,1.958-1.592,3.551-3.554,3.551
				c-1.956,0-3.553-1.593-3.553-3.551C403.926,23.963,405.521,22.369,407.479,22.369z M137.368,378.514h539.679V38.29H137.368
				V378.514z M138.493,39.416h537.426v337.973H138.493V39.416z"/>
		</g>
		<g>
			<path fill="#FAFAFA" d="M712.195,399.787V27.444c0-13.367-10.875-24.245-24.248-24.245h-560.1
				c-13.371,0-24.248,10.878-24.248,24.245v372.343H3v24.501l0.545,0.502c0.156,0.145,3.952,3.597,12.638,7.014
				c7.881,3.103,21.56,6.799,41.958,6.799H761.73c20.395,0,34.072-3.696,41.955-6.799c8.688-3.417,12.482-6.869,12.637-7.014
				l0.545-0.502v-24.501H712.195z"/>
			<path fill="#34495E" d="M678.26,37.077H136.988v341.229H678.26V37.077L678.26,37.077z"/>
			<path fill="#C8C8C8" d="M407.898,19.976c-2.59,0-4.695,2.107-4.695,4.696c0,2.588,2.105,4.692,4.695,4.692
				c2.586,0,4.691-2.104,4.691-4.692C412.59,22.083,410.484,19.976,407.898,19.976z M407.898,28.235
				c-1.965,0-3.564-1.598-3.564-3.562c0-1.967,1.6-3.567,3.564-3.567s3.562,1.6,3.562,3.567
				C411.461,26.637,409.863,28.235,407.898,28.235z M419.01,22.042c-1.449,0-2.627,1.18-2.627,2.63c0,1.449,1.178,2.628,2.627,2.628
				c1.451,0,2.631-1.179,2.631-2.628C421.641,23.222,420.461,22.042,419.01,22.042z M419.01,26.173c-0.826,0-1.5-0.673-1.5-1.5
				c0-0.829,0.674-1.501,1.5-1.501c0.83,0,1.502,0.672,1.502,1.501C420.512,25.5,419.84,26.173,419.01,26.173z M712.195,399.787
				V27.444c0-13.367-10.875-24.245-24.248-24.245h-560.1c-13.371,0-24.248,10.878-24.248,24.245v372.343H3v24.501l0.545,0.502
				c0.156,0.145,3.952,3.597,12.638,7.014c7.881,3.103,21.56,6.799,41.958,6.799H761.73c20.395,0,34.072-3.696,41.955-6.799
				c8.688-3.417,12.482-6.869,12.637-7.014l0.545-0.502v-24.501H712.195z M106.988,27.444c0-11.5,9.356-20.857,20.859-20.857h560.1
				c11.504,0,20.861,9.356,20.861,20.857v372.343h-2.154V27.444c0-10.311-8.393-18.702-18.707-18.702h-560.1
				c-10.314,0-18.706,8.391-18.706,18.702v372.343h-2.154V27.444z M110.271,399.787V27.444c0-9.689,7.884-17.572,17.576-17.572
				h560.1c9.693,0,17.578,7.883,17.578,17.572v372.343H110.271z M468.455,403.174v1.644c0,4.294-3.492,7.786-7.787,7.786H353.355
				c-4.293,0-7.785-3.492-7.785-7.786v-1.644H468.455z M802.205,428.746c-7.586,2.95-20.766,6.469-40.475,6.469H58.142
				c-19.713,0-32.893-3.519-40.476-6.469c-4.707-1.831-7.884-3.671-9.753-4.915h804.044
				C810.09,425.075,806.912,426.915,802.205,428.746z M813.48,422.702H6.387v-19.527h338.052v1.644c0,4.918,4.002,8.916,8.916,8.916
				h107.312c4.916,0,8.916-3.998,8.916-8.916v-1.644H813.48V422.702z"/>
		</g>
	</g>
	<g id="Layer_2_1_" display="inline">
	</g>
	<g id="Layer_3">
		
			<linearGradient id="SVGID_1_" gradientUnits="userSpaceOnUse" x1="812.5" y1="-97.4214" x2="831.5" y2="-97.4214" gradientTransform="matrix(1 0 0 -1 -197.5 125.0791)">
			<stop  offset="0" style="stop-color:#FFFFFF;stop-opacity:0"/>
			<stop  offset="0.8817" style="stop-color:#F2F2F2"/>
		</linearGradient>
		<rect x="615" display="inline" fill="url(#SVGID_1_)" width="19" height="445"/>
	</g>
	<g id="Layer_4">
		<g display="inline">
			<g>
				<g opacity="0.3">
					<path d="M525,95H200v-6.224c0-1.11,2.414-1.776,3.538-1.776h318.224c1.125,0,3.238,0.666,3.238,1.776V95L525,95z"/>
					<path d="M525,308.84c0,1.348-2.214,2.16-3.459,2.16H203.76c-1.245,0-3.76-0.812-3.76-2.16V105h325V308.84z"/>
					<rect x="200" y="95" width="325" height="10"/>
				</g>
				<path fill="#CCCCCC" d="M521,92H197v-6.708c0-1.111,1.929-1.292,3.053-1.292h318.224C519.4,84,521,84.181,521,85.292V92z"/>
				<circle opacity="0.71" fill="#E74C3C" enable-background="new    " cx="205.609" cy="88.309" r="1.896"/>
				<circle opacity="0.71" fill="#F1C40F" enable-background="new    " cx="211.811" cy="88.309" r="1.894"/>
				<circle opacity="0.71" fill="#2ECC71" enable-background="new    " cx="218.012" cy="88.309" r="1.895"/>
				<rect x="197" y="92" fill="#E6E6E6" width="324" height="9"/>
				<path fill="#E6E6E6" d="M267.537,86.371C267.379,85.892,266.996,85,266.33,85h-36.615c-0.666,0-1.047,0.909-1.207,1.371
					l-1.609,5.007C226.762,91.78,226.095,92,226.095,92h43.856c0,0-0.666-0.183-0.804-0.622L267.537,86.371z"/>
				<g>
					<path fill="#F2F2F2" d="M521,305.354c0,1.348-1.699,2.646-2.944,2.646H200.274c-1.245,0-3.274-1.299-3.274-2.646V101h324
						V305.354z"/>
				</g>
			</g>
			<rect x="197" y="101" fill="#919191" width="324" height="16"/>
			<rect x="215" y="135" fill="#919191" width="55" height="10"/>
			<rect x="215" y="151" opacity="0.2" fill="#919191" enable-background="new    " width="55" height="11"/>
			<rect x="215" y="168" opacity="0.2" fill="#919191" enable-background="new    " width="55" height="11"/>
			<rect x="215" y="185" opacity="0.2" fill="#919191" enable-background="new    " width="55" height="10"/>
			
				<rect x="361.5" y="135.5" opacity="0.4" fill="#CCCCCC" stroke="#808080" stroke-miterlimit="10" enable-background="new    " width="59" height="54"/>
			
				<rect x="437.5" y="135.5" opacity="0.4" fill="none" stroke="#808080" stroke-miterlimit="10" enable-background="new    " width="61" height="54"/>
			
				<rect x="285.5" y="200.5" opacity="0.4" fill="none" stroke="#808080" stroke-miterlimit="10" enable-background="new    " width="60" height="55"/>
			
				<rect x="361.5" y="200.5" opacity="0.4" fill="none" stroke="#808080" stroke-miterlimit="10" enable-background="new    " width="59" height="55"/>
			
				<rect x="437.5" y="200.5" opacity="0.4" fill="none" stroke="#808080" stroke-miterlimit="10" enable-background="new    " width="61" height="55"/>
			
				<rect x="285.5" y="135.5" opacity="0.4" fill="none" stroke="#808080" stroke-miterlimit="10" enable-background="new    " width="60" height="54"/>
			<path fill="#8FCCAA" d="M430,284.661c0,1.926-0.962,3.34-2.246,3.34h-73.633c-1.285,0-3.121-1.414-3.121-3.34v-13.94
				c0-1.925,1.836-3.72,3.121-3.72h73.633c1.284,0,2.246,1.795,2.246,3.72V284.661z"/>
			<g>
				<path fill="#FFFFFF" d="M377.943,281.471c-1.024,0-2.111-0.334-2.582-0.889c-0.083-0.104-0.125-0.22-0.125-0.346
					c0-0.322,0.281-0.596,0.596-0.596c0.115,0,0.24,0.031,0.334,0.104c0.481,0.366,1.098,0.629,1.829,0.629
					c0.983,0,1.38-0.492,1.38-0.941c0-1.441-4.056-0.543-4.056-3.114c0-1.159,1.004-2.049,2.54-2.049
					c0.837,0,1.882,0.262,2.342,0.763c0.083,0.096,0.125,0.221,0.125,0.336c0,0.323-0.303,0.573-0.606,0.573
					c-0.113,0-0.229-0.03-0.334-0.104c-0.49-0.322-1.065-0.469-1.631-0.469c-0.711,0-1.16,0.344-1.16,0.855
					c0,1.285,4.045,0.48,4.045,3.084C380.64,280.479,379.824,281.471,377.943,281.471z"/>
				<path fill="#FFFFFF" d="M386.087,281.346h-3.562c-0.419,0-0.753-0.346-0.753-0.754v-5.465c0-0.408,0.334-0.754,0.753-0.754
					h3.562c0.293,0,0.533,0.24,0.533,0.555c0,0.304-0.24,0.544-0.533,0.544h-3.072v1.776h2.999c0.293,0,0.533,0.24,0.533,0.555
					c0,0.303-0.24,0.543-0.533,0.543h-2.999v1.902h3.072c0.293,0,0.533,0.239,0.533,0.533
					C386.62,281.105,386.38,281.346,386.087,281.346z"/>
				<path fill="#FFFFFF" d="M392.34,275.472h-1.62v5.319c0,0.334-0.282,0.617-0.638,0.617c-0.345,0-0.616-0.283-0.616-0.617v-5.319
					h-1.62c-0.303,0-0.544-0.24-0.544-0.563c0-0.293,0.241-0.533,0.544-0.533h4.494c0.293,0,0.544,0.24,0.544,0.554
					C392.884,275.231,392.633,275.472,392.34,275.472z"/>
				<path fill="#FFFFFF" d="M396.868,281.471c-2.027,0-3.021-1.16-3.021-2.874v-3.669c0-0.334,0.271-0.616,0.639-0.616
					c0.345,0,0.615,0.282,0.615,0.616v3.627c0,1.087,0.617,1.809,1.768,1.809c1.16,0,1.767-0.722,1.767-1.809v-3.627
					c0-0.334,0.282-0.616,0.648-0.616c0.345,0,0.616,0.282,0.616,0.616v3.658C399.899,280.321,398.906,281.471,396.868,281.471z"/>
				<path fill="#FFFFFF" d="M404.459,278.754h-1.839v2.037c0,0.334-0.282,0.617-0.638,0.617c-0.335,0-0.606-0.283-0.606-0.617
					v-5.664c0-0.408,0.334-0.754,0.753-0.754h2.33c1.464,0,2.279,1.004,2.279,2.195C406.738,277.75,405.912,278.754,404.459,278.754
					z M404.292,275.472h-1.672v2.185h1.672c0.68,0,1.171-0.439,1.171-1.087C405.463,275.9,404.972,275.472,404.292,275.472z"/>
			</g>
			<rect x="220" y="138" fill="#F2F2F2" width="27" height="4"/>
			<rect x="390" y="107" fill="#F2F2F2" width="26" height="3"/>
			<rect x="425" y="107" fill="#F2F2F2" width="26" height="3"/>
			<rect x="459" y="107" fill="#F2F2F2" width="27" height="3"/>
			<g>
				<path fill="#8FCCAA" d="M391.503,150.523c-6.731,0-12.211,5.478-12.211,12.211s5.479,12.212,12.211,12.212
					c6.733,0,12.212-5.479,12.212-12.212S398.236,150.523,391.503,150.523L391.503,150.523z M391.503,172.976
					c-5.646,0-10.244-4.594-10.244-10.242c0-5.649,4.598-10.243,10.244-10.243c5.647,0,10.243,4.596,10.243,10.243
					C401.746,168.382,397.15,172.976,391.503,172.976L391.503,172.976z"/>
				<path fill="#8FCCAA" d="M395.395,158.84l-5.698,5.701l-2.086-2.087c-0.385-0.384-1.008-0.384-1.391,0
					c-0.385,0.385-0.385,1.007,0,1.391l2.78,2.783c0.194,0.19,0.443,0.287,0.695,0.287c0.251,0,0.504-0.097,0.696-0.287l6.395-6.396
					c0.386-0.385,0.386-1.006,0-1.392C396.403,158.457,395.78,158.457,395.395,158.84L395.395,158.84z"/>
			</g>
		</g>
	</g>
	<g id="Layer_5">
		<g display="inline">
			<polygon fill="#FFFFFF" points="64.879,326.065 66.742,325.063 68.357,324.224 65.789,319.407 70.121,319.407 58.742,308 
				58.742,324.015 62.059,320.793 			"/>
			<rect x="63.176" y="316.592" transform="matrix(-0.8823 0.4707 -0.4707 -0.8823 271.6988 573.2433)" width="2" height="8"/>
			<polygon points="59.742,310.407 59.742,321.595 63,318.45 67.768,318.45 			"/>
		</g>
	</g>
</g>
<g id="Layer_3_1_">
	<ellipse opacity="0.3" cx="414.62" cy="433.04" rx="404.453" ry="5.729"/>
	<path fill="#DBDBDB" d="M713.5,405.333c0,14.75-11.92,26.707-26.623,26.707H132.031c-14.704,0-26.531-11.957-26.531-26.707V30.747
		c0-14.75,11.827-26.707,26.531-26.707h554.846c14.703,0,26.623,11.957,26.623,26.707V405.333z"/>
	<path fill="#262626" d="M708.5,397.673c0,11.8-9.565,21.366-21.365,21.366h-556.27c-11.8,0-21.365-9.566-21.365-21.366V29.406
		c0-11.8,9.565-21.366,21.365-21.366h556.27c11.8,0,21.365,9.566,21.365,21.366V397.673z"/>
	<rect x="4.5" y="399.04" fill="#E2E2E2" width="814" height="20"/>
	<path fill="#C1C1C1" d="M345.5,399.04v2.562c0,5.252,4.856,9.438,10.167,9.438h105.795c5.313,0,9.038-4.187,9.038-9.438v-2.562
		H345.5z"/>
	<path fill="#D1D1D1" d="M5.034,419.04c0,0,13.754,14.096,57.554,14.096s704.939,0.046,704.939,0.046s30.98,0.858,51.545-14.142
		H5.034z"/>
	<rect x="137" y="38" fill="#706E7E" width="538" height="340"/>
	<g opacity="0.9">
		<path fill="#FFFFFF" d="M420.938,178.546c3.938,0,6.863-3.151,6.863-6.865c0-3.938-2.925-6.863-6.863-6.863
			c-3.714,0-6.752,2.925-6.752,6.863C414.188,175.396,417.225,178.546,420.938,178.546z"/>
		<path fill="#FFFFFF" d="M520.869,178.546c3.938,0,6.864-3.151,6.864-6.865c0-3.938-2.926-6.863-6.864-6.863
			c-3.713,0-6.752,2.925-6.752,6.863C514.117,175.396,517.156,178.546,520.869,178.546z"/>
		<path fill="#FFFFFF" d="M595.027,220.674c-0.312-0.969-0.935-0.524-2.134,0.325c-1.962,1.066-3.896,1.572-5.628,1.77
			c1.432-3.045,3.182-7.281,3.182-10.05c0-9.848-15.333-11.644-19.852-2.689c-6.394,12.675,7.629,16.442,7.629,16.442
			c0.106,0.028,0.219,0.05,0.325,0.071c-3.047,4.015-12.099,8.011-14.753,8.433l0.367-40.938c0.18-0.41,0.254-1.011,0.254-1.875
			c0-2.925-2.138-4.727-5.177-4.727c-13.729,0-26.782,11.479-26.782,30.271c0,1.18,0.07,2.326,0.211,3.429
			c-1.229,3.785-3.159,7.264-6.288,7.264c-2.926,0-2.926-4.166-2.926-5.178v-28.583c0-2.701-2.363-4.952-6.075-4.952
			c-1.576,0-2.927,0.789-2.927,1.914c0,0.788,0.45,1.463,0.45,3.601v21.041c-0.001,0.002-0.001,0.002-0.003,0.005
			c-2.588,5.287-4.274,8.213-11.702,8.549c1.688-4.049,2.926-10.126,2.926-16.427c0-11.142-4.276-19.807-13.054-19.807
			c-4.728,0-7.878,2.588-10.241,5.964c-0.112-2.588-2.475-4.839-6.075-4.839c-1.576,0-3.603,0.45-3.603,1.238
			c0,0.788,1.126,1.013,1.126,4.276v19.529c-0.185,0.424-0.34,0.928-0.449,1.516c-1.014,4.951-3.04,12.153-7.541,12.153
			c-2.699,0-3.826-2.7-3.826-5.178l2.148-29.709c0-0.565-0.109-1.108-0.31-1.619c-0.574-2.091-2.471-3.333-4.991-3.333
			c-0.152,0-0.307,0.009-0.46,0.011c-0.106-0.002-0.21-0.011-0.316-0.011c-0.207,0-0.409,0.016-0.605,0.042
			c-13.209,0.742-25.399,12.07-25.399,30.23c0,0.88,0.041,1.743,0.117,2.583c-1.229,3.672-3.144,6.984-6.193,6.984
			c-2.925,0-2.925-4.166-2.925-5.178v-28.583c0-2.701-2.363-4.952-6.077-4.952c-1.574,0-2.926,0.789-2.926,1.914
			c0,0.788,0.448,1.463,0.448,3.601v19.522c-0.185,0.429-0.339,0.933-0.45,1.523c-1.015,4.951-3.038,12.153-7.54,12.153
			c-2.7,0-3.826-2.7-3.826-5.178v-60.43c0-2.702-2.362-4.952-6.076-4.952c-1.576,0-3.601,0.451-3.601,1.239s1.125,1.012,1.125,4.276
			v25.432c-12.267,1.689-22.732,11.704-22.732,28.921c0,0.835,0.035,1.636,0.092,2.415c-2.062,4.592-5.681,8.278-11.909,8.278
			c-5.852,0-8.89-3.152-10.465-6.98c10.915-3.263,16.654-13.166,16.654-21.492c0-6.752-3.826-11.366-10.129-11.366
			c-8.664,0-17.217,10.691-17.217,24.982c0,1.806,0.162,3.51,0.461,5.119c-1.15,4.583-3.184,9.737-6.99,9.737
			c-2.926,0-2.926-4.166-2.926-5.178v-23.294c0-5.177-1.688-11.366-9.003-11.366c-5.064,0-9.002,4.614-11.815,10.579
			c-0.226-5.064-2.139-10.579-8.89-10.579c-5.064,0-9.003,4.726-11.93,10.803v-4.726c0-2.701-2.362-4.952-6.076-4.952
			c-1.577,0-2.926,0.789-2.926,1.914c0,0.788,0.449,1.463,0.449,3.601v35.672c0,4.164,3.152,4.953,5.401,4.953
			c3.265,0,3.151-2.703,3.151-4.84v-16.43c0.675-8.89,7.09-18.568,10.128-18.568c1.912,0,2.139,2.926,2.139,6.415v28.469
			c0,4.164,3.149,4.955,5.401,4.955c3.265,0,3.15-2.703,3.15-4.84V214.56c0.675-8.89,7.089-18.568,10.128-18.568
			c1.913,0,2.139,2.926,2.139,6.415v22.845c0,5.738,3.488,10.578,9.452,10.578c5.947,0,9.897-3.828,12.527-8.502
			c3.766,5.492,9.751,8.502,15.945,8.502c7.451,0,12.454-2.766,15.781-6.431c2.51,4.22,6.614,6.431,11.791,6.431
			c4.276,0,7.538-1.912,10.016-4.389c1.688,2.588,4.728,4.389,8.553,4.389c4.796,0,8.318-2.488,10.886-5.901
			c1.381,3.463,4.354,5.901,8.584,5.901c4.797,0,8.29-2.488,10.847-5.899c2.23,3.633,5.804,5.899,10.646,5.899
			c4.277,0,7.43-2.025,9.679-4.612c1.688,2.7,4.727,4.612,8.666,4.612c4.273,0,7.536-1.979,10.016-4.824v42.748
			c0,1.688,0.338,3.039,2.588,3.039c2.251,0,5.964-0.789,5.964-4.951v-36.574c0.901,1.012,2.7,1.688,5.401,1.688
			c3.938,0,8.328-1.916,11.366-5.178c6.76,0,11.884-1.861,15.477-4.375c0.765,4.747,4.081,8.428,9.283,8.428
			c5.04,0,8.644-2.75,11.229-6.433c2.249,3.288,5.688,5.308,10.266,5.308c3.938,0,6.977-1.801,9.227-4.049v11.814
			c-7.427,6.525-13.953,12.264-13.953,23.632c0,7.202,4.5,12.94,10.804,12.94c5.739,0,11.703-4.164,11.703-15.98v-19.467
			c4.559-3.967,18.143-9.655,21.876-17.273c0.032-0.064,0.079-0.158,0.127-0.255C590.764,224.586,595.238,221.328,595.027,220.674z
			 M348.126,213.206c-0.225-4.727,1.464-17.105,6.978-17.105c1.465,0,2.363,1.464,2.363,3.939c0,6.753-3.602,12.603-9.229,15.192
			C348.238,214.557,348.126,213.882,348.126,213.206z M394.604,224.008c-1.464,2.479-3.603,4.392-6.526,4.392
			c-3.938,0-7.54-3.376-7.54-11.479c0-0.279,0.008-0.551,0.014-0.824c0.036-0.259,0.07-0.511,0.1-0.753
			c0.039-0.343,0.022-0.674-0.033-0.987c0.777-12.155,7.135-16.878,13.988-18.144v27.795H394.604z M453.91,222.548
			c-1.237,3.152-3.264,5.852-6.301,5.852c-3.939,0-6.416-3.376-6.416-9.229c0-13.805,7.27-21.153,14.708-23.03L453.91,222.548z
			 M493.41,225.924c-5.178,0.449-9.003,1.576-10.579,3.938v-24.307c1.238-5.514,4.164-9.453,7.427-9.453
			c3.827,0,7.09,3.713,7.09,14.067C497.348,214.332,496.111,221.985,493.41,225.924z M547.539,227.275
			c-3.938,0-6.414-3.376-6.414-9.229c0-13.374,6.819-20.686,14.01-22.836c-0.023,3.418-0.057,7.625-0.057,8.881v12.715
			C554.291,221.309,552.041,227.275,547.539,227.275z M551.928,271.95c-1.801,0-2.926-2.701-2.926-6.188
			c0-6.753,2.477-11.03,6.076-14.742v12.04C555.078,265.198,555.529,271.95,551.928,271.95z M579.287,209.154
			c4.408-0.282,4.429,5.257,4.429,5.257c-0.062,2.92-1.316,5.827-2.455,7.915c-0.341-0.098-0.534-0.168-0.534-0.168
			C573.161,220.501,574.879,209.435,579.287,209.154z"/>
	</g>
	<circle fill="#383838" cx="408.824" cy="23.04" r="4.5"/>
</g>
</svg>
