<?xml version="1.0" encoding="utf-8"?>
<!-- Generator: Adobe Illustrator 16.0.0, SVG Export Plug-In . SVG Version: 6.00 Build 0)  -->
<!DOCTYPE svg PUBLIC "-//W3C//DTD SVG 1.1//EN" "http://www.w3.org/Graphics/SVG/1.1/DTD/svg11.dtd">
<svg version="1.1" id="Layer_1" xmlns="http://www.w3.org/2000/svg" xmlns:xlink="http://www.w3.org/1999/xlink" x="0px" y="0px"
	 width="61px" height="55.875px" viewBox="0 0 61 55.875" enable-background="new 0 0 61 55.875" xml:space="preserve">
<rect x="0.5" y="0.5" opacity="0.4" fill="#CCCCCC" enable-background="new    " width="60" height="55"/>
<g>
	<path fill="#8FCCAA" d="M30.503,15.523c-6.732,0-12.211,5.478-12.211,12.211s5.479,12.211,12.211,12.211
		c6.733,0,12.212-5.479,12.212-12.211S37.236,15.523,30.503,15.523L30.503,15.523z M30.503,37.977
		c-5.647,0-10.244-4.595-10.244-10.243c0-5.649,4.597-10.243,10.244-10.243c5.647,0,10.243,4.596,10.243,10.243
		C40.746,33.382,36.15,37.977,30.503,37.977L30.503,37.977z"/>
	<path fill="#8FCCAA" d="M34.395,23.84l-5.699,5.701l-2.086-2.086c-0.384-0.384-1.007-0.384-1.39,0
		c-0.385,0.385-0.385,1.007,0,1.391L28,31.629c0.194,0.189,0.443,0.287,0.695,0.287c0.251,0,0.504-0.098,0.697-0.287l6.394-6.397
		c0.386-0.385,0.386-1.006,0-1.392C35.402,23.457,34.779,23.457,34.395,23.84L34.395,23.84z"/>
</g>
</svg>
