<?xml version="1.0" encoding="utf-8"?>
<!-- Generator: Adobe Illustrator 16.0.0, SVG Export Plug-In . SVG Version: 6.00 Build 0)  -->
<!DOCTYPE svg PUBLIC "-//W3C//DTD SVG 1.1//EN" "http://www.w3.org/Graphics/SVG/1.1/DTD/svg11.dtd">
<svg version="1.1" xmlns="http://www.w3.org/2000/svg" xmlns:xlink="http://www.w3.org/1999/xlink" x="0px" y="0px" width="328px"
	 height="227px" viewBox="0 0 328 227" enable-background="new 0 0 328 227" xml:space="preserve">
<g id="Layer_1" display="none">
	<rect x="-579" y="-225" display="inline" fill="#F2F2F2" width="1024" height="768"/>
	<g id="Layer_2" display="inline">
		<g>
		</g>
	</g>
	<ellipse display="inline" fill="#CCCCCC" cx="186.412" cy="354.949" rx="375.266" ry="6.13"/>
	<g display="inline">
		<path fill="#E5E5E5" d="M512.061,316.252V-53.917c0-13.288-10.814-24.102-24.105-24.102H-68.878
			c-13.296,0-24.107,10.814-24.107,24.102v370.169h-100.012v24.357l0.542,0.503c0.154,0.144,3.928,3.572,12.562,6.971
			c7.838,3.085,21.437,6.76,41.716,6.76h699.483c20.275,0,33.873-3.675,41.711-6.76c8.635-3.398,12.408-6.827,12.563-6.971
			l0.541-0.503v-24.357H512.061z"/>
		<circle display="none" fill="#333333" cx="210.438" cy="-57.938" r="3.75"/>
		<path fill="#A0A0A0" d="M221.563-55.459c1.442,0,2.62-1.175,2.62-2.618c0-1.445-1.178-2.623-2.62-2.623
			c-1.45,0-2.626,1.178-2.626,2.623C218.938-56.635,220.113-55.459,221.563-55.459z M221.563-59.574
			c0.821,0,1.494,0.672,1.494,1.497c0,0.824-0.673,1.492-1.494,1.492c-0.826,0-1.499-0.668-1.499-1.492
			C220.064-58.902,220.737-59.574,221.563-59.574z M513.88,315.928V-55.315c0-13.33-10.844-24.174-24.174-24.174H-68.747
			c-13.327,0-24.174,10.844-24.174,24.174v371.243h-100.306v24.431l0.547,0.504c0.154,0.145,3.938,3.585,12.598,6.991
			c7.859,3.092,21.498,6.775,41.835,6.775H563.27c20.336,0,33.977-3.684,41.834-6.775c8.66-3.406,12.446-6.847,12.599-6.991
			l0.548-0.504v-24.431H513.88z M-89.54-55.315c0-11.464,9.325-20.796,20.793-20.796h558.453c11.47,0,20.794,9.332,20.794,20.796
			v371.243h-2.146V-55.315c0-10.28-8.366-18.647-18.647-18.647H-68.747c-10.28,0-18.647,8.367-18.647,18.647v371.243h-2.146V-55.315
			z M-86.267,315.928V-55.315c0-9.662,7.858-17.52,17.52-17.52h558.453c9.661,0,17.522,7.858,17.522,17.52v371.243H-86.267z
			 M270.858,319.309v1.638c0,4.281-3.484,7.764-7.763,7.764h-107c-4.281,0-7.76-3.482-7.76-7.764v-1.638H270.858z M603.622,344.804
			c-7.561,2.938-20.7,6.446-40.353,6.446h-701.516c-19.656,0-32.793-3.508-40.356-6.446c-4.689-1.822-7.862-3.656-9.729-4.896
			H613.35C611.488,341.147,608.312,342.981,603.622,344.804z M614.871,338.782h-804.719v-19.474h337.059v1.638
			c0,4.9,3.985,8.89,8.885,8.89h107c4.902,0,8.889-3.989,8.889-8.89v-1.638h342.887V338.782z M210.479-53.4
			c2.581,0,4.68-2.1,4.68-4.678c0-2.579-2.099-4.678-4.68-4.678c-2.575,0-4.678,2.099-4.678,4.678
			C205.801-55.5,207.903-53.4,210.479-53.4z M210.479-61.631c1.961,0,3.553,1.594,3.553,3.553c0,1.958-1.592,3.551-3.553,3.551
			c-1.957,0-3.553-1.593-3.553-3.551C206.926-60.037,208.521-61.631,210.479-61.631z M-59.632,294.514h539.679V-45.71H-59.632
			V294.514z M-58.507-44.584h537.426v337.973H-58.507V-44.584z"/>
	</g>
	<rect x="-59" y="-46" display="inline" fill="#706E7E" width="538" height="340"/>
	<g display="inline" opacity="0.9">
		<path fill="#FFFFFF" d="M223.938,94.546c3.938,0,6.863-3.151,6.863-6.865c0-3.938-2.925-6.863-6.863-6.863
			c-3.714,0-6.752,2.925-6.752,6.863C217.187,91.396,220.225,94.546,223.938,94.546z"/>
		<path fill="#FFFFFF" d="M323.869,94.546c3.939,0,6.864-3.151,6.864-6.865c0-3.938-2.925-6.863-6.864-6.863
			c-3.713,0-6.752,2.925-6.752,6.863C317.117,91.396,320.156,94.546,323.869,94.546z"/>
		<path fill="#FFFFFF" d="M398.027,136.674c-0.312-0.969-0.934-0.524-2.133,0.325c-1.962,1.066-3.897,1.572-5.628,1.77
			c1.431-3.045,3.181-7.281,3.181-10.05c0-9.848-15.333-11.644-19.851-2.689c-6.394,12.675,7.629,16.442,7.629,16.442
			c0.106,0.029,0.218,0.05,0.325,0.072c-3.047,4.014-12.099,8.01-14.753,8.432l0.367-40.938c0.18-0.41,0.254-1.011,0.254-1.875
			c0-2.925-2.138-4.727-5.177-4.727c-13.729,0-26.782,11.479-26.782,30.271c0,1.18,0.07,2.326,0.211,3.429
			c-1.229,3.785-3.159,7.264-6.288,7.264c-2.926,0-2.926-4.166-2.926-5.178v-28.583c0-2.701-2.363-4.952-6.075-4.952
			c-1.576,0-2.927,0.789-2.927,1.914c0,0.788,0.45,1.463,0.45,3.601v21.041c-0.001,0.002-0.001,0.002-0.003,0.005
			c-2.588,5.287-4.274,8.214-11.702,8.55c1.688-4.05,2.926-10.127,2.926-16.428c0-11.142-4.276-19.807-13.054-19.807
			c-4.727,0-7.878,2.588-10.241,5.964c-0.112-2.588-2.475-4.839-6.075-4.839c-1.576,0-3.603,0.45-3.603,1.238
			c0,0.788,1.126,1.013,1.126,4.276v19.529c-0.184,0.424-0.34,0.928-0.449,1.516c-1.014,4.951-3.04,12.153-7.541,12.153
			c-2.699,0-3.826-2.7-3.826-5.178l2.148-29.709c0-0.565-0.109-1.108-0.309-1.619c-0.575-2.091-2.471-3.333-4.992-3.333
			c-0.152,0-0.306,0.009-0.46,0.011c-0.106-0.002-0.209-0.011-0.316-0.011c-0.207,0-0.409,0.016-0.605,0.042
			c-13.209,0.742-25.4,12.07-25.4,30.23c0,0.88,0.041,1.743,0.117,2.583c-1.229,3.673-3.143,6.984-6.193,6.984
			c-2.925,0-2.925-4.166-2.925-5.178v-28.583c0-2.701-2.363-4.952-6.077-4.952c-1.574,0-2.926,0.789-2.926,1.914
			c0,0.788,0.449,1.463,0.449,3.601v19.522c-0.185,0.429-0.339,0.933-0.451,1.523c-1.014,4.951-3.038,12.153-7.54,12.153
			c-2.7,0-3.826-2.7-3.826-5.178v-60.43c0-2.702-2.362-4.952-6.076-4.952c-1.576,0-3.601,0.451-3.601,1.239
			c0,0.788,1.125,1.012,1.125,4.276v25.432c-12.266,1.689-22.732,11.704-22.732,28.921c0,0.835,0.035,1.636,0.092,2.415
			c-2.062,4.593-5.681,8.278-11.909,8.278c-5.852,0-8.89-3.152-10.465-6.98c10.915-3.263,16.654-13.166,16.654-21.492
			c0-6.752-3.826-11.366-10.129-11.366c-8.664,0-17.217,10.691-17.217,24.982c0,1.806,0.162,3.51,0.461,5.119
			c-1.15,4.583-3.183,9.737-6.99,9.737c-2.926,0-2.926-4.166-2.926-5.178v-23.294c0-5.177-1.688-11.366-9.003-11.366
			c-5.064,0-9.002,4.614-11.815,10.579c-0.226-5.064-2.139-10.579-8.89-10.579c-5.064,0-9.003,4.726-11.93,10.803v-4.726
			c0-2.701-2.362-4.952-6.076-4.952c-1.577,0-2.926,0.789-2.926,1.914c0,0.788,0.449,1.463,0.449,3.601v35.672
			c0,4.164,3.152,4.954,5.401,4.954c3.265,0,3.151-2.703,3.151-4.84v-16.43c0.675-8.89,7.09-18.568,10.128-18.568
			c1.913,0,2.139,2.926,2.139,6.415v28.47c0,4.164,3.15,4.954,5.401,4.954c3.265,0,3.151-2.703,3.151-4.84v-16.43
			c0.675-8.89,7.089-18.568,10.128-18.568c1.913,0,2.138,2.926,2.138,6.415v22.845c0,5.738,3.489,10.579,9.453,10.579
			c5.947,0,9.897-3.828,12.527-8.502c3.766,5.491,9.751,8.502,15.945,8.502c7.451,0,12.454-2.766,15.781-6.431
			c2.51,4.22,6.615,6.431,11.792,6.431c4.276,0,7.538-1.913,10.015-4.389c1.688,2.587,4.728,4.389,8.553,4.389
			c4.796,0,8.318-2.489,10.886-5.902c1.38,3.463,4.354,5.902,8.584,5.902c4.796,0,8.29-2.489,10.846-5.9
			c2.231,3.633,5.804,5.9,10.647,5.9c4.277,0,7.429-2.026,9.678-4.613c1.689,2.7,4.727,4.613,8.666,4.613
			c4.274,0,7.537-1.979,10.016-4.824v42.747c0,1.688,0.338,3.039,2.588,3.039c2.251,0,5.964-0.788,5.964-4.951v-36.574
			c0.901,1.012,2.7,1.688,5.401,1.688c3.939,0,8.328-1.916,11.366-5.178c6.76,0,11.884-1.861,15.477-4.375
			c0.765,4.747,4.081,8.428,9.283,8.428c5.04,0,8.644-2.75,11.229-6.433c2.249,3.288,5.688,5.308,10.265,5.308
			c3.938,0,6.977-1.802,9.227-4.05v11.815c-7.427,6.526-13.953,12.264-13.953,23.632c0,7.202,4.5,12.941,10.803,12.941
			c5.74,0,11.704-4.164,11.704-15.981v-19.467c4.558-3.966,18.142-9.655,21.876-17.274c0.032-0.064,0.079-0.157,0.127-0.254
			C393.764,140.586,398.238,137.328,398.027,136.674z M151.126,129.206c-0.225-4.727,1.464-17.105,6.978-17.105
			c1.464,0,2.363,1.464,2.363,3.939c0,6.753-3.602,12.603-9.229,15.192C151.238,130.557,151.126,129.882,151.126,129.206z
			 M197.604,140.009c-1.464,2.478-3.603,4.391-6.527,4.391c-3.938,0-7.54-3.376-7.54-11.479c0-0.279,0.008-0.551,0.014-0.824
			c0.036-0.259,0.07-0.511,0.099-0.753c0.039-0.343,0.023-0.674-0.033-0.987c0.778-12.155,7.135-16.878,13.988-18.144V140.009z
			 M256.91,138.548c-1.237,3.152-3.264,5.852-6.301,5.852c-3.939,0-6.416-3.376-6.416-9.229c0-13.805,7.27-21.153,14.708-23.03
			L256.91,138.548z M296.41,141.925c-5.178,0.449-9.003,1.575-10.579,3.937v-24.307c1.238-5.514,4.164-9.453,7.427-9.453
			c3.827,0,7.09,3.713,7.09,14.067C300.348,130.332,299.111,137.985,296.41,141.925z M350.539,143.275
			c-3.938,0-6.414-3.376-6.414-9.229c0-13.374,6.819-20.686,14.01-22.836c-0.024,3.418-0.057,7.625-0.057,8.881v12.715
			C357.291,137.309,355.041,143.275,350.539,143.275z M354.928,187.949c-1.801,0-2.926-2.7-2.926-6.188
			c0-6.753,2.477-11.03,6.076-14.742v12.04C358.078,181.198,358.529,187.949,354.928,187.949z M382.287,125.154
			c4.408-0.282,4.429,5.257,4.429,5.257c-0.062,2.92-1.317,5.827-2.455,7.915c-0.341-0.098-0.534-0.168-0.534-0.168
			C376.161,136.501,377.879,125.435,382.287,125.154z"/>
	</g>
</g>
<g id="Layer_3" display="none">
	<linearGradient id="SVGID_1_" gradientUnits="userSpaceOnUse" x1="418" y1="138.5" x2="437" y2="138.5">
		<stop  offset="0" style="stop-color:#FFFFFF;stop-opacity:0"/>
		<stop  offset="0.8817" style="stop-color:#F2F2F2"/>
	</linearGradient>
	<rect x="418" y="-84" display="inline" fill="url(#SVGID_1_)" width="19" height="445"/>
</g>
<g id="Layer_4">
	<g>
		<g>
			<g opacity="0.3">
				<path d="M328,11H3V4.776C3,3.666,5.414,3,6.538,3h318.224C325.887,3,328,3.666,328,4.776V11z"/>
				<path d="M328,224.84c0,1.348-2.214,2.16-3.459,2.16H6.76C5.515,227,3,226.188,3,224.84V21h325V224.84z"/>
				<rect x="3" y="11" width="325" height="10"/>
			</g>
			<path fill="#CCCCCC" d="M324,8H0V1.292C0,0.181,1.929,0,3.053,0h318.224C322.4,0,324,0.181,324,1.292V8z"/>
			<circle opacity="0.71" fill="#E74C3C" cx="8.609" cy="4.309" r="1.896"/>
			<circle opacity="0.71" fill="#F1C40F" cx="14.811" cy="4.309" r="1.894"/>
			<circle opacity="0.71" fill="#2ECC71" cx="21.012" cy="4.309" r="1.895"/>
			<rect y="8" fill="#E6E6E6" width="324" height="9"/>
			<path fill="#E6E6E6" d="M70.537,2.371C70.379,1.892,69.996,1,69.33,1H32.715c-0.666,0-1.047,0.909-1.207,1.371l-1.609,5.007
				C29.762,7.78,29.095,8,29.095,8h43.856c0,0-0.666-0.183-0.804-0.622L70.537,2.371z"/>
			<g>
				<path fill="#F2F2F2" d="M324,221.354c0,1.348-1.699,2.646-2.944,2.646H3.274C2.029,224,0,222.702,0,221.354V17h324V221.354z"/>
			</g>
		</g>
		<rect y="17" fill="#919191" width="324" height="16"/>
		<rect x="18" y="51" fill="#919191" width="55" height="10"/>
		<rect x="18" y="67" opacity="0.2" fill="#919191" width="55" height="11"/>
		<rect x="18" y="84" opacity="0.2" fill="#919191" width="55" height="11"/>
		<rect x="18" y="101" opacity="0.2" fill="#919191" width="55" height="10"/>
		<rect x="23" y="54" fill="#F2F2F2" width="27" height="4"/>
		<rect x="193" y="23" fill="#F2F2F2" width="26" height="3"/>
		<rect x="228" y="23" fill="#F2F2F2" width="26" height="3"/>
		<rect x="262" y="23" fill="#F2F2F2" width="27" height="3"/>
	</g>
</g>
<g id="Layer_6" display="none">
	<g display="inline">
		<rect x="164.5" y="51.5" opacity="0.4" fill="#CCCCCC" stroke="#808080" stroke-miterlimit="10" width="59" height="54"/>
		<rect x="240.5" y="51.5" opacity="0.4" fill="none" stroke="#808080" stroke-miterlimit="10" width="61" height="54"/>
		<rect x="88.5" y="116.5" opacity="0.4" fill="none" stroke="#808080" stroke-miterlimit="10" width="60" height="55"/>
		<rect x="164.5" y="116.5" opacity="0.4" fill="none" stroke="#808080" stroke-miterlimit="10" width="59" height="55"/>
		<rect x="240.5" y="116.5" opacity="0.4" fill="none" stroke="#808080" stroke-miterlimit="10" width="61" height="55"/>
		<rect x="88.5" y="51.5" opacity="0.4" fill="none" stroke="#808080" stroke-miterlimit="10" width="60" height="54"/>
		<path fill="#8FCCAA" d="M233,200.661c0,1.926-0.962,3.339-2.246,3.339h-73.633c-1.285,0-3.121-1.413-3.121-3.339V186.72
			c0-1.925,1.836-3.72,3.121-3.72h73.633c1.284,0,2.246,1.795,2.246,3.72V200.661z"/>
		<g>
			<path fill="#FFFFFF" d="M180.943,197.471c-1.024,0-2.111-0.334-2.582-0.888c-0.083-0.104-0.125-0.22-0.125-0.346
				c0-0.323,0.282-0.596,0.596-0.596c0.115,0,0.24,0.032,0.334,0.104c0.481,0.366,1.098,0.628,1.829,0.628
				c0.983,0,1.38-0.491,1.38-0.941c0-1.442-4.056-0.543-4.056-3.114c0-1.16,1.004-2.049,2.54-2.049c0.837,0,1.882,0.262,2.342,0.763
				c0.083,0.095,0.125,0.22,0.125,0.335c0,0.324-0.303,0.574-0.606,0.574c-0.114,0-0.229-0.031-0.334-0.104
				c-0.491-0.323-1.066-0.47-1.631-0.47c-0.711,0-1.16,0.345-1.16,0.856c0,1.286,4.045,0.481,4.045,3.084
				C183.64,196.479,182.824,197.471,180.943,197.471z"/>
			<path fill="#FFFFFF" d="M189.087,197.346h-3.563c-0.419,0-0.753-0.345-0.753-0.753v-5.466c0-0.408,0.334-0.753,0.753-0.753h3.563
				c0.293,0,0.533,0.24,0.533,0.554c0,0.304-0.24,0.544-0.533,0.544h-3.072v1.776h2.999c0.293,0,0.533,0.241,0.533,0.555
				c0,0.303-0.24,0.543-0.533,0.543h-2.999v1.902h3.072c0.293,0,0.533,0.24,0.533,0.533
				C189.62,197.105,189.38,197.346,189.087,197.346z"/>
			<path fill="#FFFFFF" d="M195.34,191.472h-1.62v5.32c0,0.334-0.282,0.616-0.638,0.616c-0.345,0-0.616-0.282-0.616-0.616v-5.32
				h-1.62c-0.303,0-0.544-0.24-0.544-0.564c0-0.293,0.241-0.533,0.544-0.533h4.494c0.293,0,0.544,0.24,0.544,0.554
				C195.884,191.231,195.633,191.472,195.34,191.472z"/>
			<path fill="#FFFFFF" d="M199.868,197.471c-2.027,0-3.021-1.16-3.021-2.874v-3.669c0-0.334,0.271-0.616,0.638-0.616
				c0.345,0,0.616,0.282,0.616,0.616v3.627c0,1.087,0.617,1.809,1.767,1.809c1.16,0,1.767-0.722,1.767-1.809v-3.627
				c0-0.334,0.282-0.616,0.648-0.616c0.345,0,0.616,0.282,0.616,0.616v3.658C202.899,196.321,201.906,197.471,199.868,197.471z"/>
			<path fill="#FFFFFF" d="M207.459,194.754h-1.839v2.038c0,0.334-0.282,0.616-0.638,0.616c-0.335,0-0.606-0.282-0.606-0.616v-5.665
				c0-0.408,0.334-0.753,0.753-0.753h2.33c1.464,0,2.279,1.004,2.279,2.195C209.738,193.75,208.912,194.754,207.459,194.754z
				 M207.292,191.472h-1.672v2.185h1.672c0.68,0,1.171-0.439,1.171-1.087C208.463,191.9,207.972,191.472,207.292,191.472z"/>
		</g>
		<g>
			<path fill="#8FCCAA" d="M194.503,66.523c-6.732,0-12.211,5.478-12.211,12.211c0,6.733,5.479,12.212,12.211,12.212
				c6.733,0,12.212-5.479,12.212-12.212C206.715,72.001,201.236,66.523,194.503,66.523L194.503,66.523z M194.503,88.976
				c-5.647,0-10.244-4.594-10.244-10.242c0-5.649,4.597-10.243,10.244-10.243s10.243,4.596,10.243,10.243
				C204.746,84.382,200.15,88.976,194.503,88.976L194.503,88.976z M194.503,88.976"/>
			<path fill="#8FCCAA" d="M198.395,74.84l-5.699,5.701l-2.086-2.087c-0.384-0.384-1.007-0.384-1.39,0
				c-0.385,0.385-0.385,1.007,0,1.391l2.78,2.783c0.194,0.19,0.443,0.287,0.695,0.287c0.251,0,0.504-0.097,0.697-0.287l6.394-6.396
				c0.386-0.385,0.386-1.006,0-1.392C199.403,74.457,198.78,74.457,198.395,74.84L198.395,74.84z M198.395,74.84"/>
		</g>
	</g>
</g>
<g id="Layer_5" display="none">
	<g display="inline">
		<polygon fill="#FFFFFF" points="-132.121,242.065 -130.258,241.063 -128.643,240.224 -131.211,235.407 -126.879,235.407 
			-138.258,224 -138.258,240.015 -134.941,236.794 		"/>
		<rect x="-133.827" y="232.593" transform="matrix(0.8823 -0.4707 0.4707 0.8823 -126.9956 -34.6729)" width="2" height="7.999"/>
		<polygon points="-137.258,226.407 -137.258,237.595 -134,234.45 -129.232,234.45 		"/>
	</g>
</g>
</svg>
