<?xml version="1.0" encoding="UTF-8" standalone="no"?>
<svg width="28px" height="28px" viewBox="0 0 28 28" version="1.1" xmlns="http://www.w3.org/2000/svg" xmlns:xlink="http://www.w3.org/1999/xlink" xmlns:sketch="http://www.bohemiancoding.com/sketch/ns">
    <!-- Generator: Sketch 3.1 (8751) - http://www.bohemiancoding.com/sketch -->
    <title>Fill 124 + Fill 125</title>
    <desc>Created with Sketch.</desc>
    <defs></defs>
    <g id="Page-1" stroke="none" stroke-width="1" fill="none" fill-rule="evenodd" sketch:type="MSPage">
        <g id="Icon-Set" sketch:type="MSLayerGroup" transform="translate(-462.000000, -571.000000)" fill="#666666">
            <g id="Fill-124-+-Fill-125" transform="translate(462.000000, 571.000000)" sketch:type="MSShapeGroup">
                <path d="M26,25 C26,25.553 25.553,26 25,26 L3,26 C2.447,26 2,25.553 2,25 L2,3 C2,2.448 2.447,2 3,2 L25,2 C25.553,2 26,2.448 26,3 L26,25 L26,25 Z M26,0 L2,0 C0.896,0 0,0.896 0,2 L0,26 C0,27.104 0.896,28 2,28 L26,28 C27.104,28 28,27.104 28,26 L28,2 C28,0.896 27.104,0 26,0 L26,0 Z" id="Fill-124"></path>
                <path d="M11.6,20.2857143 C11.6,20.6017143 11.3318,20.8571429 11,20.8571429 L9.8,20.8571429 C9.4682,20.8571429 9.2,20.6017143 9.2,20.2857143 L9.2,7.71428571 C9.2,7.39885714 9.4682,7.14285714 9.8,7.14285714 L11,7.14285714 C11.3318,7.14285714 11.6,7.39885714 11.6,7.71428571 L11.6,20.2857143 L11.6,20.2857143 Z M11.6,6 L9.2,6 C8.5376,6 8,6.512 8,7.14285714 L8,20.8571429 C8,21.488 8.5376,22 9.2,22 L11.6,22 C12.2624,22 12.8,21.488 12.8,20.8571429 L12.8,7.14285714 C12.8,6.512 12.2624,6 11.6,6 L11.6,6 Z M18.8,20.2857143 C18.8,20.6017143 18.5318,20.8571429 18.2,20.8571429 L17,20.8571429 C16.6682,20.8571429 16.4,20.6017143 16.4,20.2857143 L16.4,7.71428571 C16.4,7.39885714 16.6682,7.14285714 17,7.14285714 L18.2,7.14285714 C18.5318,7.14285714 18.8,7.39885714 18.8,7.71428571 L18.8,20.2857143 L18.8,20.2857143 Z M18.8,6 L16.4,6 C15.7376,6 15.2,6.512 15.2,7.14285714 L15.2,20.8571429 C15.2,21.488 15.7376,22 16.4,22 L18.8,22 C19.4624,22 20,21.488 20,20.8571429 L20,7.14285714 C20,6.512 19.4624,6 18.8,6 L18.8,6 Z" id="Fill-125" stroke="#666666" stroke-width="0.5"></path>
            </g>
        </g>
    </g>
</svg>