<?xml version="1.0" encoding="utf-8"?>
<!-- Generator: Adobe Illustrator 16.0.0, SVG Export Plug-In . SVG Version: 6.00 Build 0)  -->
<!DOCTYPE svg PUBLIC "-//W3C//DTD SVG 1.1//EN" "http://www.w3.org/Graphics/SVG/1.1/DTD/svg11.dtd">
<svg version="1.1" id="Layer_1" xmlns="http://www.w3.org/2000/svg" xmlns:xlink="http://www.w3.org/1999/xlink" x="0px" y="0px"
	 width="215.154px" height="150px" viewBox="0 0 215.154 150" enable-background="new 0 0 215.154 150" xml:space="preserve">
<g display="none" opacity="0.5">
	<g display="inline">
		<g>
			<g>
				<g>
					<path fill="#FFFFFF" d="M70.785,129.392H13.707v-3.313c0-0.396,0.146-0.789,0.453-1.089c0.297-0.3,0.689-0.45,1.084-0.45H69.25
						c0.391,0,0.784,0.15,1.083,0.45c0.302,0.3,0.452,0.693,0.452,1.089V129.392z"/>
					<g>
						<path fill="#FFFFFF" d="M74.002,130.022c-0.421-0.423-0.973-0.631-1.522-0.631H12.013c-0.542,0-1.1,0.208-1.522,0.631
							c-0.419,0.417-0.627,0.973-0.627,1.519v5.773h64.765v-5.773C74.628,130.995,74.421,130.439,74.002,130.022z"/>
					</g>
					<rect x="74.628" y="131.85" fill="#FFFFFF" width="2.833" height="3.011"/>
					<path fill="#FFFFFF" d="M52.898,107.202c0-1.466-1.196-2.664-2.662-2.664h-15.98c-1.463,0-2.66,1.198-2.66,2.664l0,0
						c0,1.464,1.197,2.663,2.66,2.663h15.98C51.702,109.865,52.898,108.666,52.898,107.202L52.898,107.202z"/>
					<g>
						<path fill="#FFFFFF" d="M48.903,119.651v-9.786H35.588v9.786c0,2.7-2.183,4.883-4.883,4.883h4.883h13.314h4.881
							C51.087,124.534,48.903,122.352,48.903,119.651z"/>
					</g>
					<g>
						<g>
							<g>
								<rect x="61.446" y="121.79" fill="#FFFFFF" width="2.596" height="2.749"/>
							</g>
							<polygon fill="#FFFFFF" points="64.825,118.807 60.665,118.807 60.665,119.461 60.926,119.461 60.926,121.79 64.562,121.79 
								64.561,119.46 64.825,119.46 							"/>
						</g>
						<g>
							<g>
								<rect x="20.449" y="121.79" fill="#FFFFFF" width="2.596" height="2.749"/>
							</g>
							<polygon fill="#FFFFFF" points="23.825,118.807 19.668,118.807 19.668,119.461 19.928,119.461 19.927,121.79 23.565,121.79 
								23.562,119.46 23.825,119.46 							"/>
						</g>
					</g>
				</g>
			</g>
			<g>
				<circle fill="#F8EE9F" cx="42.246" cy="77.954" r="18.76"/>
				<rect x="36.699" y="95.88" fill="#F8EE9F" width="11.096" height="8.658"/>
			</g>
		</g>
		<g>
			<path fill="#242E39" d="M80.057,134.253h-2.595c-0.497,0-0.9-0.402-0.9-0.899s0.403-0.899,0.9-0.899h2.595
				c2.079,0,4.034-0.811,5.505-2.281c1.469-1.468,2.278-3.421,2.278-5.501v-10.599c0-0.497,0.403-0.899,0.9-0.899
				c0.497,0,0.9,0.402,0.9,0.899v10.599c0,2.561-0.997,4.966-2.805,6.774C85.022,133.256,82.615,134.253,80.057,134.253z"/>
			<g>
				<g>
					<path fill="#242E39" d="M70.785,130.291H13.707c-0.497,0-0.9-0.401-0.9-0.899v-3.313c0-0.661,0.257-1.276,0.723-1.732
						c0.448-0.451,1.06-0.706,1.713-0.706H69.25c0.649,0,1.26,0.254,1.72,0.714c0.459,0.458,0.715,1.07,0.715,1.725v3.313
						C71.685,129.89,71.282,130.291,70.785,130.291z M14.607,128.492h55.278v-2.414c0-0.17-0.066-0.331-0.187-0.451
						c-0.122-0.121-0.281-0.188-0.449-0.188H15.244c-0.169,0-0.328,0.066-0.445,0.184c-0.161,0.156-0.192,0.334-0.192,0.456V128.492
						z"/>
					<path fill="#242E39" d="M74.628,138.214H9.864c-0.497,0-0.9-0.401-0.9-0.899v-5.773c0-0.804,0.325-1.59,0.892-2.155
						c0.566-0.568,1.353-0.894,2.157-0.894H72.48c0.818,0,1.585,0.318,2.16,0.896c0.564,0.563,0.888,1.348,0.888,2.153v5.773
						C75.528,137.812,75.125,138.214,74.628,138.214z M10.764,136.415h62.965v-4.874c0-0.331-0.132-0.653-0.362-0.883
						c-0.237-0.236-0.551-0.367-0.887-0.367H12.013c-0.331,0-0.653,0.135-0.886,0.366c-0.231,0.232-0.364,0.554-0.364,0.884V136.415
						z"/>
					<path fill="#242E39" d="M77.462,135.759h-2.833c-0.496,0-0.899-0.402-0.899-0.898v-3.011c0-0.497,0.403-0.899,0.899-0.899
						h2.833c0.497,0,0.9,0.402,0.9,0.899v3.011C78.362,135.356,77.958,135.759,77.462,135.759z M75.528,133.961h1.034v-1.212h-1.034
						V133.961z"/>
					<path fill="#242E39" d="M50.236,110.765h-15.98c-1.963,0-3.56-1.598-3.56-3.562s1.597-3.563,3.56-3.563h15.98
						c1.963,0,3.561,1.599,3.561,3.563S52.2,110.765,50.236,110.765z M34.256,105.438c-0.971,0-1.761,0.791-1.761,1.765
						c0,0.973,0.79,1.764,1.761,1.764h15.98c0.971,0,1.762-0.791,1.762-1.764c0-0.974-0.791-1.765-1.762-1.765H34.256z"/>
					<path fill="#242E39" d="M53.784,125.434H30.706c-0.496,0-0.899-0.402-0.899-0.899s0.403-0.899,0.899-0.899
						c2.196,0,3.983-1.787,3.983-3.983v-9.786c0-0.497,0.403-0.899,0.9-0.899h13.314c0.497,0,0.9,0.402,0.9,0.899v9.786
						c0,2.196,1.786,3.983,3.981,3.983c0.497,0,0.9,0.402,0.9,0.899S54.281,125.434,53.784,125.434z M34.894,123.635h14.704
						c-0.987-1.037-1.594-2.44-1.594-3.983v-8.887H36.488v8.887C36.488,121.194,35.881,122.598,34.894,123.635z"/>
					<g>
						<g>
							<path fill="#242E39" d="M64.042,125.438h-2.596c-0.496,0-0.899-0.402-0.899-0.899v-2.749c0-0.498,0.403-0.899,0.899-0.899
								h2.596c0.497,0,0.9,0.401,0.9,0.899v2.749C64.942,125.036,64.539,125.438,64.042,125.438z M62.346,123.64h0.796v-0.951
								h-0.796V123.64z"/>
							<path fill="#242E39" d="M64.583,122.688c-0.007,0-0.014,0-0.021,0h-3.636c-0.497,0-0.9-0.402-0.9-0.898v-1.696
								c-0.161-0.162-0.261-0.387-0.261-0.633v-0.654c0-0.497,0.403-0.899,0.899-0.899h4.16c0.497,0,0.899,0.402,0.899,0.899v0.653
								c0,0.247-0.101,0.473-0.263,0.635l0.001,1.499c0.014,0.063,0.021,0.128,0.021,0.196
								C65.483,122.286,65.081,122.688,64.583,122.688z M61.826,120.891h1.836l0-1.185h-1.835V120.891z"/>
						</g>
						<g>
							<path fill="#242E39" d="M23.045,125.438h-2.596c-0.497,0-0.9-0.402-0.9-0.899v-2.749c0-0.498,0.403-0.899,0.9-0.899h2.596
								c0.497,0,0.899,0.401,0.899,0.899v2.749C23.945,125.036,23.542,125.438,23.045,125.438z M21.349,123.64h0.796v-0.951h-0.796
								V123.64z"/>
							<path fill="#242E39" d="M23.586,122.688c-0.007,0-0.014,0-0.021,0h-3.638c-0.239,0-0.468-0.094-0.637-0.264
								c-0.168-0.168-0.263-0.396-0.263-0.635l0.001-1.697c-0.162-0.162-0.26-0.386-0.26-0.632v-0.654
								c0-0.497,0.403-0.899,0.9-0.899h4.157c0.497,0,0.9,0.402,0.9,0.899v0.653c0,0.246-0.1,0.471-0.262,0.633l0.002,1.5
								c0.014,0.063,0.021,0.129,0.021,0.197C24.486,122.286,24.083,122.688,23.586,122.688z M20.828,120.891h1.837l-0.001-1.185
								h-1.835L20.828,120.891z"/>
						</g>
					</g>
				</g>
			</g>
			<g>
				<path fill="#242E39" d="M47.792,96.784c-0.384,0-0.74-0.247-0.859-0.635c-0.146-0.475,0.12-0.979,0.595-1.125
					c7.524-2.321,12.58-9.183,12.58-17.073c0-9.85-8.012-17.862-17.861-17.862c-9.85,0-17.862,8.013-17.862,17.862
					c0,7.892,5.056,14.752,12.582,17.073c0.475,0.146,0.741,0.65,0.594,1.125c-0.145,0.474-0.649,0.74-1.125,0.595
					c-8.284-2.557-13.851-10.107-13.851-18.793c0-10.841,8.82-19.659,19.662-19.659c10.84,0,19.661,8.818,19.661,19.659
					c0,8.686-5.565,16.236-13.849,18.793C47.969,96.771,47.879,96.784,47.792,96.784z"/>
				<path fill="#242E39" d="M29.191,75.593c-0.072,0-0.145-0.009-0.218-0.027c-0.482-0.12-0.775-0.609-0.655-1.091
					c1.289-5.157,5.293-9.159,10.449-10.449c0.482-0.122,0.971,0.173,1.091,0.655c0.121,0.481-0.172,0.97-0.654,1.09
					c-4.511,1.128-8.012,4.631-9.14,9.141C29.962,75.32,29.595,75.593,29.191,75.593z"/>
				<path fill="#242E39" d="M47.794,105.438H36.699c-0.497,0-0.9-0.402-0.9-0.899V95.88c0-0.498,0.403-0.899,0.9-0.899h11.096
					c0.497,0,0.899,0.401,0.899,0.899v8.658C48.694,105.035,48.291,105.438,47.794,105.438z M37.598,103.639h9.296v-6.86h-9.296
					V103.639z"/>
			</g>
			<path fill="#242E39" d="M44.327,105.437c-0.497,0-0.9-0.402-0.9-0.899V83.734c0-0.382,0.24-0.721,0.599-0.848
				c2.076-0.737,3.47-2.72,3.47-4.936c0-2.895-2.355-5.251-5.251-5.251s-5.251,2.356-5.251,5.251c0,2.216,1.395,4.198,3.471,4.936
				c0.359,0.127,0.599,0.466,0.599,0.848v20.803c0,0.497-0.403,0.899-0.899,0.899c-0.497,0-0.9-0.402-0.9-0.899v-20.2
				c-2.458-1.139-4.069-3.628-4.069-6.386c0-3.887,3.163-7.05,7.05-7.05s7.051,3.163,7.051,7.05c0,2.758-1.611,5.247-4.07,6.386
				v20.2C45.227,105.034,44.824,105.437,44.327,105.437z"/>
		</g>
	</g>
	<g display="inline">
		<g>
			<rect x="65.914" y="9.475" fill="#4F4F4F" width="139.46" height="87.163"/>
			<rect x="65.914" y="96.638" fill="#FFFFFF" width="139.46" height="17.436"/>
			<rect x="116.033" y="114.073" fill="#FFFFFF" width="39.223" height="18.18"/>
			<rect x="105.253" y="132.253" fill="#FFFFFF" width="60.784" height="5.062"/>
			<rect x="73.646" y="17.2" fill="#716E7E" width="123.997" height="71.715"/>
		</g>
		<g>
			<path fill="#242E39" d="M205.374,97.536H65.914c-0.497,0-0.9-0.402-0.9-0.898V9.475c0-0.498,0.403-0.899,0.9-0.899h139.46
				c0.497,0,0.899,0.401,0.899,0.899v87.163C206.273,97.134,205.871,97.536,205.374,97.536z M66.813,95.738h137.661V10.374H66.813
				V95.738z"/>
			<path fill="#242E39" d="M197.643,89.814H73.646c-0.496,0-0.899-0.401-0.899-0.899V17.2c0-0.497,0.403-0.899,0.899-0.899h123.997
				c0.497,0,0.9,0.402,0.9,0.899v71.715C198.543,89.413,198.14,89.814,197.643,89.814z M74.545,88.016h122.198V18.1H74.545V88.016z"
				/>
			<path fill="#242E39" d="M205.374,114.973H65.914c-0.497,0-0.9-0.402-0.9-0.899V96.638c0-0.498,0.403-0.899,0.9-0.899h139.46
				c0.497,0,0.899,0.401,0.899,0.899v17.436C206.273,114.57,205.871,114.973,205.374,114.973z M66.813,113.174h137.661V97.536
				H66.813V113.174z"/>
			<path fill="#242E39" d="M155.256,133.152h-39.223c-0.496,0-0.899-0.402-0.899-0.899v-18.18c0-0.497,0.403-0.899,0.899-0.899
				h39.223c0.496,0,0.899,0.402,0.899,0.899v18.18C156.155,132.75,155.752,133.152,155.256,133.152z M116.934,131.354h37.422
				v-16.381h-37.422V131.354z"/>
			<path fill="#242E39" d="M166.037,138.214h-60.784c-0.497,0-0.9-0.401-0.9-0.899v-5.062c0-0.497,0.403-0.899,0.9-0.899h60.784
				c0.496,0,0.9,0.402,0.9,0.899v5.062C166.938,137.812,166.533,138.214,166.037,138.214z M106.153,136.415h58.984v-3.263h-58.984
				V136.415z"/>
			<path fill="#242E39" d="M139.189,106.254h-7.09c-0.497,0-0.9-0.402-0.9-0.899s0.403-0.899,0.9-0.899h7.09
				c0.496,0,0.9,0.402,0.9,0.899S139.686,106.254,139.189,106.254z"/>
		</g>
		<g>
			<g>
				<path fill="#242E39" d="M87.203,28.327h-2.926c-0.497,0-0.9-0.402-0.9-0.899s0.403-0.899,0.9-0.899h2.926
					c0.497,0,0.9,0.402,0.9,0.899S87.7,28.327,87.203,28.327z"/>
				<path fill="#242E39" d="M86.56,39.774h-2.283c-0.497,0-0.9-0.402-0.9-0.899s0.403-0.899,0.9-0.899h2.283
					c0.497,0,0.9,0.402,0.9,0.899S87.057,39.774,86.56,39.774z"/>
				<path fill="#242E39" d="M101.729,28.327H89.712c-0.497,0-0.9-0.402-0.9-0.899s0.403-0.899,0.9-0.899h12.017
					c0.497,0,0.9,0.402,0.9,0.899S102.226,28.327,101.729,28.327z"/>
				<path fill="#242E39" d="M98.506,39.774h-9.262c-0.497,0-0.9-0.402-0.9-0.899s0.403-0.899,0.9-0.899h9.262
					c0.497,0,0.9,0.402,0.9,0.899S99.003,39.774,98.506,39.774z"/>
				<path fill="#242E39" d="M91.842,32.676h-4.64c-0.497,0-0.9-0.402-0.9-0.899s0.403-0.899,0.9-0.899h4.64
					c0.497,0,0.9,0.402,0.9,0.899S92.339,32.676,91.842,32.676z"/>
				<path fill="#242E39" d="M91.842,52.829h-4.64c-0.497,0-0.9-0.402-0.9-0.898c0-0.497,0.403-0.899,0.9-0.899h4.64
					c0.497,0,0.9,0.402,0.9,0.899C92.742,52.427,92.339,52.829,91.842,52.829z"/>
				<path fill="#242E39" d="M103.163,52.829h-9.108c-0.497,0-0.9-0.402-0.9-0.898c0-0.497,0.403-0.899,0.9-0.899h9.108
					c0.497,0,0.9,0.402,0.9,0.899C104.063,52.427,103.66,52.829,103.163,52.829z"/>
				<path fill="#242E39" d="M93.655,62.188H90.94c-0.497,0-0.9-0.402-0.9-0.898c0-0.497,0.403-0.899,0.9-0.899h2.715
					c0.497,0,0.9,0.402,0.9,0.899C94.555,61.786,94.152,62.188,93.655,62.188z"/>
				<path fill="#242E39" d="M101.141,79.59H95.7c-0.496,0-0.899-0.402-0.899-0.899c0-0.498,0.403-0.899,0.899-0.899h5.441
					c0.497,0,0.9,0.401,0.9,0.899C102.041,79.188,101.638,79.59,101.141,79.59z"/>
				<path fill="#242E39" d="M121.428,70.89h-4.98c-0.496,0-0.9-0.401-0.9-0.899c0-0.497,0.404-0.898,0.9-0.898h4.98
					c0.496,0,0.9,0.401,0.9,0.898C122.328,70.488,121.924,70.89,121.428,70.89z"/>
				<path fill="#242E39" d="M115.209,52.829H108.4c-0.497,0-0.9-0.402-0.9-0.898c0-0.497,0.403-0.899,0.9-0.899h6.809
					c0.496,0,0.898,0.402,0.898,0.899C116.107,52.427,115.705,52.829,115.209,52.829z"/>
				<path fill="#242E39" d="M122.334,52.829h-4.238c-0.496,0-0.899-0.402-0.899-0.898c0-0.497,0.403-0.899,0.899-0.899h4.238
					c0.496,0,0.9,0.402,0.9,0.899C123.234,52.427,122.83,52.829,122.334,52.829z"/>
				<path fill="#242E39" d="M94.136,44.129h-6.934c-0.497,0-0.9-0.401-0.9-0.899c0-0.497,0.403-0.899,0.9-0.899h6.934
					c0.497,0,0.9,0.402,0.9,0.899C95.036,43.728,94.633,44.129,94.136,44.129z"/>
				<path fill="#242E39" d="M97.035,48.481h-9.833c-0.497,0-0.9-0.402-0.9-0.899c0-0.498,0.403-0.899,0.9-0.899h9.833
					c0.497,0,0.899,0.401,0.899,0.899C97.935,48.079,97.532,48.481,97.035,48.481z"/>
				<path fill="#242E39" d="M101.098,66.538H89.829c-0.497,0-0.9-0.402-0.9-0.899s0.403-0.899,0.9-0.899h11.269
					c0.497,0,0.9,0.402,0.9,0.899S101.595,66.538,101.098,66.538z"/>
				<path fill="#242E39" d="M100.184,70.89H89.829c-0.497,0-0.9-0.401-0.9-0.899c0-0.497,0.403-0.898,0.9-0.898h10.355
					c0.497,0,0.9,0.401,0.9,0.898C101.084,70.488,100.681,70.89,100.184,70.89z"/>
				<path fill="#242E39" d="M114.275,70.89h-10.738c-0.497,0-0.9-0.401-0.9-0.899c0-0.497,0.403-0.898,0.9-0.898h10.738
					c0.496,0,0.9,0.401,0.9,0.898C115.176,70.488,114.771,70.89,114.275,70.89z"/>
				<path fill="#242E39" d="M114.275,79.59h-10.738c-0.497,0-0.9-0.402-0.9-0.899c0-0.498,0.403-0.899,0.9-0.899h10.738
					c0.496,0,0.9,0.401,0.9,0.899C115.176,79.188,114.771,79.59,114.275,79.59z"/>
				<path fill="#242E39" d="M88.26,62.188h-3.983c-0.497,0-0.9-0.402-0.9-0.898c0-0.497,0.403-0.899,0.9-0.899h3.983
					c0.497,0,0.9,0.402,0.9,0.899C89.16,61.786,88.756,62.188,88.26,62.188z"/>
				<path fill="#242E39" d="M93.299,79.59h-3.47c-0.497,0-0.9-0.402-0.9-0.899c0-0.498,0.403-0.899,0.9-0.899h3.47
					c0.497,0,0.9,0.401,0.9,0.899C94.199,79.188,93.796,79.59,93.299,79.59z"/>
				<path fill="#242E39" d="M97.916,75.235h-5.744c-0.497,0-0.9-0.401-0.9-0.899c0-0.497,0.403-0.899,0.9-0.899h5.744
					c0.497,0,0.9,0.402,0.9,0.899C98.816,74.834,98.413,75.235,97.916,75.235z"/>
				<path fill="#242E39" d="M118.455,75.235h-16.942c-0.497,0-0.9-0.401-0.9-0.899c0-0.497,0.403-0.899,0.9-0.899h16.942
					c0.496,0,0.898,0.402,0.898,0.899C119.354,74.834,118.951,75.235,118.455,75.235z"/>
				<path fill="#242E39" d="M107.92,48.481h-7.903c-0.497,0-0.9-0.402-0.9-0.899c0-0.498,0.403-0.899,0.9-0.899h7.903
					c0.497,0,0.9,0.401,0.9,0.899C108.82,48.079,108.417,48.481,107.92,48.481z"/>
				<path fill="#242E39" d="M124.035,48.481h-5.744c-0.496,0-0.899-0.402-0.899-0.899c0-0.498,0.403-0.899,0.899-0.899h5.744
					c0.496,0,0.899,0.401,0.899,0.899C124.935,48.079,124.531,48.481,124.035,48.481z"/>
				<path fill="#242E39" d="M114.741,48.481h-3.745c-0.496,0-0.9-0.402-0.9-0.899c0-0.498,0.404-0.899,0.9-0.899h3.745
					c0.497,0,0.899,0.401,0.899,0.899C115.641,48.079,115.238,48.481,114.741,48.481z"/>
				<path fill="#242E39" d="M107.053,44.129H96.405c-0.497,0-0.9-0.401-0.9-0.899c0-0.497,0.403-0.899,0.9-0.899h10.648
					c0.497,0,0.9,0.402,0.9,0.899C107.953,43.728,107.549,44.129,107.053,44.129z"/>
				<path fill="#242E39" d="M99.022,32.676h-4.275c-0.497,0-0.9-0.402-0.9-0.899s0.403-0.899,0.9-0.899h4.275
					c0.497,0,0.9,0.402,0.9,0.899S99.519,32.676,99.022,32.676z"/>
			</g>
		</g>
	</g>
</g>
<g opacity="0.5">
	<g>
		<g>
			<g>
				<g>
					<path fill="#FFFFFF" d="M67.812,137.616H7.013v-3.529c0-0.422,0.155-0.841,0.481-1.16c0.317-0.32,0.735-0.479,1.155-0.479
						h57.527c0.416,0,0.835,0.159,1.154,0.479c0.321,0.319,0.481,0.738,0.481,1.16V137.616z"/>
					<g>
						<path fill="#FFFFFF" d="M71.239,138.288c-0.449-0.451-1.036-0.672-1.622-0.672H5.208c-0.577,0-1.171,0.221-1.621,0.672
							c-0.447,0.444-0.669,1.036-0.669,1.617v6.149h68.986v-6.149C71.905,139.324,71.684,138.732,71.239,138.288z"/>
					</g>
					<rect x="71.905" y="140.234" fill="#FFFFFF" width="3.019" height="3.206"/>
					<path fill="#FFFFFF" d="M48.758,113.979c0-1.561-1.274-2.837-2.835-2.837H28.902c-1.559,0-2.834,1.276-2.834,2.837l0,0
						c0,1.56,1.275,2.838,2.834,2.838h17.021C47.484,116.817,48.758,115.539,48.758,113.979L48.758,113.979z"/>
					<g>
						<path fill="#FFFFFF" d="M44.503,127.241v-10.424H30.321v10.424c0,2.876-2.326,5.2-5.201,5.2h5.201h14.182h5.199
							C46.83,132.441,44.503,130.117,44.503,127.241z"/>
					</g>
					<g>
						<g>
							<g>
								<rect x="57.864" y="129.519" fill="#FFFFFF" width="2.765" height="2.929"/>
							</g>
							<polygon fill="#FFFFFF" points="61.463,126.341 57.032,126.341 57.032,127.038 57.31,127.038 57.31,129.519 61.183,129.519 
								61.181,127.037 61.463,127.037 							"/>
						</g>
						<g>
							<g>
								<rect x="14.195" y="129.519" fill="#FFFFFF" width="2.765" height="2.929"/>
							</g>
							<polygon fill="#FFFFFF" points="17.79,126.341 13.363,126.341 13.363,127.038 13.64,127.038 13.638,129.519 17.513,129.519 
								17.511,127.037 17.79,127.037 							"/>
						</g>
					</g>
				</g>
			</g>
			<g>
				<circle fill="#F8EE9F" cx="37.412" cy="82.825" r="19.983"/>
				<rect x="31.503" y="101.919" fill="#F8EE9F" width="11.819" height="9.224"/>
			</g>
		</g>
		<g>
			<path fill="#242E39" d="M77.688,142.794h-2.764c-0.529,0-0.959-0.429-0.959-0.957c0-0.53,0.43-0.959,0.959-0.959h2.764
				c2.214,0,4.297-0.863,5.863-2.431c1.565-1.563,2.426-3.643,2.426-5.858V121.3c0-0.53,0.43-0.959,0.959-0.959
				s0.958,0.429,0.958,0.959v11.289c0,2.728-1.061,5.289-2.988,7.215C82.977,141.732,80.413,142.794,77.688,142.794z"/>
			<g>
				<g>
					<path fill="#242E39" d="M67.812,138.574H7.013c-0.529,0-0.959-0.428-0.959-0.958v-3.529c0-0.704,0.274-1.36,0.771-1.846
						c0.477-0.481,1.129-0.753,1.825-0.753h57.527c0.692,0,1.342,0.271,1.833,0.761c0.489,0.488,0.761,1.14,0.761,1.838v3.529
						C68.77,138.146,68.341,138.574,67.812,138.574z M7.971,136.657h58.882v-2.57c0-0.182-0.071-0.354-0.199-0.481
						c-0.13-0.128-0.299-0.2-0.478-0.2H8.649c-0.18,0-0.349,0.07-0.474,0.195c-0.171,0.166-0.205,0.356-0.205,0.486V136.657z"/>
					<path fill="#242E39" d="M71.905,147.014H2.919c-0.529,0-0.958-0.428-0.958-0.959v-6.149c0-0.855,0.346-1.693,0.95-2.296
						c0.604-0.605,1.441-0.952,2.298-0.952h64.408c0.871,0,1.688,0.34,2.301,0.954c0.601,0.601,0.946,1.437,0.946,2.294v6.149
						C72.864,146.586,72.434,147.014,71.905,147.014z M3.878,145.097h67.069v-5.191c0-0.353-0.141-0.695-0.385-0.94
						c-0.252-0.251-0.587-0.391-0.945-0.391H5.208c-0.352,0-0.695,0.143-0.943,0.39c-0.247,0.248-0.387,0.59-0.387,0.941V145.097z"
						/>
					<path fill="#242E39" d="M74.924,144.398h-3.019c-0.528,0-0.958-0.429-0.958-0.958v-3.206c0-0.53,0.43-0.958,0.958-0.958h3.019
						c0.528,0,0.958,0.428,0.958,0.958v3.206C75.882,143.97,75.452,144.398,74.924,144.398z M72.864,142.483h1.101v-1.291h-1.101
						V142.483z"/>
					<path fill="#242E39" d="M45.923,117.774H28.902c-2.091,0-3.792-1.701-3.792-3.795c0-2.092,1.701-3.795,3.792-3.795h17.021
						c2.091,0,3.792,1.703,3.792,3.795C49.716,116.073,48.015,117.774,45.923,117.774z M28.902,112.101
						c-1.035,0-1.875,0.843-1.875,1.879c0,1.037,0.841,1.88,1.875,1.88h17.021c1.034,0,1.876-0.843,1.876-1.88
						c0-1.036-0.842-1.879-1.876-1.879H28.902z"/>
					<path fill="#242E39" d="M49.702,133.399H25.12c-0.529,0-0.958-0.428-0.958-0.958c0-0.529,0.43-0.958,0.958-0.958
						c2.339,0,4.242-1.903,4.242-4.242v-10.424c0-0.53,0.429-0.958,0.959-0.958h14.182c0.529,0,0.958,0.428,0.958,0.958v10.424
						c0,2.339,1.902,4.242,4.241,4.242c0.529,0,0.958,0.429,0.958,0.958C50.66,132.972,50.231,133.399,49.702,133.399z
						 M29.581,131.483h15.662c-1.052-1.104-1.698-2.6-1.698-4.242v-9.467H31.279v9.467
						C31.279,128.884,30.632,130.379,29.581,131.483z"/>
					<g>
						<g>
							<path fill="#242E39" d="M60.629,133.405h-2.765c-0.529,0-0.958-0.429-0.958-0.958v-2.929c0-0.53,0.43-0.957,0.958-0.957
								h2.765c0.529,0,0.958,0.427,0.958,0.957v2.929C61.587,132.977,61.158,133.405,60.629,133.405z M58.822,131.488h0.849v-1.013
								h-0.849V131.488z"/>
							<path fill="#242E39" d="M61.206,130.476c-0.007,0-0.015,0-0.022,0H57.31c-0.529,0-0.958-0.428-0.958-0.957v-1.807
								c-0.172-0.173-0.278-0.412-0.278-0.674v-0.697c0-0.529,0.43-0.958,0.958-0.958h4.431c0.529,0,0.958,0.429,0.958,0.958v0.696
								c0,0.263-0.107,0.504-0.28,0.677l0.001,1.597c0.015,0.067,0.022,0.136,0.022,0.208
								C62.164,130.048,61.735,130.476,61.206,130.476z M58.269,128.562h1.956l0-1.263h-1.955V128.562z"/>
						</g>
						<g>
							<path fill="#242E39" d="M16.96,133.405h-2.765c-0.529,0-0.959-0.429-0.959-0.958v-2.929c0-0.53,0.43-0.957,0.959-0.957h2.765
								c0.529,0,0.958,0.427,0.958,0.957v2.929C17.918,132.977,17.489,133.405,16.96,133.405z M15.153,131.488h0.849v-1.013h-0.849
								V131.488z"/>
							<path fill="#242E39" d="M17.537,130.476c-0.008,0-0.015,0-0.023,0h-3.875c-0.254,0-0.498-0.1-0.678-0.281
								c-0.179-0.178-0.28-0.422-0.28-0.676l0.001-1.808c-0.172-0.173-0.277-0.411-0.277-0.673v-0.697
								c0-0.529,0.429-0.958,0.959-0.958h4.427c0.529,0,0.958,0.429,0.958,0.958v0.696c0,0.262-0.106,0.501-0.279,0.674l0.002,1.598
								c0.015,0.068,0.022,0.138,0.022,0.21C18.494,130.048,18.065,130.476,17.537,130.476z M14.598,128.562h1.957l-0.002-1.263
								h-1.955L14.598,128.562z"/>
						</g>
					</g>
				</g>
			</g>
			<g>
				<path fill="#242E39" d="M43.319,102.883c-0.41,0-0.789-0.263-0.916-0.676c-0.156-0.506,0.127-1.042,0.633-1.199
					c8.014-2.472,13.4-9.781,13.4-18.186c0-10.491-8.535-19.026-19.025-19.026c-10.492,0-19.026,8.535-19.026,19.026
					c0,8.405,5.385,15.714,13.401,18.186c0.505,0.157,0.79,0.693,0.633,1.199c-0.155,0.504-0.692,0.788-1.198,0.633
					c-8.824-2.723-14.753-10.767-14.753-20.018c0-11.548,9.395-20.94,20.943-20.94c11.547,0,20.942,9.393,20.942,20.94
					c0,9.251-5.928,17.295-14.752,20.018C43.508,102.869,43.413,102.883,43.319,102.883z"/>
				<path fill="#242E39" d="M23.506,80.311c-0.077,0-0.154-0.01-0.232-0.029c-0.514-0.128-0.827-0.649-0.698-1.162
					c1.373-5.493,5.638-9.756,11.13-11.13c0.514-0.13,1.034,0.184,1.162,0.698c0.128,0.513-0.184,1.033-0.697,1.161
					c-4.805,1.202-8.535,4.933-9.736,9.736C24.328,80.021,23.937,80.311,23.506,80.311z"/>
				<path fill="#242E39" d="M43.322,112.101H31.503c-0.53,0-0.959-0.429-0.959-0.958v-9.224c0-0.529,0.429-0.957,0.959-0.957h11.819
					c0.529,0,0.958,0.428,0.958,0.957v9.224C44.28,111.672,43.851,112.101,43.322,112.101z M32.461,110.185h9.903v-7.308h-9.903
					V110.185z"/>
			</g>
			<path fill="#242E39" d="M39.629,112.1c-0.529,0-0.958-0.429-0.958-0.958V88.983c0-0.407,0.255-0.769,0.638-0.904
				c2.211-0.785,3.696-2.896,3.696-5.257c0-3.083-2.509-5.593-5.593-5.593s-5.594,2.51-5.594,5.593c0,2.36,1.485,4.472,3.697,5.257
				c0.383,0.136,0.639,0.497,0.639,0.904v22.158c0,0.529-0.43,0.958-0.958,0.958c-0.529,0-0.958-0.429-0.958-0.958V89.625
				c-2.618-1.214-4.334-3.864-4.334-6.803c0-4.14,3.369-7.51,7.51-7.51s7.51,3.37,7.51,7.51c0,2.938-1.716,5.589-4.335,6.803v21.517
				C40.587,111.671,40.158,112.1,39.629,112.1z"/>
		</g>
	</g>
	<g>
		<g>
			<rect x="62.622" y="9.883" fill="#4F4F4F" width="148.551" height="92.845"/>
			<rect x="62.622" y="102.728" fill="#FFFFFF" width="148.551" height="18.572"/>
			<rect x="116.01" y="121.3" fill="#FFFFFF" width="41.778" height="19.364"/>
			<rect x="104.526" y="140.664" fill="#FFFFFF" width="64.747" height="5.391"/>
			<rect x="70.858" y="18.112" fill="#5DA5AF" width="132.08" height="76.389"/>
		</g>
		<g>
			<path fill="#242E39" d="M211.173,103.684H62.622c-0.528,0-0.958-0.429-0.958-0.956V9.883c0-0.531,0.43-0.958,0.958-0.958h148.551
				c0.529,0,0.958,0.428,0.958,0.958v92.845C212.131,103.255,211.702,103.684,211.173,103.684z M63.581,101.769h146.635V10.84
				H63.581V101.769z"/>
			<path fill="#242E39" d="M202.938,95.459H70.858c-0.529,0-0.958-0.428-0.958-0.958V18.112c0-0.53,0.429-0.958,0.958-0.958h132.08
				c0.528,0,0.959,0.429,0.959,0.958v76.389C203.897,95.031,203.467,95.459,202.938,95.459z M71.817,93.543h130.163V19.069H71.817
				V93.543z"/>
			<path fill="#242E39" d="M211.173,122.257H62.622c-0.528,0-0.958-0.429-0.958-0.957v-18.572c0-0.531,0.43-0.959,0.958-0.959
				h148.551c0.529,0,0.958,0.428,0.958,0.959V121.3C212.131,121.828,211.702,122.257,211.173,122.257z M63.581,120.341h146.635
				v-16.657H63.581V120.341z"/>
			<path fill="#242E39" d="M157.788,141.622H116.01c-0.529,0-0.959-0.43-0.959-0.958V121.3c0-0.53,0.43-0.959,0.959-0.959h41.778
				c0.528,0,0.959,0.429,0.959,0.959v19.364C158.747,141.192,158.316,141.622,157.788,141.622z M116.969,139.705h39.86v-17.448
				h-39.86V139.705z"/>
			<path fill="#242E39" d="M169.272,147.014h-64.747c-0.529,0-0.958-0.428-0.958-0.959v-5.391c0-0.529,0.429-0.959,0.958-0.959
				h64.747c0.527,0,0.959,0.43,0.959,0.959v5.391C170.231,146.586,169.8,147.014,169.272,147.014z M105.484,145.097h62.829v-3.475
				h-62.829V145.097z"/>
			<path fill="#242E39" d="M140.675,112.97h-7.552c-0.53,0-0.959-0.428-0.959-0.958c0-0.529,0.429-0.958,0.959-0.958h7.552
				c0.528,0,0.959,0.429,0.959,0.958C141.634,112.542,141.203,112.97,140.675,112.97z"/>
		</g>
		<g>
			<g>
				<path fill="#242E39" d="M85.299,29.963h-3.116c-0.529,0-0.958-0.428-0.958-0.958c0-0.53,0.429-0.958,0.958-0.958h3.116
					c0.53,0,0.959,0.429,0.959,0.958C86.258,29.535,85.829,29.963,85.299,29.963z"/>
				<path fill="#242E39" d="M84.615,42.157h-2.432c-0.529,0-0.958-0.429-0.958-0.958c0-0.529,0.429-0.958,0.958-0.958h2.432
					c0.529,0,0.958,0.429,0.958,0.958C85.573,41.729,85.144,42.157,84.615,42.157z"/>
				<path fill="#242E39" d="M100.772,29.963h-12.8c-0.529,0-0.959-0.428-0.959-0.958c0-0.53,0.43-0.958,0.959-0.958h12.8
					c0.529,0,0.958,0.429,0.958,0.958C101.731,29.535,101.302,29.963,100.772,29.963z"/>
				<path fill="#242E39" d="M97.34,42.157h-9.866c-0.529,0-0.958-0.429-0.958-0.958c0-0.529,0.43-0.958,0.958-0.958h9.866
					c0.529,0,0.958,0.429,0.958,0.958C98.298,41.729,97.869,42.157,97.34,42.157z"/>
				<path fill="#242E39" d="M90.241,34.596h-4.942c-0.529,0-0.958-0.428-0.958-0.958c0-0.529,0.429-0.958,0.958-0.958h4.942
					c0.529,0,0.958,0.429,0.958,0.958C91.2,34.167,90.771,34.596,90.241,34.596z"/>
				<path fill="#242E39" d="M90.241,56.063h-4.942c-0.529,0-0.958-0.429-0.958-0.957c0-0.53,0.429-0.958,0.958-0.958h4.942
					c0.529,0,0.958,0.428,0.958,0.958C91.2,55.634,90.771,56.063,90.241,56.063z"/>
				<path fill="#242E39" d="M102.3,56.063h-9.703c-0.529,0-0.958-0.429-0.958-0.957c0-0.53,0.43-0.958,0.958-0.958h9.703
					c0.529,0,0.958,0.428,0.958,0.958C103.258,55.634,102.829,56.063,102.3,56.063z"/>
				<path fill="#242E39" d="M92.172,66.032H89.28c-0.529,0-0.959-0.428-0.959-0.957c0-0.529,0.43-0.958,0.959-0.958h2.892
					c0.529,0,0.958,0.429,0.958,0.958C93.13,65.604,92.701,66.032,92.172,66.032z"/>
				<path fill="#242E39" d="M100.146,84.568h-5.796c-0.528,0-0.958-0.43-0.958-0.958c0-0.531,0.43-0.959,0.958-0.959h5.796
					c0.529,0,0.958,0.428,0.958,0.959C101.104,84.139,100.675,84.568,100.146,84.568z"/>
				<path fill="#242E39" d="M121.757,75.301h-5.307c-0.529,0-0.959-0.428-0.959-0.958c0-0.53,0.43-0.957,0.959-0.957h5.307
					c0.527,0,0.956,0.427,0.956,0.957C122.713,74.873,122.284,75.301,121.757,75.301z"/>
				<path fill="#242E39" d="M115.131,56.063h-7.252c-0.53,0-0.958-0.429-0.958-0.957c0-0.53,0.428-0.958,0.958-0.958h7.252
					c0.527,0,0.959,0.428,0.959,0.958C116.09,55.634,115.658,56.063,115.131,56.063z"/>
				<path fill="#242E39" d="M122.721,56.063h-4.515c-0.529,0-0.959-0.429-0.959-0.957c0-0.53,0.43-0.958,0.959-0.958h4.515
					c0.53,0,0.957,0.428,0.957,0.958C123.678,55.634,123.251,56.063,122.721,56.063z"/>
				<path fill="#242E39" d="M92.685,46.796h-7.386c-0.529,0-0.958-0.428-0.958-0.958c0-0.53,0.429-0.958,0.958-0.958h7.386
					c0.53,0,0.959,0.428,0.959,0.958C93.644,46.368,93.214,46.796,92.685,46.796z"/>
				<path fill="#242E39" d="M95.772,51.432H85.299c-0.529,0-0.958-0.429-0.958-0.958c0-0.531,0.429-0.958,0.958-0.958h10.474
					c0.529,0,0.958,0.427,0.958,0.958C96.731,51.003,96.301,51.432,95.772,51.432z"/>
				<path fill="#242E39" d="M100.1,70.665H88.097c-0.529,0-0.958-0.428-0.958-0.958s0.429-0.958,0.958-0.958H100.1
					c0.529,0,0.959,0.428,0.959,0.958S100.629,70.665,100.1,70.665z"/>
				<path fill="#242E39" d="M99.127,75.301h-11.03c-0.529,0-0.958-0.428-0.958-0.958c0-0.53,0.429-0.957,0.958-0.957h11.03
					c0.529,0,0.958,0.427,0.958,0.957C100.085,74.873,99.656,75.301,99.127,75.301z"/>
				<path fill="#242E39" d="M114.136,75.301h-11.438c-0.529,0-0.958-0.428-0.958-0.958c0-0.53,0.43-0.957,0.958-0.957h11.438
					c0.53,0,0.959,0.427,0.959,0.957C115.095,74.873,114.666,75.301,114.136,75.301z"/>
				<path fill="#242E39" d="M114.136,84.568h-11.438c-0.529,0-0.958-0.43-0.958-0.958c0-0.531,0.43-0.959,0.958-0.959h11.438
					c0.53,0,0.959,0.428,0.959,0.959C115.095,84.139,114.666,84.568,114.136,84.568z"/>
				<path fill="#242E39" d="M86.425,66.032h-4.243c-0.529,0-0.958-0.428-0.958-0.957c0-0.529,0.429-0.958,0.958-0.958h4.243
					c0.529,0,0.958,0.429,0.958,0.958C87.384,65.604,86.954,66.032,86.425,66.032z"/>
				<path fill="#242E39" d="M91.793,84.568h-3.697c-0.529,0-0.958-0.43-0.958-0.958c0-0.531,0.429-0.959,0.958-0.959h3.697
					c0.529,0,0.958,0.428,0.958,0.959C92.751,84.139,92.322,84.568,91.793,84.568z"/>
				<path fill="#242E39" d="M96.711,79.93h-6.119c-0.529,0-0.958-0.428-0.958-0.958c0-0.529,0.43-0.958,0.958-0.958h6.119
					c0.529,0,0.958,0.429,0.958,0.958C97.669,79.502,97.24,79.93,96.711,79.93z"/>
				<path fill="#242E39" d="M118.588,79.93h-18.046c-0.529,0-0.958-0.428-0.958-0.958c0-0.529,0.429-0.958,0.958-0.958h18.046
					c0.527,0,0.959,0.429,0.959,0.958C119.547,79.502,119.115,79.93,118.588,79.93z"/>
				<path fill="#242E39" d="M107.368,51.432h-8.418c-0.529,0-0.958-0.429-0.958-0.958c0-0.531,0.429-0.958,0.958-0.958h8.418
					c0.529,0,0.958,0.427,0.958,0.958C108.326,51.003,107.896,51.432,107.368,51.432z"/>
				<path fill="#242E39" d="M124.532,51.432h-6.117c-0.529,0-0.959-0.429-0.959-0.958c0-0.531,0.43-0.958,0.959-0.958h6.117
					c0.529,0,0.959,0.427,0.959,0.958C125.491,51.003,125.062,51.432,124.532,51.432z"/>
				<path fill="#242E39" d="M114.633,51.432h-3.99c-0.529,0-0.957-0.429-0.957-0.958c0-0.531,0.428-0.958,0.957-0.958h3.99
					c0.53,0,0.959,0.427,0.959,0.958C115.592,51.003,115.163,51.432,114.633,51.432z"/>
				<path fill="#242E39" d="M106.443,46.796H95.101c-0.529,0-0.958-0.428-0.958-0.958c0-0.53,0.43-0.958,0.958-0.958h11.342
					c0.529,0,0.958,0.428,0.958,0.958C107.402,46.368,106.973,46.796,106.443,46.796z"/>
				<path fill="#242E39" d="M97.889,34.596h-4.553c-0.53,0-0.959-0.428-0.959-0.958c0-0.529,0.429-0.958,0.959-0.958h4.553
					c0.529,0,0.959,0.429,0.959,0.958C98.848,34.167,98.417,34.596,97.889,34.596z"/>
			</g>
		</g>
	</g>
</g>
</svg>
