<?xml version="1.0" encoding="utf-8"?>
<!-- Generator: Adobe Illustrator 16.0.0, SVG Export Plug-In . SVG Version: 6.00 Build 0)  -->
<!DOCTYPE svg PUBLIC "-//W3C//DTD SVG 1.1//EN" "http://www.w3.org/Graphics/SVG/1.1/DTD/svg11.dtd">
<svg version="1.1" id="Layer_1" xmlns="http://www.w3.org/2000/svg" xmlns:xlink="http://www.w3.org/1999/xlink" x="0px" y="0px"
	 width="230px" height="230px" viewBox="0 0 230 230" enable-background="new 0 0 230 230" xml:space="preserve">
<g opacity="0.5">
	<g>
		<g>
			<g>
				<path fill="#F4DA80" d="M123.581,153.214l3.229-0.343c22.264-2.393,39.055-22.504,39.055-46.789c0-0.91-0.032-1.811-0.079-2.708
					l-0.154-2.757h-42.05V153.214L123.581,153.214z M160.03,106.447c-0.156,19.933-13.057,36.57-30.618,40.125v-40.125H160.03
					L160.03,106.447z"/>
				<path fill="#2D5972" d="M123.581,154.214c-0.246,0-0.484-0.091-0.669-0.257c-0.211-0.189-0.331-0.459-0.331-0.743v-52.597
					c0-0.552,0.447-1,1-1h42.05c0.53,0,0.969,0.415,0.998,0.944l0.154,2.757c0.056,1.054,0.081,1.932,0.081,2.764
					c0,24.793-17.174,45.336-39.948,47.783l-3.229,0.344C123.651,154.212,123.616,154.214,123.581,154.214z M124.581,101.617v50.484
					l2.123-0.225c21.754-2.338,38.16-22.025,38.16-45.795c0-0.796-0.024-1.641-0.078-2.656l-0.101-1.809H124.581z M129.412,147.572
					c-0.229,0-0.453-0.078-0.633-0.227c-0.232-0.189-0.367-0.474-0.367-0.773v-40.125c0-0.552,0.447-1,1-1h30.618
					c0.267,0,0.522,0.106,0.71,0.296c0.188,0.189,0.292,0.445,0.29,0.712c-0.158,20.16-13.372,37.444-31.42,41.098
					C129.545,147.566,129.479,147.572,129.412,147.572z M130.412,107.447v37.879c16.213-3.904,28.04-19.543,28.599-37.879H130.412z"
					/>
			</g>
		</g>
		<g>
			<g>
				<path fill="#F4DA80" d="M112.136,153.214v-52.599H70.072l-0.144,2.765c-0.047,0.897-0.076,1.794-0.076,2.702
					c0,24.285,16.791,44.398,39.057,46.789L112.136,153.214L112.136,153.214z M106.306,106.445v40.127
					c-17.562-3.555-30.465-20.192-30.619-40.127H106.306L106.306,106.445z"/>
				<path fill="#2D5972" d="M112.136,154.214c-0.035,0-0.07-0.002-0.105-0.005l-3.227-0.344
					c-22.776-2.445-39.951-22.988-39.951-47.783c0-0.854,0.025-1.755,0.077-2.754l0.144-2.764c0.028-0.532,0.467-0.948,0.999-0.948
					h42.063c0.553,0,1,0.448,1,1v52.599c0,0.284-0.12,0.554-0.331,0.743C112.62,154.123,112.382,154.214,112.136,154.214z
					 M71.021,101.615l-0.094,1.816c-0.051,0.964-0.075,1.831-0.075,2.65c0,23.771,16.406,43.459,38.163,45.795l2.12,0.225v-50.486
					H71.021z M106.306,147.572c-0.066,0-0.133-0.006-0.198-0.02c-18.051-3.654-31.265-20.938-31.421-41.1
					c-0.002-0.267,0.103-0.523,0.29-0.712c0.188-0.189,0.443-0.295,0.71-0.295h30.619c0.553,0,1,0.448,1,1v40.127
					c0,0.3-0.135,0.584-0.367,0.773C106.759,147.494,106.534,147.572,106.306,147.572z M76.706,107.445
					c0.557,18.337,12.385,33.977,28.6,37.881v-37.881H76.706z"/>
			</g>
		</g>
	</g>
	<g>
		<path fill="#F4DA80" d="M148.474,113.576c0-5.531-0.835-10.857-2.367-15.874H89.608c-1.531,5.017-2.367,10.343-2.367,15.874
			c0,19.791,10.564,37.045,26.241,46.238v27.549h8.747v-27.549C137.905,150.621,148.474,133.367,148.474,113.576z"/>
		<path fill="#2D5972" d="M122.229,188.363h-8.747c-0.553,0-1-0.447-1-1v-26.979c-16.202-9.739-26.241-27.62-26.241-46.808
			c0-5.486,0.812-10.925,2.411-16.166c0.128-0.42,0.517-0.708,0.956-0.708h56.498c0.439,0,0.828,0.287,0.956,0.708
			c1.6,5.237,2.411,10.676,2.411,16.166c0,19.187-10.041,37.066-26.244,46.808v26.979
			C123.229,187.916,122.782,188.363,122.229,188.363z M114.482,186.363h6.747v-26.549c0-0.355,0.188-0.684,0.494-0.863
			c15.883-9.314,25.75-26.701,25.75-45.375c0-5.044-0.71-10.044-2.112-14.874H90.354c-1.402,4.833-2.113,9.833-2.113,14.874
			c0,18.676,9.865,36.062,25.747,45.375c0.306,0.18,0.494,0.508,0.494,0.863V186.363z"/>
	</g>
	<g>
		<path fill="#2D5972" d="M128.602,148.743l-1.389-1.439c9.062-8.744,14.261-21.038,14.261-33.728c0-3.245-0.335-6.498-0.995-9.67
			l1.957-0.408c0.689,3.306,1.038,6.697,1.038,10.078C143.474,126.807,138.053,139.624,128.602,148.743z"/>
	</g>
	<g>
		<rect x="88.091" y="190.059" fill="#69CBDF" width="59.531" height="29.352"/>
		<path fill="#2D5972" d="M147.622,220.41H88.091c-0.553,0-1-0.447-1-1v-29.352c0-0.553,0.447-1,1-1h59.531c0.553,0,1,0.447,1,1
			v29.352C148.622,219.963,148.175,220.41,147.622,220.41z M89.091,218.41h57.531v-27.352H89.091V218.41z"/>
	</g>
	<g>
		<rect x="95.081" y="197.047" fill="#69CBDF" width="45.551" height="15.375"/>
		<path fill="#2D5972" d="M140.632,213.422H95.081c-0.553,0-1-0.447-1-1v-15.375c0-0.553,0.447-1,1-1h45.551c0.553,0,1,0.447,1,1
			v15.375C141.632,212.975,141.185,213.422,140.632,213.422z M96.081,211.422h43.551v-13.375H96.081V211.422z"/>
	</g>
	<g>
		<rect x="85.743" y="218.075" fill="#69CBDF" width="64.229" height="7.116"/>
		<path fill="#2D5972" d="M149.972,226.191H85.743c-0.553,0-1-0.447-1-1v-7.116c0-0.552,0.447-1,1-1h64.229c0.553,0,1,0.448,1,1
			v7.116C150.972,225.744,150.524,226.191,149.972,226.191z M86.743,224.191h62.229v-5.116H86.743V224.191z"/>
	</g>
	<g>
		<rect x="104.249" y="180.928" fill="#F4DA80" width="27.214" height="9.232"/>
		<path fill="#2D5972" d="M131.463,191.16h-27.214c-0.553,0-1-0.447-1-1v-9.232c0-0.553,0.447-1,1-1h27.214c0.553,0,1,0.447,1,1
			v9.232C132.463,190.713,132.016,191.16,131.463,191.16z M105.249,189.16h25.214v-7.232h-25.214V189.16z"/>
	</g>
	<g>
		<path fill="#F4DA80" d="M94.097,190.402v-2.927c0-1.933,1.316-3.513,2.918-3.513H138.7c1.604,0,2.912,1.58,2.912,3.513v2.927
			H94.097z"/>
		<path fill="#2D5972" d="M141.612,191.402H94.097c-0.553,0-1-0.447-1-1v-2.927c0-2.488,1.758-4.513,3.918-4.513H138.7
			c2.157,0,3.912,2.024,3.912,4.513v2.927C142.612,190.955,142.165,191.402,141.612,191.402z M95.097,189.402h45.516v-1.927
			c0-1.362-0.876-2.513-1.912-2.513H97.015c-1.04,0-1.918,1.15-1.918,2.513V189.402z"/>
	</g>
	<g>
		<g>
			<path fill="#2D5972" d="M170.067,88.648h-43.396c-0.553,0-1-0.448-1-1V52.271c0-0.552,0.447-1,1-1h43.396c0.553,0,1,0.448,1,1
				v35.377C171.067,88.201,170.62,88.648,170.067,88.648z M127.672,86.648h41.396V53.271h-41.396V86.648z"/>
		</g>
		<g>
			<path fill="#2D5972" d="M163.662,60.061h-30.585c-0.553,0-1-0.448-1-1s0.447-1,1-1h30.585c0.553,0,1,0.448,1,1
				S164.215,60.061,163.662,60.061z"/>
		</g>
		<g>
			<path fill="#2D5972" d="M156.954,67.846h-17.17c-0.553,0-1-0.448-1-1s0.447-1,1-1h17.17c0.553,0,1,0.448,1,1
				S157.507,67.846,156.954,67.846z"/>
		</g>
		<g>
			<path fill="#2D5972" d="M160.909,63.952h-25.08c-0.553,0-1-0.448-1-1s0.447-1,1-1h25.08c0.553,0,1,0.448,1,1
				S161.462,63.952,160.909,63.952z"/>
		</g>
		<g>
			<g>
				<path fill="#2D5972" d="M148.362,76.625h-14.518c-0.553,0-1-0.448-1-1s0.447-1,1-1h14.518c0.553,0,1,0.448,1,1
					S148.915,76.625,148.362,76.625z"/>
			</g>
			<g>
				<path fill="#2D5972" d="M142.858,80.433h-9.014c-0.553,0-1-0.448-1-1s0.447-1,1-1h9.014c0.553,0,1,0.448,1,1
					S143.411,80.433,142.858,80.433z"/>
			</g>
			<g>
				<path fill="#2D5972" d="M158.548,80.849c-2.947,0-5.346-2.399-5.346-5.348c0-2.949,2.398-5.349,5.346-5.349
					c2.95,0,5.35,2.399,5.35,5.349C163.897,78.45,161.498,80.849,158.548,80.849z M158.548,72.152c-1.845,0-3.346,1.502-3.346,3.349
					c0,1.846,1.501,3.348,3.346,3.348c1.847,0,3.35-1.502,3.35-3.348C161.897,73.654,160.395,72.152,158.548,72.152z"/>
			</g>
			<g>
				<path fill="#2D5972" d="M159.991,80.944c-0.093,0-0.187-0.013-0.279-0.04l-1.164-0.338l-1.164,0.338
					c-0.396,0.115-0.818-0.024-1.069-0.348l-0.743-0.959l-1.141-0.412c-0.385-0.139-0.646-0.499-0.659-0.908l-0.04-1.212
					l-0.681-1.004c-0.229-0.339-0.229-0.783,0-1.122l0.68-1.005l0.04-1.213c0.013-0.409,0.274-0.769,0.659-0.908l1.142-0.412
					l0.743-0.958c0.252-0.324,0.674-0.461,1.069-0.348l1.164,0.338l1.165-0.338c0.396-0.115,0.817,0.023,1.069,0.347l0.744,0.959
					l1.141,0.411c0.386,0.139,0.647,0.499,0.66,0.908l0.041,1.214l0.681,1.005c0.229,0.339,0.229,0.783,0,1.122l-0.681,1.005
					l-0.041,1.213c-0.013,0.409-0.274,0.769-0.66,0.908l-1.142,0.411l-0.744,0.958C160.589,80.806,160.295,80.944,159.991,80.944z
					 M158.548,78.525c0.094,0,0.188,0.013,0.279,0.04l0.791,0.23l0.505-0.651c0.116-0.15,0.272-0.263,0.451-0.328l0.777-0.28
					l0.027-0.824c0.006-0.188,0.065-0.372,0.171-0.528l0.463-0.683l-0.463-0.683c-0.105-0.156-0.165-0.339-0.171-0.528l-0.027-0.825
					l-0.776-0.28c-0.179-0.064-0.335-0.178-0.451-0.328l-0.506-0.651l-0.791,0.23c-0.184,0.053-0.375,0.053-0.559,0l-0.79-0.23
					l-0.505,0.65c-0.116,0.15-0.272,0.263-0.45,0.328l-0.776,0.28l-0.027,0.825c-0.006,0.188-0.065,0.372-0.171,0.528l-0.462,0.683
					l0.463,0.684c0.105,0.157,0.165,0.34,0.171,0.528l0.027,0.823l0.775,0.28c0.178,0.064,0.334,0.178,0.45,0.328l0.505,0.651
					l0.79-0.23C158.36,78.538,158.454,78.525,158.548,78.525z"/>
			</g>
			<g>
				<g>
					<path fill="#2D5972" d="M161.859,83.521c-0.304,0-0.604-0.138-0.801-0.399l-1.657-2.206c-0.331-0.441-0.242-1.068,0.199-1.4
						s1.069-0.243,1.4,0.199l1.657,2.206c0.331,0.441,0.242,1.068-0.199,1.4C162.279,83.455,162.068,83.521,161.859,83.521z"/>
				</g>
				<g>
					<path fill="#2D5972" d="M155.231,83.521c-0.209,0-0.42-0.065-0.6-0.201c-0.441-0.332-0.53-0.958-0.199-1.4l1.657-2.206
						c0.331-0.442,0.959-0.531,1.4-0.199c0.441,0.332,0.53,0.958,0.199,1.4l-1.657,2.206
						C155.836,83.383,155.535,83.521,155.231,83.521z"/>
				</g>
			</g>
		</g>
	</g>
	<g>
		<g>
			<path fill="#2D5972" d="M167.77,168.751c-0.216,0-0.433-0.069-0.616-0.213c-0.435-0.341-0.511-0.97-0.17-1.404l5.459-6.962
				c0.341-0.434,0.968-0.511,1.404-0.17l6.963,5.459c0.435,0.341,0.511,0.969,0.17,1.404c-0.341,0.435-0.968,0.511-1.404,0.17
				l-6.176-4.842l-4.842,6.175C168.36,168.619,168.066,168.751,167.77,168.751z"/>
		</g>
		<g>
			<path fill="#2D5972" d="M167.771,168.751c-0.223,0-0.44-0.074-0.617-0.213l-11.988-9.398c-0.209-0.163-0.344-0.403-0.376-0.667
				c-0.031-0.264,0.043-0.528,0.206-0.737l18.678-23.82c0.164-0.208,0.403-0.344,0.667-0.376c0.263-0.031,0.528,0.043,0.737,0.206
				l18.949,14.858c0.435,0.341,0.511,0.97,0.17,1.404l-13.217,16.857c-0.164,0.209-0.403,0.344-0.667,0.375l-12.422,1.504
				C167.851,168.748,167.811,168.751,167.771,168.751z M157.187,158.183l10.875,8.526l11.6-1.404l12.344-15.744l-17.375-13.625
				L157.187,158.183z"/>
		</g>
		<g>
			<path fill="#2D5972" d="M181.74,148.35c-0.216,0-0.433-0.069-0.616-0.213l-6.816-5.346c-0.435-0.341-0.511-0.97-0.17-1.404
				c0.341-0.434,0.969-0.511,1.404-0.17l6.816,5.346c0.435,0.341,0.511,0.97,0.17,1.404
				C182.331,148.219,182.037,148.35,181.74,148.35z"/>
		</g>
		<g>
			<path fill="#2D5972" d="M184.037,154.679c-0.216,0-0.433-0.069-0.616-0.213l-11.312-8.87c-0.435-0.341-0.511-0.97-0.17-1.404
				c0.341-0.434,0.969-0.511,1.404-0.17l11.312,8.87c0.435,0.341,0.511,0.97,0.17,1.404
				C184.628,154.547,184.334,154.679,184.037,154.679z"/>
		</g>
		<g>
			<path fill="#2D5972" d="M181.838,157.483c-0.216,0-0.433-0.069-0.616-0.213l-11.312-8.87c-0.435-0.341-0.511-0.97-0.17-1.404
				c0.341-0.434,0.969-0.511,1.404-0.17l11.312,8.87c0.435,0.341,0.511,0.97,0.17,1.404
				C182.429,157.352,182.135,157.483,181.838,157.483z"/>
		</g>
		<g>
			<path fill="#2D5972" d="M173.062,155.131c-0.216,0-0.433-0.069-0.616-0.213l-4.736-3.714c-0.435-0.341-0.511-0.97-0.17-1.404
				c0.34-0.435,0.968-0.511,1.404-0.17l4.736,3.714c0.435,0.341,0.511,0.97,0.17,1.404C173.653,155,173.359,155.131,173.062,155.131
				z"/>
		</g>
	</g>
	<g>
		<g>
			<path fill="#2D5972" d="M42.073,85.39c-0.141,0-0.282-0.011-0.424-0.034c-0.697-0.112-1.31-0.489-1.725-1.062L25.798,64.777
				c-0.323-0.447-0.224-1.073,0.225-1.396c0.446-0.324,1.071-0.224,1.396,0.224l14.127,19.518c0.102,0.141,0.25,0.233,0.42,0.26
				c0.169,0.027,0.341-0.014,0.482-0.115l14.545-10.528c0.288-0.209,0.354-0.614,0.145-0.903L45.205,55.349
				c-0.102-0.14-0.251-0.232-0.421-0.259c-0.175-0.028-0.342,0.015-0.479,0.115c-0.448,0.325-1.073,0.224-1.396-0.223
				c-0.324-0.447-0.225-1.073,0.223-1.396c0.573-0.415,1.278-0.582,1.97-0.471c0.697,0.112,1.31,0.488,1.724,1.061l11.934,16.486
				c0.855,1.183,0.59,2.84-0.593,3.695L43.62,84.886C43.163,85.217,42.626,85.39,42.073,85.39z"/>
		</g>
		<g>
			<path fill="#2D5972" d="M28.444,65.818c-1.146,0-2.275-0.53-2.996-1.526c-0.579-0.799-0.812-1.775-0.655-2.75
				c0.156-0.974,0.682-1.829,1.481-2.407l15.031-10.88c0.446-0.325,1.072-0.224,1.396,0.224c0.324,0.447,0.225,1.073-0.224,1.396
				L27.446,60.756c-0.366,0.265-0.607,0.657-0.679,1.103c-0.071,0.447,0.035,0.894,0.3,1.26c0.548,0.756,1.606,0.925,2.364,0.379
				l13.497-9.769c0.445-0.324,1.072-0.224,1.396,0.224c0.323,0.448,0.224,1.073-0.225,1.396l-13.497,9.769
				C29.951,65.591,29.194,65.818,28.444,65.818z"/>
		</g>
		<g>
			<path fill="#2D5972" d="M39.968,75.29c-0.319,0-0.621-0.153-0.81-0.414l-7.426-10.258c-0.324-0.447-0.225-1.073,0.224-1.396
				c0.445-0.325,1.072-0.224,1.396,0.224l6.528,9.018l0.79-1.347c0.142-0.241,0.378-0.413,0.651-0.472l1.526-0.33l-6.526-9.017
				c-0.323-0.448-0.224-1.073,0.225-1.396c0.445-0.324,1.071-0.224,1.396,0.224l7.424,10.258c0.197,0.274,0.244,0.629,0.123,0.944
				c-0.12,0.315-0.393,0.549-0.723,0.62l-2.594,0.561l-1.343,2.289c-0.171,0.292-0.477,0.477-0.814,0.493
				C40,75.29,39.983,75.29,39.968,75.29z"/>
		</g>
	</g>
	<g>
		<g>
			<path fill="#2D5972" d="M104.085,36.697c-2.373,0-4.304-1.931-4.304-4.305c0-2.374,1.931-4.306,4.304-4.306
				c2.374,0,4.306,1.932,4.306,4.306C108.391,34.766,106.459,36.697,104.085,36.697z M104.085,30.087
				c-1.271,0-2.304,1.034-2.304,2.306c0,1.271,1.033,2.305,2.304,2.305c1.271,0,2.306-1.034,2.306-2.305
				C106.391,31.121,105.356,30.087,104.085,30.087z"/>
		</g>
		<g>
			<path fill="#2D5972" d="M116.335,22.969c-2.499,0-4.531-2.033-4.531-4.531c0-2.498,2.032-4.529,4.531-4.529
				c2.498,0,4.53,2.032,4.53,4.529C120.865,20.936,118.833,22.969,116.335,22.969z M116.335,15.908
				c-1.396,0-2.531,1.135-2.531,2.529c0,1.396,1.136,2.531,2.531,2.531s2.53-1.136,2.53-2.531
				C118.865,17.043,117.73,15.908,116.335,15.908z"/>
		</g>
		<g>
			<path fill="#2D5972" d="M109.78,27.979L109.78,27.979c-0.553,0-1-0.448-1-1l0.001-3.931l-3.931,0.001l0,0c-0.552,0-1-0.447-1-1
				s0.447-1,1-1l4.931-0.002l0,0c0.266,0,0.52,0.105,0.707,0.293s0.293,0.442,0.293,0.707l-0.001,4.932
				C110.78,27.531,110.332,27.979,109.78,27.979z"/>
		</g>
		<g>
			<path fill="#2D5972" d="M104.856,29.98c-0.102,0-0.205-0.016-0.307-0.049c-0.526-0.169-0.814-0.733-0.646-1.259
				c0.726-2.248,1.945-4.24,3.627-5.921c0.355-0.356,0.739-0.703,1.141-1.03c0.43-0.348,1.061-0.283,1.407,0.144
				c0.349,0.428,0.284,1.058-0.144,1.407c-0.349,0.284-0.682,0.584-0.989,0.893c-1.456,1.456-2.512,3.179-3.138,5.123
				C105.672,29.71,105.279,29.98,104.856,29.98z"/>
		</g>
		<g>
			<path fill="#2D5972" d="M109.482,43.815c-3.645,0-7.289-1.387-10.063-4.161c-2.688-2.688-4.168-6.263-4.168-10.065
				c0-3.803,1.481-7.378,4.17-10.065c3.667-3.668,9.049-5.046,14.038-3.6c0.53,0.154,0.836,0.708,0.683,1.239
				s-0.707,0.836-1.239,0.682c-4.292-1.244-8.916-0.058-12.067,3.093c-2.311,2.31-3.584,5.383-3.584,8.651s1.271,6.341,3.582,8.651
				c4.769,4.769,12.532,4.768,17.303-0.002c4.685-4.685,4.806-12.15,0.274-16.995c-0.377-0.403-0.356-1.036,0.048-1.414
				c0.401-0.376,1.035-0.357,1.413,0.047c5.271,5.637,5.131,14.323-0.321,19.775C116.773,42.427,113.128,43.815,109.482,43.815z"/>
		</g>
		<g>
			<path fill="#2D5972" d="M113.642,34.872c-0.256,0-0.512-0.098-0.707-0.293c-0.391-0.391-0.391-1.023,0-1.414l3.799-3.799
				c0.391-0.391,1.023-0.391,1.414,0s0.391,1.023,0,1.414l-3.799,3.799C114.153,34.774,113.897,34.872,113.642,34.872z"/>
		</g>
		<g>
			<path fill="#2D5972" d="M117.44,34.872c-0.256,0-0.512-0.098-0.707-0.293l-3.799-3.799c-0.391-0.391-0.391-1.023,0-1.414
				s1.023-0.391,1.414,0l3.799,3.799c0.391,0.391,0.391,1.023,0,1.414C117.952,34.774,117.696,34.872,117.44,34.872z"/>
		</g>
	</g>
	<g>
		<g>
			<g>
				<path fill="#2D5972" d="M195.883,69.833c-0.553,0-1-0.448-1-1v-5.32c0-0.552,0.447-1,1-1s1,0.448,1,1v5.32
					C196.883,69.385,196.436,69.833,195.883,69.833z"/>
			</g>
			<g>
				<path fill="#2D5972" d="M198.544,67.173h-5.322c-0.553,0-1-0.448-1-1s0.447-1,1-1h5.322c0.553,0,1,0.448,1,1
					S199.097,67.173,198.544,67.173z"/>
			</g>
		</g>
	</g>
	<g>
		<g>
			<g>
				<path fill="#2D5972" d="M70.907,28.688c-0.553,0-1-0.448-1-1v-5.32c0-0.552,0.447-1,1-1s1,0.448,1,1v5.32
					C71.907,28.24,71.46,28.688,70.907,28.688z"/>
			</g>
			<g>
				<path fill="#2D5972" d="M73.569,26.027h-5.322c-0.553,0-1-0.448-1-1s0.447-1,1-1h5.322c0.553,0,1,0.448,1,1
					S74.122,26.027,73.569,26.027z"/>
			</g>
		</g>
	</g>
	<g>
		<g>
			<g>
				<path fill="#2D5972" d="M63.55,140.487c-0.553,0-1-0.448-1-1v-5.32c0-0.552,0.447-1,1-1s1,0.448,1,1v5.32
					C64.55,140.039,64.103,140.487,63.55,140.487z"/>
			</g>
			<g>
				<path fill="#2D5972" d="M66.21,137.827h-5.321c-0.553,0-1-0.448-1-1s0.447-1,1-1h5.321c0.553,0,1,0.448,1,1
					S66.763,137.827,66.21,137.827z"/>
			</g>
		</g>
	</g>
	<g>
		<path fill="#2D5972" d="M184.765,106.833c-0.256,0-0.512-0.098-0.707-0.293l-3.762-3.762c-0.391-0.391-0.391-1.023,0-1.414
			s1.023-0.391,1.414,0l3.762,3.762c0.391,0.391,0.391,1.023,0,1.414C185.276,106.735,185.021,106.833,184.765,106.833z"/>
	</g>
	<g>
		<path fill="#2D5972" d="M181.002,94.722c-0.256,0-0.512-0.098-0.707-0.293c-0.391-0.39-0.391-1.023,0-1.414l3.763-3.764
			c0.391-0.391,1.023-0.391,1.414,0c0.391,0.39,0.391,1.023,0,1.414l-3.763,3.764C181.514,94.624,181.258,94.722,181.002,94.722z"/>
	</g>
	<g>
		<path fill="#2D5972" d="M188.544,98.84h-5.322c-0.553,0-1-0.448-1-1s0.447-1,1-1h5.322c0.553,0,1,0.448,1,1
			S189.097,98.84,188.544,98.84z"/>
	</g>
	<g>
		<g>
			<path fill="#2D5972" d="M35.681,136.37c-0.265,0-0.52-0.104-0.707-0.293c-0.202-0.202-0.308-0.48-0.291-0.766l0.299-5.078
				c0.014-0.245,0.118-0.476,0.291-0.648l15.135-15.137c0.188-0.188,0.441-0.293,0.707-0.293l0,0c0.266,0,0.52,0.105,0.707,0.293
				l4.777,4.777c0.188,0.188,0.293,0.442,0.293,0.707c0,0.266-0.105,0.52-0.293,0.708l-15.135,15.14
				c-0.173,0.174-0.404,0.277-0.648,0.291l-5.076,0.298C35.72,136.369,35.7,136.37,35.681,136.37z M36.955,130.73l-0.21,3.576
				l3.573-0.211l14.159-14.163l-3.363-3.363L36.955,130.73z"/>
		</g>
		<g>
			<path fill="#2D5972" d="M53.198,123.148c-0.256,0-0.512-0.098-0.707-0.293l-4.297-4.296c-0.391-0.39-0.391-1.023,0-1.414
				s1.023-0.391,1.414,0l4.297,4.296c0.391,0.391,0.391,1.023,0,1.414C53.71,123.051,53.454,123.148,53.198,123.148z"/>
		</g>
		<g>
			<path fill="#2D5972" d="M39.159,132.892c-0.256,0-0.512-0.098-0.707-0.293c-0.391-0.391-0.391-1.023,0-1.414l11.815-11.816
				c0.391-0.391,1.023-0.391,1.414,0s0.391,1.023,0,1.414l-11.815,11.816C39.671,132.794,39.415,132.892,39.159,132.892z"/>
		</g>
		<path fill="#2D5972" d="M36.245,132.885c-0.068,0-0.137,0.002-0.207,0.009c-0.066,0.008-0.125,0.027-0.189,0.038l-0.146,2.464
			l2.364-0.143c0.021-0.09,0.043-0.18,0.057-0.273C38.229,133.781,37.405,132.885,36.245,132.885L36.245,132.885z"/>
	</g>
	<g id="processor_2_">
		<path fill="#2D5972" d="M161.706,29.875l4.986-10.636l10.637,4.986l-4.986,10.637L161.706,29.875z M171.603,32.814l3.678-7.848
			l-7.848-3.679l-3.679,7.847L171.603,32.814z"/>
		<path fill="#2D5972" d="M176.851,24.398l-9.985-4.681l-4.68,9.986l9.983,4.68L176.851,24.398z M171.774,33.292l-8.498-3.984
			l3.983-8.499l8.5,3.985L171.774,33.292z"/>
		<path fill="#2D5972" d="M169.932,40.32c-0.384-0.18-0.552-0.64-0.371-1.024l0.505-1.078l-2.231-1.046l-0.505,1.078
			c-0.181,0.384-0.64,0.55-1.023,0.37c-0.386-0.181-0.551-0.639-0.37-1.023l0.505-1.078l-2.231-1.046l-0.506,1.078
			c-0.181,0.385-0.64,0.551-1.023,0.371c-0.385-0.18-0.551-0.639-0.371-1.024l0.505-1.078l-2.23-1.046l-0.506,1.078
			c-0.18,0.384-0.641,0.55-1.024,0.37s-0.55-0.639-0.369-1.023l0.505-1.078l-1.507-0.707c-0.719-0.337-1.028-1.194-0.691-1.912
			l0.706-1.507l-1.116-0.523c-0.384-0.18-0.55-0.639-0.37-1.023c0.181-0.384,0.64-0.551,1.024-0.371l1.116,0.523l1.045-2.231
			l-1.115-0.523c-0.385-0.181-0.551-0.64-0.37-1.024c0.181-0.385,0.639-0.551,1.024-0.371l1.114,0.522l1.047-2.23l-1.116-0.523
			c-0.385-0.181-0.55-0.64-0.369-1.025c0.18-0.385,0.639-0.551,1.023-0.371l1.115,0.523l1.046-2.231l-1.115-0.523
			c-0.385-0.18-0.55-0.639-0.37-1.025c0.181-0.383,0.64-0.549,1.024-0.369l1.115,0.523l0.707-1.507
			c0.337-0.718,1.193-1.028,1.911-0.691l1.508,0.707l0.523-1.116c0.18-0.384,0.639-0.551,1.022-0.371
			c0.385,0.18,0.553,0.64,0.372,1.025l-0.523,1.116l2.23,1.046l0.523-1.116c0.181-0.384,0.64-0.551,1.024-0.371
			c0.384,0.181,0.55,0.64,0.37,1.024l-0.523,1.116l2.232,1.046l0.522-1.116c0.181-0.385,0.64-0.551,1.024-0.37
			c0.384,0.18,0.551,0.64,0.37,1.024l-0.523,1.116l2.231,1.045l0.523-1.116c0.18-0.385,0.641-0.55,1.024-0.37
			s0.55,0.639,0.369,1.024l-0.522,1.116l1.508,0.706c0.718,0.337,1.027,1.194,0.691,1.912l-0.707,1.507l1.116,0.523
			c0.384,0.181,0.55,0.64,0.37,1.023c-0.181,0.386-0.64,0.552-1.023,0.372l-1.116-0.523l-1.046,2.231l1.116,0.523
			c0.384,0.18,0.549,0.64,0.369,1.023c-0.181,0.385-0.64,0.552-1.024,0.372l-1.115-0.523l-1.046,2.231l1.116,0.523
			c0.384,0.18,0.55,0.639,0.369,1.024c-0.18,0.384-0.639,0.551-1.023,0.37l-1.116-0.523l-1.046,2.231l1.116,0.523
			c0.384,0.18,0.55,0.64,0.369,1.024c-0.179,0.384-0.638,0.55-1.022,0.371l-1.116-0.523l-0.707,1.506
			c-0.336,0.718-1.193,1.029-1.911,0.692l-1.508-0.706l-0.506,1.077C170.774,40.334,170.315,40.5,169.932,40.32z M173.529,38.14
			l7.079-15.101l-15.102-7.079l-7.079,15.101L173.529,38.14z"/>
		<path fill="#2D5972" d="M180.254,30.325c0.204,0.097,0.449,0.008,0.546-0.198c0.096-0.205,0.006-0.449-0.197-0.544l-1.442-0.676
			l1.353-2.883l1.441,0.676c0.204,0.095,0.449,0.007,0.546-0.198c0.096-0.205,0.006-0.449-0.198-0.545l-1.441-0.676l0.86-1.833
			c0.252-0.538,0.019-1.181-0.52-1.433l-1.833-0.859l0.676-1.442c0.097-0.205,0.008-0.449-0.196-0.545
			c-0.205-0.096-0.45-0.008-0.546,0.197l-0.676,1.442l-2.883-1.351l0.676-1.443c0.097-0.205,0.007-0.449-0.198-0.545
			c-0.204-0.096-0.449-0.008-0.545,0.197l-0.677,1.442l-2.884-1.352l0.677-1.442c0.096-0.205,0.008-0.449-0.196-0.545
			c-0.205-0.096-0.45-0.008-0.547,0.197l-0.676,1.442l-2.883-1.352l0.677-1.442c0.096-0.205,0.007-0.45-0.199-0.546
			c-0.204-0.096-0.448-0.007-0.544,0.198l-0.677,1.442l-1.832-0.859c-0.538-0.252-1.182-0.02-1.434,0.518l-0.859,1.833l-1.441-0.675
			c-0.205-0.096-0.449-0.008-0.545,0.196c-0.096,0.205-0.007,0.451,0.196,0.546l1.442,0.676l-1.353,2.884l-1.441-0.676
			c-0.204-0.095-0.449-0.008-0.545,0.197c-0.097,0.205-0.007,0.45,0.197,0.546l1.441,0.675l-1.352,2.883l-1.441-0.676
			c-0.204-0.096-0.449-0.006-0.546,0.197c-0.096,0.205-0.007,0.45,0.197,0.546l1.441,0.676l-1.352,2.883l-1.441-0.676
			c-0.204-0.096-0.449-0.007-0.545,0.197c-0.096,0.204-0.007,0.449,0.197,0.545l1.441,0.676l-0.859,1.833
			c-0.252,0.539-0.019,1.182,0.519,1.434l1.832,0.859l-0.657,1.404c-0.096,0.205-0.008,0.45,0.196,0.545
			c0.205,0.096,0.451,0.007,0.547-0.197l0.657-1.403l2.883,1.351l-0.657,1.404c-0.096,0.204-0.008,0.449,0.197,0.546
			c0.204,0.096,0.449,0.007,0.545-0.198l0.657-1.404l2.884,1.352l-0.657,1.403c-0.097,0.205-0.008,0.45,0.196,0.545
			c0.205,0.096,0.451,0.008,0.547-0.196l0.658-1.404l2.882,1.351l-0.658,1.404c-0.096,0.204-0.007,0.45,0.199,0.546
			c0.203,0.095,0.448,0.006,0.544-0.198l0.658-1.404l1.833,0.859c0.538,0.252,1.182,0.02,1.435-0.519l0.858-1.833l1.441,0.676
			c0.204,0.096,0.45,0.007,0.546-0.197c0.096-0.205,0.007-0.45-0.198-0.545l-1.44-0.676l1.352-2.883l1.44,0.676
			c0.205,0.096,0.45,0.007,0.546-0.197s0.008-0.449-0.197-0.545l-1.44-0.675l1.352-2.883L180.254,30.325z M173.701,38.618
			l-15.751-7.384l7.385-15.752l15.751,7.384L173.701,38.618z"/>
	</g>
	<g id="server_2_">
		<circle fill="#2D5972" cx="93.269" cy="67.84" r="1.175"/>
		<circle fill="#2D5972" cx="93.27" cy="67.841" r="0.686"/>
		<path fill="#2D5972" d="M77.639,76.225c-0.228,0.1-0.479,0.105-0.706,0.018c-0.229-0.091-0.41-0.265-0.509-0.491
			c-0.099-0.227-0.103-0.479-0.012-0.709l0.516-1.318c0.091-0.23,0.265-0.41,0.491-0.508c0.225-0.099,0.476-0.104,0.704-0.015
			c0.23,0.089,0.412,0.264,0.511,0.49c0.099,0.226,0.104,0.477,0.014,0.707l-0.517,1.319C78.043,75.941,77.865,76.125,77.639,76.225
			z"/>
		<path fill="#2D5972" d="M77.676,75.54l0.517-1.32c0.088-0.223-0.023-0.477-0.247-0.563c-0.108-0.042-0.226-0.039-0.333,0.007
			c-0.107,0.046-0.188,0.132-0.232,0.239l-0.516,1.321c-0.044,0.108-0.041,0.227,0.005,0.333c0.047,0.107,0.132,0.189,0.24,0.231
			C77.33,75.873,77.592,75.756,77.676,75.54z"/>
		<path fill="#2D5972" d="M80.776,74.853c-0.229,0.1-0.479,0.106-0.706,0.017c-0.228-0.088-0.41-0.263-0.509-0.489
			c-0.1-0.228-0.104-0.479-0.012-0.708l0.516-1.318c0.09-0.229,0.265-0.41,0.489-0.509c0.226-0.099,0.477-0.104,0.706-0.015
			c0.474,0.187,0.709,0.722,0.525,1.195l-0.517,1.322C81.18,74.57,81,74.755,80.776,74.853z"/>
		<path fill="#2D5972" d="M80.813,74.169l0.517-1.32c0.086-0.223-0.024-0.477-0.247-0.564c-0.108-0.042-0.228-0.039-0.333,0.008
			c-0.106,0.046-0.188,0.131-0.231,0.239l-0.518,1.321c-0.042,0.107-0.04,0.227,0.006,0.333c0.047,0.107,0.131,0.188,0.24,0.23
			C80.466,74.501,80.729,74.385,80.813,74.169z"/>
		<circle fill="#2D5972" cx="95.543" cy="73.042" r="1.174"/>
		<circle fill="#2D5972" cx="95.543" cy="73.041" r="0.686"/>
		<path fill="#2D5972" d="M79.913,81.426c-0.229,0.1-0.48,0.106-0.708,0.015c-0.228-0.089-0.408-0.263-0.507-0.488
			c-0.099-0.226-0.103-0.477-0.013-0.707l0.517-1.319c0.09-0.231,0.265-0.412,0.49-0.51c0.227-0.099,0.477-0.104,0.706-0.014
			c0.23,0.09,0.412,0.265,0.51,0.492c0.098,0.226,0.103,0.477,0.012,0.706l-0.515,1.319C80.317,81.144,80.138,81.327,79.913,81.426
			L79.913,81.426z"/>
		<path fill="#2D5972" d="M79.951,80.742l0.516-1.321c0.087-0.223-0.022-0.476-0.246-0.564c-0.108-0.042-0.227-0.04-0.333,0.007
			c-0.107,0.047-0.188,0.132-0.231,0.24l-0.517,1.32c-0.042,0.109-0.04,0.227,0.006,0.333c0.046,0.106,0.132,0.188,0.24,0.23
			C79.604,81.074,79.865,80.957,79.951,80.742z"/>
		<path fill="#2D5972" d="M83.048,80.055c-0.228,0.099-0.479,0.105-0.707,0.015c-0.227-0.087-0.408-0.261-0.507-0.488
			c-0.099-0.226-0.103-0.477-0.013-0.707l0.517-1.32c0.089-0.229,0.263-0.41,0.49-0.509c0.228-0.1,0.479-0.104,0.708-0.013
			c0.471,0.185,0.707,0.722,0.521,1.195l-0.517,1.321C83.453,79.772,83.274,79.956,83.048,80.055
			C83.048,80.055,83.048,80.055,83.048,80.055z"/>
		<path fill="#2D5972" d="M83.086,79.37l0.517-1.32c0.087-0.222-0.023-0.476-0.247-0.563c-0.106-0.043-0.227-0.041-0.333,0.006
			c-0.106,0.046-0.189,0.131-0.23,0.239l-0.517,1.321c-0.043,0.109-0.041,0.226,0.006,0.332c0.045,0.106,0.131,0.189,0.24,0.23
			C82.74,79.703,83.001,79.586,83.086,79.37z"/>
		<circle fill="#2D5972" cx="91.033" cy="62.542" r="1.174"/>
		<circle fill="#2D5972" cx="91.033" cy="62.542" r="0.686"/>
		<path fill="#2D5972" d="M75.403,70.926c-0.225,0.099-0.481,0.105-0.704,0.02c-0.476-0.188-0.71-0.725-0.524-1.199l0.517-1.319
			c0.091-0.23,0.265-0.41,0.49-0.509c0.228-0.099,0.479-0.104,0.708-0.012c0.228,0.089,0.409,0.262,0.508,0.487
			c0.098,0.224,0.103,0.475,0.013,0.706l-0.518,1.322C75.808,70.644,75.628,70.828,75.403,70.926z"/>
		<path fill="#2D5972" d="M75.441,70.244l0.516-1.321c0.042-0.108,0.041-0.227-0.006-0.334c-0.046-0.105-0.133-0.187-0.239-0.229
			c-0.11-0.043-0.228-0.041-0.334,0.006c-0.106,0.047-0.188,0.132-0.231,0.24l-0.517,1.32c-0.088,0.222,0.024,0.477,0.247,0.564
			C75.093,70.574,75.355,70.458,75.441,70.244z"/>
		<path fill="#2D5972" d="M78.539,69.555c-0.225,0.098-0.481,0.105-0.704,0.018c-0.229-0.089-0.412-0.265-0.51-0.491
			c-0.099-0.226-0.104-0.477-0.013-0.706l0.518-1.32c0.089-0.229,0.264-0.41,0.489-0.508c0.227-0.099,0.479-0.104,0.708-0.013
			c0.227,0.087,0.408,0.262,0.507,0.488c0.099,0.225,0.104,0.476,0.015,0.705l-0.518,1.322
			C78.942,69.276,78.767,69.456,78.539,69.555L78.539,69.555z"/>
		<path fill="#2D5972" d="M78.577,68.872l0.517-1.32c0.042-0.108,0.04-0.226-0.007-0.333c-0.046-0.106-0.131-0.188-0.238-0.229
			c-0.11-0.043-0.227-0.042-0.334,0.005c-0.106,0.047-0.189,0.131-0.231,0.24l-0.517,1.321c-0.088,0.223,0.023,0.477,0.247,0.564
			C78.228,69.203,78.491,69.089,78.577,68.872z"/>
		<path fill="#2D5972" d="M78.939,84.323c-0.824,0.361-1.788-0.018-2.149-0.843l-6.251-14.298c-0.163-0.372-0.177-0.794-0.041-1.189
			l1.436-3.972c0.077-0.234,0.262-0.439,0.503-0.545l15.941-6.97c0.242-0.105,0.513-0.102,0.761,0.01l3.865,1.633
			c0.386,0.166,0.686,0.464,0.851,0.84l6.268,14.338c0.307,0.881-0.083,1.772-0.858,2.111L78.939,84.323z M98.328,73.829
			l-1.531-3.502l-19.934,8.715l1.533,3.501L98.328,73.829z M96.058,68.635l-1.537-3.515l-19.933,8.715l1.536,3.513L96.058,68.635z
			 M93.781,63.429l-1.532-3.504L72.315,68.64l1.533,3.503L93.781,63.429z M73.073,66.292l16.942-7.408l-1.259-0.527L73.54,65.01
			L73.073,66.292z"/>
		<path fill="#2D5972" d="M92.814,58.598l-3.876-1.637c-0.121-0.055-0.251-0.057-0.364-0.007l-15.941,6.969
			c-0.113,0.05-0.201,0.146-0.239,0.264l-1.434,3.966c-0.097,0.278-0.089,0.569,0.026,0.833l6.251,14.298
			c0.253,0.579,0.928,0.844,1.506,0.592l20.326-8.886c0.543-0.238,0.817-0.862,0.623-1.422l-0.017-0.046l-6.269-14.338
			C93.291,58.917,93.08,58.712,92.814,58.598z M72.225,67.194l0.927-2.548l15.6-6.82l2.502,1.049l-19.031,8.321L72.225,67.194z
			 M98.971,74.081l-20.827,9.106l-1.923-4.396l20.828-9.106L98.971,74.081z M96.699,68.885l-20.828,9.106l-1.927-4.408l20.828-9.106
			L96.699,68.885z M94.424,63.68l-20.827,9.105l-1.924-4.397l20.828-9.106L94.424,63.68z"/>
	</g>
</g>
</svg>
