<?xml version="1.0" encoding="utf-8"?>
<!-- Generator: Adobe Illustrator 16.0.0, SVG Export Plug-In . SVG Version: 6.00 Build 0)  -->
<!DOCTYPE svg PUBLIC "-//W3C//DTD SVG 1.1//EN" "http://www.w3.org/Graphics/SVG/1.1/DTD/svg11.dtd">
<svg version="1.1" id="Layer_1" xmlns="http://www.w3.org/2000/svg" xmlns:xlink="http://www.w3.org/1999/xlink" x="0px" y="0px"
	 width="190px" height="190px" viewBox="0 0 190 190" enable-background="new 0 0 190 190" xml:space="preserve">
<g opacity="0.5">
	<g>
		<rect x="39.521" y="48.596" fill="#FFFFFF" width="107.208" height="109.383"/>
		<rect x="39.521" y="39.829" fill="#D1D2D1" width="107.208" height="8.767"/>
	</g>
	<g>
		<path fill="#242E39" d="M56.79,59.409h-4.546c-0.47,0-0.85-0.38-0.85-0.85s0.38-0.85,0.85-0.85h4.546c0.47,0,0.85,0.38,0.85,0.85
			S57.26,59.409,56.79,59.409z"/>
		<path fill="#242E39" d="M55.79,77.19h-3.546c-0.47,0-0.85-0.38-0.85-0.85s0.38-0.85,0.85-0.85h3.546c0.47,0,0.85,0.38,0.85,0.85
			S56.26,77.19,55.79,77.19z"/>
		<path fill="#242E39" d="M79.355,59.409H58.962c-0.47,0-0.85-0.38-0.85-0.85s0.38-0.85,0.85-0.85h20.394
			c0.47,0,0.85,0.38,0.85,0.85S79.825,59.409,79.355,59.409z"/>
		<path fill="#242E39" d="M74.348,77.19H59.962c-0.47,0-0.85-0.38-0.85-0.85s0.38-0.85,0.85-0.85h14.386c0.47,0,0.85,0.38,0.85,0.85
			S74.817,77.19,74.348,77.19z"/>
		<path fill="#242E39" d="M63.998,66.163H56.79c-0.47,0-0.85-0.38-0.85-0.85s0.38-0.85,0.85-0.85h7.208c0.47,0,0.85,0.38,0.85,0.85
			S64.468,66.163,63.998,66.163z"/>
		<path fill="#242E39" d="M63.998,97.469H56.79c-0.47,0-0.85-0.379-0.85-0.85c0-0.469,0.38-0.85,0.85-0.85h7.208
			c0.47,0,0.85,0.381,0.85,0.85C64.848,97.09,64.468,97.469,63.998,97.469z"/>
		<path fill="#242E39" d="M81.583,97.469H65.709c-0.47,0-0.85-0.379-0.85-0.85c0-0.469,0.38-0.85,0.85-0.85h15.874
			c0.47,0,0.85,0.381,0.85,0.85C82.433,97.09,82.053,97.469,81.583,97.469z"/>
		<path fill="#242E39" d="M66.813,112.01h-5.945c-0.47,0-0.85-0.381-0.85-0.85c0-0.471,0.38-0.85,0.85-0.85h5.945
			c0.47,0,0.85,0.379,0.85,0.85C67.663,111.629,67.283,112.01,66.813,112.01z"/>
		<path fill="#242E39" d="M78.442,139.038h-8.453c-0.47,0-0.85-0.379-0.85-0.85c0-0.469,0.38-0.85,0.85-0.85h8.453
			c0.47,0,0.85,0.381,0.85,0.85C79.292,138.659,78.912,139.038,78.442,139.038z"/>
		<path fill="#242E39" d="M109.956,125.526h-7.736c-0.469,0-0.85-0.381-0.85-0.85c0-0.471,0.381-0.85,0.85-0.85h7.736
			c0.471,0,0.85,0.379,0.85,0.85C110.805,125.145,110.426,125.526,109.956,125.526z"/>
		<path fill="#242E39" d="M100.292,97.469H89.719c-0.471,0-0.85-0.379-0.85-0.85c0-0.469,0.379-0.85,0.85-0.85h10.572
			c0.471,0,0.85,0.381,0.85,0.85C101.141,97.09,100.762,97.469,100.292,97.469z"/>
		<path fill="#242E39" d="M111.362,97.469h-8.309c-0.469,0-0.85-0.379-0.85-0.85c0-0.469,0.381-0.85,0.85-0.85h8.309
			c0.469,0,0.85,0.381,0.85,0.85C112.211,97.09,111.831,97.469,111.362,97.469z"/>
		<path fill="#242E39" d="M67.561,83.956H56.79c-0.47,0-0.85-0.38-0.85-0.85s0.38-0.85,0.85-0.85h10.771c0.47,0,0.85,0.38,0.85,0.85
			S68.03,83.956,67.561,83.956z"/>
		<path fill="#242E39" d="M72.063,90.714H56.79c-0.47,0-0.85-0.38-0.85-0.85s0.38-0.85,0.85-0.85h15.273c0.47,0,0.85,0.38,0.85,0.85
			S72.533,90.714,72.063,90.714z"/>
		<path fill="#242E39" d="M78.375,118.766H60.868c-0.47,0-0.85-0.379-0.85-0.85c0-0.469,0.38-0.85,0.85-0.85h17.507
			c0.47,0,0.85,0.381,0.85,0.85C79.225,118.387,78.845,118.766,78.375,118.766z"/>
		<path fill="#242E39" d="M76.955,125.526H60.868c-0.47,0-0.85-0.381-0.85-0.85c0-0.471,0.38-0.85,0.85-0.85h16.087
			c0.47,0,0.85,0.379,0.85,0.85C77.805,125.145,77.425,125.526,76.955,125.526z"/>
		<path fill="#242E39" d="M98.844,125.526H82.163c-0.47,0-0.85-0.381-0.85-0.85c0-0.471,0.38-0.85,0.85-0.85h16.681
			c0.469,0,0.85,0.379,0.85,0.85C99.694,125.145,99.313,125.526,98.844,125.526z"/>
		<path fill="#242E39" d="M98.844,139.038H82.163c-0.47,0-0.85-0.379-0.85-0.85c0-0.469,0.38-0.85,0.85-0.85h16.681
			c0.469,0,0.85,0.381,0.85,0.85C99.694,138.659,99.313,139.038,98.844,139.038z"/>
		<path fill="#242E39" d="M58.432,112.01h-6.188c-0.47,0-0.85-0.381-0.85-0.85c0-0.471,0.38-0.85,0.85-0.85h6.188
			c0.47,0,0.85,0.379,0.85,0.85C59.281,111.629,58.901,112.01,58.432,112.01z"/>
		<path fill="#242E39" d="M67.985,139.038h-7.117c-0.47,0-0.85-0.379-0.85-0.85c0-0.469,0.38-0.85,0.85-0.85h7.117
			c0.47,0,0.85,0.381,0.85,0.85C68.835,138.659,68.455,139.038,67.985,139.038z"/>
		<path fill="#242E39" d="M73.432,132.278h-8.923c-0.47,0-0.85-0.381-0.85-0.85c0-0.471,0.38-0.85,0.85-0.85h8.923
			c0.47,0,0.85,0.379,0.85,0.85C74.281,131.897,73.901,132.278,73.432,132.278z"/>
		<path fill="#242E39" d="M105.334,132.278H79.019c-0.47,0-0.85-0.381-0.85-0.85c0-0.471,0.38-0.85,0.85-0.85h26.316
			c0.471,0,0.85,0.379,0.85,0.85C106.184,131.897,105.805,132.278,105.334,132.278z"/>
		<path fill="#242E39" d="M88.973,90.714H76.696c-0.47,0-0.85-0.38-0.85-0.85s0.38-0.85,0.85-0.85h12.277
			c0.469,0,0.85,0.38,0.85,0.85S89.442,90.714,88.973,90.714z"/>
		<path fill="#242E39" d="M114.004,90.714h-8.922c-0.471,0-0.85-0.38-0.85-0.85s0.379-0.85,0.85-0.85h8.922
			c0.469,0,0.85,0.38,0.85,0.85S114.473,90.714,114.004,90.714z"/>
		<path fill="#242E39" d="M99.569,90.714h-7.543c-0.471,0-0.85-0.38-0.85-0.85s0.379-0.85,0.85-0.85h7.543
			c0.471,0,0.85,0.38,0.85,0.85S100.04,90.714,99.569,90.714z"/>
		<path fill="#242E39" d="M87.625,83.956H71.083c-0.47,0-0.85-0.38-0.85-0.85s0.38-0.85,0.85-0.85h16.542
			c0.469,0,0.85,0.38,0.85,0.85S88.094,83.956,87.625,83.956z"/>
		<path fill="#242E39" d="M75.148,66.163h-6.64c-0.47,0-0.85-0.38-0.85-0.85s0.38-0.85,0.85-0.85h6.64c0.47,0,0.85,0.38,0.85,0.85
			S75.618,66.163,75.148,66.163z"/>
	</g>
	<g>
		<path fill="#242E39" d="M146.729,159.678H39.521c-0.47,0-0.85-0.379-0.85-0.85V47.917c0-0.47,0.38-0.85,0.85-0.85h107.208
			c0.469,0,0.85,0.38,0.85,0.85v110.912C147.579,159.299,147.198,159.678,146.729,159.678z M40.371,157.979h105.508V48.767H40.371
			V157.979z"/>
		<path fill="#242E39" d="M146.729,48.767H39.521c-0.47,0-0.85-0.38-0.85-0.85v-8.088c0-0.47,0.38-0.85,0.85-0.85h107.208
			c0.469,0,0.85,0.38,0.85,0.85v8.088C147.579,48.387,147.198,48.767,146.729,48.767z M40.371,47.067h105.508v-6.389H40.371V47.067z
			"/>
	</g>
	<g>
		<g>
			<path fill="#FFFFFF" d="M92.76,63.198c-8.783,0-15.91,7.112-15.91,15.888v9.455h5.091v-9.455c0-5.952,4.851-10.797,10.818-10.797
				c5.959,0,10.808,4.845,10.808,10.797v3.455h5.095v-3.455C108.663,70.31,101.543,63.198,92.76,63.198z"/>
			<rect x="70.965" y="88.542" fill="#BAAFAE" width="43.579" height="32.37"/>
			<rect x="70.965" y="120.912" fill="#FECA5D" width="43.579" height="7.255"/>
			<rect x="74.927" y="100.104" fill="#FFFFFF" width="35.655" height="9.245"/>
			<g>
				<g>
					<g>
						<circle fill="#242E39" cx="80.703" cy="104.726" r="1.625"/>
					</g>
					<g>
						<path fill="#242E39" d="M86.73,106.351c-0.897,0-1.627-0.728-1.627-1.625c0-0.896,0.729-1.625,1.627-1.625
							c0.896,0,1.624,0.729,1.624,1.625C88.354,105.624,87.625,106.351,86.73,106.351z"/>
					</g>
					<g>
						<circle fill="#242E39" cx="92.752" cy="104.726" r="1.625"/>
					</g>
					<g>
						<path fill="#242E39" d="M98.777,106.351c-0.894,0-1.619-0.728-1.619-1.625c0-0.896,0.726-1.625,1.619-1.625
							c0.896,0,1.627,0.729,1.627,1.625C100.404,105.624,99.672,106.351,98.777,106.351z"/>
					</g>
					<g>
						<circle fill="#242E39" cx="104.803" cy="104.726" r="1.625"/>
					</g>
				</g>
			</g>
		</g>
		<g>
			<path fill="#242E39" d="M108.663,82.934h-5.095c-0.427,0-0.774-0.348-0.774-0.775v-3.072c0-5.526-4.5-10.021-10.033-10.021
				c-5.538,0-10.043,4.496-10.043,10.021v9.455c0,0.428-0.347,0.775-0.775,0.775h-5.091c-0.428,0-0.775-0.347-0.775-0.775v-9.455
				c0-9.188,7.484-16.664,16.685-16.664c9.196,0,16.678,7.476,16.678,16.664v3.072C109.438,82.586,109.091,82.934,108.663,82.934z
				 M104.343,81.383h3.544v-2.296c0-8.333-6.785-15.113-15.127-15.113c-8.345,0-15.134,6.78-15.134,15.113v8.68h3.541v-8.68
				c0-6.381,5.201-11.572,11.594-11.572c6.388,0,11.583,5.191,11.583,11.572V81.383z"/>
			<path fill="#242E39" d="M114.544,121.686H70.965c-0.428,0-0.775-0.348-0.775-0.774v-32.37c0-0.428,0.347-0.775,0.775-0.775
				h43.579c0.428,0,0.774,0.348,0.774,0.775v32.37C115.319,121.338,114.972,121.686,114.544,121.686z M71.741,120.137h42.029V89.316
				H71.741V120.137z"/>
			<path fill="#242E39" d="M114.544,128.942H70.965c-0.428,0-0.775-0.348-0.775-0.775v-7.255c0-0.428,0.347-0.774,0.775-0.774
				h43.579c0.428,0,0.774,0.347,0.774,0.774v7.255C115.319,128.594,114.972,128.942,114.544,128.942z M71.741,127.393h42.029v-5.707
				H71.741V127.393z"/>
			<path fill="#242E39" d="M110.583,110.124H74.927c-0.428,0-0.775-0.347-0.775-0.774v-9.245c0-0.428,0.348-0.775,0.775-0.775
				h35.655c0.429,0,0.775,0.348,0.775,0.775v9.245C111.358,109.777,111.011,110.124,110.583,110.124z M75.703,108.574h34.104v-7.695
				H75.703V108.574z"/>
		</g>
	</g>
</g>
</svg>
