<?xml version="1.0" encoding="utf-8"?>
<!-- Generator: Adobe Illustrator 16.0.0, SVG Export Plug-In . SVG Version: 6.00 Build 0)  -->
<!DOCTYPE svg PUBLIC "-//W3C//DTD SVG 1.1//EN" "http://www.w3.org/Graphics/SVG/1.1/DTD/svg11.dtd">
<svg version="1.1" id="Layer_1" xmlns="http://www.w3.org/2000/svg" xmlns:xlink="http://www.w3.org/1999/xlink" x="0px" y="0px"
	 width="512px" height="512px" viewBox="0 0 512 512" enable-background="new 0 0 512 512" xml:space="preserve">
<g id="shield_check_2_">
	<path d="M496.512,92.324c-0.016-5.125-4.188-9.312-9.297-9.344c-42.296-1.594-148.466-12.594-224.871-80.499l-1.531-0.859
		l0.047-0.266c-3.078-1.906-7.328-1.828-10.375,0.422l-1.344,1.109C172.563,70.464,66.925,81.417,24.957,82.98
		c-5.312,0.031-9.484,4.219-9.5,9.344l-0.062,2.594c7.046,191.513,125.982,340.089,235.324,415.462c3.156,2.156,7.375,2.156,10.5,0
		l1.484-1c109.123-75.811,227.215-224.277,233.902-415.369L496.512,92.324z M477.746,106.511
		c-2.344,36.405-9.171,72.999-20.28,108.779c-11.922,38.375-28.765,75.921-50.046,111.593
		c-20.266,33.937-44.328,65.889-71.53,94.951c-23.719,25.328-49.468,48.077-76.546,67.608l-3.359,2.422l-3.359-2.422
		c-27.078-19.531-52.827-42.28-76.546-67.608c-27.202-29.062-51.265-61.015-71.53-94.951
		c-21.28-35.672-38.124-73.219-50.046-111.593c-11.094-35.718-17.921-72.312-20.281-108.779l-0.375-5.688l5.703-0.406
		c36.609-2.469,73.53-9.5,106.78-20.344c40.905-13.281,76.577-32.155,106.045-56.03l3.609-2.906l3.609,2.906
		c29.453,23.875,65.124,42.733,106.045,56.03c33.25,10.844,70.172,17.875,106.779,20.344l5.703,0.406L477.746,106.511z"/>
	<path d="M335.796,194.432L237,293.228l-45.827-45.828c-3.453-3.453-9.453-3.437-12.891,0.016
		c-3.547,3.531-3.531,9.312,0.016,12.875l48.234,48.219l4.062,4.016c3.453,3.422,9.437,3.391,12.89,0l105.201-105.203
		c1.703-1.719,2.672-4,2.672-6.438c0-2.422-0.953-4.719-2.672-6.453C345.232,190.979,339.249,191.01,335.796,194.432z"/>
</g>
</svg>
