<?xml version="1.0" encoding="utf-8"?>
<!-- Generator: Adobe Illustrator 16.0.0, SVG Export Plug-In . SVG Version: 6.00 Build 0)  -->
<!DOCTYPE svg PUBLIC "-//W3C//DTD SVG 1.1//EN" "http://www.w3.org/Graphics/SVG/1.1/DTD/svg11.dtd">
<svg version="1.1" id="Layer_1" xmlns="http://www.w3.org/2000/svg" xmlns:xlink="http://www.w3.org/1999/xlink" x="0px" y="0px"
	 width="24.423px" height="24.422px" viewBox="0 0 24.423 24.422" enable-background="new 0 0 24.423 24.422" xml:space="preserve">
<g>
	<path fill="#A5A5A5" d="M12.211,0C5.479,0,0,5.478,0,12.211s5.479,12.211,12.211,12.211c6.733,0,12.212-5.479,12.212-12.211
		S18.944,0,12.211,0L12.211,0z M12.211,22.454c-5.647,0-10.244-4.595-10.244-10.243c0-5.649,4.597-10.243,10.244-10.243
		c5.647,0,10.243,4.596,10.243,10.243C22.454,17.859,17.858,22.454,12.211,22.454L12.211,22.454z"/>
	<path fill="#A5A5A5" d="M16.103,8.317l-5.699,5.701l-2.086-2.086c-0.384-0.384-1.007-0.384-1.39,0
		c-0.385,0.385-0.385,1.007,0,1.391l2.78,2.783c0.194,0.189,0.443,0.287,0.695,0.287c0.251,0,0.504-0.098,0.697-0.287l6.394-6.397
		c0.386-0.385,0.386-1.006,0-1.392C17.11,7.934,16.487,7.934,16.103,8.317L16.103,8.317z"/>
</g>
<g>
</g>
<g>
</g>
<g>
</g>
<g>
</g>
<g>
</g>
<g>
</g>
<g>
</g>
<g>
</g>
<g>
</g>
<g>
</g>
<g>
</g>
<g>
</g>
<g>
</g>
<g>
</g>
<g>
</g>
</svg>
