<?xml version="1.0" encoding="UTF-8" standalone="no"?>
<svg width="20px" height="20px" viewBox="0 0 20 20" version="1.1" xmlns="http://www.w3.org/2000/svg" xmlns:xlink="http://www.w3.org/1999/xlink" xmlns:sketch="http://www.bohemiancoding.com/sketch/ns">
    <!-- Generator: Sketch 3.1 (8751) - http://www.bohemiancoding.com/sketch -->
    <title></title>
    <desc>Created with Sketch.</desc>
    <defs></defs>
    <g id="Page-1" stroke="none" stroke-width="1" fill="none" fill-rule="evenodd" sketch:type="MSPage">
        <path d="M0.903571429,15.6169643 L0.903571429,4.34017857 C0.903571429,3.40827287 1.23443215,2.61146629 1.8961635,1.94973493 C2.55789486,1.28800357 3.35470144,0.957142857 4.28660714,0.957142857 L15.5633929,0.957142857 C16.4952986,0.957142857 17.2921051,1.28800357 17.9538365,1.94973493 C18.6155679,2.61146629 18.9464286,3.40827287 18.9464286,4.34017857 L18.9464286,15.6169643 C18.9464286,16.54887 18.6155679,17.3456766 17.9538365,18.0074079 C17.2921051,18.6691393 16.4952986,19 15.5633929,19 L4.28660714,19 C3.35470144,19 2.55789486,18.6691393 1.8961635,18.0074079 C1.23443215,17.3456766 0.903571429,16.54887 0.903571429,15.6169643 L0.903571429,15.6169643 Z M7.69313616,15.2410714 C8.57022388,15.2410714 9.39248128,15.1020708 10.159933,14.8240653 C10.9273848,14.5460598 11.5851907,14.1740862 12.1333705,13.7081334 C12.6815504,13.2421805 13.1533695,12.7057555 13.5488421,12.0988421 C13.9443147,11.4919287 14.237978,10.8576158 14.429841,10.1958845 C14.6217039,9.53415313 14.7176339,8.87438945 14.7176339,8.21657366 C14.7176339,8.07561313 14.7137184,7.96989433 14.7058873,7.89941406 C15.1992491,7.54701275 15.6103778,7.120222 15.9392857,6.61902902 C16.1747146,6.26028031 15.414601,6.24705473 15.6103795,5.64405692 C15.7703345,5.15139529 14.5766768,6.14133134 14.0363281,6.24313616 C13.5586286,5.7262809 12.9595553,5.46785714 12.2390904,5.46785714 C11.5577812,5.46785714 10.9763277,5.7086611 10.4947126,6.19027623 C10.0130975,6.67189136 9.77229353,7.25334481 9.77229353,7.93465402 C9.77229353,8.16175709 9.79187108,8.34970164 9.83102679,8.4984933 C8.82080968,8.44367532 7.87325591,8.18916708 6.98833705,7.73496094 C6.10341819,7.2807548 5.35164,6.67385052 4.73297991,5.91422991 C4.43884954,5.5530825 4.39232701,6.72083114 4.39232701,7.159375 C4.39232701,8.052125 4.74863855,8.7373395 5.46127232,9.21503906 C5.09320873,9.20720792 4.28660714,8.42760763 4.28660714,8.90962612 C4.28660714,9.21503904 4.48238271,10.0431757 4.87393973,10.5012974 C5.26549675,10.9594191 5.74710466,11.2432937 6.3187779,11.3529297 C6.09167483,11.4155788 5.89198375,11.4469029 5.71969866,11.4469029 C5.61789384,11.4469029 5.46518889,11.4312409 5.26157924,11.3999163 C5.42603319,11.8932781 5.71773879,12.3004913 6.1367048,12.6215681 C6.55567081,12.9426448 7.03140545,13.1070963 7.56392299,13.1149275 C6.65551071,13.8197301 5.63356223,14.1721261 4.49804688,14.1721261 C4.29443723,14.1721261 6.33051774,15.2410714 7.69313616,15.2410714 Z" id="" stroke="#666666" sketch:type="MSShapeGroup"></path>
    </g>
</svg>