<?xml version="1.0" encoding="UTF-8" standalone="no"?>
<svg width="65px" height="64px" viewBox="0 0 65 64" version="1.1" xmlns="http://www.w3.org/2000/svg" xmlns:xlink="http://www.w3.org/1999/xlink" xmlns:sketch="http://www.bohemiancoding.com/sketch/ns">
    <!-- Generator: Sketch 3.1 (8751) - http://www.bohemiancoding.com/sketch -->
    <title></title>
    <desc>Created with Sketch.</desc>
    <defs></defs>
    <g id="Page-1" stroke="none" stroke-width="1" fill="none" fill-rule="evenodd" sketch:type="MSPage">
        <path d="M0.935348732,51.7957711 L0.935348732,11.9528702 C0.935348732,8.66028073 2.10433882,5.84502058 4.44235406,3.50700533 C6.78036931,1.16899009 9.59562946,0 12.888219,0 L52.7311198,0 C56.0237093,0 58.8389695,1.16899009 61.1769847,3.50700533 C63.5149999,5.84502058 64.68399,8.66028073 64.68399,11.9528702 L64.68399,51.7957711 C64.68399,55.0883606 63.5149999,57.9036207 61.1769847,60.241636 C58.8389695,62.5796512 56.0237093,63.7486413 52.7311198,63.7486413 L12.888219,63.7486413 C9.59562946,63.7486413 6.78036931,62.5796512 4.44235406,60.241636 C2.10433882,57.9036207 0.935348732,55.0883606 0.935348732,51.7957711 L0.935348732,51.7957711 Z M11.5601223,46.5663903 C15.6551076,49.1672594 20.1097207,50.4676744 24.9240953,50.4676744 C28.023003,50.4676744 30.9281855,49.9765602 33.6397298,48.9943171 C36.3512741,48.012074 38.6754201,46.6978248 40.6122375,45.05153 C42.5490548,43.4052353 44.2160762,41.5099496 45.6133516,39.3656161 C47.010627,37.2212826 48.0481921,34.9801418 48.7260782,32.6421266 C49.4039643,30.3041113 49.7429022,27.9730482 49.7429022,25.6488674 C49.7429022,25.1508286 49.729068,24.7773052 49.7013992,24.5282858 C51.4445348,23.2831889 52.8971261,21.7752609 54.0592165,20.0044565 C52.5097626,20.6961769 50.8358241,21.1665398 49.0373509,21.4155592 C50.9188306,20.3088064 52.2054114,18.6902048 52.8971319,16.5597057 C51.0986586,17.6111208 49.2448755,18.3166651 47.335727,18.6763598 C45.647929,16.8502177 43.531296,15.9371603 40.9857647,15.9371603 C38.5785774,15.9371603 36.5241983,16.7879638 34.8225659,18.4895962 C33.1209335,20.1912286 32.2701301,22.2456076 32.2701301,24.6527949 C32.2701301,25.4551906 32.3393011,26.1192324 32.4776452,26.6449399 C28.9083675,26.4512582 25.5604906,25.552035 22.433914,23.9472435 C19.3073374,22.342452 16.6511705,20.1981506 14.4653338,17.5142752 C13.662938,18.8977161 13.2617462,20.3641416 13.2617462,21.9135954 C13.2617462,25.0678409 14.5206586,27.4888263 17.0385211,29.1766242 C15.7380866,29.1489554 14.3546664,28.7892662 12.888219,28.0975457 L12.888219,28.1805517 C12.888219,30.2557132 13.5799291,32.1025792 14.9633701,33.7212051 C16.346811,35.3398311 18.0484179,36.3428107 20.0682417,36.7301742 C19.265846,36.9515247 18.5603016,37.0621984 17.9515876,37.0621984 C17.591893,37.0621984 17.0523591,37.0068616 16.3329698,36.8961863 C16.914015,38.6393219 17.9446631,40.0780789 19.4249449,41.2125005 C20.9052267,42.3469221 22.5860823,42.9279586 24.467562,42.9556274 C21.257979,45.4458212 17.6472522,46.6908994 13.6352734,46.6908994 C12.9158841,46.6908994 12.2241739,46.6493968 11.5601223,46.5663903 L11.5601223,46.5663903 Z" id="" fill="#666666" sketch:type="MSShapeGroup"></path>
    </g>
</svg>