<?xml version="1.0" encoding="UTF-8" standalone="no"?>
<svg width="32px" height="32px" viewBox="0 0 32 32" version="1.1" xmlns="http://www.w3.org/2000/svg" xmlns:xlink="http://www.w3.org/1999/xlink" xmlns:sketch="http://www.bohemiancoding.com/sketch/ns">
    <!-- Generator: Sketch 3.1 (8751) - http://www.bohemiancoding.com/sketch -->
    <title>Fill 25</title>
    <desc>Created with Sketch.</desc>
    <defs></defs>
    <g id="Page-1" stroke="none" stroke-width="1" fill="none" fill-rule="evenodd" sketch:type="MSPage">
        <g id="Icon-Set" sketch:type="MSLayerGroup" transform="translate(-408.000000, -1089.000000)" fill="#666666">
            <path d="M424,1119 C416.268,1119 410,1112.73 410,1105 C410,1097.27 416.268,1091 424,1091 C431.732,1091 438,1097.27 438,1105 C438,1112.73 431.732,1119 424,1119 L424,1119 Z M424,1089 C415.163,1089 408,1096.16 408,1105 C408,1113.84 415.163,1121 424,1121 C432.837,1121 440,1113.84 440,1105 C440,1096.16 432.837,1089 424,1089 L424,1089 Z M430,1104 L425,1104 L425,1099 C425,1098.45 424.553,1098 424,1098 C423.447,1098 423,1098.45 423,1099 L423,1104 L418,1104 C417.447,1104 417,1104.45 417,1105 C417,1105.55 417.447,1106 418,1106 L423,1106 L423,1111 C423,1111.55 423.447,1112 424,1112 C424.553,1112 425,1111.55 425,1111 L425,1106 L430,1106 C430.553,1106 431,1105.55 431,1105 C431,1104.45 430.553,1104 430,1104 L430,1104 Z" id="Fill-25" sketch:type="MSShapeGroup"></path>
        </g>
    </g>
</svg>